<?xml version="1.0" encoding="iso-8859-1"?>
<!-- Generator: Adobe Illustrator 19.0.0, SVG Export Plug-In . SVG Version: 6.00 Build 0)  -->
<svg version="1.1" id="Capa_1" xmlns="http://www.w3.org/2000/svg" xmlns:xlink="http://www.w3.org/1999/xlink" x="0px" y="0px"
	 viewBox="0 0 511 511" style="enable-background:new 0 0 511 511;" xml:space="preserve">
<g>
	<g>
		<path d="M503.5,0h-294c-1.971,0-3.912,0.804-5.305,2.198l-89.997,89.997C112.804,93.588,112,95.529,112,97.5V136H7.5
			c-4.142,0-7.5,3.358-7.5,7.5V248c0,4.142,3.358,7.5,7.5,7.5s7.5-3.358,7.5-7.5v-97h225v289H15V284c0-4.142-3.358-7.5-7.5-7.5
			S0,279.857,0,284v163.5c0,4.142,3.358,7.5,7.5,7.5H112v48.5c0,4.142,3.358,7.5,7.5,7.5h384c4.142,0,7.5-3.358,7.5-7.5V7.5
			C511,3.358,507.642,0,503.5,0z M202,25.606V90h-64.394L202,25.606z M496,496H127v-41h120.5c4.142,0,7.5-3.358,7.5-7.5v-304
			c0-4.142-3.358-7.5-7.5-7.5H127v-31h82.5c4.142,0,7.5-3.358,7.5-7.5V15h279V496z"/>
		<path d="M393.5,256h-18c-9.098,0-16.5-7.402-16.5-16.5c0-10.752-8.748-19.5-19.5-19.5s-19.5,8.748-19.5,19.5
			c0,28.061,20.93,51.324,48,54.995V307.5c0,10.752,8.748,19.5,19.5,19.5s19.5-8.748,19.5-19.5v-13.998
			c27.792-6.199,48-30.906,48-60.002c0-33.911-27.589-61.5-61.5-61.5h-12c-12.407,0-22.5-10.093-22.5-22.5s10.093-22.5,22.5-22.5h18
			c9.098,0,16.5,7.402,16.5,16.5v12c0,10.752,8.748,19.5,19.5,19.5s19.5-8.748,19.5-19.5v-12c0-28.061-20.93-51.324-48-54.995V75.5
			c0-10.752-8.748-19.5-19.5-19.5S368,64.748,368,75.5v13.998c-27.792,6.199-48,30.906-48,60.002c0,33.911,27.589,61.5,61.5,61.5h12
			c12.407,0,22.5,10.093,22.5,22.5S405.907,256,393.5,256z M393.5,196h-12c-25.64,0-46.5-20.86-46.5-46.5
			c0-23.724,17.767-43.587,41.328-46.205c3.798-0.422,6.672-3.632,6.672-7.454V75.5c0-2.481,2.019-4.5,4.5-4.5s4.5,2.019,4.5,4.5v20
			c0,4.142,3.358,7.5,7.5,7.5c22.332,0,40.5,18.168,40.5,40.5v12c0,2.481-2.019,4.5-4.5,4.5s-4.5-2.019-4.5-4.5v-12
			c0-17.369-14.131-31.5-31.5-31.5h-18c-20.678,0-37.5,16.822-37.5,37.5s16.822,37.5,37.5,37.5h12c25.64,0,46.5,20.86,46.5,46.5
			c0,23.724-17.767,43.587-41.328,46.205c-3.798,0.422-6.672,3.632-6.672,7.454V307.5c0,2.481-2.019,4.5-4.5,4.5s-4.5-2.019-4.5-4.5
			v-20c0-4.142-3.358-7.5-7.5-7.5c-22.332,0-40.5-18.168-40.5-40.5c0-2.481,2.019-4.5,4.5-4.5s4.5,2.019,4.5,4.5
			c0,17.369,14.131,31.5,31.5,31.5h18c20.678,0,37.5-16.822,37.5-37.5S414.178,196,393.5,196z"/>
		<path d="M295.5,375h56c4.142,0,7.5-3.358,7.5-7.5s-3.358-7.5-7.5-7.5h-56c-4.142,0-7.5,3.358-7.5,7.5S291.358,375,295.5,375z"/>
		<path d="M376,367.5c0,4.142,3.358,7.5,7.5,7.5h80c4.142,0,7.5-3.358,7.5-7.5s-3.358-7.5-7.5-7.5h-80
			C379.358,360,376,363.358,376,367.5z"/>
		<path d="M295.5,415h32c4.142,0,7.5-3.358,7.5-7.5s-3.358-7.5-7.5-7.5h-32c-4.142,0-7.5,3.358-7.5,7.5S291.358,415,295.5,415z"/>
		<path d="M463.5,400h-104c-4.142,0-7.5,3.358-7.5,7.5s3.358,7.5,7.5,7.5h104c4.142,0,7.5-3.358,7.5-7.5S467.642,400,463.5,400z"/>
		<path d="M295.5,455h80c4.142,0,7.5-3.358,7.5-7.5s-3.358-7.5-7.5-7.5h-80c-4.142,0-7.5,3.358-7.5,7.5S291.358,455,295.5,455z"/>
		<path d="M463.5,440h-56c-4.142,0-7.5,3.358-7.5,7.5s3.358,7.5,7.5,7.5h56c4.142,0,7.5-3.358,7.5-7.5S467.642,440,463.5,440z"/>
		<path d="M223,175.5c0-4.142-3.358-7.5-7.5-7.5h-176c-4.142,0-7.5,3.358-7.5,7.5v48c0,4.142,3.358,7.5,7.5,7.5h176
			c4.142,0,7.5-3.358,7.5-7.5V175.5z M208,216H47v-33h161V216z"/>
		<path d="M223,255.5c0-4.142-3.358-7.5-7.5-7.5h-64c-4.142,0-7.5,3.358-7.5,7.5v64c0,4.142,3.358,7.5,7.5,7.5h64
			c4.142,0,7.5-3.358,7.5-7.5V255.5z M208,312h-49v-49h49V312z"/>
		<path d="M32,319.5c0,4.142,3.358,7.5,7.5,7.5h64c4.142,0,7.5-3.358,7.5-7.5v-64c0-4.142-3.358-7.5-7.5-7.5h-64
			c-4.142,0-7.5,3.358-7.5,7.5V319.5z M47,263h49v49H47V263z"/>
		<path d="M215.5,344h-64c-4.142,0-7.5,3.358-7.5,7.5v64c0,4.142,3.358,7.5,7.5,7.5h64c4.142,0,7.5-3.358,7.5-7.5v-64
			C223,347.358,219.642,344,215.5,344z M208,408h-49v-49h49V408z"/>
		<path d="M32,415.5c0,4.142,3.358,7.5,7.5,7.5h64c4.142,0,7.5-3.358,7.5-7.5v-64c0-4.142-3.358-7.5-7.5-7.5h-64
			c-4.142,0-7.5,3.358-7.5,7.5V415.5z M47,359h49v49H47V359z"/>
		<path d="M79.5,280H79v-0.5c0-4.142-3.358-7.5-7.5-7.5s-7.5,3.358-7.5,7.5v0.5h-0.5c-4.142,0-7.5,3.358-7.5,7.5s3.358,7.5,7.5,7.5
			H64v0.5c0,4.142,3.358,7.5,7.5,7.5s7.5-3.358,7.5-7.5V295h0.5c4.142,0,7.5-3.358,7.5-7.5S83.642,280,79.5,280z"/>
		<path d="M175.5,295h16c4.142,0,7.5-3.358,7.5-7.5s-3.358-7.5-7.5-7.5h-16c-4.142,0-7.5,3.358-7.5,7.5S171.358,295,175.5,295z"/>
		<path d="M84.803,370.197c-2.929-2.929-7.678-2.929-10.606,0l-2.697,2.697l-2.697-2.697c-2.929-2.929-7.678-2.929-10.606,0
			c-2.929,2.929-2.929,7.678,0,10.606l2.697,2.697l-2.697,2.697c-2.929,2.929-2.929,7.678,0,10.606
			C59.661,398.268,61.581,399,63.5,399s3.839-0.732,5.303-2.197l2.697-2.697l2.697,2.697C75.661,398.268,77.581,399,79.5,399
			s3.839-0.732,5.303-2.197c2.929-2.929,2.929-7.678,0-10.606l-2.697-2.697l2.697-2.697
			C87.732,377.875,87.732,373.125,84.803,370.197z"/>
		<path d="M175.5,399c1.919,0,3.839-0.732,5.303-2.197l16-16c2.929-2.929,2.929-7.678,0-10.606c-2.929-2.929-7.678-2.929-10.606,0
			l-16,16C165.576,390.816,168.941,399,175.5,399z"/>
	</g>
</g>
<g>
</g>
<g>
</g>
<g>
</g>
<g>
</g>
<g>
</g>
<g>
</g>
<g>
</g>
<g>
</g>
<g>
</g>
<g>
</g>
<g>
</g>
<g>
</g>
<g>
</g>
<g>
</g>
<g>
</g>
</svg>
