<?xml version="1.0" encoding="iso-8859-1"?>
<!-- Generator: Adobe Illustrator 19.0.0, SVG Export Plug-In . SVG Version: 6.00 Build 0)  -->
<svg version="1.1" id="Capa_1" xmlns="http://www.w3.org/2000/svg" xmlns:xlink="http://www.w3.org/1999/xlink" x="0px" y="0px"
	 viewBox="0 0 511 511" style="enable-background:new 0 0 511 511;" xml:space="preserve">
<g>
	<g>
		<path d="M501.774,457.226l-72-72c-10.81-10.808-27.583-12.099-39.823-3.881l-45.219-45.219C378.36,300.4,399,252.318,399,199.5
			C399,89.495,309.505,0,199.5,0S0,89.495,0,199.5S89.495,399,199.5,399c51.802,0,99.052-19.851,134.554-52.339l45.783,45.782
			c-6.495,11.947-4.704,27.238,5.389,37.331l72,72c9.953,9.952,26.214,12.017,38.33,4.833c12.894-7.647,18.712-24.13,13.436-38.158
			C507.414,464.254,504.945,460.396,501.774,457.226z M15,199.5C15,97.766,97.766,15,199.5,15S384,97.766,384,199.5
			S301.234,384,199.5,384S15,301.234,15,199.5z M487.905,493.705c-6.377,3.783-14.82,2.714-20.072-2.538l-72-72
			c-6.359-6.36-6.36-16.974,0-23.334c6.35-6.35,16.984-6.35,23.335,0l72,72c0,0,0,0,0,0
			C498.652,475.315,497.004,488.309,487.905,493.705z"/>
		<path d="M293.08,60.56c-3.434-2.317-8.095-1.413-10.412,2.021c-2.317,3.434-1.412,8.095,2.021,10.412
			C326.837,101.434,352,148.726,352,199.5c0,84.089-68.411,152.5-152.5,152.5S47,283.589,47,199.5S115.411,47,199.5,47
			c18.371,0,36.33,3.23,53.375,9.6c3.881,1.45,8.201-0.52,9.651-4.4c1.45-3.88-0.52-8.201-4.4-9.651
			C239.395,35.549,219.67,32,199.5,32C107.14,32,32,107.14,32,199.5S107.14,367,199.5,367S367,291.86,367,199.5
			C367,143.733,339.366,91.792,293.08,60.56z"/>
		<path d="M247.5,183c10.752,0,19.5-8.748,19.5-19.5v-12c0-28.061-20.93-51.324-48-54.995V83.5c0-10.752-8.748-19.5-19.5-19.5
			S180,72.748,180,83.5v13.998c-27.792,6.199-48,30.906-48,60.002c0,33.911,27.589,61.5,61.5,61.5h12
			c12.407,0,22.5,10.093,22.5,22.5S217.907,264,205.5,264h-18c-9.098,0-16.5-7.402-16.5-16.5c0-10.752-8.748-19.5-19.5-19.5
			s-19.5,8.748-19.5,19.5c0,28.061,20.93,51.324,48,54.995V315.5c0,10.752,8.748,19.5,19.5,19.5s19.5-8.748,19.5-19.5v-13.998
			c27.792-6.199,48-30.906,48-60.002c0-33.911-27.589-61.5-61.5-61.5h-12c-12.407,0-22.5-10.093-22.5-22.5s10.093-22.5,22.5-22.5h18
			c9.098,0,16.5,7.402,16.5,16.5v12C228,174.252,236.748,183,247.5,183z M211.5,120h-18c-20.678,0-37.5,16.822-37.5,37.5
			s16.822,37.5,37.5,37.5h12c25.64,0,46.5,20.86,46.5,46.5c0,23.724-17.767,43.587-41.328,46.205
			c-3.798,0.422-6.672,3.632-6.672,7.454V315.5c0,2.481-2.019,4.5-4.5,4.5s-4.5-2.019-4.5-4.5v-20c0-4.142-3.358-7.5-7.5-7.5
			c-22.332,0-40.5-18.168-40.5-40.5c0-2.481,2.019-4.5,4.5-4.5s4.5,2.019,4.5,4.5c0,17.369,14.131,31.5,31.5,31.5h18
			c20.678,0,37.5-16.822,37.5-37.5S226.178,204,205.5,204h-12c-25.64,0-46.5-20.86-46.5-46.5c0-23.724,17.767-43.587,41.328-46.205
			c3.798-0.422,6.672-3.632,6.672-7.454V83.5c0-2.481,2.019-4.5,4.5-4.5s4.5,2.019,4.5,4.5v20c0,4.142,3.358,7.5,7.5,7.5
			c22.332,0,40.5,18.168,40.5,40.5v12c0,2.481-2.019,4.5-4.5,4.5s-4.5-2.019-4.5-4.5v-12C243,134.131,228.869,120,211.5,120z"/>
		<path d="M496,199.5c0,25.776-10.038,50.009-28.264,68.236c-2.731,2.73-2.912,7.241-0.399,10.176
			c2.805,3.275,7.954,3.481,11.005,0.43C499.402,257.283,511,229.283,511,199.5s-11.598-57.783-32.658-78.842
			c-2.929-2.929-7.678-2.929-10.606,0c-2.929,2.929-2.929,7.678,0,10.606C485.962,149.491,496,173.724,496,199.5z"/>
		<path d="M464,199.5c0,17.229-6.709,33.426-18.892,45.608c-2.731,2.73-2.912,7.241-0.399,10.176
			c2.805,3.275,7.954,3.481,11.005,0.43C470.73,240.699,479,220.735,479,199.5s-8.27-41.199-23.285-56.215
			c-2.929-2.929-7.678-2.929-10.606,0c-2.929,2.929-2.929,7.678,0,10.606C457.291,166.074,464,182.271,464,199.5z"/>
		<path d="M432,199.5c0,8.681-3.38,16.843-9.519,22.98c-2.73,2.731-2.912,7.241-0.399,10.176c2.804,3.276,7.955,3.48,11.005,0.431
			c8.972-8.971,13.913-20.9,13.913-33.588c0-12.688-4.941-24.616-13.913-33.587c-2.929-2.929-7.678-2.929-10.606,0
			c-2.929,2.929-2.929,7.678,0,10.606C428.62,182.658,432,190.819,432,199.5z"/>
		<path d="M267.736,467.736C249.509,485.962,225.276,496,199.5,496s-50.009-10.038-68.236-28.264c-2.929-2.929-7.678-2.929-10.606,0
			c-2.929,2.929-2.929,7.678,0,10.606C141.717,499.402,169.717,511,199.5,511s57.783-11.598,78.842-32.658
			c2.89-2.889,2.89-7.717,0-10.606C275.453,464.847,270.625,464.846,267.736,467.736z"/>
		<path d="M143.285,445.108c-2.929,2.929-2.929,7.678,0,10.606C158.301,470.73,178.265,479,199.5,479s41.199-8.27,56.215-23.285
			c2.929-2.929,2.929-7.678,0-10.606c-2.929-2.929-7.678-2.929-10.606,0C232.926,457.291,216.729,464,199.5,464
			s-33.426-6.709-45.608-18.892C150.963,442.18,146.214,442.18,143.285,445.108z"/>
		<path d="M233.088,433.087c2.929-2.929,2.928-7.678,0-10.607c-2.93-2.929-7.677-2.928-10.607,0
			C216.343,428.62,208.181,432,199.5,432s-16.843-3.38-22.98-9.519c-2.929-2.928-7.678-2.929-10.607,0
			c-2.929,2.929-2.929,7.678,0,10.607c8.971,8.972,20.9,13.913,33.588,13.913S224.117,442.059,233.088,433.087z"/>
	</g>
</g>
<g>
</g>
<g>
</g>
<g>
</g>
<g>
</g>
<g>
</g>
<g>
</g>
<g>
</g>
<g>
</g>
<g>
</g>
<g>
</g>
<g>
</g>
<g>
</g>
<g>
</g>
<g>
</g>
<g>
</g>
</svg>
