<?xml version="1.0" encoding="iso-8859-1"?>
<!-- Generator: Adobe Illustrator 19.0.0, SVG Export Plug-In . SVG Version: 6.00 Build 0)  -->
<svg version="1.1" id="Capa_1" xmlns="http://www.w3.org/2000/svg" xmlns:xlink="http://www.w3.org/1999/xlink" x="0px" y="0px"
	 viewBox="0 0 511 511" style="enable-background:new 0 0 511 511;" xml:space="preserve">
<g>
	<g>
		<path d="M377.528,183.745c3.938,1.283,8.172-0.87,9.454-4.808c4.489-13.778,7.916-29.361,10.531-45.378
			c9.858-3.106,35.063-12.529,55.29-32.756c38.235-38.236,34.355-91.657,34.172-93.913C486.658,2.998,483.406,0,479.5,0h-448
			c-3.906,0-7.158,2.998-7.475,6.891c-0.184,2.255-4.064,55.677,34.172,93.913c20.222,20.222,45.42,29.645,55.283,32.754
			c3.665,22.437,8.925,44.021,16.467,60.989c23.677,53.273,75.211,69.5,102.054,74.396v56.653l-43.506,19.034
			c-2.729,1.194-4.494,3.891-4.494,6.871v19.126l-67.546,30.021c-5.297,2.354-5.943,9.875-1.114,13.094l17.403,11.603L113.5,451
			c-1.958,2.61-1.981,6.295-0.053,8.928c2.06,2.815,5.909,3.844,9.099,2.425l72-32c2.708-1.204,4.454-3.89,4.454-6.854v-19.095
			l33-14.438v52.897l-59.854,29.927c-2.507,1.263-4.146,3.895-4.146,6.708v24c0,4.142,3.358,7.5,7.5,7.5h160
			c4.143,0,7.5-3.358,7.5-7.5v-24c0-2.805-1.637-5.454-4.146-6.708L279,442.865v-73.46l33-14.438V383.5
			c0,5.029,5.089,8.708,9.872,7.115l72-24c5.797-1.933,6.885-9.958,1.788-13.355l-17.403-11.603L397.5,316
			c1.964-2.618,1.958-6.384-0.003-9.001c-1.901-2.536-5.362-3.614-8.369-2.614L327,325.094V295.5c0-5.308-5.633-9.005-10.506-6.871
			L279,305.032v-36.095c22.358-4.109,64.626-16.703,90.979-54.663c2.362-3.402,1.519-8.076-1.884-10.438
			c-3.404-2.362-8.075-1.518-10.438,1.884c-25.799,37.163-69.576,46.935-87.2,49.411c-3.702,0.521-6.456,3.688-6.456,7.427v49.036
			l-17,7.438v-56.473c0-3.739-2.754-6.907-6.456-7.427c-21.569-3.031-74.188-15.596-96.891-66.678
			C121.536,138.69,120.156,42.265,120.229,15h270.542c0.068,24.848-1.068,107.169-18.051,159.291
			C371.437,178.229,373.59,182.462,377.528,183.745z M184,418.626l-41.204,18.313L149.5,428c2.547-3.395,1.69-8.388-1.84-10.74
			l-12.661-8.441L184,387.041V418.626z M328,496H183v-9h145V496z M268.145,454.208L303.729,472H207.27l35.583-17.792
			c2.541-1.27,4.146-3.867,4.146-6.708v-64.095l17-7.438V447.5C264,450.341,265.605,452.938,268.145,454.208z M371.095,326.208
			L361.5,339c-2.546,3.396-1.69,8.387,1.84,10.74l11.24,7.494L327,373.094v-32.188L371.095,326.208z M312,338.595l-113,49.438
			v-31.627l113-49.438V338.595z M442.196,90.197c-14.125,14.125-31.452,22.407-42.242,26.579
			c5.479-42.536,5.919-84.783,5.835-101.776h66.309C471.719,29.619,467.935,64.458,442.196,90.197z M68.803,90.197
			C43.06,64.454,39.28,29.609,38.9,15h66.31c-0.086,17.008,0.348,59.243,5.827,101.772
			C100.243,112.598,82.923,104.317,68.803,90.197z"/>
		<path d="M287.5,119c4.143,0,7.5-3.358,7.5-7.5v-8c0-17.369-14.131-31.5-31.5-31.5H263V55.5c0-4.142-3.357-7.5-7.5-7.5
			c-4.142,0-7.5,3.358-7.5,7.5v16.674c-17.938,1.764-32,16.932-32,35.326c0,19.575,15.925,35.5,35.5,35.5h8
			c11.304,0,20.5,9.196,20.5,20.5s-9.196,20.5-20.5,20.5h-12c-9.098,0-16.5-7.402-16.5-16.5c0-4.142-3.358-7.5-7.5-7.5
			s-7.5,3.358-7.5,7.5c0,17.369,14.131,31.5,31.5,31.5h0.5v16.5c0,4.142,3.358,7.5,7.5,7.5c4.143,0,7.5-3.358,7.5-7.5v-16.674
			c17.938-1.764,32-16.932,32-35.326c0-19.575-15.925-35.5-35.5-35.5h-8c-11.304,0-20.5-9.196-20.5-20.5S240.196,87,251.5,87h12
			c9.098,0,16.5,7.402,16.5,16.5v8C280,115.642,283.357,119,287.5,119z"/>
	</g>
</g>
<g>
</g>
<g>
</g>
<g>
</g>
<g>
</g>
<g>
</g>
<g>
</g>
<g>
</g>
<g>
</g>
<g>
</g>
<g>
</g>
<g>
</g>
<g>
</g>
<g>
</g>
<g>
</g>
<g>
</g>
</svg>
