<?xml version="1.0" encoding="iso-8859-1"?>
<!-- Generator: Adobe Illustrator 19.0.0, SVG Export Plug-In . SVG Version: 6.00 Build 0)  -->
<svg version="1.1" id="Capa_1" xmlns="http://www.w3.org/2000/svg" xmlns:xlink="http://www.w3.org/1999/xlink" x="0px" y="0px"
	 viewBox="0 0 511 511" style="enable-background:new 0 0 511 511;" xml:space="preserve">
<g>
	<g>
		<path d="M479.5,0h-448C14.131,0,0,14.131,0,31.5v336C0,384.869,14.131,399,31.5,399H208v97h-16.5c-4.143,0-7.5,3.358-7.5,7.5
			s3.357,7.5,7.5,7.5h128c4.143,0,7.5-3.358,7.5-7.5s-3.357-7.5-7.5-7.5H303v-97h176.5c17.369,0,31.5-14.131,31.5-31.5V132
			c0-4.142-3.357-7.5-7.5-7.5s-7.5,3.358-7.5,7.5v188H15V63h481v34c0,4.142,3.357,7.5,7.5,7.5s7.5-3.358,7.5-7.5V31.5
			C511,14.131,496.869,0,479.5,0z M288,496h-65v-97h65V496z M496,335v32.5c0,9.098-7.401,16.5-16.5,16.5h-448
			c-9.099,0-16.5-7.402-16.5-16.5V335H496z M15,48V31.5C15,22.402,22.401,15,31.5,15h448c9.099,0,16.5,7.402,16.5,16.5V48H15z"/>
		<path d="M239.5,367h32c4.143,0,7.5-3.358,7.5-7.5s-3.357-7.5-7.5-7.5h-32c-4.143,0-7.5,3.358-7.5,7.5S235.357,367,239.5,367z"/>
		<circle cx="255.5" cy="31.5" r="7.5"/>
		<path d="M399.5,175c12.958,0,23.5-10.542,23.5-23.5S412.458,128,399.5,128S376,138.542,376,151.5
			c0,5.936,2.217,11.36,5.859,15.501l-63.372,70.414c-4.071-3.379-9.296-5.415-14.987-5.415c-6.451,0-12.303,2.614-16.554,6.838
			L230.77,210.75c0.148-1.063,0.23-2.147,0.23-3.25c0-12.958-10.542-23.5-23.5-23.5S184,194.542,184,207.5
			c0,1.361,0.123,2.693,0.346,3.991L123,257.5c-0.388,0.291-0.736,0.614-1.05,0.96c-3.15-1.571-6.697-2.46-10.45-2.46
			C98.542,256,88,266.542,88,279.5S98.542,303,111.5,303s23.5-10.542,23.5-23.5c0-3.74-0.882-7.276-2.443-10.417l59.052-44.289
			c4.187,3.85,9.768,6.206,15.891,6.206c6.451,0,12.303-2.614,16.554-6.838l56.176,28.088c-0.148,1.063-0.23,2.147-0.23,3.25
			c0,12.958,10.542,23.5,23.5,23.5s23.5-10.542,23.5-23.5c0-1.579-0.159-3.122-0.458-4.614l68.658-76.287
			C396.596,174.858,398.031,175,399.5,175z M399.5,143c4.687,0,8.5,3.813,8.5,8.5s-3.813,8.5-8.5,8.5s-8.5-3.813-8.5-8.5
			S394.813,143,399.5,143z M111.5,288c-4.687,0-8.5-3.813-8.5-8.5s3.813-8.5,8.5-8.5s8.5,3.813,8.5,8.5S116.187,288,111.5,288z
			 M207.5,216c-4.687,0-8.5-3.813-8.5-8.5s3.813-8.5,8.5-8.5s8.5,3.813,8.5,8.5S212.187,216,207.5,216z M303.5,264
			c-4.687,0-8.5-3.813-8.5-8.5s3.813-8.5,8.5-8.5s8.5,3.813,8.5,8.5S308.187,264,303.5,264z"/>
		<path d="M465.1,235.4c4.143,0,7.5-3.358,7.5-7.5v-5.2c0-11.961-9.138-21.827-20.8-22.985V191.5c0-4.142-3.357-7.5-7.5-7.5
			s-7.5,3.358-7.5,7.5v8.574c-11.834,2.295-20.8,12.73-20.8,25.226c0,14.171,11.529,25.7,25.7,25.7h5.2
			c5.899,0,10.699,4.8,10.699,10.7s-4.8,10.7-10.699,10.7H439.1c-4.466,0-8.1-3.634-8.1-8.1c0-4.142-3.357-7.5-7.5-7.5
			s-7.5,3.358-7.5,7.5c0,11.961,9.138,21.827,20.8,22.985v8.215c0,4.142,3.357,7.5,7.5,7.5s7.5-3.358,7.5-7.5v-8.574
			c11.835-2.294,20.8-12.73,20.8-25.226c0-14.171-11.528-25.7-25.699-25.7h-5.2c-5.9,0-10.7-4.8-10.7-10.7s4.8-10.7,10.7-10.7h7.8
			c4.466,0,8.1,3.634,8.1,8.1v5.2C457.6,232.042,460.957,235.4,465.1,235.4z"/>
		<path d="M270.9,168.4H263.1c-4.466,0-8.1-3.634-8.1-8.1c0-4.142-3.357-7.5-7.5-7.5s-7.5,3.358-7.5,7.5
			c0,11.961,9.138,21.827,20.8,22.985v8.215c0,4.142,3.357,7.5,7.5,7.5s7.5-3.358,7.5-7.5v-8.574
			c11.835-2.294,20.8-12.73,20.8-25.226c0-14.171-11.528-25.7-25.699-25.7h-5.2c-5.9,0-10.7-4.8-10.7-10.7s4.8-10.7,10.7-10.7h7.8
			c4.466,0,8.1,3.634,8.1,8.1v5.2c0,4.142,3.357,7.5,7.5,7.5s7.5-3.358,7.5-7.5v-5.2c0-11.961-9.138-21.827-20.8-22.985V87.5
			c0-4.142-3.357-7.5-7.5-7.5s-7.5,3.358-7.5,7.5v8.574c-11.834,2.295-20.8,12.73-20.8,25.226c0,14.171,11.529,25.7,25.7,25.7h5.2
			c5.899,0,10.699,4.8,10.699,10.7S276.8,168.4,270.9,168.4z"/>
		<path d="M68.3,255c4.143,0,7.5-3.358,7.5-7.5v-8.574c11.835-2.294,20.8-12.73,20.8-25.226c0-14.171-11.528-25.7-25.699-25.7h-5.2
			c-5.9,0-10.7-4.8-10.7-10.7s4.8-10.7,10.7-10.7h7.8c4.466,0,8.1,3.634,8.1,8.1v5.2c0,4.142,3.357,7.5,7.5,7.5s7.5-3.358,7.5-7.5
			v-5.2c0-11.961-9.138-21.827-20.8-22.985V143.5c0-4.142-3.357-7.5-7.5-7.5s-7.5,3.358-7.5,7.5v8.574
			C48.965,154.369,40,164.805,40,177.3c0,14.171,11.529,25.7,25.7,25.7h5.2c5.899,0,10.699,4.8,10.699,10.7s-4.8,10.7-10.699,10.7
			H63.1c-4.466,0-8.1-3.634-8.1-8.1c0-4.142-3.357-7.5-7.5-7.5s-7.5,3.358-7.5,7.5c0,11.961,9.138,21.827,20.8,22.985v8.215
			C60.8,251.642,64.157,255,68.3,255z"/>
	</g>
</g>
<g>
</g>
<g>
</g>
<g>
</g>
<g>
</g>
<g>
</g>
<g>
</g>
<g>
</g>
<g>
</g>
<g>
</g>
<g>
</g>
<g>
</g>
<g>
</g>
<g>
</g>
<g>
</g>
<g>
</g>
</svg>
