<?xml version="1.0" encoding="iso-8859-1"?>
<!-- Generator: Adobe Illustrator 19.0.0, SVG Export Plug-In . SVG Version: 6.00 Build 0)  -->
<svg version="1.1" id="Capa_1" xmlns="http://www.w3.org/2000/svg" xmlns:xlink="http://www.w3.org/1999/xlink" x="0px" y="0px"
	 viewBox="0 0 511 511" style="enable-background:new 0 0 511 511;" xml:space="preserve">
<g>
	<g>
		<path d="M471.5,136H399V95.5c0-4.143-3.358-7.5-7.5-7.5H7.5C3.358,88,0,91.357,0,95.5v264C0,394.514,28.486,423,63.5,423h384
			c35.014,0,63.5-28.486,63.5-63.5v-184C511,153.72,493.28,136,471.5,136z M15,103h369v137H15V103z M63.5,408
			C36.757,408,15,386.243,15,359.5V255h369v104.5c0,19.431,8.782,36.843,22.576,48.5H63.5z M496,359.5
			c0,26.743-21.757,48.5-48.5,48.5S399,386.243,399,359.5V335h40.5c4.142,0,7.5-3.357,7.5-7.5v-92c0-4.143-3.358-7.5-7.5-7.5
			s-7.5,3.357-7.5,7.5V320h-33V151h41.537c-5.343,6.738-8.537,15.253-8.537,24.5V200c0,4.143,3.358,7.5,7.5,7.5s7.5-3.357,7.5-7.5
			v-24.5c0-13.51,10.991-24.5,24.5-24.5s24.5,10.99,24.5,24.5V359.5z"/>
		<path d="M330.2,127.715V119.5c0-4.143-3.358-7.5-7.5-7.5s-7.5,3.357-7.5,7.5v8.574c-11.835,2.295-20.8,12.731-20.8,25.226
			c0,14.171,11.529,25.7,25.7,25.7h5.2c5.9,0,10.7,4.8,10.7,10.7s-4.8,10.7-10.7,10.7h-7.8c-4.466,0-8.1-3.634-8.1-8.101
			c0-4.143-3.358-7.5-7.5-7.5s-7.5,3.357-7.5,7.5c0,11.961,9.139,21.827,20.8,22.986v8.215c0,4.143,3.358,7.5,7.5,7.5
			s7.5-3.357,7.5-7.5v-8.574c11.834-2.295,20.8-12.731,20.8-25.226c0-14.171-11.529-25.7-25.7-25.7h-5.2c-5.9,0-10.7-4.8-10.7-10.7
			s4.8-10.7,10.7-10.7h7.8c4.466,0,8.1,3.634,8.1,8.101v5.2c0,4.143,3.358,7.5,7.5,7.5s7.5-3.357,7.5-7.5v-5.2
			C351,138.739,341.861,128.873,330.2,127.715z"/>
		<path d="M103.5,128c-4.142,0-7.5,3.357-7.5,7.5v47.229l-34.26-51.39c-1.869-2.805-5.496-4.027-8.682-2.931
			C50.065,129.439,48,132.336,48,135.5v72c0,4.143,3.358,7.5,7.5,7.5s7.5-3.357,7.5-7.5v-47.229l34.26,51.39
			c1.927,2.891,5.704,4.087,8.946,2.835c2.858-1.104,4.794-3.932,4.794-6.995v-72C111,131.357,107.642,128,103.5,128z"/>
		<path d="M175.5,143c4.142,0,7.5-3.357,7.5-7.5s-3.358-7.5-7.5-7.5h-40c-4.142,0-7.5,3.357-7.5,7.5v72c0,4.143,3.358,7.5,7.5,7.5
			h40c4.142,0,7.5-3.357,7.5-7.5s-3.358-7.5-7.5-7.5H143v-25h24.5c4.142,0,7.5-3.357,7.5-7.5s-3.358-7.5-7.5-7.5H143v-17H175.5z"/>
		<path d="M272.328,128.046c-4.113-0.456-7.825,2.509-8.282,6.626l-4.858,43.726l-12.794-29.852c-2.543-5.936-11.243-5.937-13.787,0
			l-12.794,29.852l-4.858-43.726c-0.451-4.061-4.221-7.076-8.282-6.626c-4.062,0.45-7.077,4.221-6.626,8.282l8,72
			c0.366,3.295,2.946,6.021,6.215,6.567c3.371,0.564,6.786-1.298,8.133-4.442l17.106-39.915l17.106,39.915
			c1.367,3.189,4.861,5.054,8.272,4.418c3.207-0.598,5.715-3.303,6.076-6.544l8-72C279.412,132.212,276.445,128.503,272.328,128.046
			z"/>
		<path d="M159.5,280h-104c-4.142,0-7.5,3.357-7.5,7.5s3.358,7.5,7.5,7.5h104c4.142,0,7.5-3.357,7.5-7.5S163.642,280,159.5,280z"/>
		<path d="M343.5,280h-136c-4.142,0-7.5,3.357-7.5,7.5s3.358,7.5,7.5,7.5h136c4.142,0,7.5-3.357,7.5-7.5S347.642,280,343.5,280z"/>
		<path d="M55.5,335h48c4.142,0,7.5-3.357,7.5-7.5s-3.358-7.5-7.5-7.5h-48c-4.142,0-7.5,3.357-7.5,7.5S51.358,335,55.5,335z"/>
		<path d="M159.5,360h-104c-4.142,0-7.5,3.357-7.5,7.5s3.358,7.5,7.5,7.5h104c4.142,0,7.5-3.357,7.5-7.5S163.642,360,159.5,360z"/>
		<path d="M159.5,320h-24c-4.142,0-7.5,3.357-7.5,7.5s3.358,7.5,7.5,7.5h24c4.142,0,7.5-3.357,7.5-7.5S163.642,320,159.5,320z"/>
		<path d="M207.5,335h56c4.142,0,7.5-3.357,7.5-7.5s-3.358-7.5-7.5-7.5h-56c-4.142,0-7.5,3.357-7.5,7.5S203.358,335,207.5,335z"/>
		<path d="M343.5,320h-48c-4.142,0-7.5,3.357-7.5,7.5s3.358,7.5,7.5,7.5h48c4.142,0,7.5-3.357,7.5-7.5S347.642,320,343.5,320z"/>
		<path d="M295.5,360h-88c-4.142,0-7.5,3.357-7.5,7.5s3.358,7.5,7.5,7.5h88c4.142,0,7.5-3.357,7.5-7.5S299.642,360,295.5,360z"/>
		<path d="M343.5,360h-16c-4.142,0-7.5,3.357-7.5,7.5s3.358,7.5,7.5,7.5h16c4.142,0,7.5-3.357,7.5-7.5S347.642,360,343.5,360z"/>
	</g>
</g>
<g>
</g>
<g>
</g>
<g>
</g>
<g>
</g>
<g>
</g>
<g>
</g>
<g>
</g>
<g>
</g>
<g>
</g>
<g>
</g>
<g>
</g>
<g>
</g>
<g>
</g>
<g>
</g>
<g>
</g>
</svg>
