<?xml version="1.0" encoding="iso-8859-1"?>
<!-- Generator: Adobe Illustrator 19.0.0, SVG Export Plug-In . SVG Version: 6.00 Build 0)  -->
<svg version="1.1" id="Capa_1" xmlns="http://www.w3.org/2000/svg" xmlns:xlink="http://www.w3.org/1999/xlink" x="0px" y="0px"
	 viewBox="0 0 510.983 510.983" style="enable-background:new 0 0 510.983 510.983;" xml:space="preserve">
<g>
	<g>
		<path d="M255.491,0c-112.477,0-207.5,98.687-207.5,215.5c0,32.323,10.837,68.003,32.211,106.049
			c16.865,30.02,40.329,61.645,69.739,93.996c49.886,54.875,100.506,93.542,101.012,93.927c2.652,2.015,6.424,2.015,9.076,0
			c0.505-0.385,51.125-39.052,101.012-93.927c29.41-32.352,52.874-63.977,69.739-93.996c21.374-38.046,32.211-73.726,32.211-106.049
			C462.991,98.687,367.968,0,255.491,0z M350.101,405.279c-40.374,44.441-81.232,78.052-94.611,88.693
			c-13.354-10.62-54.09-44.122-94.449-88.518c-44.73-49.203-98.05-122.099-98.05-189.955c0-108.683,88.154-200.5,192.5-200.5
			s192.5,91.817,192.5,200.5C447.991,283.298,394.758,356.124,350.101,405.279z"/>
		<path d="M404.825,131.558c-11.495-22.56-28.282-42.564-48.546-57.854c-3.307-2.494-8.009-1.837-10.504,1.471
			c-2.495,3.307-1.836,8.009,1.47,10.504c38.605,29.125,60.747,73.527,60.747,121.821c0,84.089-68.411,152.5-152.5,152.5
			s-152.5-68.411-152.5-152.5S171.403,55,255.491,55c21.569,0,42.412,4.41,61.95,13.106c3.733,1.662,8.24-0.068,9.902-3.802
			c1.662-3.734-0.069-8.239-3.802-9.901C302.071,44.846,279.175,40,255.491,40c-92.36,0-167.5,75.141-167.5,167.5
			s75.14,167.5,167.5,167.5s167.5-75.141,167.5-167.5C422.991,180.768,416.879,155.217,404.825,131.558z"/>
		<path d="M303.491,191c10.752,0,19.5-8.748,19.5-19.5v-12c0-28.061-20.93-51.324-48-54.995V91.5c0-10.752-8.748-19.5-19.5-19.5
			c-10.752,0-19.5,8.748-19.5,19.5v13.998c-27.792,6.199-48,30.905-48,60.002c0,33.911,27.589,61.5,61.5,61.5h12
			c12.407,0,22.5,10.094,22.5,22.5s-10.093,22.5-22.5,22.5h-18c-9.098,0-16.5-7.401-16.5-16.5c0-10.752-8.748-19.5-19.5-19.5
			s-19.5,8.748-19.5,19.5c0,28.061,20.93,51.324,48,54.995V323.5c0,10.752,8.748,19.5,19.5,19.5c10.752,0,19.5-8.748,19.5-19.5
			v-13.998c27.792-6.199,48-30.905,48-60.002c0-33.911-27.589-61.5-61.5-61.5h-12c-12.407,0-22.5-10.094-22.5-22.5
			s10.093-22.5,22.5-22.5h18c9.098,0,16.5,7.401,16.5,16.5v12C283.991,182.252,292.739,191,303.491,191z M267.491,128h-18
			c-20.678,0-37.5,16.822-37.5,37.5s16.822,37.5,37.5,37.5h12c25.64,0,46.5,20.859,46.5,46.5c0,23.724-17.767,43.587-41.328,46.204
			c-3.798,0.422-6.672,3.633-6.672,7.454V323.5c0,2.481-2.019,4.5-4.5,4.5c-2.481,0-4.5-2.019-4.5-4.5v-20
			c0-4.143-3.358-7.5-7.5-7.5c-22.332,0-40.5-18.168-40.5-40.5c0-2.481,2.019-4.5,4.5-4.5s4.5,2.019,4.5,4.5
			c0,17.369,14.131,31.5,31.5,31.5h18c20.678,0,37.5-16.822,37.5-37.5s-16.822-37.5-37.5-37.5h-12c-25.64,0-46.5-20.859-46.5-46.5
			c0-23.724,17.767-43.587,41.328-46.204c3.798-0.422,6.672-3.633,6.672-7.454V91.5c0-2.481,2.019-4.5,4.5-4.5
			c2.481,0,4.5,2.019,4.5,4.5v20c0,4.143,3.358,7.5,7.5,7.5c22.332,0,40.5,18.168,40.5,40.5v12c0,2.481-2.019,4.5-4.5,4.5
			s-4.5-2.019-4.5-4.5v-12C298.991,142.131,284.861,128,267.491,128z"/>
	</g>
</g>
<g>
</g>
<g>
</g>
<g>
</g>
<g>
</g>
<g>
</g>
<g>
</g>
<g>
</g>
<g>
</g>
<g>
</g>
<g>
</g>
<g>
</g>
<g>
</g>
<g>
</g>
<g>
</g>
<g>
</g>
</svg>
