<?xml version="1.0" encoding="iso-8859-1"?>
<!-- Generator: Adobe Illustrator 19.0.0, SVG Export Plug-In . SVG Version: 6.00 Build 0)  -->
<svg version="1.1" id="Capa_1" xmlns="http://www.w3.org/2000/svg" xmlns:xlink="http://www.w3.org/1999/xlink" x="0px" y="0px"
	 viewBox="0 0 511 511" style="enable-background:new 0 0 511 511;" xml:space="preserve">
<g>
	<g>
		<path d="M447.5,366.333c-4.143,0-7.5,3.357-7.5,7.5v8.333c0,4.143,3.357,7.5,7.5,7.5s7.5-3.357,7.5-7.5v-8.333
			C455,369.69,451.643,366.333,447.5,366.333z"/>
		<path d="M447.5,408c-3.108,0-5.776,1.892-6.913,4.587c-2.695,1.137-4.587,3.805-4.587,6.913c0,4.143,3.357,7.5,7.5,7.5h4
			c4.143,0,7.5-3.357,7.5-7.5v-4C455,411.357,451.643,408,447.5,408z"/>
		<path d="M211.5,412h-8c-4.142,0-7.5,3.357-7.5,7.5s3.358,7.5,7.5,7.5h8c4.142,0,7.5-3.357,7.5-7.5S215.642,412,211.5,412z"/>
		<path d="M251.5,412h-8c-4.142,0-7.5,3.357-7.5,7.5s3.358,7.5,7.5,7.5h8c4.142,0,7.5-3.357,7.5-7.5S255.642,412,251.5,412z"/>
		<path d="M131.5,412h-8c-4.142,0-7.5,3.357-7.5,7.5s3.358,7.5,7.5,7.5h8c4.142,0,7.5-3.357,7.5-7.5S135.642,412,131.5,412z"/>
		<path d="M291.5,412h-8c-4.143,0-7.5,3.357-7.5,7.5s3.357,7.5,7.5,7.5h8c4.143,0,7.5-3.357,7.5-7.5S295.643,412,291.5,412z"/>
		<path d="M171.5,412h-8c-4.142,0-7.5,3.357-7.5,7.5s3.358,7.5,7.5,7.5h8c4.142,0,7.5-3.357,7.5-7.5S175.642,412,171.5,412z"/>
		<path d="M91.5,412h-8c-4.142,0-7.5,3.357-7.5,7.5s3.358,7.5,7.5,7.5h8c4.142,0,7.5-3.357,7.5-7.5S95.642,412,91.5,412z"/>
		<path d="M411.5,412h-8c-4.143,0-7.5,3.357-7.5,7.5s3.357,7.5,7.5,7.5h8c4.143,0,7.5-3.357,7.5-7.5S415.643,412,411.5,412z"/>
		<path d="M331.5,412h-8c-4.143,0-7.5,3.357-7.5,7.5s3.357,7.5,7.5,7.5h8c4.143,0,7.5-3.357,7.5-7.5S335.643,412,331.5,412z"/>
		<path d="M371.5,412h-8c-4.143,0-7.5,3.357-7.5,7.5s3.357,7.5,7.5,7.5h8c4.143,0,7.5-3.357,7.5-7.5S375.643,412,371.5,412z"/>
		<path d="M51.5,412h-4c-4.142,0-7.5,3.357-7.5,7.5s3.358,7.5,7.5,7.5h4c4.142,0,7.5-3.357,7.5-7.5S55.642,412,51.5,412z"/>
		<path d="M51.5,172h-4c-4.142,0-7.5,3.357-7.5,7.5s3.358,7.5,7.5,7.5h4c4.142,0,7.5-3.357,7.5-7.5S55.642,172,51.5,172z"/>
		<path d="M163.5,187h8c4.142,0,7.5-3.357,7.5-7.5s-3.358-7.5-7.5-7.5h-8c-4.142,0-7.5,3.357-7.5,7.5S159.358,187,163.5,187z"/>
		<path d="M203.5,187h8c4.142,0,7.5-3.357,7.5-7.5s-3.358-7.5-7.5-7.5h-8c-4.142,0-7.5,3.357-7.5,7.5S199.358,187,203.5,187z"/>
		<path d="M363.5,187h8c4.143,0,7.5-3.357,7.5-7.5s-3.357-7.5-7.5-7.5h-8c-4.143,0-7.5,3.357-7.5,7.5S359.357,187,363.5,187z"/>
		<path d="M131.5,172h-8c-4.142,0-7.5,3.357-7.5,7.5s3.358,7.5,7.5,7.5h8c4.142,0,7.5-3.357,7.5-7.5S135.642,172,131.5,172z"/>
		<path d="M331.5,172h-8c-4.143,0-7.5,3.357-7.5,7.5s3.357,7.5,7.5,7.5h8c4.143,0,7.5-3.357,7.5-7.5S335.643,172,331.5,172z"/>
		<path d="M291.5,172h-8c-4.143,0-7.5,3.357-7.5,7.5s3.357,7.5,7.5,7.5h8c4.143,0,7.5-3.357,7.5-7.5S295.643,172,291.5,172z"/>
		<path d="M251.5,172h-8c-4.142,0-7.5,3.357-7.5,7.5s3.358,7.5,7.5,7.5h8c4.142,0,7.5-3.357,7.5-7.5S255.642,172,251.5,172z"/>
		<path d="M403.5,187h8c4.143,0,7.5-3.357,7.5-7.5s-3.357-7.5-7.5-7.5h-8c-4.143,0-7.5,3.357-7.5,7.5S399.357,187,403.5,187z"/>
		<path d="M91.5,172h-8c-4.142,0-7.5,3.357-7.5,7.5s3.358,7.5,7.5,7.5h8c4.142,0,7.5-3.357,7.5-7.5S95.642,172,91.5,172z"/>
		<path d="M440.587,186.413c1.137,2.695,3.805,4.587,6.913,4.587c4.143,0,7.5-3.357,7.5-7.5v-4c0-4.143-3.357-7.5-7.5-7.5h-4
			c-4.143,0-7.5,3.357-7.5,7.5C436,182.608,437.892,185.276,440.587,186.413z"/>
		<path d="M447.5,196.223c-4.143,0-7.5,3.357-7.5,7.5v5.056c0,4.143,3.357,7.5,7.5,7.5s7.5-3.357,7.5-7.5v-5.056
			C455,199.58,451.643,196.223,447.5,196.223z"/>
		<path d="M503.5,228H487V51.5c0-4.143-3.357-7.5-7.5-7.5h-432C21.309,44,0,65.309,0,91.5v328C0,445.691,21.309,467,47.5,467h432
			c4.143,0,7.5-3.357,7.5-7.5V339h16.5c4.143,0,7.5-3.357,7.5-7.5v-96C511,231.357,507.643,228,503.5,228z M15,91.5
			C15,73.579,29.58,59,47.5,59H472v81h-25V83.5c0-4.143-3.357-7.5-7.5-7.5h-392c-4.142,0-7.5,3.357-7.5,7.5v55.617
			c-14.315-3.396-25-16.278-25-31.617V91.5z M55,123h293.5c4.143,0,7.5-3.357,7.5-7.5s-3.357-7.5-7.5-7.5H55V91h377v17h-48.5
			c-4.143,0-7.5,3.357-7.5,7.5s3.357,7.5,7.5,7.5H432v17H55V123z M472,452H47.5C29.58,452,15,437.421,15,419.5V142.11
			C23.503,150.1,34.94,155,47.5,155H472v73h-17.074c-0.49-3.668-3.623-6.5-7.426-6.5s-6.936,2.832-7.426,6.5H423.5
			c-26.191,0-47.5,21.309-47.5,47.5v16c0,26.191,21.309,47.5,47.5,47.5H440v1.5c0,4.143,3.357,7.5,7.5,7.5s7.5-3.357,7.5-7.5V339h17
			V452z M496,324h-72.5c-17.921,0-32.5-14.579-32.5-32.5v-16c0-17.921,14.579-32.5,32.5-32.5H496V324z"/>
		<path d="M408,283.5c0,12.958,10.542,23.5,23.5,23.5s23.5-10.542,23.5-23.5S444.458,260,431.5,260S408,270.542,408,283.5z
			 M431.5,275c4.687,0,8.5,3.813,8.5,8.5s-3.813,8.5-8.5,8.5s-8.5-3.813-8.5-8.5S426.813,275,431.5,275z"/>
		<path d="M255,330.5c0-19.575-15.925-35.5-35.5-35.5h-8c-11.304,0-20.5-9.196-20.5-20.5s9.196-20.5,20.5-20.5h12
			c9.098,0,16.5,7.402,16.5,16.5v8c0,4.143,3.358,7.5,7.5,7.5s7.5-3.357,7.5-7.5v-8c0-17.369-14.131-31.5-31.5-31.5H223v-16.5
			c0-4.143-3.358-7.5-7.5-7.5s-7.5,3.357-7.5,7.5v16.674c-17.938,1.764-32,16.932-32,35.326c0,19.575,15.925,35.5,35.5,35.5h8
			c11.304,0,20.5,9.196,20.5,20.5s-9.196,20.5-20.5,20.5h-12c-9.098,0-16.5-7.402-16.5-16.5c0-4.143-3.358-7.5-7.5-7.5
			s-7.5,3.357-7.5,7.5c0,17.369,14.131,31.5,31.5,31.5h0.5v16.5c0,4.143,3.358,7.5,7.5,7.5s7.5-3.357,7.5-7.5v-16.674
			C240.938,364.062,255,348.894,255,330.5z"/>
	</g>
</g>
<g>
</g>
<g>
</g>
<g>
</g>
<g>
</g>
<g>
</g>
<g>
</g>
<g>
</g>
<g>
</g>
<g>
</g>
<g>
</g>
<g>
</g>
<g>
</g>
<g>
</g>
<g>
</g>
<g>
</g>
</svg>
