<?xml version="1.0" encoding="iso-8859-1"?>
<!-- Generator: Adobe Illustrator 19.0.0, SVG Export Plug-In . SVG Version: 6.00 Build 0)  -->
<svg version="1.1" id="Capa_1" xmlns="http://www.w3.org/2000/svg" xmlns:xlink="http://www.w3.org/1999/xlink" x="0px" y="0px"
	 viewBox="0 0 511 511" style="enable-background:new 0 0 511 511;" xml:space="preserve">
<g>
	<g>
		<path d="M137.5,324C85.944,324,44,365.944,44,417.5S85.944,511,137.5,511s93.5-41.944,93.5-93.5S189.056,324,137.5,324z
			 M137.5,496C94.215,496,59,460.785,59,417.5S94.215,339,137.5,339s78.5,35.215,78.5,78.5S180.785,496,137.5,496z"/>
		<path d="M145,373.715V365.5c0-4.143-3.358-7.5-7.5-7.5s-7.5,3.357-7.5,7.5v8.574c-11.835,2.295-20.8,12.731-20.8,25.226
			c0,14.171,11.529,25.7,25.7,25.7h5.2c5.9,0,10.7,4.8,10.7,10.7s-4.8,10.7-10.7,10.7h-7.8c-4.466,0-8.1-3.634-8.1-8.101
			c0-4.143-3.358-7.5-7.5-7.5s-7.5,3.357-7.5,7.5c0,11.961,9.138,21.827,20.8,22.985v8.215c0,4.143,3.358,7.5,7.5,7.5
			s7.5-3.357,7.5-7.5v-8.574c11.835-2.295,20.8-12.731,20.8-25.226c0-14.171-11.529-25.7-25.7-25.7h-5.2c-5.9,0-10.7-4.8-10.7-10.7
			s4.8-10.7,10.7-10.7h7.8c4.466,0,8.1,3.634,8.1,8.101v5.2c0,4.143,3.358,7.5,7.5,7.5s7.5-3.357,7.5-7.5v-5.2
			C165.8,384.739,156.661,374.873,145,373.715z"/>
		<path d="M470.268,194.784c-2.603-3.223-7.325-3.724-10.547-1.121s-3.724,7.325-1.121,10.547c11.383,14.092,17.4,31.136,17.4,49.29
			c0,43.285-35.215,78.5-78.5,78.5S319,296.785,319,253.5s35.215-78.5,78.5-78.5c12.179,0,23.849,2.711,34.684,8.056
			c3.716,1.833,8.212,0.307,10.044-3.407c1.833-3.715,0.307-8.212-3.408-10.044C425.903,163.231,412,160,397.5,160
			c-51.556,0-93.5,41.944-93.5,93.5s41.944,93.5,93.5,93.5s93.5-41.944,93.5-93.5C491,232.187,483.637,211.334,470.268,194.784z"/>
		<path d="M394.5,224h8.25c4.549,0,8.25,3.701,8.25,8.25c0,4.143,3.358,7.5,7.5,7.5s7.5-3.357,7.5-7.5
			c0-12.82-10.43-23.25-23.25-23.25h-8.25c-12.958,0-23.5,10.542-23.5,23.5V249h-0.5c-4.142,0-7.5,3.357-7.5,7.5s3.358,7.5,7.5,7.5
			h0.5v16.5c0,12.958,10.542,23.5,23.5,23.5h8.25c12.82,0,23.25-10.43,23.25-23.25v-0.25c0-4.143-3.358-7.5-7.5-7.5
			s-7.5,3.357-7.5,7.5v0.25c0,4.549-3.701,8.25-8.25,8.25h-8.25c-4.687,0-8.5-3.813-8.5-8.5V264h16.5c4.142,0,7.5-3.357,7.5-7.5
			s-3.358-7.5-7.5-7.5H386v-16.5C386,227.813,389.813,224,394.5,224z"/>
		<path d="M113.5,187c51.556,0,93.5-41.944,93.5-93.5S165.056,0,113.5,0S20,41.944,20,93.5S61.944,187,113.5,187z M113.5,15
			c43.285,0,78.5,35.215,78.5,78.5S156.785,172,113.5,172S35,136.785,35,93.5S70.215,15,113.5,15z"/>
		<path d="M86.5,99h8.214c-1.328,17.569-6.869,29.036-6.922,29.146C85.341,133.048,89.029,139,94.5,139h32
			c4.142,0,7.5-3.357,7.5-7.5s-3.358-7.5-7.5-7.5h-21.212c1.862-6.176,3.798-14.73,4.467-25h8.745c4.142,0,7.5-3.357,7.5-7.5
			s-3.358-7.5-7.5-7.5h-8.44c0.118-5.763,0.492-11.781,1.716-16.681C113.856,59,116.877,59,118.5,59
			c1.898,0,3.857,0.392,4.995,2.028c1.162,1.672,1.597,4.053,1.517,6.066c-0.224,4.108,2.908,7.635,7.021,7.892
			c4.124,0.248,7.694-2.884,7.953-7.018c0.068-1.092,0.479-10.863-6.002-17.763C131.324,47.374,126.479,44,118.5,44
			c-6.108,0-16.995,2.557-21.276,19.681C95.623,70.084,95.18,77.307,95.055,84H86.5c-4.142,0-7.5,3.357-7.5,7.5S82.358,99,86.5,99z"
			/>
		<path d="M61.782,230.431C60.598,238.702,60,247.077,60,255.5c0,20.064,3.36,39.745,9.987,58.494
			c1.434,4.057,6.147,6.097,10.091,4.366c3.548-1.556,5.342-5.714,4.051-9.364C78.072,291.855,75,273.857,75,255.5
			c0-11.199,1.17-22.298,3.447-33.149l14.327,21.331c2.459,3.66,7.704,4.39,11.076,1.54c2.879-2.434,3.477-6.776,1.377-9.903
			l-22.5-33.5c-1.64-2.443-4.71-3.731-7.603-3.191c-1.563,0.292-2.751,1.197-3.992,2.13c-1.193,0.896-2.449,1.724-3.2,3.057
			l-30.112,28.763c-2.955,2.822-3.066,7.649-0.243,10.604c2.823,2.955,7.649,3.064,10.604,0.242L61.782,230.431z"/>
		<path d="M331.5,136c-4.142,0-7.5,3.357-7.5,7.5s3.358,7.5,7.5,7.5h32c4.142,0,7.5-3.357,7.5-7.5v-32c0-4.143-3.358-7.5-7.5-7.5
			s-7.5,3.357-7.5,7.5v16.421C323.3,96.972,280.779,80,235.5,80c-4.142,0-7.5,3.357-7.5,7.5s3.358,7.5,7.5,7.5
			c40.009,0,77.665,14.491,107.14,41H331.5z"/>
		<path d="M365.724,361.911c-3.087-2.761-7.829-2.501-10.59,0.587c-21.506,24.029-50.09,41.174-81.173,48.853l8.248-16.497
			c1.853-3.705,0.351-8.21-3.354-10.063c-3.705-1.855-8.21-0.351-10.062,3.354l-16,32c-1.853,3.705-0.351,8.21,3.354,10.063l32,16
			c3.54,1.772,8.055,0.328,9.946-3.141c1.985-3.641,0.47-8.421-3.238-10.275l-14.947-7.474
			c33.082-8.672,63.438-27.156,86.404-52.816C369.073,369.415,368.81,364.674,365.724,361.911z"/>
	</g>
</g>
<g>
</g>
<g>
</g>
<g>
</g>
<g>
</g>
<g>
</g>
<g>
</g>
<g>
</g>
<g>
</g>
<g>
</g>
<g>
</g>
<g>
</g>
<g>
</g>
<g>
</g>
<g>
</g>
<g>
</g>
</svg>
