<?xml version="1.0" encoding="iso-8859-1"?>
<!-- Generator: Adobe Illustrator 19.0.0, SVG Export Plug-In . SVG Version: 6.00 Build 0)  -->
<svg version="1.1" id="Capa_1" xmlns="http://www.w3.org/2000/svg" xmlns:xlink="http://www.w3.org/1999/xlink" x="0px" y="0px"
	 viewBox="0 0 511 511" style="enable-background:new 0 0 511 511;" xml:space="preserve">
<g>
	<g>
		<path d="M359.5,336H263V186.699c48.062-3.833,86-44.167,86-93.199C349,41.944,307.056,0,255.5,0S162,41.944,162,93.5
			c0,49.031,37.937,89.366,86,93.199V336h-96.5c-4.142,0-7.5,3.357-7.5,7.5v32c0,4.143,3.358,7.5,7.5,7.5h10.144l30.58,122.319
			c0.834,3.339,3.834,5.681,7.276,5.681h112c3.441,0,6.441-2.342,7.276-5.681L349.356,383H359.5c4.142,0,7.5-3.357,7.5-7.5v-32
			C367,339.357,363.642,336,359.5,336z M177,93.5c0-43.285,35.215-78.5,78.5-78.5S334,50.215,334,93.5S298.785,172,255.5,172
			S177,136.785,177,93.5z M352,368h-32.833c-4.142,0-7.5,3.357-7.5,7.5s3.358,7.5,7.5,7.5h14.727l-28.25,113H205.356l-28.25-113
			H283.5c4.142,0,7.5-3.357,7.5-7.5s-3.358-7.5-7.5-7.5H159v-17h193V368z"/>
		<path d="M263,145.5v-8.574c11.835-2.295,20.8-12.731,20.8-25.226c0-14.171-11.529-25.7-25.7-25.7h-5.2c-5.9,0-10.7-4.8-10.7-10.7
			s4.8-10.7,10.7-10.7h7.8c4.466,0,8.1,3.634,8.1,8.101v5.2c0,4.143,3.358,7.5,7.5,7.5s7.5-3.357,7.5-7.5v-5.2
			c0-11.961-9.138-21.827-20.8-22.986V41.5c0-4.143-3.358-7.5-7.5-7.5s-7.5,3.357-7.5,7.5v8.574
			c-11.835,2.295-20.8,12.731-20.8,25.226c0,14.171,11.529,25.7,25.7,25.7h5.2c5.9,0,10.7,4.8,10.7,10.7s-4.8,10.7-10.7,10.7h-7.8
			c-4.466,0-8.1-3.634-8.1-8.101c0-4.143-3.358-7.5-7.5-7.5s-7.5,3.357-7.5,7.5c0,11.961,9.138,21.827,20.8,22.985v8.215
			c0,4.143,3.358,7.5,7.5,7.5S263,149.643,263,145.5z"/>
		<path d="M291.569,226.985c-17.979,17.979-25.069,44.438-18.501,69.05c0.692,2.595,2.719,4.62,5.313,5.313
			c6.07,1.62,12.251,2.409,18.392,2.409c18.754,0,37.113-7.364,50.658-20.909c17.979-17.979,25.069-44.438,18.501-69.05
			c-0.692-2.595-2.719-4.62-5.313-5.313C336.006,201.915,309.549,209.006,291.569,226.985z M336.824,272.24
			C326,283.065,311.28,288.878,296.28,288.743l57.047-57.047C353.462,246.697,347.649,261.416,336.824,272.24z M342.721,221.089
			l-57.048,57.048c-0.135-15.001,5.678-29.72,16.503-40.544C313,226.768,327.72,220.953,342.721,221.089z"/>
		<path d="M214.228,303.757c6.139,0,12.323-0.789,18.392-2.409c2.594-0.692,4.621-2.718,5.313-5.313
			c6.567-24.611-0.522-51.07-18.501-69.05c-17.98-17.979-44.438-25.071-69.05-18.5c-2.594,0.692-4.621,2.718-5.313,5.313
			c-6.567,24.611,0.522,51.07,18.501,69.05C177.116,296.394,195.472,303.757,214.228,303.757z M208.824,237.593
			c10.825,10.824,16.638,25.543,16.503,40.544L168.28,221.09C183.28,220.955,198,226.769,208.824,237.593z M157.673,231.696
			l57.046,57.046c-15.001,0.134-29.719-5.678-40.543-16.502C163.351,261.416,157.538,246.697,157.673,231.696z"/>
	</g>
</g>
<g>
</g>
<g>
</g>
<g>
</g>
<g>
</g>
<g>
</g>
<g>
</g>
<g>
</g>
<g>
</g>
<g>
</g>
<g>
</g>
<g>
</g>
<g>
</g>
<g>
</g>
<g>
</g>
<g>
</g>
</svg>
