<?xml version="1.0" encoding="iso-8859-1"?>
<!-- Generator: Adobe Illustrator 19.0.0, SVG Export Plug-In . SVG Version: 6.00 Build 0)  -->
<svg version="1.1" id="Capa_1" xmlns="http://www.w3.org/2000/svg" xmlns:xlink="http://www.w3.org/1999/xlink" x="0px" y="0px"
	 viewBox="0 0 511 511" style="enable-background:new 0 0 511 511;" xml:space="preserve">
<g>
	<g>
		<circle cx="215" cy="119" r="7.5"/>
		<circle cx="152" cy="119" r="7.5"/>
		<circle cx="183.5" cy="391.5" r="7.5"/>
		<path d="M340.63,398.429c2.774,1.15,6.051,0.496,8.174-1.625L386.606,359H471.5c21.78,0,39.5-17.72,39.5-39.5v-176
			c0-21.78-17.72-39.5-39.5-39.5H282.844c0.014-0.251,0.028-0.503,0.04-0.755c0.008-0.164,0.012-0.327,0.019-0.49
			c0.061-1.419,0.098-2.84,0.098-4.255C283,44.187,238.813,0,184.5,0c-0.228,0-0.454,0.003-0.681,0.007
			C183.713,0.002,183.606,0,183.5,0h-128c-5.385,0-9.08,5.784-6.795,10.676c17.741,37.961,36.5,81.162,37.297,87.992
			c0,0.001,0,0.002,0,0.003C86.095,152.906,130.244,197,184.5,197c16.799,0,33.015-4.186,47.5-12.187V208H87.5
			C65.72,208,48,225.72,48,247.5V408H7.5c-4.143,0-7.5,3.357-7.5,7.5v32c0,4.143,3.357,7.5,7.5,7.5H16v48.5
			c0,4.143,3.357,7.5,7.5,7.5h464c4.143,0,7.5-3.357,7.5-7.5V455h8.5c4.143,0,7.5-3.357,7.5-7.5v-32c0-4.143-3.357-7.5-7.5-7.5h-55
			c-4.143,0-7.5,3.357-7.5,7.5s3.357,7.5,7.5,7.5H496v17H15v-17h397c4.143,0,7.5-3.357,7.5-7.5s-3.357-7.5-7.5-7.5h-93v-49h17v32.5
			C336,394.533,337.827,397.269,340.63,398.429z M480,455v41H31v-41H480z M101,98.5c0-2.668,0-7.635-19.638-52.159
			C76.149,34.521,70.898,22.985,67.23,15h115.816c0.175,0.011,0.35,0.013,0.525,0.013L184.5,15c46.042,0,83.5,37.458,83.5,83.5
			c0,1.365-0.038,2.737-0.104,4.105c-0.023,0.479-0.067,0.953-0.099,1.43c-0.003,0.048-0.008,0.096-0.011,0.145
			c-7.809,0.732-14.96,3.749-20.786,8.371V79.646c0.119-4.984-4.843-8.726-9.6-7.346c-17.519,5.109-35.653,7.7-53.9,7.7
			c-18.248,0-36.383-2.591-53.9-7.7c-4.757-1.38-9.718,2.371-9.6,7.346v71.822C108.135,137.044,101,118.59,101,98.5z
			 M134.897,165.621c0.062-0.388,0.103-0.783,0.103-1.188V89.246C150.874,93.062,167.144,95,183.5,95
			c16.355,0,32.625-1.938,48.5-5.755V143.5v23.666c-13.989,9.7-30.384,14.834-47.5,14.834
			C165.938,182,148.777,175.905,134.897,165.621z M232,247.14c-0.773,0.643-1.43,1.45-1.908,2.406L207,295.729v-39.486L213.649,223
			H232V247.14z M153.351,223L160,256.243v39.486L123.635,223H153.351z M175,325v-62h17v62.5c0,0.07,0.009,0.139,0.01,0.208
			l-8.51,17.021l-8.533-17.067C174.986,325.444,175,325.224,175,325z M198.352,223l-5,25h-19.703l-5-25H198.352z M304,408H63V247.5
			c0-13.51,10.99-24.5,24.5-24.5h19.365l69.927,139.854c2.711,5.419,10.705,5.42,13.416,0L232,279.271V319.5
			c0,21.78,17.72,39.5,39.5,39.5H304V408z M271.5,344c-13.51,0-24.5-10.99-24.5-24.5v-176c0-13.51,10.99-24.5,24.5-24.5h200
			c13.51,0,24.5,10.99,24.5,24.5v176c0,13.51-10.99,24.5-24.5,24.5h-88c-1.989,0-3.896,0.79-5.304,2.196L351,373.394V351.5
			c0-4.143-3.357-7.5-7.5-7.5H271.5z"/>
		<path d="M465,233.5c0-51.556-41.944-93.5-93.5-93.5S278,181.944,278,233.5s41.944,93.5,93.5,93.5S465,285.056,465,233.5z
			 M293,233.5c0-43.285,35.215-78.5,78.5-78.5s78.5,35.215,78.5,78.5S414.785,312,371.5,312S293,276.785,293,233.5z"/>
		<path d="M379,285.5v-8.574c11.834-2.295,20.8-12.731,20.8-25.226c0-14.171-11.529-25.7-25.7-25.7H368.9c-5.9,0-10.7-4.8-10.7-10.7
			s4.8-10.7,10.7-10.7h7.8c4.466,0,8.1,3.634,8.1,8.101v5.2c0,4.143,3.357,7.5,7.5,7.5s7.5-3.357,7.5-7.5v-5.2
			c0-11.961-9.138-21.827-20.8-22.985V181.5c0-4.143-3.357-7.5-7.5-7.5s-7.5,3.357-7.5,7.5v8.574
			c-11.834,2.295-20.8,12.731-20.8,25.226c0,14.171,11.529,25.7,25.7,25.7h5.199c5.9,0,10.7,4.8,10.7,10.7s-4.8,10.7-10.7,10.7h-7.8
			c-4.466,0-8.1-3.634-8.1-8.101c0-4.143-3.357-7.5-7.5-7.5s-7.5,3.357-7.5,7.5c0,11.961,9.138,21.827,20.8,22.985v8.215
			c0,4.143,3.357,7.5,7.5,7.5S379,289.643,379,285.5z"/>
	</g>
</g>
<g>
</g>
<g>
</g>
<g>
</g>
<g>
</g>
<g>
</g>
<g>
</g>
<g>
</g>
<g>
</g>
<g>
</g>
<g>
</g>
<g>
</g>
<g>
</g>
<g>
</g>
<g>
</g>
<g>
</g>
</svg>
