<?xml version="1.0" encoding="iso-8859-1"?>
<!-- Generator: Adobe Illustrator 19.0.0, SVG Export Plug-In . SVG Version: 6.00 Build 0)  -->
<svg version="1.1" id="Capa_1" xmlns="http://www.w3.org/2000/svg" xmlns:xlink="http://www.w3.org/1999/xlink" x="0px" y="0px"
	 viewBox="0 0 511 511" style="enable-background:new 0 0 511 511;" xml:space="preserve">
<g>
	<g>
		<path d="M191.5,119c4.143,0,7.5-3.357,7.5-7.5v-8c0-17.369-14.131-31.5-31.5-31.5H167V55.5c0-4.143-3.357-7.5-7.5-7.5
			s-7.5,3.357-7.5,7.5v16.674c-17.938,1.764-32,16.932-32,35.326c0,19.575,15.925,35.5,35.5,35.5h8c11.304,0,20.5,9.196,20.5,20.5
			s-9.196,20.5-20.5,20.5h-12c-9.098,0-16.5-7.402-16.5-16.5c0-4.143-3.357-7.5-7.5-7.5s-7.5,3.357-7.5,7.5
			c0,17.369,14.131,31.5,31.5,31.5h0.5v16.5c0,4.143,3.357,7.5,7.5,7.5s7.5-3.357,7.5-7.5v-16.674c17.938-1.764,32-16.932,32-35.326
			c0-19.575-15.925-35.5-35.5-35.5h-8c-11.304,0-20.5-9.196-20.5-20.5S144.196,87,155.5,87h12c9.098,0,16.5,7.402,16.5,16.5v8
			C184,115.643,187.357,119,191.5,119z"/>
		<path d="M71.5,360c-3.126,0-5.925,1.939-7.022,4.866l-24,64c-1.454,3.879,0.511,8.202,4.389,9.656
			c3.879,1.453,8.202-0.511,9.656-4.389L61.698,415h19.604l7.175,19.134c1.494,3.984,6.15,5.934,10.045,4.229
			c3.598-1.574,5.376-5.825,4-9.497l-24-64C77.425,361.939,74.626,360,71.5,360z M67.323,400l4.177-11.14L75.677,400H67.323z"/>
		<path d="M383.5,479h40c4.143,0,7.5-3.357,7.5-7.5v-32c0-4.143-3.357-7.5-7.5-7.5h-0.517c0.011-0.165,0.017-0.332,0.017-0.5v-24
			c0-4.143-3.357-7.5-7.5-7.5h-32c-4.143,0-7.5,3.357-7.5,7.5v64C376,475.643,379.357,479,383.5,479z M391,415h17v16.5
			c0,0.168,0.006,0.335,0.017,0.5H391.5c-0.168,0-0.335,0.006-0.5,0.017V415z M391,446.983c0.165,0.011,0.332,0.017,0.5,0.017H416
			v17h-25V446.983z"/>
		<path d="M439.5,231c39.425,0,71.5-32.075,71.5-71.5S478.925,88,439.5,88c-30.814,0-57.137,19.594-67.167,46.977l-54.207-13.551
			c-3.994-32.218-21.569-62.556-49.585-84.849c-3.243-2.578-7.958-2.041-10.539,1.199c-2.579,3.241-2.042,7.96,1.199,10.539
			C288.091,71.301,304,102.264,304,135.5c0,66.444-64.822,120.5-144.5,120.5S15,201.944,15,135.5S79.822,15,159.5,15
			c24.174,0,48.094,5.082,69.176,14.698c3.768,1.718,8.217,0.057,9.937-3.712c1.719-3.769,0.057-8.217-3.712-9.937
			C211.879,5.55,185.806,0,159.5,0C71.552,0,0,60.785,0,135.5c0,54.896,38.628,102.272,94.005,123.543l-27.666,69.164
			C29.317,330.863,0,361.813,0,399.5C0,438.925,32.075,471,71.5,471s71.5-32.075,71.5-71.5c0-35.77-26.405-65.487-60.746-70.69
			l25.995-64.986C124.341,268.475,141.58,271,159.5,271c27.575,0,53.537-5.978,76.188-16.484l116.204,131.698
			C337.242,399.316,328,418.346,328,439.5c0,39.425,32.075,71.5,71.5,71.5s71.5-32.075,71.5-71.5S438.925,368,399.5,368
			c-12.865,0-24.936,3.433-35.376,9.404L249.389,247.372c41.513-24.149,68.96-64.52,69.587-110.271l49.734,12.434
			c-0.457,3.259-0.71,6.583-0.71,9.966C368,198.925,400.075,231,439.5,231z M128,399.5c0,31.154-25.346,56.5-56.5,56.5
			S15,430.654,15,399.5c0-31.145,25.33-56.484,56.472-56.499c0.009,0,0.018,0.001,0.026,0.001c0.007,0,0.013-0.001,0.02-0.001
			C102.664,343.01,128,368.352,128,399.5z M456,439.5c0,31.154-25.346,56.5-56.5,56.5S343,470.654,343,439.5s25.346-56.5,56.5-56.5
			S456,408.346,456,439.5z M439.5,103c31.154,0,56.5,25.346,56.5,56.5S470.654,216,439.5,216S383,190.654,383,159.5
			S408.346,103,439.5,103z"/>
		<path d="M442.833,200c7.649,0,15.092-2.16,21.521-6.247c3.495-2.222,4.528-6.856,2.306-10.353
			c-2.221-3.495-6.856-4.527-10.353-2.306c-4.02,2.555-8.679,3.905-13.474,3.905c-13.877,0-25.166-11.29-25.166-25.167
			s11.289-25.166,25.166-25.166c4.921,0,9.684,1.417,13.773,4.099c3.465,2.271,8.114,1.305,10.385-2.16s1.304-8.113-2.16-10.385
			c-6.54-4.287-14.147-6.554-21.998-6.554c-22.147,0-40.166,18.019-40.166,40.166C402.667,181.981,420.686,200,442.833,200z"/>
	</g>
</g>
<g>
</g>
<g>
</g>
<g>
</g>
<g>
</g>
<g>
</g>
<g>
</g>
<g>
</g>
<g>
</g>
<g>
</g>
<g>
</g>
<g>
</g>
<g>
</g>
<g>
</g>
<g>
</g>
<g>
</g>
</svg>
