<?xml version="1.0" encoding="iso-8859-1"?>
<!-- Generator: Adobe Illustrator 19.0.0, SVG Export Plug-In . SVG Version: 6.00 Build 0)  -->
<svg version="1.1" id="Capa_1" xmlns="http://www.w3.org/2000/svg" xmlns:xlink="http://www.w3.org/1999/xlink" x="0px" y="0px"
	 viewBox="0 0 511 511" style="enable-background:new 0 0 511 511;" xml:space="preserve">
<g>
	<path d="M487.255,6.551C486.787,2.861,483.542,0,479.822,0h-448c-2.329,0-4.472,0.61-6.117,2.349
		c-2.063,2.181-2.601,5.443-1.383,8.187V503.5c0,4.143,3.358,7.5,7.5,7.5s7.5-3.357,7.5-7.5V22.216l115.584,79.464
		c3.983,2.736,9.65,0.914,11.297-3.617l24.991-68.726l25.041,75.124c0,0-1.966,12.971-2.403,13.67l-62.94,100.704
		c-1.997,3.194-1.256,7.515,1.701,9.853c3.463,2.739,8.683,1.834,11.019-1.904l49.63-79.407l-7.964,114.152
		c-0.235,0.365-0.448,0.75-0.622,1.164l-58.469,138.862l-55.339,19.897l-11.123-60.447l64.937-103.898
		c2.195-3.512,1.127-8.14-2.385-10.335c-3.513-2.195-8.139-1.127-10.335,2.386L65.462,355.525c-0.993,1.588-1.355,3.49-1.016,5.332
		l13.249,72c0.823,4.476,5.618,7.244,9.914,5.7l66.751-24c1.974-0.71,3.561-2.214,4.375-4.147l43.338-102.928l-4.332,62.092
		c0,0.001,0,0.002,0,0.003l-3.6,51.601c0,0.001,0,0.001,0,0.002l-1.8,25.797c-0.151,2.166,0.644,4.291,2.179,5.826l56,56
		c2.89,2.889,7.717,2.889,10.606,0l56-56c1.535-1.535,2.33-3.66,2.179-5.826l-23.896-342.516l24.723-74.168l24.644,67.77
		c1.648,4.531,7.315,6.353,11.297,3.617l116.251-79.922V503.5c0,4.143,3.358,7.5,7.5,7.5s7.5-3.357,7.5-7.5V7.5
		C487.322,7.178,487.295,6.862,487.255,6.551z M309.416,15l-8.149,24.448L244.715,96h-15.488l-2.825-8.475L298.928,15H309.416z
		 M298.363,362.352l-86.541,86.542l-4.28-4.28l1.367-19.593l87.707-87.708L298.363,362.352z M277.715,15l-56.615,56.615
		l-6.697-20.089L250.929,15H277.715z M230.817,111h30.898l-33.215,33.215L230.817,111z M226.908,167.02l54.055-54.055l1.747,25.039
		l-57.811,57.812L226.908,167.02z M219.708,270.221l67.516-67.517l1.747,25.04l-71.272,71.271L219.708,270.221z M295.232,317.482
		l-84.733,84.733l2.009-28.795l80.977-80.978L295.232,317.482z M292.102,272.613l-78.002,78.002l2.009-28.794l74.247-74.246
		L292.102,272.613z M285.841,182.874l-64.542,64.542l2.009-28.796l60.786-60.786L285.841,182.874z M282.416,96h-2.594h-13.893
		l24.731-24.731L282.416,96z M229.715,15l-20.615,20.615L202.227,15H229.715z M155.418,83.829L55.303,15h125.145L155.418,83.829z
		 M222.428,459.5l77.318-77.318l1.747,25.041l-65.671,65.671L222.428,459.5z M255.822,492.894l-9.393-9.394l56.448-56.448
		l1.225,17.561L255.822,492.894z M355.558,83.829L330.529,15h125.145L355.558,83.829z"/>
</g>
<g>
</g>
<g>
</g>
<g>
</g>
<g>
</g>
<g>
</g>
<g>
</g>
<g>
</g>
<g>
</g>
<g>
</g>
<g>
</g>
<g>
</g>
<g>
</g>
<g>
</g>
<g>
</g>
<g>
</g>
</svg>
