<?xml version="1.0" encoding="iso-8859-1"?>
<!-- Generator: Adobe Illustrator 19.0.0, SVG Export Plug-In . SVG Version: 6.00 Build 0)  -->
<svg version="1.1" id="Capa_1" xmlns="http://www.w3.org/2000/svg" xmlns:xlink="http://www.w3.org/1999/xlink" x="0px" y="0px"
	 viewBox="0 0 511 511" style="enable-background:new 0 0 511 511;" xml:space="preserve">
<g>
	<g>
		<path d="M471.5,0.029h-432c-21.78,0-39.5,17.72-39.5,39.5v256c0,21.78,17.72,39.5,39.5,39.5H200v62.323
			c0,2.162,1.107,3.984,2.041,5.853c0.71,1.419,1.419,2.839,2.129,4.258c13.438,26.876,33.693,50.212,60.203,69.356
			c24.4,17.622,47.211,26.643,58.636,30.451c2.128,0.709,4.26,1.406,6.383,2.129c1.98,0.674,3.978,1.556,6.106,1.571
			c2.07,0.014,4.009-0.842,5.929-1.508c2.18-0.756,4.376-1.462,6.565-2.192c11.425-3.809,34.235-12.829,58.635-30.451
			c26.51-19.145,46.766-42.479,60.204-69.357c0.71-1.419,1.419-2.839,2.129-4.258c0.934-1.869,2.041-3.692,2.041-5.852v-62.323h0.5
			c21.78,0,39.5-17.72,39.5-39.5v-256C511,17.749,493.28,0.029,471.5,0.029z M39.5,15.029h432c13.51,0,24.5,10.99,24.5,24.5v24.5H15
			v-24.5C15,26.019,25.991,15.029,39.5,15.029z M456,395.582l-2.586,5.173c-12.346,24.69-31.042,46.191-55.57,63.905
			c-22.78,16.453-43.984,24.844-54.597,28.381c-1.351,0.451-2.704,0.895-4.056,1.344c-0.713,0.237-1.438,0.454-2.134,0.735
			c-0.562,0.227-1.087,0.54-1.716,0.489c-0.594-0.047-1.12-0.381-1.664-0.596c-0.62-0.245-1.269-0.423-1.902-0.632
			c-1.342-0.441-2.681-0.894-4.022-1.341c-10.612-3.537-31.816-11.928-54.598-28.381c-24.528-17.714-43.224-39.215-55.569-63.905
			L215,395.582V235.806l32.248,10.75c7.255,2.418,14.889,3.645,22.69,3.645c28.166-0.001,50.631-15.833,50.926-16.05l14.686-11.014
			l14.633,11.047c0.043,0.032,0.087,0.064,0.131,0.096c0.221,0.159,22.396,15.921,50.749,15.921c7.798,0,15.433-1.227,22.691-3.645
			L456,235.807V395.582z M471.5,320.029H471v-94.628c0-5.03-5.091-8.709-9.872-7.115l-42.118,14.04
			c-5.726,1.907-11.765,2.875-17.948,2.875c-22.517,0-41.069-12.469-41.941-13.063l-19.038-14.372
			c-2.667-2.013-6.344-2.019-9.019-0.014l-19.082,14.312c-1.025,0.703-19.529,13.137-42.044,13.138
			c-6.186,0-12.224-0.967-17.947-2.875l-42.119-14.04c-4.78-1.591-9.872,2.084-9.872,7.115v94.628H39.5
			c-13.509,0-24.5-10.99-24.5-24.5v-152.5h364.5c4.143,0,7.5-3.357,7.5-7.5s-3.357-7.5-7.5-7.5H15v-49h481v49h-80
			c-4.143,0-7.5,3.357-7.5,7.5s3.357,7.5,7.5,7.5h80v152.5C496,309.039,485.01,320.029,471.5,320.029z"/>
		<path d="M143.5,224.029h-104c-4.142,0-7.5,3.357-7.5,7.5s3.358,7.5,7.5,7.5h104c4.142,0,7.5-3.357,7.5-7.5
			S147.642,224.029,143.5,224.029z"/>
		<path d="M231.5,160.029h-192c-4.142,0-7.5,3.357-7.5,7.5v32c0,4.143,3.358,7.5,7.5,7.5h192c4.142,0,7.5-3.357,7.5-7.5v-32
			C239,163.387,235.642,160.029,231.5,160.029z M224,192.029H47v-17h177V192.029z"/>
		<path d="M340,247.799c-2.666-2-6.334-2-9,0c-0.412,0.309-41.711,30.691-89.128,14.885c-4.78-1.591-9.872,2.084-9.872,7.115v120
			c0,1.164,0.271,2.313,0.792,3.354c28.733,57.467,88.622,79.856,100.336,83.761c1.531,0.51,3.213,0.51,4.744,0
			c11.714-3.904,71.603-26.294,100.336-83.761c0.521-1.042,0.792-2.19,0.792-3.354v-120c0-5.031-5.091-8.707-9.872-7.115
			C381.717,278.488,340.412,248.107,340,247.799z M424,388.002c-24.803,47.959-73.867,68.608-88.5,73.859
			c-14.633-5.251-63.697-25.9-88.5-73.859V279.667c40.949,9.229,76.335-9.343,88.5-16.884c9.835,6.097,34.835,19.404,65.688,19.402
			c7.314-0.001,14.966-0.75,22.813-2.52V388.002z"/>
		<path d="M398.175,312.956c-7.081-8.087-19.426-8.91-27.516-1.833l-48.176,42.154l-11.383-15.178
			c-6.373-8.5-18.793-10.285-27.3-3.9c-8.502,6.372-10.28,18.792-3.9,27.3l23.999,31.999c6.706,8.944,20.024,10.34,28.441,2.977
			l64.001-56c8.091-7.081,8.914-19.425,1.834-27.517C398.176,312.957,398.175,312.957,398.175,312.956z M386.464,329.185
			l-63.999,55.999c-1.941,1.699-5.015,1.382-6.564-0.686l-24-32c-1.457-1.943-1.043-4.844,0.9-6.301
			c1.943-1.456,4.842-1.042,6.299,0.9l16.236,21.648c2.579,3.439,7.701,3.977,10.938,1.145l54.261-47.479
			c1.825-1.597,4.754-1.403,6.352,0.422C388.484,324.66,388.289,327.588,386.464,329.185z"/>
	</g>
</g>
<g>
</g>
<g>
</g>
<g>
</g>
<g>
</g>
<g>
</g>
<g>
</g>
<g>
</g>
<g>
</g>
<g>
</g>
<g>
</g>
<g>
</g>
<g>
</g>
<g>
</g>
<g>
</g>
<g>
</g>
</svg>
