<?xml version="1.0" encoding="iso-8859-1"?>
<!-- Generator: Adobe Illustrator 19.0.0, SVG Export Plug-In . SVG Version: 6.00 Build 0)  -->
<svg version="1.1" id="Capa_1" xmlns="http://www.w3.org/2000/svg" xmlns:xlink="http://www.w3.org/1999/xlink" x="0px" y="0px"
	 viewBox="0 0 511 511" style="enable-background:new 0 0 511 511;" xml:space="preserve">
<g>
	<g>
		<path d="M383.5,0h-328C38.131,0,24,14.131,24,31.5V152H7.5c-4.142,0-7.5,3.357-7.5,7.5s3.358,7.5,7.5,7.5H24v81H7.5
			c-4.142,0-7.5,3.357-7.5,7.5s3.358,7.5,7.5,7.5H24v81H7.5c-4.142,0-7.5,3.357-7.5,7.5s3.358,7.5,7.5,7.5H24v120.5
			c0,17.369,14.131,31.5,31.5,31.5h328c17.369,0,31.5-14.131,31.5-31.5V228.002c0-4.143-3.358-7.5-7.5-7.5s-7.5,3.357-7.5,7.5V479.5
			c0,9.099-7.402,16.5-16.5,16.5h-328c-9.098,0-16.5-7.401-16.5-16.5V479h296.5c4.142,0,7.5-3.357,7.5-7.5V415h16.5
			c12.958,0,23.5-10.542,23.5-23.5v-48c0-12.958-10.542-23.5-23.5-23.5H343v-17h16.5c12.958,0,23.5-10.542,23.5-23.5v-48
			c0-12.958-10.542-23.5-23.5-23.5H343v-17h16.5c12.958,0,23.5-10.542,23.5-23.5v-48c0-12.958-10.542-23.5-23.5-23.5H343V39.5
			c0-4.143-3.358-7.5-7.5-7.5H39v-0.5C39,22.401,46.402,15,55.5,15h328c9.098,0,16.5,7.401,16.5,16.5v159.999
			c0,4.143,3.358,7.5,7.5,7.5s7.5-3.357,7.5-7.5V31.5C415,14.131,400.869,0,383.5,0z M359.5,335c4.687,0,8.5,3.813,8.5,8.5v48
			c0,4.687-3.813,8.5-8.5,8.5H343v-65H359.5z M359.5,223c4.687,0,8.5,3.813,8.5,8.5v48c0,4.687-3.813,8.5-8.5,8.5H343v-65H359.5z
			 M359.5,111c4.687,0,8.5,3.813,8.5,8.5v48c0,4.687-3.813,8.5-8.5,8.5H343v-65H359.5z M328,47v417H39V359h9.909
			c3.374,13.759,15.806,24,30.591,24c17.369,0,31.5-14.131,31.5-31.5S96.869,320,79.5,320c-14.785,0-27.216,10.241-30.591,24H39v-81
			h9.909c3.374,13.759,15.806,24,30.591,24c17.369,0,31.5-14.131,31.5-31.5S96.869,224,79.5,224c-14.785,0-27.216,10.241-30.591,24
			H39v-81h9.909c3.374,13.759,15.806,24,30.591,24c17.369,0,31.5-14.131,31.5-31.5S96.869,128,79.5,128
			c-14.785,0-27.216,10.241-30.591,24H39V47H328z M71.5,344h-6.678c2.737-5.334,8.282-9,14.678-9c9.098,0,16.5,7.402,16.5,16.5
			S88.598,368,79.5,368c-6.396,0-11.941-3.666-14.678-9H71.5c4.142,0,7.5-3.357,7.5-7.5S75.642,344,71.5,344z M71.5,248h-6.678
			c2.737-5.334,8.282-9,14.678-9c9.098,0,16.5,7.402,16.5,16.5S88.598,272,79.5,272c-6.396,0-11.941-3.666-14.678-9H71.5
			c4.142,0,7.5-3.357,7.5-7.5S75.642,248,71.5,248z M71.5,152h-6.678c2.737-5.334,8.282-9,14.678-9c9.098,0,16.5,7.402,16.5,16.5
			S88.598,176,79.5,176c-6.396,0-11.941-3.666-14.678-9H71.5c4.142,0,7.5-3.357,7.5-7.5S75.642,152,71.5,152z"/>
		<path d="M151.5,167h144c4.142,0,7.5-3.357,7.5-7.5s-3.358-7.5-7.5-7.5h-144c-4.142,0-7.5,3.357-7.5,7.5S147.358,167,151.5,167z"/>
		<path d="M151.5,263h144c4.142,0,7.5-3.357,7.5-7.5s-3.358-7.5-7.5-7.5h-144c-4.142,0-7.5,3.357-7.5,7.5S147.358,263,151.5,263z"/>
		<path d="M151.5,359h144c4.142,0,7.5-3.357,7.5-7.5s-3.358-7.5-7.5-7.5h-144c-4.142,0-7.5,3.357-7.5,7.5S147.358,359,151.5,359z"/>
		<path d="M503.5,297c-4.142,0-7.5,3.357-7.5,7.5v110.806l-9,0.375V99.5c0-12.563-8.472-23.178-20-26.452V47.5
			c0-4.143-3.358-7.5-7.5-7.5s-7.5,3.357-7.5,7.5v25.548c-11.528,3.273-20,13.889-20,26.452v340c0,12.958,10.542,23.5,23.5,23.5h8
			c12.958,0,23.5-10.542,23.5-23.5v-8.806l16.812-0.701c4.018-0.167,7.188-3.473,7.188-7.493v-118
			C511,300.357,507.642,297,503.5,297z M447,99.5c0-6.893,5.607-12.5,12.5-12.5S472,92.607,472,99.5V312h-25V99.5z M463.5,448h-8
			c-4.687,0-8.5-3.813-8.5-8.5V327h25v112.5C472,444.187,468.187,448,463.5,448z"/>
	</g>
</g>
<g>
</g>
<g>
</g>
<g>
</g>
<g>
</g>
<g>
</g>
<g>
</g>
<g>
</g>
<g>
</g>
<g>
</g>
<g>
</g>
<g>
</g>
<g>
</g>
<g>
</g>
<g>
</g>
<g>
</g>
</svg>
