<?xml version="1.0" encoding="iso-8859-1"?>
<!-- Generator: Adobe Illustrator 19.0.0, SVG Export Plug-In . SVG Version: 6.00 Build 0)  -->
<svg version="1.1" id="Capa_1" xmlns="http://www.w3.org/2000/svg" xmlns:xlink="http://www.w3.org/1999/xlink" x="0px" y="0px"
	 viewBox="0 0 506 506" style="enable-background:new 0 0 506 506;" xml:space="preserve">
<g>
	<g>
		<path d="M402.5,261.5c-5.661,0-11.298,0.46-16.856,1.373c0.237-3.286,0.356-6.584,0.356-9.873c0-74.715-60.785-135.5-135.5-135.5
			c-32.12,0-63.268,11.44-87.706,32.215c-22.547,19.167-38.22,45.206-44.58,73.859C52.645,225.84,0,279.888,0,346
			c0,67.547,54.953,122.5,122.5,122.5h245c4.142,0,7.5-3.357,7.5-7.5s-3.358-7.5-7.5-7.5h-245C63.224,453.5,15,405.275,15,346
			s48.224-107.5,107.5-107.5c0.448,0,0.894,0.008,1.34,0.016l0.43,0.007c3.737,0.082,6.877-2.581,7.507-6.22
			c10.007-57.83,59.938-99.803,118.724-99.803c66.444,0,120.5,54.056,120.5,120.5c0,6.124-0.464,12.278-1.379,18.292
			c-0.803,5.276,4.255,9.769,9.399,8.361c7.625-2.093,15.525-3.153,23.48-3.153c48.799,0,88.5,39.701,88.5,88.5
			s-39.701,88.5-88.5,88.5c-4.142,0-7.5,3.357-7.5,7.5s3.358,7.5,7.5,7.5c57.07,0,103.5-46.43,103.5-103.5S459.57,261.5,402.5,261.5
			z"/>
		<path d="M298.5,284.5c10.752,0,19.5-8.748,19.5-19.5v-12c0-28.061-20.93-51.324-48-54.995V185c0-10.752-8.748-19.5-19.5-19.5
			S231,174.248,231,185v13.998c-27.792,6.199-48,30.905-48,60.002c0,33.911,27.589,61.5,61.5,61.5h12
			c12.407,0,22.5,10.094,22.5,22.5s-10.093,22.5-22.5,22.5h-18c-9.098,0-16.5-7.401-16.5-16.5c0-10.752-8.748-19.5-19.5-19.5
			S183,338.248,183,349c0,28.061,20.93,51.324,48,54.995V417c0,10.752,8.748,19.5,19.5,19.5S270,427.752,270,417v-13.998
			c27.792-6.199,48-30.905,48-60.002c0-33.911-27.589-61.5-61.5-61.5h-12c-12.407,0-22.5-10.094-22.5-22.5s10.093-22.5,22.5-22.5h18
			c9.098,0,16.5,7.401,16.5,16.5v12C279,275.752,287.748,284.5,298.5,284.5z M262.5,221.5h-18c-20.678,0-37.5,16.822-37.5,37.5
			s16.822,37.5,37.5,37.5h12c25.64,0,46.5,20.859,46.5,46.5c0,23.724-17.767,43.587-41.328,46.204
			c-3.798,0.422-6.672,3.633-6.672,7.454V417c0,2.481-2.019,4.5-4.5,4.5s-4.5-2.019-4.5-4.5v-20c0-4.143-3.358-7.5-7.5-7.5
			c-22.332,0-40.5-18.168-40.5-40.5c0-2.481,2.019-4.5,4.5-4.5s4.5,2.019,4.5,4.5c0,17.369,14.131,31.5,31.5,31.5h18
			c20.678,0,37.5-16.822,37.5-37.5s-16.822-37.5-37.5-37.5h-12c-25.64,0-46.5-20.859-46.5-46.5
			c0-23.724,17.767-43.587,41.328-46.204c3.798-0.422,6.672-3.633,6.672-7.454V185c0-2.481,2.019-4.5,4.5-4.5s4.5,2.019,4.5,4.5v20
			c0,4.143,3.358,7.5,7.5,7.5c22.332,0,40.5,18.168,40.5,40.5v12c0,2.481-2.019,4.5-4.5,4.5s-4.5-2.019-4.5-4.5v-12
			C294,235.631,279.869,221.5,262.5,221.5z"/>
		<path d="M378.5,52.5C440.533,52.5,491,102.968,491,165c0,4.143,3.358,7.5,7.5,7.5s7.5-3.357,7.5-7.5
			c0-70.304-57.196-127.5-127.5-127.5c-4.142,0-7.5,3.357-7.5,7.5S374.358,52.5,378.5,52.5z"/>
		<path d="M378.5,100.5c35.565,0,64.5,28.935,64.5,64.5c0,4.143,3.358,7.5,7.5,7.5s7.5-3.357,7.5-7.5
			c0-43.837-35.664-79.5-79.5-79.5c-4.142,0-7.5,3.357-7.5,7.5S374.358,100.5,378.5,100.5z"/>
		<path d="M378.5,148.5c9.098,0,16.5,7.402,16.5,16.5c0,4.143,3.358,7.5,7.5,7.5s7.5-3.357,7.5-7.5c0-17.369-14.131-31.5-31.5-31.5
			c-4.142,0-7.5,3.357-7.5,7.5S374.358,148.5,378.5,148.5z"/>
	</g>
</g>
<g>
</g>
<g>
</g>
<g>
</g>
<g>
</g>
<g>
</g>
<g>
</g>
<g>
</g>
<g>
</g>
<g>
</g>
<g>
</g>
<g>
</g>
<g>
</g>
<g>
</g>
<g>
</g>
<g>
</g>
</svg>
