<?xml version="1.0" encoding="iso-8859-1"?>
<!-- Generator: Adobe Illustrator 19.0.0, SVG Export Plug-In . SVG Version: 6.00 Build 0)  -->
<svg version="1.1" id="Capa_1" xmlns="http://www.w3.org/2000/svg" xmlns:xlink="http://www.w3.org/1999/xlink" x="0px" y="0px"
	 viewBox="0 0 511 511" style="enable-background:new 0 0 511 511;" xml:space="preserve">
<g>
	<g>
		<path d="M248,365.5v8.574c-11.834,2.295-20.8,12.731-20.8,25.226c0,14.171,11.529,25.7,25.7,25.7h5.199c5.9,0,10.7,4.8,10.7,10.7
			s-4.8,10.7-10.7,10.7h-7.8c-4.466,0-8.1-3.634-8.1-8.101c0-4.143-3.357-7.5-7.5-7.5s-7.5,3.357-7.5,7.5
			c0,11.961,9.138,21.827,20.8,22.985v8.215c0,4.143,3.357,7.5,7.5,7.5s7.5-3.357,7.5-7.5v-8.574
			c11.834-2.295,20.8-12.731,20.8-25.226c0-14.171-11.529-25.7-25.7-25.7H252.9c-5.9,0-10.7-4.8-10.7-10.7s4.8-10.7,10.7-10.7h7.8
			c4.466,0,8.1,3.634,8.1,8.101v5.2c0,4.143,3.357,7.5,7.5,7.5s7.5-3.357,7.5-7.5v-5.2c0-11.961-9.138-21.827-20.8-22.985V365.5
			c0-4.143-3.357-7.5-7.5-7.5S248,361.357,248,365.5z"/>
		<path d="M444.911,196.683c1.325-1.378,2.089-3.269,2.089-5.183c0-50-19.153-97.312-53.931-133.218
			c-2.883-2.977-7.631-3.052-10.605-0.17c-2.976,2.882-3.052,7.63-0.17,10.605c28.076,28.987,45.104,66.039,48.896,105.758
			c-6.081-3.57-14.006-6.476-23.69-6.476c-10.375,0-18.724,3.335-24.957,7.249c-2.461-44.477-14.987-85.874-35.908-117.953
			c-7.403-11.352-15.59-21.13-24.381-29.239c11.525,4.712,22.582,10.664,33.001,17.815c3.369,2.314,8.115,1.43,10.428-1.939
			c2.313-3.369,1.43-8.115-1.939-10.428C331.808,11.586,294.378,0,255.5,0C149.906,0,64,85.906,64,191.5
			c0,2.376,1.166,4.602,3.044,6.033l172.87,127.773C195.752,332.749,162,371.254,162,417.5c0,51.556,41.944,93.5,93.5,93.5
			s93.5-41.944,93.5-93.5c0-46.246-33.752-84.751-77.914-92.194l172.869-127.773C444.296,197.282,444.619,196.99,444.911,196.683z
			 M407.5,183c9.242,0,16.225,3.995,20.631,7.577l-120.216,88.856l73.209-82.971c0.026-0.029,0.046-0.061,0.072-0.09
			c0.074-0.087,0.145-0.176,0.215-0.266c0.029-0.037,0.061-0.069,0.089-0.106C382.498,194.669,391.706,183,407.5,183z M229.434,19.8
			c-17.967,30.601-27.886,92.546-29.261,156.329c-8.037-4.851-19.4-9.25-33.286-8.104c-9.482,0.777-17.324,3.907-23.424,7.503
			c2.381-41.662,14.048-80.264,33.466-110.04C191.761,42.747,209.846,27.143,229.434,19.8z M200.97,195.532l34.606,98.052
			l-89.65-101.603c4.8-3.841,12.289-8.194,22.187-9.006C185.132,181.581,197.057,191.654,200.97,195.532z M310.03,195.533
			c3.913-3.878,15.835-13.945,32.857-12.558c9.895,0.812,17.385,5.166,22.186,9.007l-89.649,101.603L310.03,195.533z M255.5,304.965
			l-39.017-110.548C224.697,189.205,238.117,183,255.5,183s30.803,6.205,39.017,11.417L255.5,304.965z M129.5,196
			c0.028,0.038,0.061,0.07,0.09,0.106c0.07,0.09,0.141,0.179,0.215,0.266c0.025,0.029,0.046,0.061,0.072,0.09l73.209,82.971
			L82.869,190.577C87.275,186.995,94.258,183,103.5,183C119.294,183,128.502,194.669,129.5,196z M334.071,65.489
			c19.418,29.776,31.086,68.38,33.466,110.042c-6.101-3.597-13.943-6.728-23.424-7.505c-13.898-1.142-25.254,3.253-33.286,8.102
			c-1.375-63.783-11.294-125.727-29.261-156.328C301.154,27.143,319.239,42.748,334.071,65.489z M282.184,63.285
			c8.074,30.947,12.86,71.238,13.687,114.634C285.974,172.787,272.266,168,255.5,168c-16.766,0-30.475,4.787-40.371,9.919
			c0.828-43.396,5.614-83.688,13.687-114.634C237.518,29.931,248.487,15,255.5,15S273.482,29.931,282.184,63.285z M188.626,28.17
			c-8.746,8.087-16.892,17.825-24.261,29.125c-20.921,32.079-33.448,73.478-35.908,117.955c-6.234-3.914-14.583-7.25-24.957-7.25
			c-9.682,0-17.604,2.903-23.686,6.473C86.189,108.195,129.378,52.518,188.626,28.17z M334,417.5c0,43.285-35.215,78.5-78.5,78.5
			S177,460.785,177,417.5s35.215-78.5,78.5-78.5S334,374.215,334,417.5z"/>
	</g>
</g>
<g>
</g>
<g>
</g>
<g>
</g>
<g>
</g>
<g>
</g>
<g>
</g>
<g>
</g>
<g>
</g>
<g>
</g>
<g>
</g>
<g>
</g>
<g>
</g>
<g>
</g>
<g>
</g>
<g>
</g>
</svg>
