<?xml version="1.0" encoding="iso-8859-1"?>
<!-- Generator: Adobe Illustrator 19.0.0, SVG Export Plug-In . SVG Version: 6.00 Build 0)  -->
<svg version="1.1" id="Capa_1" xmlns="http://www.w3.org/2000/svg" xmlns:xlink="http://www.w3.org/1999/xlink" x="0px" y="0px"
	 viewBox="0 0 512.333 512.333" style="enable-background:new 0 0 512.333 512.333;" xml:space="preserve">
<g>
	<g>
		<g>
			<path style="fill:#76E7EB;" d="M280.167,119.5c0-61.856,50.144-112,112-112s112,50.144,112,112s-112,193.333-112,193.333
				S280.167,181.356,280.167,119.5z"/>
			<path style="fill:#1BD7DE;" d="M304.167,119.5c0-57.801,43.788-105.371,100-111.359c-3.943-0.42-7.946-0.641-12-0.641
				c-61.856,0-112,50.144-112,112c0,61.856,112,193.333,112,193.333s4.627-5.432,12-14.606
				C375.265,262.263,304.167,168.783,304.167,119.5z"/>
			<circle style="fill:#F4F6F7;" cx="392.167" cy="119.5" r="80"/>
		</g>
		<g>
			<rect x="8.167" y="360.833" style="fill:#FDDD88;" width="192" height="144"/>
			<rect x="8.167" y="360.833" style="fill:#FCD56A;" width="24" height="144"/>
			<polygon style="fill:#FD8E61;" points="200.167,360.833 104.167,256.833 8.167,360.833 			"/>
			<polygon style="fill:#FD7239;" points="104.167,256.833 8.167,360.833 32.167,360.833 116.167,269.833 			"/>
			<rect x="80.167" y="416.833" style="fill:#55697A;" width="48" height="88"/>
		</g>
	</g>
	<g>
		<path d="M392.167,320.333c2.197,0,4.284-0.964,5.709-2.637c4.646-5.454,113.791-134.313,113.791-198.196
			c0-65.893-53.607-119.5-119.5-119.5s-119.5,53.607-119.5,119.5c0,63.883,109.145,192.742,113.791,198.196
			C387.882,319.369,389.969,320.333,392.167,320.333z M287.667,119.5c0-57.621,46.879-104.5,104.5-104.5s104.5,46.879,104.5,104.5
			c0,23.747-18.882,63.688-54.604,115.503c-20.047,29.079-40.307,54.409-49.896,66.098c-9.589-11.688-29.849-37.019-49.896-66.098
			C306.548,183.188,287.667,143.247,287.667,119.5z"/>
		<path d="M479.667,119.5c0-16.582-4.661-32.724-13.479-46.679c-2.214-3.503-6.847-4.546-10.347-2.335
			c-3.502,2.213-4.547,6.846-2.335,10.347c7.301,11.555,11.16,24.926,11.16,38.667c0,39.977-32.523,72.5-72.5,72.5
			s-72.5-32.523-72.5-72.5S352.19,47,392.167,47c12.78,0,25.342,3.368,36.325,9.741c3.534,2.052,8.2,0.811,10.251-2.724
			c2.051-3.535,0.811-8.2-2.724-10.251C422.751,36.069,407.587,32,392.167,32c-48.248,0-87.5,39.252-87.5,87.5
			s39.252,87.5,87.5,87.5S479.667,167.748,479.667,119.5z"/>
		<path d="M412.966,111.399c4.143,0,7.5-3.357,7.5-7.5v-5.2c0-11.961-9.138-21.826-20.8-22.985V67.5c0-4.143-3.357-7.5-7.5-7.5
			s-7.5,3.357-7.5,7.5v8.574c-11.834,2.295-20.8,12.731-20.8,25.226c0,14.171,11.529,25.7,25.7,25.7h5.199
			c5.9,0,10.7,4.8,10.7,10.699c0,5.9-4.8,10.7-10.7,10.7h-7.8c-4.466,0-8.1-3.634-8.1-8.1c0-4.143-3.357-7.5-7.5-7.5
			s-7.5,3.357-7.5,7.5c0,11.961,9.138,21.826,20.8,22.985v8.216c0,4.143,3.357,7.5,7.5,7.5s7.5-3.357,7.5-7.5v-8.575
			c11.834-2.295,20.8-12.731,20.8-25.226c0-14.171-11.529-25.699-25.7-25.699h-5.199c-5.9,0-10.7-4.8-10.7-10.7s4.8-10.7,10.7-10.7
			h7.8c4.466,0,8.1,3.634,8.1,8.1v5.2C405.466,108.042,408.824,111.399,412.966,111.399z"/>
		<path d="M207.65,360.504c-0.076-1.76-0.778-3.461-1.973-4.758l-96-104c-2.926-3.17-8.095-3.17-11.021,0l-96,104
			c-1.264,1.372-1.989,3.219-1.989,5.087v144c0,4.143,3.357,7.5,7.5,7.5h192c4.143,0,7.5-3.357,7.5-7.5v-144
			C207.661,360.723,207.655,360.614,207.65,360.504z M104.167,267.891l78.87,85.442H25.296L104.167,267.891z M87.667,497.333v-73h33
			v73H87.667z M192.667,497.333h-57v-80.5c0-4.143-3.357-7.5-7.5-7.5h-48c-4.143,0-7.5,3.357-7.5,7.5v80.5h-57v-129h177V497.333z"/>
		<path d="M360.167,305.333h-4c-4.143,0-7.5,3.357-7.5,7.5s3.357,7.5,7.5,7.5h4c4.143,0,7.5-3.357,7.5-7.5
			S364.309,305.333,360.167,305.333z"/>
		<path d="M288.321,332.691c-1.518,2.576-2.834,5.292-3.913,8.073c-1.823,4.7,1.604,9.977,6.651,10.207
			c2.36,0.108,4.693-0.942,6.177-2.78c0.883-1.093,1.291-2.41,1.851-3.678c0.637-1.443,1.357-2.849,2.158-4.208
			c2.103-3.568,0.914-8.166-2.654-10.269C295.02,327.937,290.423,329.123,288.321,332.691z"/>
		<path d="M470.009,416.235c-3.029-2.825-7.776-2.658-10.6,0.371c-2.825,3.029-2.659,7.775,0.371,10.6
			c1.593,1.486,3.079,3.113,4.415,4.838c1.479,1.906,3.693,2.904,5.933,2.904c1.605,0,3.224-0.513,4.591-1.572
			c3.273-2.538,3.869-7.25,1.332-10.523C474.222,420.495,472.19,418.269,470.009,416.235z"/>
		<path d="M299.492,378.039c-0.926-1.968-1.696-4.027-2.291-6.121c-1.13-3.984-5.279-6.3-9.262-5.168
			c-3.985,1.13-6.299,5.277-5.168,9.262c0.867,3.058,1.879,6.477,3.571,9.193c1.331,2.136,3.712,3.478,6.227,3.526
			C298.045,388.835,301.811,382.97,299.492,378.039z"/>
		<path d="M275.186,497.333h-7.766c-4.143,0-7.5,3.357-7.5,7.5s3.357,7.5,7.5,7.5h7.766c4.143,0,7.5-3.357,7.5-7.5
			S279.329,497.333,275.186,497.333z"/>
		<path d="M314.016,497.333h-7.766c-4.143,0-7.5,3.357-7.5,7.5s3.357,7.5,7.5,7.5h7.766c4.143,0,7.5-3.357,7.5-7.5
			S318.159,497.333,314.016,497.333z"/>
		<path d="M391.676,497.333h-7.766c-4.143,0-7.5,3.357-7.5,7.5s3.357,7.5,7.5,7.5h7.766c4.143,0,7.5-3.357,7.5-7.5
			S395.819,497.333,391.676,497.333z"/>
		<path d="M398.3,401.333h-7.766c-4.143,0-7.5,3.357-7.5,7.5s3.357,7.5,7.5,7.5h7.766c4.143,0,7.5-3.357,7.5-7.5
			S402.443,401.333,398.3,401.333z"/>
		<path d="M437.885,401.625c-1.89-0.193-3.814-0.292-5.719-0.292h-2.803c-4.143,0-7.5,3.357-7.5,7.5s3.357,7.5,7.5,7.5h2.803
			c1.396,0,2.806,0.072,4.189,0.214c0.26,0.026,0.518,0.04,0.773,0.04c3.799,0,7.057-2.876,7.452-6.736
			C445.004,405.73,442.006,402.048,437.885,401.625z"/>
		<path d="M460.477,485.795c-1.56,1.524-3.254,2.934-5.034,4.186c-3.082,2.167-4.079,6.435-2.263,9.739
			c2.123,3.862,7.281,5.071,10.892,2.53c2.438-1.716,4.758-3.644,6.892-5.73c2.962-2.896,3.016-7.645,0.119-10.605
			C468.188,482.953,463.44,482.897,460.477,485.795z"/>
		<path d="M480.166,448.763c-0.026,0-0.053,0-0.079,0c-4.142,0.043-7.465,3.436-7.423,7.577l0.003,0.493
			c0,2.027-0.151,4.065-0.449,6.059c-0.612,4.097,2.213,7.914,6.31,8.526c0.376,0.056,0.749,0.083,1.118,0.083
			c3.651,0,6.852-2.672,7.408-6.393c0.407-2.724,0.613-5.508,0.613-8.275l-0.003-0.647
			C487.621,452.069,484.271,448.763,480.166,448.763z"/>
		<path d="M430.506,497.333h-7.766c-4.143,0-7.5,3.357-7.5,7.5s3.357,7.5,7.5,7.5h7.766c4.143,0,7.5-3.357,7.5-7.5
			S434.649,497.333,430.506,497.333z"/>
		<path d="M323.294,399.247c-2.063-0.691-4.085-1.557-6.009-2.573c-3.664-1.935-8.2-0.531-10.135,3.129
			c-1.935,3.663-0.533,8.2,3.129,10.135c2.642,1.396,5.417,2.583,8.249,3.532c4.037,1.352,8.486-1.036,9.616-5.131
			C329.189,404.552,327.014,400.493,323.294,399.247z"/>
		<path d="M323.491,306.789c-2.909,0.68-5.784,1.604-8.548,2.748c-3.826,1.585-5.645,5.973-4.06,9.8
			c1.197,2.889,3.989,4.632,6.933,4.632c0.956,0,1.929-0.185,2.867-0.572c2.011-0.834,4.104-1.507,6.222-2.002
			c4.033-0.942,6.539-4.976,5.597-9.01C331.558,308.352,327.523,305.844,323.491,306.789z"/>
		<path d="M359.47,401.333h-7.766c-4.143,0-7.5,3.357-7.5,7.5s3.357,7.5,7.5,7.5h7.766c4.143,0,7.5-3.357,7.5-7.5
			S363.613,401.333,359.47,401.333z"/>
		<path d="M352.846,497.333h-7.766c-4.143,0-7.5,3.357-7.5,7.5s3.357,7.5,7.5,7.5h7.766c4.143,0,7.5-3.357,7.5-7.5
			S356.989,497.333,352.846,497.333z"/>
		<path d="M236.167,497.333h-4c-4.143,0-7.5,3.357-7.5,7.5s3.357,7.5,7.5,7.5h4c4.143,0,7.5-3.357,7.5-7.5
			S240.309,497.333,236.167,497.333z"/>
	</g>
</g>
<g>
</g>
<g>
</g>
<g>
</g>
<g>
</g>
<g>
</g>
<g>
</g>
<g>
</g>
<g>
</g>
<g>
</g>
<g>
</g>
<g>
</g>
<g>
</g>
<g>
</g>
<g>
</g>
<g>
</g>
</svg>
