<?xml version="1.0" encoding="iso-8859-1"?>
<!-- Generator: Adobe Illustrator 19.0.0, SVG Export Plug-In . SVG Version: 6.00 Build 0)  -->
<svg version="1.1" id="Capa_1" xmlns="http://www.w3.org/2000/svg" xmlns:xlink="http://www.w3.org/1999/xlink" x="0px" y="0px"
	 viewBox="0 0 511 511" style="enable-background:new 0 0 511 511;" xml:space="preserve">
<g>
	<g>
		<g>
			<path style="fill:#EAECEE;" d="M295.5,503.5h-224c-17.673,0-32-14.327-32-32v-432c0-17.673,14.327-32,32-32h224
				c17.673,0,32,14.327,32,32v432C327.5,489.173,313.173,503.5,295.5,503.5z"/>
			<path style="fill:#D5D9DE;" d="M63.5,471.5v-432c0-17.673,14.327-32,32-32h-24c-17.673,0-32,14.327-32,32v432
				c0,17.673,14.327,32,32,32h24C77.827,503.5,63.5,489.173,63.5,471.5z"/>
			<g>
				<path style="fill:#6B7B8B;" d="M39.5,471.5c0,17.673,14.327,32,32,32h224c17.673,0,32-14.327,32-32v-40h-288V471.5z"/>
				<path style="fill:#55697A;" d="M63.5,471.5v-40h-24v40c0,17.673,14.327,32,32,32h24C77.827,503.5,63.5,489.173,63.5,471.5z"/>
				<path style="fill:#6B7B8B;" d="M295.5,7.5h-224c-17.673,0-32,14.327-32,32v32h288v-32C327.5,21.827,313.173,7.5,295.5,7.5z"/>
				<path style="fill:#55697A;" d="M95.5,7.5h-24c-17.673,0-32,14.327-32,32v32h24v-32C63.5,21.827,77.827,7.5,95.5,7.5z"/>
			</g>
			<rect x="167.5" y="455.5" style="fill:#95A1AC;" width="32" height="24"/>
		</g>
		<g>
			<path style="fill:#FD8E61;" d="M351.5,39.5c-66.274,0-120,50.144-120,112c0,31.46,13.903,59.884,36.281,80.229L247.5,287.5
				l58.965-32.163c13.907,5.259,29.106,8.163,45.035,8.163c66.274,0,120-50.144,120-112S417.774,39.5,351.5,39.5z"/>
			<circle style="fill:#EAECEE;" cx="351.5" cy="215.5" r="16"/>
			<path style="fill:#EAECEE;" d="M351.5,71.5c-8.836,0-16,7.163-16,16v64c0,8.837,7.164,16,16,16s16-7.163,16-16v-64
				C367.5,78.663,360.336,71.5,351.5,71.5z"/>
			<path style="fill:#FD7239;" d="M375.5,247.5c-66.274,0-120-50.144-120-112c0-32.655,14.977-62.042,38.865-82.514
				C256.923,71.942,231.5,108.95,231.5,151.5c0,31.459,13.903,59.884,36.281,80.229L247.5,287.5l58.965-32.163
				c13.907,5.26,29.106,8.163,45.035,8.163c31.287,0,59.773-11.179,81.135-29.486C415.647,242.615,396.185,247.5,375.5,247.5z"/>
		</g>
	</g>
	<g>
		<path d="M199.5,448h-32c-4.142,0-7.5,3.357-7.5,7.5v24c0,4.143,3.358,7.5,7.5,7.5h32c4.142,0,7.5-3.357,7.5-7.5v-24
			C207,451.357,203.642,448,199.5,448z M192,472h-17v-9h17V472z"/>
		<path d="M199.5,32h-32c-4.142,0-7.5,3.357-7.5,7.5s3.358,7.5,7.5,7.5h32c4.142,0,7.5-3.357,7.5-7.5S203.642,32,199.5,32z"/>
		<path d="M65.26,243.66l11.708,17.563l-11.23,13.476c-2.652,3.183-2.222,7.912,0.96,10.563c3.182,2.652,7.911,2.223,10.563-0.96
			l8.385-10.062l11.613,17.42c2.298,3.447,6.955,4.379,10.4,2.08l16.931-11.287l20.201,40.401c2.249,4.499,8.449,5.511,12.011,1.949
			l19.062-19.063l22.576,19.566l9.738,43.82c1.194,5.373,7.878,7.671,12.123,4.135l17.064-14.22l53.222,46.126
			c3.303,2.862,8.484,2.228,11.021-1.318c2.22-3.103,1.684-7.522-1.196-10.018l-51.37-44.521l13.998-11.665l27.157,27.157
			c2.889,2.888,7.717,2.889,10.606,0c2.89-2.89,2.889-7.718,0-10.607l-32-32c-2.743-2.742-7.125-2.939-10.104-0.458l-21.143,17.619
			l-25.548-22.141l-21.187-95.343c-1.258-5.66-8.511-7.789-12.625-3.677l-27.859,27.859l-34.979-20.987
			c-3.171-1.901-7.254-1.21-9.621,1.63l-18.755,22.506L77.74,235.34c-2.267-3.401-7-4.347-10.4-2.08
			C63.939,235.527,62.992,240.26,65.26,243.66z M225.88,349.087l-5.728,4.773l-2.68-12.06L225.88,349.087z M113.149,241.236
			l34.492,20.695c2.951,1.769,6.729,1.305,9.162-1.128l22.339-22.34l13.835,62.258l-12.566-10.89
			c-2.975-2.578-7.434-2.418-10.215,0.364l-16.642,16.643l-19.347-38.693c-1.985-3.97-7.166-5.352-10.868-2.886l-17.76,11.84
			l-9.919-14.878L113.149,241.236z"/>
		<path d="M351.5,32c-5.775,0-11.458,0.369-17.032,1.069C331.387,14.338,315.09,0,295.5,0h-224C49.72,0,32,17.72,32,39.5v280.207
			c0,4.143,3.358,7.5,7.5,7.5s7.5-3.357,7.5-7.5V79h203.219C233.783,99.122,224,124.258,224,151.5
			c0,30.965,12.406,59.996,35.05,82.291l-18.599,51.146c-2.303,6.335,4.687,12.399,10.64,9.147l55.995-30.542
			c4.243,1.479,8.551,2.735,12.914,3.776V424H47v-67.511c0-4.143-3.358-7.5-7.5-7.5s-7.5,3.357-7.5,7.5V471.5
			c0,21.78,17.72,39.5,39.5,39.5h224c21.78,0,39.5-17.72,39.5-39.5V270.006c5.44,0.659,10.946,0.994,16.5,0.994
			c70.304,0,127.5-53.607,127.5-119.5S421.804,32,351.5,32z M295.5,496h-224C57.991,496,47,485.01,47,471.5V439h273v32.5
			C320,485.01,309.009,496,295.5,496z M47,39.5C47,25.99,57.991,15,71.5,15h224c12.238,0,22.408,9.019,24.215,20.759
			c-20.899,5.044-39.735,14.95-55.063,28.338C264.275,64.039,263.893,64,263.5,64H47V39.5z M351.5,256
			c-14.652,0-28.911-2.583-42.381-7.678c-2.046-0.775-4.326-0.616-6.245,0.431l-41.543,22.66l13.499-37.121
			c1.04-2.86,0.249-6.065-2.003-8.113C251.013,206.348,239,179.826,239,151.5C239,93.879,289.467,47,351.5,47S464,93.879,464,151.5
			S413.533,256,351.5,256z"/>
		<path d="M351.5,192c-12.958,0-23.5,10.542-23.5,23.5s10.542,23.5,23.5,23.5s23.5-10.542,23.5-23.5S364.458,192,351.5,192z
			 M351.5,224c-4.687,0-8.5-3.813-8.5-8.5s3.813-8.5,8.5-8.5s8.5,3.813,8.5,8.5S356.187,224,351.5,224z"/>
		<path d="M351.5,64C338.542,64,328,74.542,328,87.5v64c0,12.958,10.542,23.5,23.5,23.5s23.5-10.542,23.5-23.5v-64
			C375,74.542,364.458,64,351.5,64z M360,151.5c0,4.687-3.813,8.5-8.5,8.5s-8.5-3.813-8.5-8.5v-64c0-4.687,3.813-8.5,8.5-8.5
			s8.5,3.813,8.5,8.5V151.5z"/>
		<path d="M71.5,159h16c4.142,0,7.5-3.357,7.5-7.5s-3.358-7.5-7.5-7.5h-16c-4.142,0-7.5,3.357-7.5,7.5S67.358,159,71.5,159z"/>
		<path d="M119.5,159h40c4.142,0,7.5-3.357,7.5-7.5s-3.358-7.5-7.5-7.5h-40c-4.142,0-7.5,3.357-7.5,7.5S115.358,159,119.5,159z"/>
		<path d="M71.5,119h16c4.142,0,7.5-3.357,7.5-7.5s-3.358-7.5-7.5-7.5h-16c-4.142,0-7.5,3.357-7.5,7.5S67.358,119,71.5,119z"/>
		<path d="M119.5,119h56c4.142,0,7.5-3.357,7.5-7.5s-3.358-7.5-7.5-7.5h-56c-4.142,0-7.5,3.357-7.5,7.5S115.358,119,119.5,119z"/>
	</g>
</g>
<g>
</g>
<g>
</g>
<g>
</g>
<g>
</g>
<g>
</g>
<g>
</g>
<g>
</g>
<g>
</g>
<g>
</g>
<g>
</g>
<g>
</g>
<g>
</g>
<g>
</g>
<g>
</g>
<g>
</g>
</svg>
