<?xml version="1.0" encoding="iso-8859-1"?>
<!-- Generator: Adobe Illustrator 19.0.0, SVG Export Plug-In . SVG Version: 6.00 Build 0)  -->
<svg version="1.1" id="Capa_1" xmlns="http://www.w3.org/2000/svg" xmlns:xlink="http://www.w3.org/1999/xlink" x="0px" y="0px"
	 viewBox="0 0 511 511" style="enable-background:new 0 0 511 511;" xml:space="preserve">
<g>
	<g>
		<g>
			<path style="fill:#FCD56A;" d="M471.5,327.529h-432c-17.673,0-32-14.327-32-32v-256c0-17.673,14.327-32,32-32h432
				c17.673,0,32,14.327,32,32v256C503.5,313.202,489.173,327.529,471.5,327.529z"/>
			<rect x="7.5" y="71.529" style="fill:#55697A;" width="496" height="64"/>
			<rect x="39.5" y="167.529" style="fill:#F4F6F7;" width="192" height="32"/>
		</g>
		<g>
			<path style="fill:#FD8E61;" d="M325.381,500.156c-11.019-3.673-33.025-12.378-56.616-29.416
				c-25.52-18.43-44.995-40.848-57.886-66.631l-3.378-6.757V225.401l42.119,14.04c6.489,2.163,13.325,3.26,20.318,3.26
				c25.717-0.001,46.227-14.404,46.426-14.55l19.2-14.399l19.137,14.446c0.137,0.099,20.644,14.503,46.361,14.503
				c6.994,0,13.83-1.098,20.319-3.26l42.119-14.04v171.951l-3.378,6.757c-12.892,25.783-32.367,48.201-57.887,66.631
				c-23.591,17.038-45.598,25.743-56.616,29.416l-10.119,3.373L325.381,500.156z"/>
			<path style="fill:#FD7239;" d="M377.619,477.933l-10.119,3.373l-10.119-3.373c-11.019-3.673-33.025-12.378-56.616-29.416
				c-25.52-18.43-44.995-40.848-57.886-66.631l-3.378-6.757V236.068l-32-10.667v171.951l3.378,6.757
				c12.891,25.783,32.367,48.201,57.886,66.631c23.591,17.038,45.598,25.743,56.616,29.416l10.119,3.373l10.119-3.373
				c11.019-3.673,33.025-12.378,56.616-29.416c4.179-3.018,8.178-6.153,12.031-9.382
				C398.763,470.194,385.429,475.33,377.619,477.933z"/>
			<path style="fill:#808E9B;" d="M335.5,253.799c-5.41,4.058-48,32-96,16c0,40,0,80,0,120c24,48,72,72,96,80c24-8,72-32,96-80
				c0-40,0-80,0-120C383.5,285.799,340.91,257.856,335.5,253.799z"/>
			<path style="fill:#6B7B8B;" d="M359.5,455.529c-24-8-72-32-96-80c0-33.68,0-67.359,0-101.039c-7.736-0.505-15.789-1.955-24-4.692
				c0,40,0,80,0,120c24,48,72,72,96,80c11.481-3.827,28.454-11.327,45.664-23.353C372.948,450.549,365.479,453.536,359.5,455.529z"
				/>
			<path style="fill:#49DFE5;" d="M392.531,317.896c-4.365-4.986-11.944-5.493-16.934-1.129l-54.262,47.479L305.1,342.598
				c-3.976-5.303-11.499-6.377-16.8-2.399c-5.302,3.976-6.376,11.498-2.399,16.8l24,32c2.003,2.672,5.029,4.388,8.351,4.734
				c0.418,0.044,0.834,0.065,1.249,0.065c2.893,0,5.704-1.046,7.902-2.969l64-56C396.39,330.466,396.896,322.885,392.531,317.896z"
				/>
		</g>
	</g>
	<g>
		<path d="M471.5,0.029h-432c-21.78,0-39.5,17.72-39.5,39.5v256c0,21.78,17.72,39.5,39.5,39.5H200v62.323
			c0,2.162,1.107,3.984,2.041,5.853c0.71,1.419,1.419,2.839,2.129,4.258c13.438,26.876,33.693,50.212,60.203,69.356
			c24.4,17.622,47.211,26.643,58.636,30.451c2.128,0.709,4.26,1.406,6.383,2.129c1.98,0.674,3.978,1.556,6.106,1.571
			c2.07,0.014,4.009-0.842,5.929-1.508c2.18-0.756,4.376-1.462,6.565-2.192c11.425-3.809,34.235-12.829,58.635-30.451
			c26.51-19.145,46.766-42.479,60.204-69.357c0.71-1.419,1.419-2.839,2.129-4.258c0.934-1.869,2.041-3.692,2.041-5.852v-62.323h0.5
			c21.78,0,39.5-17.72,39.5-39.5v-256C511,17.749,493.28,0.029,471.5,0.029z M39.5,15.029h432c13.51,0,24.5,10.99,24.5,24.5v24.5H15
			v-24.5C15,26.019,25.991,15.029,39.5,15.029z M456,395.582l-2.586,5.173c-12.346,24.69-31.042,46.191-55.57,63.905
			c-22.78,16.453-43.984,24.844-54.597,28.381c-1.351,0.451-2.704,0.895-4.056,1.344c-0.713,0.237-1.438,0.454-2.134,0.735
			c-0.562,0.227-1.087,0.54-1.716,0.489c-0.594-0.047-1.12-0.381-1.664-0.596c-0.62-0.245-1.269-0.423-1.902-0.632
			c-1.342-0.441-2.681-0.894-4.022-1.341c-10.612-3.537-31.816-11.928-54.598-28.381c-24.528-17.714-43.224-39.215-55.569-63.905
			L215,395.582V235.806l32.248,10.75c7.255,2.418,14.889,3.645,22.69,3.645c28.166-0.001,50.631-15.833,50.926-16.05l14.686-11.014
			l14.633,11.047c0.043,0.032,0.087,0.064,0.131,0.096c0.221,0.159,22.396,15.921,50.749,15.921c7.798,0,15.433-1.227,22.691-3.645
			L456,235.807V395.582z M471.5,320.029H471v-94.628c0-5.03-5.091-8.709-9.872-7.115l-42.118,14.04
			c-5.726,1.907-11.765,2.875-17.948,2.875c-22.517,0-41.069-12.469-41.941-13.063l-19.038-14.372
			c-2.667-2.013-6.344-2.019-9.019-0.014l-19.082,14.312c-1.025,0.703-19.529,13.137-42.044,13.138
			c-6.186,0-12.224-0.967-17.947-2.875l-42.119-14.04c-4.78-1.591-9.872,2.084-9.872,7.115v94.628H39.5
			c-13.509,0-24.5-10.99-24.5-24.5v-152.5h364.5c4.143,0,7.5-3.357,7.5-7.5s-3.357-7.5-7.5-7.5H15v-49h481v49h-80
			c-4.143,0-7.5,3.357-7.5,7.5s3.357,7.5,7.5,7.5h80v152.5C496,309.039,485.01,320.029,471.5,320.029z"/>
		<path d="M143.5,224.029h-104c-4.142,0-7.5,3.357-7.5,7.5s3.358,7.5,7.5,7.5h104c4.142,0,7.5-3.357,7.5-7.5
			S147.642,224.029,143.5,224.029z"/>
		<path d="M231.5,160.029h-192c-4.142,0-7.5,3.357-7.5,7.5v32c0,4.143,3.358,7.5,7.5,7.5h192c4.142,0,7.5-3.357,7.5-7.5v-32
			C239,163.387,235.642,160.029,231.5,160.029z M224,192.029H47v-17h177V192.029z"/>
		<path d="M340,247.799c-2.666-2-6.334-2-9,0c-0.412,0.309-41.711,30.691-89.128,14.885c-4.78-1.591-9.872,2.084-9.872,7.115v120
			c0,1.164,0.271,2.313,0.792,3.354c28.733,57.467,88.622,79.856,100.336,83.761c1.531,0.51,3.213,0.51,4.744,0
			c11.714-3.904,71.603-26.294,100.336-83.761c0.521-1.042,0.792-2.19,0.792-3.354v-120c0-5.031-5.091-8.707-9.872-7.115
			C381.717,278.488,340.412,248.107,340,247.799z M424,388.002c-24.803,47.959-73.867,68.608-88.5,73.859
			c-14.633-5.251-63.697-25.9-88.5-73.859V279.667c40.949,9.229,76.335-9.343,88.5-16.884c9.835,6.097,34.835,19.404,65.688,19.402
			c7.314-0.001,14.966-0.75,22.813-2.52V388.002z"/>
		<path d="M398.175,312.956c-7.081-8.087-19.426-8.91-27.516-1.833l-48.176,42.154l-11.383-15.178
			c-6.373-8.5-18.793-10.285-27.3-3.9c-8.502,6.372-10.28,18.792-3.9,27.3l23.999,31.999c6.706,8.944,20.024,10.34,28.441,2.977
			l64.001-56c8.091-7.081,8.914-19.425,1.834-27.517C398.176,312.957,398.175,312.957,398.175,312.956z M386.464,329.185
			l-63.999,55.999c-1.941,1.699-5.015,1.382-6.564-0.686l-24-32c-1.457-1.943-1.043-4.844,0.9-6.301
			c1.943-1.456,4.842-1.042,6.299,0.9l16.236,21.648c2.579,3.439,7.701,3.977,10.938,1.145l54.261-47.479
			c1.825-1.597,4.754-1.403,6.352,0.422C388.484,324.66,388.289,327.588,386.464,329.185z"/>
	</g>
</g>
<g>
</g>
<g>
</g>
<g>
</g>
<g>
</g>
<g>
</g>
<g>
</g>
<g>
</g>
<g>
</g>
<g>
</g>
<g>
</g>
<g>
</g>
<g>
</g>
<g>
</g>
<g>
</g>
<g>
</g>
</svg>
