<?xml version="1.0" encoding="iso-8859-1"?>
<!-- Generator: Adobe Illustrator 19.0.0, SVG Export Plug-In . SVG Version: 6.00 Build 0)  -->
<svg version="1.1" id="Capa_1" xmlns="http://www.w3.org/2000/svg" xmlns:xlink="http://www.w3.org/1999/xlink" x="0px" y="0px"
	 viewBox="0 0 511 511" style="enable-background:new 0 0 511 511;" xml:space="preserve">
<g>
	<g>
		<rect x="39.5" y="23.5" style="fill:#EAECEE;" width="448" height="96"/>
		<rect x="7.5" y="63.5" style="fill:#F4F6F7;" width="448" height="96"/>
		<rect x="7.5" y="127.5" style="fill:#EAECEE;" width="448" height="32"/>
		<polygon style="fill:#76E7EB;" points="391.5,103.5 391.5,151.5 7.5,151.5 7.5,487.5 503.5,487.5 503.5,151.5 503.5,103.5 		"/>
		<g>
			<path style="fill:#1BD7DE;" d="M31.5,439.5v-288h-24v336h496v-24h-448C42.245,463.5,31.5,452.755,31.5,439.5z"/>
		</g>
		<g>
			<path style="fill:#D5D9DE;" d="M143.5,343.5h48c8.837,0,16,7.163,16,16v56h-80v-56C127.5,350.663,134.663,343.5,143.5,343.5z"/>
			<path style="fill:#BFC7CD;" d="M167.5,343.5h-24c-8.837,0-16,7.164-16,16v56h24v-56C151.5,350.664,158.663,343.5,167.5,343.5z"/>
			<circle style="fill:#FFDCCE;" cx="167.5" cy="295.5" r="32"/>
			<path style="fill:#55697A;" d="M167.5,263.5c-40,0-48,32-48,32h80C199.5,277.827,185.173,263.5,167.5,263.5z"/>
		</g>
		<rect x="255.5" y="247.5" style="fill:#FCD56A;" width="152" height="48"/>
	</g>
	<g>
		<path d="M503.5,96H495V23.5c0-4.143-3.357-7.5-7.5-7.5h-448c-4.143,0-7.5,3.357-7.5,7.5V56H7.5C3.357,56,0,59.357,0,63.5v424
			c0,4.143,3.357,7.5,7.5,7.5h496c4.143,0,7.5-3.357,7.5-7.5v-384C511,99.357,507.643,96,503.5,96z M47,31h433v65h-17V63.5
			c0-4.143-3.357-7.5-7.5-7.5H47V31z M496,480H15V159.5V159h113.5c4.143,0,7.5-3.357,7.5-7.5s-3.357-7.5-7.5-7.5H15V71h433v25h-56.5
			c-4.143,0-7.5,3.357-7.5,7.5V144H163c-4.143,0-7.5,3.357-7.5,7.5s3.357,7.5,7.5,7.5h228.5c4.143,0,7.5-3.357,7.5-7.5V111h97V480z"
			/>
		<path d="M407.5,328h-152c-4.143,0-7.5,3.357-7.5,7.5s3.357,7.5,7.5,7.5h152c4.143,0,7.5-3.357,7.5-7.5S411.643,328,407.5,328z"/>
		<path d="M255.5,383h72c4.143,0,7.5-3.357,7.5-7.5s-3.357-7.5-7.5-7.5h-72c-4.143,0-7.5,3.357-7.5,7.5S251.357,383,255.5,383z"/>
		<path d="M359.5,408h-104c-4.143,0-7.5,3.357-7.5,7.5s3.357,7.5,7.5,7.5h104c4.143,0,7.5-3.357,7.5-7.5S363.643,408,359.5,408z"/>
		<path d="M407.5,408h-16c-4.143,0-7.5,3.357-7.5,7.5s3.357,7.5,7.5,7.5h16c4.143,0,7.5-3.357,7.5-7.5S411.643,408,407.5,408z"/>
		<path d="M191.5,336h-48c-12.958,0-23.5,10.542-23.5,23.5v56c0,4.143,3.357,7.5,7.5,7.5h80c4.143,0,7.5-3.357,7.5-7.5v-56
			C215,346.542,204.458,336,191.5,336z M200,408h-65v-48.5c0-4.687,3.813-8.5,8.5-8.5h48c4.687,0,8.5,3.813,8.5,8.5V408z"/>
		<path d="M167.5,335c21.78,0,39.5-17.72,39.5-39.5S189.28,256,167.5,256c-36.271,0-52.018,24.647-55.276,37.681
			c-1.164,4.662,2.478,9.319,7.276,9.319h9.223C132.238,321.205,148.284,335,167.5,335z M167.5,320
			c-10.894,0-20.146-7.148-23.321-17h46.643C187.646,312.852,178.394,320,167.5,320z M167.5,271c10.895,0,20.151,7.147,23.326,17
			h-59.472C136.571,280.414,147.146,271,167.5,271z"/>
		<path d="M248,247.5v48c0,4.143,3.357,7.5,7.5,7.5h152c4.143,0,7.5-3.357,7.5-7.5v-48c0-4.143-3.357-7.5-7.5-7.5h-152
			C251.357,240,248,243.357,248,247.5z M263,255h137v33H263V255z"/>
	</g>
</g>
<g>
</g>
<g>
</g>
<g>
</g>
<g>
</g>
<g>
</g>
<g>
</g>
<g>
</g>
<g>
</g>
<g>
</g>
<g>
</g>
<g>
</g>
<g>
</g>
<g>
</g>
<g>
</g>
<g>
</g>
</svg>
