<?xml version="1.0" encoding="iso-8859-1"?>
<!-- Generator: Adobe Illustrator 19.0.0, SVG Export Plug-In . SVG Version: 6.00 Build 0)  -->
<svg version="1.1" id="Capa_1" xmlns="http://www.w3.org/2000/svg" xmlns:xlink="http://www.w3.org/1999/xlink" x="0px" y="0px"
	 viewBox="0 0 511.001 511.001" style="enable-background:new 0 0 511.001 511.001;" xml:space="preserve">
<g>
	<g>
		<g>
			<path style="fill:#EAECEE;" d="M463.501,191.5c0-101.62-82.38-184-184-184s-184,82.38-184,184c0,2.682,0.07,5.346,0.184,8h-0.184
				l-48,96l48,24v80h106.286l13.714,104h208l-25.04-171.639C438.245,298.109,463.501,247.758,463.501,191.5z"/>
		</g>
		<g>
			<circle style="fill:#76E7EB;" cx="279.501" cy="191.5" r="112"/>
			<path style="fill:#1BD7DE;" d="M319.501,295.5c-61.856,0-112-50.144-112-112c0-47.122,29.104-87.441,70.314-103.979
				c-61.077,0.902-110.314,50.687-110.314,111.979c0,61.856,50.144,112,112,112c14.734,0,28.8-2.851,41.686-8.021
				C320.625,295.487,320.065,295.5,319.501,295.5z"/>
		</g>
	</g>
	<g>
		<path d="M406.054,383.902c4.099-0.599,6.937-4.406,6.339-8.505l-5.918-40.56c41.061-36.392,64.526-88.393,64.526-143.338
			c0-105.594-85.906-191.5-191.5-191.5s-191.5,85.906-191.5,191.5c0,1.919,0.034,3.905,0.104,6.022l-47.312,94.623
			c-1.853,3.705-0.351,8.21,3.354,10.063l43.854,21.927V399.5c0,4.143,3.357,7.5,7.5,7.5h99.71l12.854,97.48
			c0.498,3.774,3.72,6.521,7.426,6.521c0.327,0,0.657-0.021,0.99-0.065c4.106-0.541,6.997-4.31,6.455-8.416l-13.714-104
			c-0.492-3.73-3.673-6.52-7.436-6.52h-98.786v-72.5c0-2.841-1.605-5.438-4.146-6.708l-41.292-20.646l43.984-87.969
			c1.123-1.408,1.707-3.182,1.63-4.997c-0.119-2.785-0.177-5.298-0.177-7.68c0-97.322,79.178-176.5,176.5-176.5
			s176.5,79.178,176.5,176.5c0,51.928-22.741,101.002-62.392,134.642c-1.972,1.673-2.943,4.243-2.57,6.802l6.51,44.62
			C398.148,381.662,401.951,384.483,406.054,383.902z"/>
		<path d="M416.979,406.837c-0.6-4.1-4.41-6.929-8.505-6.339c-4.099,0.599-6.937,4.406-6.339,8.505l13.944,95.58
			c0.545,3.731,3.75,6.418,7.412,6.418c0.36,0,0.726-0.026,1.093-0.079c4.099-0.599,6.937-4.406,6.339-8.505L416.979,406.837z"/>
		<path d="M279.501,72c-65.893,0-119.5,53.607-119.5,119.5S213.609,311,279.501,311s119.5-53.607,119.5-119.5S345.394,72,279.501,72
			z M279.501,296c-13.973,0-29.108-22.839-36.276-59.098c11.57,1.373,23.774,2.098,36.276,2.098s24.706-0.725,36.276-2.098
			C308.61,273.161,293.475,296,279.501,296z M279.501,224c-14.152,0-27.11-0.904-38.72-2.459c-1.146-9.377-1.78-19.432-1.78-30.041
			s0.634-20.664,1.78-30.041c11.61-1.555,24.568-2.459,38.72-2.459s27.11,0.904,38.72,2.459c1.146,9.377,1.78,19.432,1.78,30.041
			s-0.634,20.664-1.78,30.041C306.611,223.096,293.653,224,279.501,224z M225.416,218.959c-32.063-6.55-50.415-18.24-50.415-27.459
			s18.351-20.909,50.415-27.459c-0.929,8.896-1.415,18.095-1.415,27.459S224.487,210.063,225.416,218.959z M279.501,87
			c13.973,0,29.108,22.839,36.276,59.098c-11.57-1.373-23.774-2.098-36.276-2.098s-24.706,0.725-36.276,2.098
			C250.393,109.839,265.528,87,279.501,87z M333.586,164.041c32.063,6.55,50.415,18.24,50.415,27.459s-18.351,20.909-50.415,27.459
			c0.929-8.896,1.415-18.095,1.415-27.459S334.516,172.937,333.586,164.041z M380.647,165.2c-5.064-3.135-11.433-6.192-19.427-9.047
			c-8.882-3.172-18.938-5.756-29.785-7.722c-2.485-14.423-6.222-27.702-11.099-39.081c-2.877-6.714-6.081-12.584-9.55-17.564
			C344.935,102.523,371.58,130.353,380.647,165.2z M248.216,91.786c-3.469,4.979-6.672,10.85-9.55,17.564
			c-4.877,11.379-8.613,24.658-11.099,39.081c-10.847,1.965-20.903,4.549-29.785,7.722c-7.995,2.855-14.363,5.913-19.427,9.047
			C187.423,130.353,214.068,102.523,248.216,91.786z M178.355,217.8c5.064,3.135,11.433,6.192,19.427,9.047
			c8.882,3.172,18.938,5.756,29.785,7.722c2.485,14.423,6.222,27.702,11.099,39.081c2.877,6.714,6.081,12.584,9.55,17.564
			C214.068,280.477,187.423,252.647,178.355,217.8z M310.787,291.214c3.469-4.979,6.672-10.85,9.55-17.564
			c4.877-11.379,8.613-24.658,11.099-39.081c10.847-1.965,20.903-4.549,29.785-7.722c7.995-2.855,14.363-5.913,19.427-9.047
			C371.58,252.647,344.935,280.477,310.787,291.214z"/>
	</g>
</g>
<g>
</g>
<g>
</g>
<g>
</g>
<g>
</g>
<g>
</g>
<g>
</g>
<g>
</g>
<g>
</g>
<g>
</g>
<g>
</g>
<g>
</g>
<g>
</g>
<g>
</g>
<g>
</g>
<g>
</g>
</svg>
