<?xml version="1.0" encoding="iso-8859-1"?>
<!-- Generator: Adobe Illustrator 19.0.0, SVG Export Plug-In . SVG Version: 6.00 Build 0)  -->
<svg version="1.1" id="Capa_1" xmlns="http://www.w3.org/2000/svg" xmlns:xlink="http://www.w3.org/1999/xlink" x="0px" y="0px"
	 viewBox="0 0 507.329 507.329" style="enable-background:new 0 0 507.329 507.329;" xml:space="preserve">
<g>
	<g>
		<g>
			<path style="fill:#FD8E61;" d="M442.706,392.888c-8.388-8.444-18.8-13.642-29.685-15.617l86.593-86.017L391.045,181.959
				c10.898-1.902,21.345-7.031,29.789-15.419c21.942-21.796,22.06-57.253,0.264-79.196c-21.796-21.942-57.254-22.06-79.195-0.264
				c-8.444,8.388-13.642,18.8-15.617,29.685L217.716,7.47l-86.593,86.017c-1.902-10.898-7.031-21.345-15.418-29.789
				c-21.796-21.942-57.254-22.06-79.196-0.264s-22.06,57.253-0.264,79.196c8.388,8.444,18.8,13.642,29.685,15.617L7.715,216.075
				L116.285,325.37c1.975-10.885,7.173-21.297,15.617-29.685c21.942-21.796,57.399-21.678,79.196,0.264
				c21.796,21.942,21.678,57.399-0.264,79.196c-8.444,8.388-18.891,13.516-29.789,15.419l108.569,109.296l58.215-57.828
				c1.902,10.898,7.031,21.345,15.418,29.789c21.796,21.942,57.254,22.06,79.196,0.264
				C464.384,450.288,464.502,414.831,442.706,392.888z"/>
		</g>
		<g>
			<path style="fill:#FD8E61;" d="M442.706,392.888c-8.388-8.444-18.8-13.642-29.685-15.617l86.593-86.017L391.045,181.959
				c10.898-1.902,21.345-7.031,29.789-15.419c21.942-21.796,22.06-57.253,0.264-79.196c-21.796-21.942-57.254-22.06-79.195-0.264
				c-8.444,8.388-13.642,18.8-15.617,29.685L217.716,7.47l-86.593,86.017c-1.902-10.898-7.031-21.345-15.418-29.789
				c-21.796-21.942-57.254-22.06-79.196-0.264s-22.06,57.253-0.264,79.196c8.388,8.444,18.8,13.642,29.685,15.617L7.715,216.075
				L116.285,325.37c1.975-10.885,7.173-21.297,15.617-29.685c21.942-21.796,57.399-21.678,79.196,0.264
				c21.796,21.942,21.678,57.399-0.264,79.196c-8.444,8.388-18.891,13.516-29.789,15.419l108.569,109.296l58.215-57.828
				c1.902,10.898,7.031,21.345,15.418,29.789c21.796,21.942,57.254,22.06,79.196,0.264
				C464.384,450.288,464.502,414.831,442.706,392.888z"/>
		</g>
		<g>
			<path style="fill:#FD7239;" d="M65.766,158.214l20.169-20.035c4.049-4.022,2.681-10.809-2.564-13.056
				c-6.409-2.746-12.409-6.742-17.625-11.993c-16.551-16.662-20.453-41.113-11.77-61.461c-6.336,2.704-12.281,6.615-17.466,11.766
				c-21.942,21.796-22.061,57.253-0.264,79.195C44.59,151.031,54.941,156.217,65.766,158.214z"/>
			<path style="fill:#FD7239;" d="M319.114,470.359l-101.99-102.672c-1.851,2.618-3.938,5.121-6.291,7.458
				c-8.444,8.388-18.891,13.517-29.788,15.419l108.569,109.295l30.1-29.9l-0.098-0.099L319.114,470.359z"/>
			<path style="fill:#FD7239;" d="M392.747,442.32c-5.204-5.239-9.154-11.249-11.856-17.66c-2.221-5.269-9.015-6.676-13.058-2.632
				l-20.004,20.004c1.902,10.897,7.03,21.344,15.417,29.788c21.759,21.905,58.103,21.783,79.72-0.262
				c5.022-5.121,8.851-10.973,11.511-17.207C434,463.09,409.392,459.077,392.747,442.32z"/>
			<path style="fill:#FD7239;" d="M37.314,186.673L7.715,216.075L116.285,325.37c1.975-10.885,7.173-21.297,15.617-29.685
				c2.353-2.337,4.869-4.407,7.5-6.241L37.314,186.673z"/>
		</g>
	</g>
	<g>
		<path d="M507.114,291.28c0.007-1.989-0.777-3.899-2.179-5.311l-59.5-59.897c-2.921-2.939-7.67-2.955-10.606-0.036
			c-2.939,2.92-2.955,7.668-0.036,10.606l54.215,54.577l-81.271,80.731c-4.224,4.195-1.899,11.641,3.946,12.701
			c9.792,1.776,18.68,6.452,25.702,13.521c18.848,18.974,18.745,49.743-0.228,68.59c-14.319,14.224-36.644,18.111-54.911,9.466
			c-5.08-2.404-9.718-5.708-13.678-9.695c-7.023-7.069-11.641-15.988-13.352-25.793c-1.022-5.853-8.451-8.224-12.675-4.031
			l-52.893,52.543l-94.369-95.001c7.743-3.137,14.805-7.792,20.839-13.785c24.841-24.677,24.975-64.962,0.299-89.802
			c-24.676-24.842-64.96-24.976-89.802-0.301c-6.034,5.994-10.736,13.025-13.924,20.747l-94.37-95.001l52.894-52.542
			c4.222-4.195,1.898-11.64-3.947-12.701c-9.792-1.776-18.68-6.452-25.703-13.521c-9.129-9.191-14.134-21.388-14.091-34.343
			c0.043-12.954,5.129-25.117,14.32-34.246c9.151-9.092,21.283-14.092,34.175-14.092c0.056,0,0.111,0,0.167,0
			c12.955,0.043,25.117,5.129,34.247,14.319c7.023,7.071,11.64,15.99,13.352,25.794c1.021,5.852,8.451,8.227,12.674,4.031
			l81.272-80.732l103.283,103.975c4.195,4.224,11.641,1.899,12.701-3.946c1.777-9.793,6.453-18.681,13.522-25.703
			c9.151-9.091,21.283-14.091,34.176-14.091c0.056,0,0.111,0,0.166,0c12.955,0.043,25.118,5.128,34.247,14.319
			c18.848,18.973,18.745,49.741-0.228,68.589c-7.07,7.023-15.99,11.64-25.794,13.351c-5.852,1.021-8.225,8.451-4.031,12.674
			l21.409,21.553c2.88,2.901,7.707,2.916,10.606,0.036c2.899-2.88,2.916-7.707,0.036-10.606l-12.495-12.579
			c7.742-3.137,14.806-7.792,20.84-13.786c24.84-24.677,24.975-64.962,0.299-89.802c-11.954-12.033-27.878-18.691-44.84-18.748
			c-0.073,0-0.144,0-0.217,0c-16.88,0-32.765,6.547-44.745,18.448c-6.034,5.993-10.736,13.025-13.925,20.748L223.037,2.185
			c-2.88-2.899-7.707-2.916-10.606-0.036l-77.62,77.104c-3.136-7.742-7.792-14.805-13.786-20.839
			c-11.953-12.034-27.877-18.692-44.839-18.749c-0.074,0-0.144,0-0.218,0c-16.879,0-32.764,6.548-44.745,18.449
			C19.19,70.068,12.532,85.992,12.475,102.953c-0.057,16.962,6.495,32.93,18.449,44.964c5.994,6.033,13.026,10.735,20.747,13.924
			L2.43,210.753c-2.938,2.92-2.955,7.668-0.035,10.606l108.569,109.296c4.194,4.224,11.64,1.898,12.7-3.946
			c1.776-9.792,6.453-18.68,13.523-25.703c18.974-18.848,49.743-18.742,68.589,0.229c18.847,18.973,18.744,49.742-0.229,68.589
			c-7.07,7.023-15.989,11.64-25.792,13.351c-5.85,1.023-8.228,8.45-4.031,12.674l108.569,109.296
			c2.879,2.899,7.708,2.916,10.606,0.036l49.24-48.914c3.137,7.743,7.793,14.806,13.786,20.839
			c11.953,12.034,27.878,18.692,44.839,18.749c0.074,0,0.146,0,0.219,0c16.879,0,32.764-6.547,44.745-18.448
			c24.841-24.677,24.975-64.962,0.299-89.803c-5.993-6.034-13.024-10.736-20.746-13.925l77.618-77.103
			C506.311,295.173,507.107,293.268,507.114,291.28z"/>
		<path d="M311.616,235.359c4.143,0,7.5-3.357,7.5-7.5v-8c0-17.369-14.131-31.5-31.5-31.5h-0.5v-16.5c0-4.143-3.357-7.5-7.5-7.5
			c-4.142,0-7.5,3.357-7.5,7.5v16.674c-17.938,1.764-32,16.932-32,35.326c0,19.575,15.925,35.5,35.5,35.5h8
			c11.304,0,20.5,9.196,20.5,20.5s-9.196,20.5-20.5,20.5h-12c-9.098,0-16.5-7.402-16.5-16.5c0-4.143-3.358-7.5-7.5-7.5
			s-7.5,3.357-7.5,7.5c0,17.369,14.131,31.5,31.5,31.5h0.5v16.5c0,4.143,3.358,7.5,7.5,7.5c4.143,0,7.5-3.357,7.5-7.5v-16.674
			c17.938-1.764,32-16.932,32-35.326c0-19.575-15.925-35.5-35.5-35.5h-8c-11.304,0-20.5-9.196-20.5-20.5s9.196-20.5,20.5-20.5h12
			c9.098,0,16.5,7.402,16.5,16.5v8C304.116,232.001,307.473,235.359,311.616,235.359z"/>
	</g>
</g>
<g>
</g>
<g>
</g>
<g>
</g>
<g>
</g>
<g>
</g>
<g>
</g>
<g>
</g>
<g>
</g>
<g>
</g>
<g>
</g>
<g>
</g>
<g>
</g>
<g>
</g>
<g>
</g>
<g>
</g>
</svg>
