<?xml version="1.0" encoding="iso-8859-1"?>
<!-- Generator: Adobe Illustrator 19.0.0, SVG Export Plug-In . SVG Version: 6.00 Build 0)  -->
<svg version="1.1" id="Capa_1" xmlns="http://www.w3.org/2000/svg" xmlns:xlink="http://www.w3.org/1999/xlink" x="0px" y="0px"
	 viewBox="0 0 511.5 511.5" style="enable-background:new 0 0 511.5 511.5;" xml:space="preserve">
<g>
	<g>
		<g>
			<circle style="fill:#FDE6A6;" cx="255.75" cy="418" r="86"/>
			<circle style="fill:#FCD56A;" cx="255.75" cy="418" r="62"/>
		</g>
		<g>
			<g>
				<path style="fill:#FFDCCE;" d="M255.75,8c-101.62,0-184,82.379-184,184c1.195-1.594,12.4-16,32-16s30.804,14.406,32,16
					c2.537-2.802,13.695-14.499,32-16c23.068-1.892,38.157,13.993,40,16c5.41-4.058,22.762-16,48-16s42.59,11.942,48,16
					c1.843-2.007,16.932-17.892,40-16c18.305,1.501,29.463,13.198,32,16c1.196-1.594,12.4-16,32-16s30.805,14.406,32,16
					C439.75,90.379,357.37,8,255.75,8z"/>
				<path style="fill:#FD8E61;" d="M255.75,8c-66.274,0-120,82.379-120,184c2.537-2.803,13.695-14.499,32-16
					c23.067-1.892,38.157,13.993,40,16C207.75,90.379,229.24,8,255.75,8z"/>
				<path style="fill:#FD8E61;" d="M255.75,8c66.274,0,120,82.379,120,184c-2.537-2.803-13.695-14.499-32-16
					c-23.067-1.892-38.157,13.993-40,16C303.75,90.379,282.26,8,255.75,8z"/>
			</g>
		</g>
		<g>
			<path style="fill:#FEC7B0;" d="M269.75,0.386C265.78,0.14,261.781,0,257.75,0c-105.869,0-192,86.131-192,192
				c0,3.443,18.297-2.184,24.045-5.573C89.795,102.21,170.627,6.53,269.75,0.386z"/>
		</g>
	</g>
	<g>
		<path d="M248.25,366v8.574c-11.834,2.295-20.8,12.731-20.8,25.226c0,14.171,11.529,25.7,25.7,25.7h5.199c5.9,0,10.7,4.8,10.7,10.7
			s-4.8,10.7-10.7,10.7h-7.8c-4.466,0-8.1-3.634-8.1-8.101c0-4.143-3.357-7.5-7.5-7.5s-7.5,3.357-7.5,7.5
			c0,11.961,9.138,21.827,20.8,22.985V470c0,4.143,3.357,7.5,7.5,7.5s7.5-3.357,7.5-7.5v-8.574
			c11.834-2.295,20.8-12.731,20.8-25.226c0-14.171-11.529-25.7-25.7-25.7h-5.199c-5.9,0-10.7-4.8-10.7-10.7s4.8-10.7,10.7-10.7h7.8
			c4.466,0,8.1,3.634,8.1,8.101v5.2c0,4.143,3.357,7.5,7.5,7.5s7.5-3.357,7.5-7.5v-5.2c0-11.961-9.138-21.827-20.8-22.985V366
			c0-4.143-3.357-7.5-7.5-7.5S248.25,361.857,248.25,366z"/>
		<path d="M445.161,197.183c1.325-1.378,2.089-3.269,2.089-5.183c0-50-19.153-97.312-53.931-133.218
			c-2.883-2.977-7.631-3.052-10.605-0.17c-2.976,2.882-3.052,7.63-0.17,10.605c28.076,28.987,45.104,66.039,48.896,105.758
			c-6.081-3.57-14.006-6.476-23.69-6.476c-10.375,0-18.724,3.335-24.957,7.249c-2.461-44.477-14.987-85.874-35.908-117.953
			c-7.403-11.352-15.59-21.13-24.381-29.239c11.525,4.712,22.582,10.664,33.001,17.815c3.369,2.314,8.115,1.43,10.428-1.939
			c2.313-3.369,1.43-8.115-1.939-10.428C332.058,12.086,294.628,0.5,255.75,0.5C150.156,0.5,64.25,86.406,64.25,192
			c0,2.376,1.166,4.602,3.044,6.033l172.87,127.773c-44.162,7.442-77.914,45.948-77.914,92.194c0,51.556,41.944,93.5,93.5,93.5
			s93.5-41.944,93.5-93.5c0-46.246-33.752-84.751-77.914-92.194l172.869-127.773C444.546,197.782,444.869,197.49,445.161,197.183z
			 M407.75,183.5c9.242,0,16.225,3.995,20.631,7.577l-120.216,88.856l73.209-82.971c0.026-0.029,0.046-0.061,0.072-0.09
			c0.074-0.087,0.145-0.176,0.215-0.266c0.029-0.037,0.061-0.069,0.089-0.106C382.748,195.169,391.956,183.5,407.75,183.5z
			 M229.684,20.3c-17.967,30.601-27.886,92.546-29.261,156.329c-8.037-4.851-19.4-9.25-33.286-8.104
			c-9.482,0.777-17.324,3.907-23.424,7.503c2.381-41.662,14.048-80.264,33.466-110.04C192.011,43.247,210.096,27.643,229.684,20.3z
			 M201.22,196.032l34.606,98.052l-89.65-101.603c4.8-3.841,12.289-8.194,22.187-9.006
			C185.382,182.081,197.307,192.154,201.22,196.032z M310.28,196.033c3.913-3.878,15.835-13.945,32.857-12.558
			c9.895,0.812,17.385,5.166,22.186,9.007l-89.649,101.603L310.28,196.033z M255.75,305.465l-39.017-110.548
			c8.215-5.211,21.635-11.417,39.017-11.417s30.803,6.205,39.017,11.417L255.75,305.465z M129.75,196.5
			c0.028,0.038,0.061,0.07,0.09,0.106c0.07,0.09,0.141,0.179,0.215,0.266c0.025,0.029,0.046,0.061,0.072,0.09l73.209,82.971
			L83.119,191.077c4.406-3.582,11.389-7.577,20.631-7.577C119.544,183.5,128.752,195.169,129.75,196.5z M334.321,65.989
			c19.418,29.776,31.086,68.38,33.466,110.042c-6.101-3.597-13.943-6.728-23.424-7.505c-13.898-1.142-25.254,3.253-33.286,8.102
			c-1.375-63.783-11.294-125.727-29.261-156.328C301.404,27.643,319.489,43.248,334.321,65.989z M282.434,63.785
			c8.074,30.947,12.86,71.238,13.687,114.634c-9.897-5.132-23.605-9.919-40.371-9.919c-16.766,0-30.475,4.787-40.371,9.919
			c0.828-43.396,5.614-83.688,13.687-114.634C237.768,30.431,248.737,15.5,255.75,15.5S273.732,30.431,282.434,63.785z
			 M188.876,28.67c-8.746,8.087-16.892,17.825-24.261,29.125c-20.921,32.079-33.448,73.478-35.908,117.955
			c-6.234-3.914-14.583-7.25-24.957-7.25c-9.682,0-17.604,2.903-23.686,6.473C86.439,108.695,129.628,53.018,188.876,28.67z
			 M334.25,418c0,43.285-35.215,78.5-78.5,78.5s-78.5-35.215-78.5-78.5s35.215-78.5,78.5-78.5S334.25,374.715,334.25,418z"/>
	</g>
</g>
<g>
</g>
<g>
</g>
<g>
</g>
<g>
</g>
<g>
</g>
<g>
</g>
<g>
</g>
<g>
</g>
<g>
</g>
<g>
</g>
<g>
</g>
<g>
</g>
<g>
</g>
<g>
</g>
<g>
</g>
</svg>
