<?xml version="1.0" encoding="iso-8859-1"?>
<!-- Generator: Adobe Illustrator 19.0.0, SVG Export Plug-In . SVG Version: 6.00 Build 0)  -->
<svg version="1.1" id="Capa_1" xmlns="http://www.w3.org/2000/svg" xmlns:xlink="http://www.w3.org/1999/xlink" x="0px" y="0px"
	 viewBox="0 0 511 511" style="enable-background:new 0 0 511 511;" xml:space="preserve">
<g>
	<g>
		<g>
			<path style="fill:#F4F6F7;" d="M479.5,391.5h-448c-13.255,0-24-10.745-24-24v-336c0-13.255,10.745-24,24-24h448
				c13.255,0,24,10.745,24,24v336C503.5,380.755,492.755,391.5,479.5,391.5z"/>
			<path style="fill:#EAECEE;" d="M31.5,367.5v-336c0-13.255,10.745-24,24-24h-24c-13.255,0-24,10.745-24,24v336
				c0,13.255,10.745,24,24,24h24C42.245,391.5,31.5,380.755,31.5,367.5z"/>
			<path style="fill:#808E9B;" d="M503.5,55.5H7.5v-24c0-13.255,10.745-24,24-24h448c13.255,0,24,10.745,24,24V55.5z"/>
			<path style="fill:#6B7B8B;" d="M55.5,7.5h-24c-13.255,0-24,10.745-24,24v24h24v-24C31.5,18.245,42.245,7.5,55.5,7.5z"/>
			<path style="fill:#808E9B;" d="M479.5,391.5h-448c-13.255,0-24-10.745-24-24v-40h496v40C503.5,380.755,492.755,391.5,479.5,391.5
				z"/>
			<path style="fill:#6B7B8B;" d="M31.5,367.5v-40h-24v40c0,13.255,10.745,24,24,24h24C42.245,391.5,31.5,380.755,31.5,367.5z"/>
			<rect x="215.5" y="391.5" style="fill:#808E9B;" width="80" height="112"/>
			<rect x="215.5" y="391.5" style="fill:#6B7B8B;" width="80" height="24"/>
		</g>
		<g>
			<path style="fill:#D5D9DE;" d="M231.5,183.5h48c8.837,0,16,7.163,16,16v56h-80v-56C215.5,190.663,222.663,183.5,231.5,183.5z"/>
			<path style="fill:#BFC7CD;" d="M255.5,183.5h-24c-8.836,0-16,7.164-16,16v56h24v-56C239.5,190.664,246.664,183.5,255.5,183.5z"/>
			<circle style="fill:#FFDCCE;" cx="255.5" cy="135.5" r="32"/>
			<path style="fill:#55697A;" d="M255.5,103.5c-40,0-48,32-48,32h80C287.5,117.827,273.173,103.5,255.5,103.5z"/>
		</g>
		<path style="fill:#49DFE5;" d="M439.985,187.014l-48-48c-4.686-4.686-12.285-4.686-16.971,0c-4.687,4.687-4.687,12.284,0,16.971
			l39.515,39.515l-39.515,39.515c-4.687,4.687-4.687,12.284,0,16.971c2.343,2.343,5.414,3.515,8.485,3.515s6.143-1.172,8.485-3.515
			l48-48C444.672,199.298,444.672,191.701,439.985,187.014z"/>
		<path style="fill:#49DFE5;" d="M71.015,187.014l48-48c4.686-4.686,12.285-4.686,16.971,0c4.687,4.687,4.687,12.284,0,16.971
			L96.471,195.5l39.515,39.515c4.687,4.687,4.687,12.284,0,16.971c-2.343,2.343-5.414,3.515-8.485,3.515s-6.143-1.172-8.485-3.515
			l-48-48C66.328,199.298,66.328,191.701,71.015,187.014z"/>
	</g>
	<g>
		<path d="M479.5,0h-448C14.131,0,0,14.131,0,31.5v336C0,384.869,14.131,399,31.5,399H208v97h-16.5c-4.143,0-7.5,3.357-7.5,7.5
			s3.357,7.5,7.5,7.5h128c4.143,0,7.5-3.357,7.5-7.5s-3.357-7.5-7.5-7.5H303v-97h176.5c17.369,0,31.5-14.131,31.5-31.5v-336
			C511,14.131,496.869,0,479.5,0z M15,31.5C15,22.401,22.401,15,31.5,15h448c9.099,0,16.5,7.401,16.5,16.5V48H15V31.5z M288,496h-65
			v-97h65V496z M496,367.5c0,9.099-7.401,16.5-16.5,16.5h-448c-9.099,0-16.5-7.401-16.5-16.5V335h381.5c4.143,0,7.5-3.357,7.5-7.5
			s-3.357-7.5-7.5-7.5H15V63h481v257h-63.5c-4.143,0-7.5,3.357-7.5,7.5s3.357,7.5,7.5,7.5H496V367.5z"/>
		<path d="M271.5,352h-32c-4.143,0-7.5,3.357-7.5,7.5s3.357,7.5,7.5,7.5h32c4.143,0,7.5-3.357,7.5-7.5S275.643,352,271.5,352z"/>
		<circle cx="255.5" cy="31.5" r="7.5"/>
		<path d="M231.5,176c-12.958,0-23.5,10.542-23.5,23.5v56c0,4.143,3.357,7.5,7.5,7.5h80c4.143,0,7.5-3.357,7.5-7.5v-56
			c0-12.958-10.542-23.5-23.5-23.5H231.5z M288,199.5V248h-65v-48.5c0-4.687,3.813-8.5,8.5-8.5h48
			C284.187,191,288,194.813,288,199.5z"/>
		<path d="M207.5,143h9.223c3.515,18.205,19.561,32,38.777,32c21.78,0,39.5-17.72,39.5-39.5S277.28,96,255.5,96
			c-36.271,0-52.018,24.647-55.276,37.681C199.06,138.343,202.701,143,207.5,143z M255.5,160c-10.894,0-20.146-7.148-23.321-17
			h46.643C275.646,152.852,266.394,160,255.5,160z M255.5,111c10.895,0,20.151,7.147,23.326,17h-59.472
			C224.571,120.414,235.146,111,255.5,111z"/>
		<path d="M231.5,280h-24c-4.143,0-7.5,3.357-7.5,7.5s3.357,7.5,7.5,7.5h24c4.143,0,7.5-3.357,7.5-7.5S235.643,280,231.5,280z"/>
		<path d="M303.5,280h-40c-4.143,0-7.5,3.357-7.5,7.5s3.357,7.5,7.5,7.5h40c4.143,0,7.5-3.357,7.5-7.5S307.643,280,303.5,280z"/>
		<path d="M451,195.5c0-5.209-2.028-10.105-5.711-13.789v-0.001l-48-48c-7.603-7.601-19.974-7.604-27.578,0.001
			c-7.514,7.516-7.517,20.061,0,27.576l34.212,34.213l-34.212,34.211c-7.513,7.515-7.518,20.06-0.001,27.575
			c7.517,7.519,20.061,7.52,27.579,0.002l47.999-48C448.972,205.605,451,200.709,451,195.5z M434.682,198.681l-48.001,48.002
			c-1.734,1.734-4.629,1.732-6.363-0.002c-1.733-1.734-1.734-4.631,0.001-6.363l39.515-39.514c2.887-2.889,2.887-7.718,0-10.607
			l-39.516-39.516c-1.652-1.652-1.746-4.388-0.204-6.145c1.69-1.926,4.754-2.034,6.568-0.218l48,47.999
			C436.415,194.05,436.417,196.948,434.682,198.681z"/>
		<path d="M141.289,133.71c-7.604-7.602-19.975-7.602-27.578,0l-48,48c-7.603,7.604-7.603,19.975,0,27.578l48,48
			c7.518,7.516,20.061,7.516,27.578,0c7.603-7.604,7.603-19.975,0-27.578l-34.212-34.211l34.212-34.211
			C148.892,153.685,148.892,141.313,141.289,133.71z M130.682,150.681l-39.515,39.515c-2.929,2.93-2.929,7.678,0,10.607
			l39.515,39.515c1.656,1.655,1.742,4.4,0.195,6.156c-1.693,1.921-4.747,2.02-6.558,0.207l-48-48c-1.755-1.754-1.755-4.609,0-6.363
			l48-48c1.885-1.887,5.101-1.682,6.737,0.423C132.427,146.506,132.262,149.101,130.682,150.681z"/>
	</g>
</g>
<g>
</g>
<g>
</g>
<g>
</g>
<g>
</g>
<g>
</g>
<g>
</g>
<g>
</g>
<g>
</g>
<g>
</g>
<g>
</g>
<g>
</g>
<g>
</g>
<g>
</g>
<g>
</g>
<g>
</g>
</svg>
