<?xml version="1.0" encoding="iso-8859-1"?>
<!-- Generator: Adobe Illustrator 19.0.0, SVG Export Plug-In . SVG Version: 6.00 Build 0)  -->
<svg version="1.1" id="Capa_1" xmlns="http://www.w3.org/2000/svg" xmlns:xlink="http://www.w3.org/1999/xlink" x="0px" y="0px"
	 viewBox="0 0 512 512" style="enable-background:new 0 0 512 512;" xml:space="preserve">
<g>
	<path style="fill:#FDDD88;" d="M256,80c-70.58,0-128,57.42-128,128c0,50.758,18.434,74.312,36.26,97.09
		c11.354,14.507,22.077,28.21,28.048,49.107c4.638,16.231,7.688,54.057,7.718,54.437c0.331,4.159,3.803,7.366,7.975,7.366h96
		c4.172,0,7.644-3.207,7.975-7.366c0.03-0.38,3.08-38.205,7.718-54.437c5.971-20.897,16.694-34.6,28.048-49.107
		C365.566,282.312,384,258.758,384,208C384,137.42,326.58,80,256,80z"/>
	<path style="fill:#FCD56A;" d="M235.382,384c-7.876,0-14.539-5.756-15.763-13.537c-0.976-6.202-2.088-11.984-3.311-16.266
		c-5.971-20.897-16.694-34.6-28.048-49.107C170.434,282.312,152,258.758,152,208c0-66.533,51.027-121.363,116-127.433
		C264.048,80.198,260.047,80,256,80c-70.58,0-128,57.42-128,128c0,50.758,18.434,74.312,36.26,97.09
		c11.354,14.507,22.077,28.21,28.048,49.107c4.638,16.231,7.688,54.057,7.718,54.437c0.331,4.159,3.803,7.366,7.975,7.366h96
		c4.172,0,7.644-3.207,7.975-7.366c0.017-0.208,0.941-11.657,2.534-24.634H235.382z"/>
	<g>
		<path style="fill:#AAB4BD;" d="M320,400H192c-4.418,0-8,3.582-8,8v72c0,17.645,14.355,32,32,32h80c17.645,0,32-14.355,32-32v-72
			C328,403.582,324.418,400,320,400z"/>
		<path style="fill:#95A1AC;" d="M320,496h-80c-17.645,0-32-14.355-32-32v-64h-16c-4.418,0-8,3.582-8,8v72c0,17.645,14.355,32,32,32
			h80c11.916,0,22.324-6.552,27.832-16.237C322.574,495.913,321.297,496,320,496z"/>
		<rect x="184" y="432" style="fill:#55697A;" width="144" height="16"/>
		<rect x="184" y="464" style="fill:#55697A;" width="144" height="16"/>
	</g>
	<path style="fill:#FFFFFF;" d="M288,216c4.418,0,8-3.582,8-8v-8c0-17.645-14.355-32-32-32v-16c0-4.418-3.582-8-8-8s-8,3.582-8,8
		v16.228c-17.974,1.997-32,17.274-32,35.772c0,19.851,16.149,36,36,36h8c11.028,0,20,8.972,20,20s-8.972,20-20,20h-12
		c-8.822,0-16-7.178-16-16c0-4.418-3.582-8-8-8s-8,3.582-8,8c0,17.645,14.355,32,32,32v16c0,4.418,3.582,8,8,8s8-3.582,8-8v-16.228
		c17.974-1.997,32-17.274,32-35.772c0-19.851-16.149-36-36-36h-8c-11.028,0-20-8.972-20-20s8.972-20,20-20h12
		c8.822,0,16,7.178,16,16v8C280,212.418,283.582,216,288,216z"/>
	<g>
		<path style="fill:#FD8E61;" d="M256,48c-4.418,0-8-3.582-8-8V8c0-4.418,3.582-8,8-8s8,3.582,8,8v32C264,44.418,260.418,48,256,48z
			"/>
		<path style="fill:#FD8E61;" d="M191.712,60.79c-3.139,0-6.118-1.86-7.394-4.94l-12.246-29.564
			c-1.691-4.082,0.248-8.762,4.33-10.453c4.082-1.69,8.762,0.248,10.453,4.33L199.1,49.727
			C201.242,54.898,197.329,60.79,191.712,60.79z"/>
		<path style="fill:#FD8E61;" d="M137.206,97.206c-2.047,0-4.095-0.781-5.657-2.343l-22.627-22.627
			c-3.125-3.124-3.125-8.189,0-11.313c3.124-3.124,8.189-3.124,11.313,0l22.627,22.627
			C147.789,88.474,144.201,97.206,137.206,97.206z"/>
		<path style="fill:#FD8E61;" d="M100.785,151.711c-1.021,0-2.057-0.196-3.059-0.611l-29.564-12.246
			c-4.082-1.691-6.021-6.371-4.33-10.453s6.371-6.019,10.453-4.33l29.564,12.246c3.36,1.392,5.402,5.003,4.848,8.601
			C108.105,148.777,104.689,151.711,100.785,151.711z"/>
		<path style="fill:#FD8E61;" d="M88,216H56c-4.359,0-8-3.641-8-8s3.641-8,8-8h32c4.418,0,8,3.582,8,8S92.418,216,88,216z"/>
		<path style="fill:#FD8E61;" d="M71.227,292.539c-3.903,0-7.32-2.934-7.913-6.792c-0.553-3.598,1.489-7.209,4.848-8.601
			L97.727,264.9c4.082-1.689,8.762,0.248,10.453,4.33s-0.248,8.762-4.33,10.453l-29.564,12.246
			C73.285,292.342,72.248,292.539,71.227,292.539z"/>
		<path style="fill:#FD8E61;" d="M440.773,292.539c-1.021,0-2.057-0.196-3.059-0.611l-29.564-12.246
			c-4.082-1.691-6.021-6.371-4.33-10.453s6.372-6.019,10.453-4.33l29.564,12.246c3.36,1.392,5.402,5.003,4.848,8.601
			C448.093,289.604,444.676,292.539,440.773,292.539z"/>
		<path style="fill:#FD8E61;" d="M456,216h-32c-4.418,0-8-3.582-8-8s3.582-8,8-8h32c4.418,0,8,3.582,8,8S460.418,216,456,216z"/>
		<path style="fill:#FD8E61;" d="M411.215,151.711c-3.903,0-7.32-2.934-7.913-6.792c-0.553-3.598,1.489-7.209,4.848-8.601
			l29.564-12.246c4.08-1.689,8.762,0.248,10.453,4.33s-0.248,8.762-4.33,10.453L414.273,151.1
			C413.272,151.515,412.235,151.711,411.215,151.711z"/>
		<path style="fill:#FD8E61;" d="M374.794,97.206c-6.995,0-10.582-8.732-5.657-13.657l22.627-22.627
			c3.124-3.124,8.189-3.124,11.313,0c3.125,3.124,3.125,8.189,0,11.313l-22.627,22.627
			C378.889,96.425,376.841,97.206,374.794,97.206z"/>
		<path style="fill:#FD8E61;" d="M320.288,60.79c-5.617,0-9.531-5.892-7.388-11.063l12.246-29.564
			c1.691-4.082,6.371-6.019,10.453-4.33c4.082,1.691,6.021,6.371,4.33,10.453L327.682,55.85
			C326.406,58.93,323.427,60.79,320.288,60.79z"/>
	</g>
</g>
<g>
</g>
<g>
</g>
<g>
</g>
<g>
</g>
<g>
</g>
<g>
</g>
<g>
</g>
<g>
</g>
<g>
</g>
<g>
</g>
<g>
</g>
<g>
</g>
<g>
</g>
<g>
</g>
<g>
</g>
</svg>
