<?xml version="1.0" encoding="iso-8859-1"?>
<!-- Generator: Adobe Illustrator 19.0.0, SVG Export Plug-In . SVG Version: 6.00 Build 0)  -->
<svg version="1.1" id="Capa_1" xmlns="http://www.w3.org/2000/svg" xmlns:xlink="http://www.w3.org/1999/xlink" x="0px" y="0px"
	 viewBox="0 0 512 512" style="enable-background:new 0 0 512 512;" xml:space="preserve">
<g>
	<path style="fill:#EAECEE;" d="M407.508,335.533c41.043-36.478,64.493-88.534,64.493-143.533c0-105.869-86.131-192-192-192
		s-192,86.131-192,192c0,1.886,0.033,3.837,0.1,5.912l-47.255,94.51c-1.976,3.952-0.374,8.757,3.578,10.733l43.578,21.789V400
		c0,4.418,3.582,8,8,8h99.271l12.797,97.046c0.524,3.979,3.917,6.954,7.931,6.954h208c2.323,0,4.532-1.01,6.051-2.767
		c1.52-1.758,2.2-4.089,1.865-6.388L407.508,335.533z"/>
	<path style="fill:#FCD56A;" d="M328.001,148c6.627,0,12-5.373,12-12v-12c0-26.467-21.533-48-48-48V56c0-6.627-5.373-12-12-12
		s-12,5.373-12,12v20.341c-26.961,2.995-48,25.912-48,53.659c0,29.776,24.224,54,54,54h12c16.542,0,30,13.458,30,30
		s-13.458,30-30,30h-18c-13.234,0-24-10.766-24-24c0-6.627-5.373-12-12-12s-12,5.373-12,12c0,26.467,21.533,48,48,48v20
		c0,6.627,5.373,12,12,12s12-5.373,12-12v-20.341c26.961-2.995,48-25.912,48-53.659c0-29.776-24.224-54-54-54h-12
		c-16.542,0-30-13.458-30-30s13.458-30,30-30h18c13.234,0,24,10.766,24,24v12C316.001,142.627,321.373,148,328.001,148z"/>
</g>
<g>
</g>
<g>
</g>
<g>
</g>
<g>
</g>
<g>
</g>
<g>
</g>
<g>
</g>
<g>
</g>
<g>
</g>
<g>
</g>
<g>
</g>
<g>
</g>
<g>
</g>
<g>
</g>
<g>
</g>
</svg>
