<?xml version="1.0" encoding="iso-8859-1"?>
<!-- Generator: Adobe Illustrator 19.0.0, SVG Export Plug-In . SVG Version: 6.00 Build 0)  -->
<svg version="1.1" id="Capa_1" xmlns="http://www.w3.org/2000/svg" xmlns:xlink="http://www.w3.org/1999/xlink" x="0px" y="0px"
	 viewBox="0 0 511.999 511.999" style="enable-background:new 0 0 511.999 511.999;" xml:space="preserve">
<g>
	<g>
		<path style="fill:#40566A;" d="M413.995,325.99c-0.108,0-0.217-0.002-0.326-0.006c-4.415-0.177-7.851-3.899-7.673-8.314
			c0.071-1.789,2.163-43.935,37.547-55.297c3.187-1.023,6.319-1.66,9.361-1.919c4.046-12.359,11.007-23.167,20.035-27.38
			c7.963-3.717,16.247-3.231,23.322,1.373c10.02,6.521,16.046,20.711,15.726,37.034c-0.086,4.418-3.773,7.901-8.155,7.842
			c-4.417-0.086-7.928-3.738-7.841-8.155c0.237-12.146-4.076-20.459-8.456-23.31c-2.405-1.564-4.894-1.655-7.83-0.284
			c-3.813,1.779-7.805,7.793-10.678,15.418c4.602,2.033,8.711,5.21,12.136,9.479c8.517,10.616,10.741,25.797,5.175,35.312
			c-3.698,6.323-10.42,9.354-17.988,8.1c-10.196-1.687-17.086-10.249-18.903-23.493c-0.64-4.667-0.663-9.803-0.127-15.053
			c-0.293,0.085-0.588,0.175-0.884,0.271c-24.857,7.981-26.439,40.377-26.453,40.703C421.811,322.616,418.265,325.99,413.995,325.99
			z M465.204,279.146c-0.384,3.782-0.39,7.546,0.094,11.069c0.47,3.418,1.829,9.248,5.663,9.882c1.217,0.202,1.32,0.028,1.566-0.394
			c1.715-2.931,1.069-11.096-3.845-17.221C467.62,281.157,466.46,280.045,465.204,279.146z"/>
		<g>
			<path style="fill:#76E7EB;" d="M336,431.99h-48c-2.464,0-4.79,1.135-6.306,3.077s-2.053,4.474-1.455,6.864l16,64
				c0.89,3.561,4.09,6.06,7.761,6.06h32c4.418,0,8-3.582,8-8v-64C344,435.571,340.418,431.99,336,431.99z"/>
			<path style="fill:#76E7EB;" d="M184,431.99h-48c-4.418,0-8,3.582-8,8v64c0,4.418,3.582,8,8,8h32c3.671,0,6.871-2.499,7.761-6.06
				l16-64c0.597-2.39,0.061-4.922-1.456-6.864S186.463,431.99,184,431.99z"/>
		</g>
		<path style="fill:#49DFE5;" d="M203.062,120.599c-2.99-1.239-6.431-0.553-8.718,1.734l-56,56
			c-2.288,2.288-2.973,5.729-1.734,8.718s4.155,4.938,7.391,4.938h56c4.418,0,8-3.582,8-8v-56
			C208,124.754,206.051,121.837,203.062,120.599z"/>
		<path style="fill:#76E7EB;" d="M48,295.99H8c-4.418,0-8,3.582-8,8v56c0,3.813,2.692,7.097,6.431,7.845l40,8
			c0.521,0.104,1.046,0.155,1.569,0.155c1.833,0,3.629-0.631,5.072-1.813c1.854-1.52,2.928-3.79,2.928-6.187v-64
			C56,299.571,52.418,295.99,48,295.99z"/>
		<path style="fill:#76E7EB;" d="M328,175.99H144c-57.346,0-104,46.654-104,104v80c0,57.346,46.654,104,104,104h184
			c57.346,0,104-46.654,104-104v-80C432,222.644,385.346,175.99,328,175.99z"/>
		<path style="fill:#1BD7DE;" d="M352,439.99H168c-57.346,0-104-46.654-104-104v-80c0-22.56,7.224-43.463,19.476-60.524
			C57.169,214.356,40,245.204,40,279.99v80c0,57.346,46.654,104,104,104h184c34.785,0,65.634-17.169,84.524-43.476
			C395.463,432.766,374.56,439.99,352,439.99z"/>
		<path style="fill:#40566A;" d="M112,311.99c-17.645,0-32-14.355-32-32c0-4.418,3.582-8,8-8s8,3.582,8,8c0,8.822,7.178,16,16,16
			s16-7.178,16-16c0-4.418,3.582-8,8-8s8,3.582,8,8C144,297.635,129.645,311.99,112,311.99z"/>
		<path style="fill:#40566A;" d="M304,231.49h-96c-4.142,0-7.5-3.358-7.5-7.5s3.358-7.5,7.5-7.5h96c4.143,0,7.5,3.358,7.5,7.5
			S308.143,231.49,304,231.49z"/>
	</g>
	<g>
		<circle style="fill:#FFFFFF;" cx="256" cy="327.99" r="56"/>
		<path style="fill:#1BD7DE;" d="M256,263.99c-35.29,0-64,28.71-64,64s28.71,64,64,64c35.29,0,64-28.71,64-64
			S291.29,263.99,256,263.99z M264,375.31v-7.321c0-4.418-3.582-8-8-8c-4.418,0-8,3.582-8,8v7.321
			c-20.067-3.382-35.938-19.253-39.321-39.321H216c4.418,0,8-3.582,8-8s-3.582-8-8-8h-7.321
			c3.382-20.067,19.253-35.938,39.321-39.321v7.321c0,4.418,3.582,8,8,8c4.418,0,8-3.582,8-8v-7.321
			c20.068,3.382,35.938,19.253,39.321,39.321H296c-4.418,0-8,3.582-8,8s3.582,8,8,8h7.321
			C299.938,356.057,284.068,371.928,264,375.31z"/>
		<path style="fill:#FD8E61;" d="M255.998,335.99c-1.537,0-3.082-0.441-4.435-1.344l-24-16c-3.676-2.451-4.67-7.417-2.219-11.094
			c2.451-3.677,7.418-4.67,11.094-2.219l18.543,12.362l11.362-11.362c3.125-3.124,8.189-3.124,11.314,0
			c3.124,3.124,3.124,8.189,0,11.313l-16,16C260.11,335.193,258.063,335.99,255.998,335.99z"/>
	</g>
	<g>
		<path style="fill:#FDDD88;" d="M56,79.99c-26.467,0-48,21.533-48,48s21.533,48,48,48s48-21.533,48-48S82.467,79.99,56,79.99z"/>
		<path style="fill:#FD8E61;" d="M71.994,143.992c-1.202,0-2.423-0.272-3.571-0.847l-16-8c-3.952-1.976-5.554-6.781-3.578-10.733
			l8-16c1.976-3.951,6.781-5.554,10.733-3.578c3.952,1.976,5.554,6.781,3.578,10.733l-4.422,8.845l8.845,4.422
			c3.166,1.582,4.949,5.181,4.282,8.659C79.144,141.221,75.787,143.991,71.994,143.992z"/>
	</g>
	<g>
		<path style="fill:#FDDD88;" d="M291.688,8.782c-21.621-15.265-51.63-10.095-66.896,11.526c-7.395,10.474-10.269,23.2-8.092,35.835
			c2.177,12.635,9.144,23.666,19.618,31.061c8.395,5.927,18.049,8.772,27.619,8.772c15.079,0,29.939-7.071,39.278-20.298
			C318.48,54.057,313.31,24.047,291.688,8.782z"/>
		<path style="fill:#FD8E61;" d="M264.003,55.993c-2.919,0-5.67-1.646-7.05-4.218l-8.456-15.764
			c-2.088-3.894-0.625-8.743,3.268-10.832c3.895-2.088,8.743-0.625,10.832,3.268l4.674,8.714l8.714-4.674
			c3.892-2.088,8.741-0.626,10.831,3.268c2.089,3.894,0.625,8.743-3.269,10.832l-15.764,8.456
			C266.611,55.672,265.311,55.993,264.003,55.993z"/>
	</g>
	<g>
		<path style="fill:#FDDD88;" d="M495.399,132.574c-7.322-10.524-18.305-17.568-30.925-19.833
			c-12.62-2.263-25.365,0.521-35.89,7.843c-10.525,7.322-17.568,18.304-19.834,30.924c-2.265,12.62,0.521,25.366,7.843,35.891
			c9.317,13.392,24.275,20.572,39.472,20.572c9.457,0,19.009-2.783,27.343-8.582c10.525-7.322,17.568-18.304,19.834-30.924
			C505.507,155.845,502.722,143.099,495.399,132.574z"/>
		<path style="fill:#FD8E61;" d="M438.284,170.558c-4.183,0-7.739-3.374-7.977-7.546c-0.232-4.089,2.783-7.783,6.837-8.372
			l9.785-1.421l-1.421-9.786c-0.635-4.373,2.396-8.432,6.768-9.066c4.381-0.635,8.432,2.396,9.066,6.768l2.57,17.703
			c0.635,4.373-2.396,8.432-6.768,9.066l-17.702,2.57C439.054,170.53,438.666,170.558,438.284,170.558z"/>
	</g>
</g>
<g>
</g>
<g>
</g>
<g>
</g>
<g>
</g>
<g>
</g>
<g>
</g>
<g>
</g>
<g>
</g>
<g>
</g>
<g>
</g>
<g>
</g>
<g>
</g>
<g>
</g>
<g>
</g>
<g>
</g>
</svg>
