<?xml version="1.0" encoding="iso-8859-1"?>
<!-- Generator: Adobe Illustrator 19.0.0, SVG Export Plug-In . SVG Version: 6.00 Build 0)  -->
<svg version="1.1" id="Capa_1" xmlns="http://www.w3.org/2000/svg" xmlns:xlink="http://www.w3.org/1999/xlink" x="0px" y="0px"
	 viewBox="0 0 512 512" style="enable-background:new 0 0 512 512;" xml:space="preserve">
<g>
	<path style="fill:#55697A;" d="M504,248h-24.156c-1.982-56.832-25.036-109.976-65.452-150.392
		C373.976,57.192,320.832,34.138,264,32.156V8c0-4.418-3.582-8-8-8s-8,3.582-8,8v24.156
		c-56.832,1.982-109.976,25.036-150.392,65.452C57.192,138.024,34.138,191.168,32.156,248H8c-4.418,0-8,3.582-8,8s3.582,8,8,8
		h24.156c1.982,56.832,25.036,109.976,65.452,150.392c40.416,40.417,93.56,63.47,150.392,65.452V504c0,4.418,3.582,8,8,8
		s8-3.582,8-8v-24.156c56.832-1.982,109.976-25.036,150.392-65.452c40.417-40.416,63.47-93.56,65.452-150.392H504
		c4.418,0,8-3.582,8-8S508.418,248,504,248z M403.078,403.078C365.684,440.472,316.557,461.86,264,463.834V448c0-4.418-3.582-8-8-8
		s-8,3.582-8,8v15.834c-52.557-1.975-101.684-23.362-139.078-60.756C71.528,365.684,50.14,316.557,48.166,264H64
		c4.418,0,8-3.582,8-8s-3.582-8-8-8H48.166c1.975-52.557,23.362-101.684,60.756-139.078C146.316,71.528,195.443,50.14,248,48.166V64
		c0,4.418,3.582,8,8,8s8-3.582,8-8V48.166c52.557,1.975,101.684,23.362,139.078,60.756c37.394,37.394,58.781,86.521,60.756,139.078
		H448c-4.418,0-8,3.582-8,8s3.582,8,8,8h15.834C461.86,316.557,440.472,365.684,403.078,403.078z"/>
	<path style="fill:#FD8E61;" d="M256,88c-92.636,0-168,75.364-168,168s75.364,168,168,168s168-75.364,168-168S348.636,88,256,88z"/>
	<path style="fill:#FD7239;" d="M256,120c-74.991,0-136,61.009-136,136s61.009,136,136,136s136-61.009,136-136S330.991,120,256,120z
		"/>
	<path style="fill:#FFFFFF;" d="M256,136c-66.168,0-120,53.832-120,120s53.832,120,120,120s120-53.832,120-120S322.168,136,256,136z
		"/>
	<path style="fill:#49DFE5;" d="M288,240c4.418,0,8-3.582,8-8v-8c0-17.645-14.355-32-32-32v-16c0-4.418-3.582-8-8-8s-8,3.582-8,8
		v16.228c-17.974,1.997-32,17.274-32,35.772c0,19.851,16.149,36,36,36h8c11.028,0,20,8.972,20,20s-8.972,20-20,20h-12
		c-8.822,0-16-7.178-16-16c0-4.418-3.582-8-8-8s-8,3.582-8,8c0,17.645,14.355,32,32,32v16c0,4.418,3.582,8,8,8s8-3.582,8-8v-16.228
		c17.974-1.997,32-17.274,32-35.772c0-19.851-16.149-36-36-36h-8c-11.028,0-20-8.972-20-20s8.972-20,20-20h12
		c8.822,0,16,7.178,16,16v8C280,236.418,283.582,240,288,240z"/>
</g>
<g>
</g>
<g>
</g>
<g>
</g>
<g>
</g>
<g>
</g>
<g>
</g>
<g>
</g>
<g>
</g>
<g>
</g>
<g>
</g>
<g>
</g>
<g>
</g>
<g>
</g>
<g>
</g>
<g>
</g>
</svg>
