<?xml version="1.0" encoding="iso-8859-1"?>
<!-- Generator: Adobe Illustrator 19.0.0, SVG Export Plug-In . SVG Version: 6.00 Build 0)  -->
<svg version="1.1" id="Capa_1" xmlns="http://www.w3.org/2000/svg" xmlns:xlink="http://www.w3.org/1999/xlink" x="0px" y="0px"
	 viewBox="0 0 512 512" style="enable-background:new 0 0 512 512;" xml:space="preserve">
<g>
	<g>
		<path style="fill:#F4F6F7;" d="M210,0l-90,90v414c0,4.418,3.582,8,8,8h376c4.418,0,8-3.582,8-8V8c0-4.418-3.582-8-8-8H210z"/>
		<path style="fill:#EAECEE;" d="M264,472H120V136h144c4.418,0,8,3.582,8,8v320C272,468.418,268.418,472,264,472z"/>
		<path style="fill:#EAECEE;" d="M210,82V0l-90,90h82C206.418,90,210,86.418,210,82z"/>
		<path style="fill:#FCD56A;" d="M436,168c6.627,0,12-5.373,12-12v-12c0-26.467-21.533-48-48-48V76c0-6.627-5.373-12-12-12
			s-12,5.373-12,12v20.341c-26.961,2.995-48,25.912-48,53.659c0,29.776,24.224,54,54,54h12c16.542,0,30,13.458,30,30
			s-13.458,30-30,30h-18c-13.234,0-24-10.766-24-24c0-6.627-5.373-12-12-12s-12,5.373-12,12c0,26.467,21.533,48,48,48v20
			c0,6.627,5.373,12,12,12s12-5.373,12-12v-20.341c26.961-2.995,48-25.912,48-53.659c0-29.776-24.224-54-54-54h-12
			c-16.542,0-30-13.458-30-30s13.458-30,30-30h18c13.234,0,24,10.766,24,24v12C424,162.627,429.373,168,436,168z"/>
		<g>
			<path style="fill:#D5D9DE;" d="M352,376h-56c-4.418,0-8-3.582-8-8s3.582-8,8-8h56c4.418,0,8,3.582,8,8S356.418,376,352,376z"/>
			<path style="fill:#D5D9DE;" d="M464,376h-80c-4.418,0-8-3.582-8-8s3.582-8,8-8h80c4.418,0,8,3.582,8,8S468.418,376,464,376z"/>
			<path style="fill:#D5D9DE;" d="M328,416h-32c-4.418,0-8-3.582-8-8s3.582-8,8-8h32c4.418,0,8,3.582,8,8S332.418,416,328,416z"/>
			<path style="fill:#D5D9DE;" d="M464,416H360c-4.418,0-8-3.582-8-8s3.582-8,8-8h104c4.418,0,8,3.582,8,8S468.418,416,464,416z"/>
			<path style="fill:#D5D9DE;" d="M376,456h-80c-4.418,0-8-3.582-8-8s3.582-8,8-8h80c4.418,0,8,3.582,8,8S380.418,456,376,456z"/>
			<path style="fill:#D5D9DE;" d="M464,456h-56c-4.418,0-8-3.582-8-8s3.582-8,8-8h56c4.418,0,8,3.582,8,8S468.418,456,464,456z"/>
		</g>
	</g>
	<g>
		<path style="fill:#76E7EB;" d="M248,136H8c-4.418,0-8,3.582-8,8v304c0,4.418,3.582,8,8,8h240c4.418,0,8-3.582,8-8V144
			C256,139.582,252.418,136,248,136z"/>
		<path style="fill:#1BD7DE;" d="M40,440c-13.255,0-24-10.745-24-24V136H8c-4.418,0-8,3.582-8,8v304c0,4.418,3.582,8,8,8h240
			c4.418,0,8-3.582,8-8v-8H40z"/>
		<rect x="40" y="176" style="fill:#6B7B8B;" width="176" height="48"/>
		<polygon style="fill:#55697A;" points="40,176 40,224 94.099,224 153.562,176 		"/>
		<path style="fill:#40566A;" d="M216,232H40c-4.418,0-8-3.582-8-8v-48c0-4.418,3.582-8,8-8h176c4.418,0,8,3.582,8,8v48
			C224,228.418,220.418,232,216,232z M48,216h160v-32H48V216z"/>
		<path style="fill:#D5D9DE;" d="M216,248h-64c-4.418,0-8,3.582-8,8v64c0,4.418,3.582,8,8,8h64c4.418,0,8-3.582,8-8v-64
			C224,251.582,220.418,248,216,248z"/>
		<path style="fill:#BFC7CD;" d="M152,312v-64c-4.418,0-8,3.582-8,8v64c0,4.418,3.582,8,8,8h64c4.418,0,8-3.582,8-8h-64
			C155.582,320,152,316.418,152,312z"/>
		<path style="fill:#D5D9DE;" d="M104,248H40c-4.418,0-8,3.582-8,8v64c0,4.418,3.582,8,8,8h64c4.418,0,8-3.582,8-8v-64
			C112,251.582,108.418,248,104,248z"/>
		<path style="fill:#BFC7CD;" d="M40,312v-64c-4.418,0-8,3.582-8,8v64c0,4.418,3.582,8,8,8h64c4.418,0,8-3.582,8-8H48
			C43.582,320,40,316.418,40,312z"/>
		<path style="fill:#D5D9DE;" d="M216,344h-64c-4.418,0-8,3.582-8,8v64c0,4.418,3.582,8,8,8h64c4.418,0,8-3.582,8-8v-64
			C224,347.582,220.418,344,216,344z"/>
		<path style="fill:#BFC7CD;" d="M152,408v-64c-4.418,0-8,3.582-8,8v64c0,4.418,3.582,8,8,8h64c4.418,0,8-3.582,8-8h-64
			C155.582,416,152,412.418,152,408z"/>
		<path style="fill:#D5D9DE;" d="M104,344H40c-4.418,0-8,3.582-8,8v64c0,4.418,3.582,8,8,8h64c4.418,0,8-3.582,8-8v-64
			C112,347.582,108.418,344,104,344z"/>
		<path style="fill:#BFC7CD;" d="M40,408v-64c-4.418,0-8,3.582-8,8v64c0,4.418,3.582,8,8,8h64c4.418,0,8-3.582,8-8H48
			C43.582,416,40,412.418,40,408z"/>
		<path style="fill:#95A1AC;" d="M88,280h-8v-8c0-4.418-3.582-8-8-8s-8,3.582-8,8v8h-8c-4.418,0-8,3.582-8,8s3.582,8,8,8h8v8
			c0,4.418,3.582,8,8,8s8-3.582,8-8v-8h8c4.418,0,8-3.582,8-8S92.418,280,88,280z"/>
		<path style="fill:#95A1AC;" d="M192,296h-16c-4.418,0-8-3.582-8-8s3.582-8,8-8h16c4.418,0,8,3.582,8,8S196.418,296,192,296z"/>
		<path style="fill:#95A1AC;" d="M83.313,384l10.343-10.343c3.125-3.124,3.125-8.189,0-11.313c-3.124-3.124-8.189-3.124-11.313,0
			L72,372.687l-10.343-10.343c-3.124-3.124-8.189-3.124-11.313,0c-3.125,3.124-3.125,8.189,0,11.313L60.687,384l-10.343,10.343
			c-2.889,2.888-3.104,7.636-0.491,10.775c2.969,3.566,8.523,3.819,11.804,0.539L72,395.313l10.343,10.343
			c3.286,3.286,8.828,3.021,11.804-0.539c2.62-3.133,2.393-7.891-0.491-10.775L83.313,384z"/>
		<path style="fill:#AAB4BD;" d="M168,408c-6.995,0-10.582-8.732-5.657-13.657l32-32c3.124-3.124,8.189-3.124,11.313,0
			c3.125,3.124,3.125,8.189,0,11.313l-32,32C172.095,407.219,170.047,408,168,408z"/>
	</g>
</g>
<g>
</g>
<g>
</g>
<g>
</g>
<g>
</g>
<g>
</g>
<g>
</g>
<g>
</g>
<g>
</g>
<g>
</g>
<g>
</g>
<g>
</g>
<g>
</g>
<g>
</g>
<g>
</g>
<g>
</g>
</svg>
