<?xml version="1.0" encoding="iso-8859-1"?>
<!-- Generator: Adobe Illustrator 19.0.0, SVG Export Plug-In . SVG Version: 6.00 Build 0)  -->
<svg version="1.1" id="Capa_1" xmlns="http://www.w3.org/2000/svg" xmlns:xlink="http://www.w3.org/1999/xlink" x="0px" y="0px"
	 viewBox="0 0 511.5 511.5" style="enable-background:new 0 0 511.5 511.5;" xml:space="preserve">
<g>
	<path style="fill:#FDE6A6;" d="M80.55,227.9c4.143,0,7.5-3.358,7.5-7.5v-5.2c0-11.961-9.138-21.827-20.8-22.985V184
		c0-4.142-3.357-7.5-7.5-7.5s-7.5,3.358-7.5,7.5v8.574c-11.834,2.295-20.8,12.73-20.8,25.225c0,14.171,11.529,25.7,25.7,25.7h5.2
		c5.899,0,10.699,4.8,10.699,10.7s-4.8,10.7-10.699,10.7H54.55c-4.466,0-8.1-3.634-8.1-8.1c0-4.142-3.357-7.5-7.5-7.5
		s-7.5,3.358-7.5,7.5c0,11.961,9.138,21.827,20.8,22.985V288c0,4.142,3.357,7.5,7.5,7.5s7.5-3.358,7.5-7.5v-8.574
		c11.835-2.294,20.8-12.73,20.8-25.226c0-14.171-11.528-25.7-25.699-25.7h-5.2c-5.9,0-10.7-4.8-10.7-10.7s4.8-10.7,10.7-10.7h7.8
		c4.466,0,8.1,3.634,8.1,8.1v5.2C73.05,224.542,76.407,227.9,80.55,227.9z"/>
	<path style="fill:#FDE6A6;" d="M416.55,59.9c4.143,0,7.5-3.358,7.5-7.5v-5.2c0-11.961-9.138-21.827-20.8-22.985V16
		c0-4.142-3.357-7.5-7.5-7.5s-7.5,3.358-7.5,7.5v8.574c-11.834,2.295-20.8,12.73-20.8,25.225c0,14.171,11.529,25.7,25.7,25.7h5.2
		c5.899,0,10.699,4.8,10.699,10.7s-4.8,10.7-10.699,10.7h-7.801c-4.466,0-8.1-3.634-8.1-8.1c0-4.142-3.357-7.5-7.5-7.5
		s-7.5,3.358-7.5,7.5c0,11.961,9.138,21.827,20.8,22.985V120c0,4.142,3.357,7.5,7.5,7.5s7.5-3.358,7.5-7.5v-8.574
		c11.835-2.294,20.8-12.73,20.8-25.226c0-14.171-11.528-25.7-25.699-25.7h-5.2c-5.9,0-10.7-4.8-10.7-10.7s4.8-10.7,10.7-10.7h7.8
		c4.466,0,8.1,3.634,8.1,8.1v5.2C409.05,56.542,412.407,59.9,416.55,59.9z"/>
	<path style="fill:#FDE6A6;" d="M472.55,443.9c4.143,0,7.5-3.358,7.5-7.5v-5.2c0-11.961-9.138-21.827-20.8-22.985V400
		c0-4.142-3.357-7.5-7.5-7.5s-7.5,3.358-7.5,7.5v8.574c-11.834,2.295-20.8,12.73-20.8,25.225c0,14.171,11.529,25.7,25.7,25.7h5.2
		c5.899,0,10.699,4.8,10.699,10.7s-4.8,10.7-10.699,10.7h-7.801c-4.466,0-8.1-3.634-8.1-8.1c0-4.142-3.357-7.5-7.5-7.5
		s-7.5,3.358-7.5,7.5c0,11.961,9.138,21.827,20.8,22.985V504c0,4.142,3.357,7.5,7.5,7.5s7.5-3.358,7.5-7.5v-8.574
		c11.835-2.294,20.8-12.73,20.8-25.226c0-14.171-11.528-25.7-25.699-25.7h-5.2c-5.9,0-10.7-4.8-10.7-10.7s4.8-10.7,10.7-10.7h7.8
		c4.466,0,8.1,3.634,8.1,8.1v5.2C465.05,440.542,468.407,443.9,472.55,443.9z"/>
	<g>
		<path style="fill:#FD8E61;" d="M254.95,368.5c-30.603,0-55.5,24.897-55.5,55.5c0,28.557,44.809,79.315,49.918,85.009
			c2.937,3.271,8.227,3.271,11.164,0c5.109-5.694,49.918-56.452,49.918-85.009C310.45,393.397,285.553,368.5,254.95,368.5z"/>
		<path style="fill:#FFFFFF;" d="M254.95,376.5c-17.369,0-31.5,14.131-31.5,31.5c0,14.842,21.1,46.139,25.329,52.263
			c2.931,4.243,9.411,4.243,12.342,0c4.229-6.124,25.329-37.421,25.329-52.263C286.45,390.631,272.319,376.5,254.95,376.5z"/>
	</g>
	<g>
		<path style="fill:#76E7EB;" d="M257.684,0.481c-1.768-0.642-3.701-0.642-5.469,0C152.101,36.887,150.95,131.97,150.95,136
			c0,4.418,3.582,8,8,8h192c2.122,0,4.156-0.843,5.657-2.343c1.5-1.5,2.343-3.535,2.343-5.657
			C358.95,131.97,357.799,36.887,257.684,0.481z"/>
		<path style="fill:#1BD7DE;" d="M174.95,136c0-3.901,1.082-93.147,92-131.865c-2.991-1.274-6.077-2.494-9.266-3.654
			c-1.768-0.642-3.701-0.642-5.469,0C152.101,36.887,150.95,131.97,150.95,136c0,4.418,3.582,8,8,8h24
			C178.532,144,174.95,140.418,174.95,136z"/>
		<path style="fill:#49DFE5;" d="M401.024,298.793C386.429,281.766,368.178,272,350.95,272c-4.418,0-8,3.582-8,8v72
			c0,4.418,3.582,8,8,8h64c4.418,0,8-3.582,8-8C422.95,334.701,414.754,314.811,401.024,298.793z"/>
		<path style="fill:#1BD7DE;" d="M158.95,272c-17.228,0-35.479,9.766-50.074,26.793C95.146,314.811,86.95,334.701,86.95,352
			c0,4.418,3.582,8,8,8h64c4.418,0,8-3.582,8-8v-72C166.95,275.581,163.368,272,158.95,272z"/>
		<path style="fill:#EAECEE;" d="M358.95,136h-208v216c0,4.418,3.582,8,8,8h192c4.418,0,8-3.582,8-8V136z"/>
		<path style="fill:#D5D9DE;" d="M174.95,136h-24v216c0,4.418,0.413,8,0.923,8h22.154c0.51,0,0.923-3.582,0.923-8V136z"/>
		<g>
			<path style="fill:#D5D9DE;" d="M350.95,296h-192c-4.418,0-8,3.582-8,8v48c0,4.418,3.582,8,8,8h192c4.418,0,8-3.582,8-8v-48
				C358.95,299.581,355.368,296,350.95,296z"/>
			<g>
				<circle style="fill:#6B7B8B;" cx="254.95" cy="328" r="7.5"/>
				<circle style="fill:#6B7B8B;" cx="318.95" cy="328" r="7.5"/>
				<circle style="fill:#6B7B8B;" cx="286.95" cy="328" r="7.5"/>
				<circle style="fill:#6B7B8B;" cx="190.95" cy="328" r="7.5"/>
				<circle style="fill:#6B7B8B;" cx="222.95" cy="328" r="7.5"/>
			</g>
		</g>
		<g>
			<circle style="fill:#95A1AC;" cx="254.95" cy="216" r="48"/>
		</g>
	</g>
</g>
<g>
</g>
<g>
</g>
<g>
</g>
<g>
</g>
<g>
</g>
<g>
</g>
<g>
</g>
<g>
</g>
<g>
</g>
<g>
</g>
<g>
</g>
<g>
</g>
<g>
</g>
<g>
</g>
<g>
</g>
</svg>
