<?xml version="1.0" encoding="iso-8859-1"?>
<!-- Generator: Adobe Illustrator 19.0.0, SVG Export Plug-In . SVG Version: 6.00 Build 0)  -->
<svg version="1.1" id="Capa_1" xmlns="http://www.w3.org/2000/svg" xmlns:xlink="http://www.w3.org/1999/xlink" x="0px" y="0px"
	 viewBox="0 0 506.983 506.983" style="enable-background:new 0 0 506.983 506.983;" xml:space="preserve">
<g>
	<g>
		<path style="fill:#6B7B8B;" d="M465.269,475.722c-0.704-5.151-3.132-10.034-6.808-13.709l-67.999-67.999
			c-4.533-4.534-10.56-7.031-16.971-7.031s-12.438,2.497-16.97,7.03c-4.533,4.533-7.03,10.56-7.03,16.971s2.497,12.438,7.03,16.97
			l68,68c5.524,5.526,13.707,8.048,21.386,6.623c7.191-1.334,13.48-6.099,16.847-12.573
			C465.02,485.646,465.935,480.592,465.269,475.722z"/>
		<path style="fill:#6B7B8B;" d="M133.492,386.983c-6.411,0-12.438,2.497-16.97,7.03l-68,68c-7.127,7.125-8.98,18.428-4.555,27.473
			c4.168,8.518,13.329,13.97,22.812,13.462c5.858-0.314,11.535-2.845,15.683-6.994l68-68c4.533-4.533,7.03-10.56,7.03-16.971
			s-2.497-12.438-7.029-16.97C145.93,389.48,139.902,386.983,133.492,386.983z"/>
	</g>
	<g>
		<path style="fill:#76E7EB;" d="M253.492,122.983c-105.869,0-192,86.131-192,192s86.131,192,192,192s192-86.131,192-192
			S359.361,122.983,253.492,122.983z"/>
		<path style="fill:#1BD7DE;" d="M277.492,490.983c-105.869,0-192-86.131-192-192c0-61.431,29.004-116.212,74.033-151.38
			c-58.46,32.949-98.033,95.626-98.033,167.38c0,105.869,86.131,192,192,192c44.438,0,85.394-15.18,117.967-40.62
			C343.664,482.029,311.606,490.983,277.492,490.983z"/>
		<path style="fill:#EAECEE;" d="M253.492,162.983c-83.813,0-152,68.187-152,152s68.187,152,152,152s152-68.187,152-152
			S337.305,162.983,253.492,162.983z"/>
		<path style="fill:#FFFFFF;" d="M253.492,178.983c-74.991,0-136,61.009-136,136s61.009,136,136,136s136-61.009,136-136
			S328.482,178.983,253.492,178.983z"/>
		<path style="fill:#40566A;" d="M285.492,298.983c4.418,0,8-3.582,8-8v-8c0-17.645-14.355-32-32-32v-16c0-4.418-3.582-8-8-8
			s-8,3.582-8,8v16.228c-17.974,1.997-32,17.274-32,35.772c0,19.851,16.149,36,36,36h8c11.028,0,20,8.972,20,20s-8.972,20-20,20h-12
			c-8.822,0-16-7.178-16-16c0-4.418-3.582-8-8-8s-8,3.582-8,8c0,17.645,14.355,32,32,32v16c0,4.418,3.582,8,8,8s8-3.582,8-8v-16.228
			c17.974-1.997,32-17.274,32-35.772c0-19.851-16.149-36-36-36h-8c-11.028,0-20-8.972-20-20s8.972-20,20-20h12
			c8.822,0,16,7.178,16,16v8C277.492,295.402,281.073,298.983,285.492,298.983z"/>
	</g>
	<g>
		<path style="fill:#FD8E61;" d="M418.258,66.531c-10.806-6.9-23.652-9.179-36.173-6.416c-12.521,2.762-23.215,10.235-30.115,21.042
			l-17.221,26.971c-2.346,3.673-1.232,8.706,2.438,11.048l67.428,43.053c3.675,2.347,8.706,1.231,11.048-2.438l17.221-26.971
			C447.126,110.512,440.566,80.775,418.258,66.531z"/>
		<path style="fill:#FD7239;" d="M418.258,66.531c-5.304-3.387-11.1-5.653-17.107-6.763c20.837,14.667,26.659,43.375,12.81,65.063
			l-17.221,26.971c-0.903,1.415-2.208,2.445-3.68,3.049l11.554,7.377c3.675,2.347,8.706,1.231,11.048-2.438l17.221-26.971
			C447.126,110.512,440.566,80.775,418.258,66.531z"/>
		<path style="fill:#FD8E61;" d="M155.013,81.157c-6.899-10.807-17.594-18.279-30.115-21.042
			c-12.52-2.762-25.366-0.484-36.173,6.416C66.417,80.775,59.857,110.512,74.1,132.82l17.221,26.971
			c2.342,3.668,7.373,4.785,11.048,2.438l67.428-43.053c3.669-2.342,4.784-7.375,2.438-11.048L155.013,81.157z"/>
		<path style="fill:#FD7239;" d="M110.243,151.315l-17.221-26.971c-13.641-21.363-8.191-49.53,11.887-64.388
			c-5.677,1.167-11.153,3.363-16.184,6.576C66.417,80.775,59.857,110.512,74.1,132.82l17.221,26.971
			c2.342,3.668,7.373,4.785,11.048,2.438l12.036-7.685C112.737,153.979,111.244,152.882,110.243,151.315z"/>
	</g>
	<g>
		<path style="fill:#FDDD88;" d="M486.561,61.502c-2.894,0-5.688-1.575-7.11-4.322c-5.439-10.5-12.995-19.489-22.458-26.717
			c-9.463-7.229-20.123-12.154-31.684-14.64c-4.32-0.929-7.068-5.184-6.14-9.503c0.929-4.32,5.181-7.07,9.503-6.14
			c13.885,2.985,26.681,8.896,38.033,17.567c11.352,8.671,20.42,19.462,26.953,32.073C496.361,55.04,492.468,61.502,486.561,61.502z
			"/>
		<path style="fill:#FDDD88;" d="M458.147,76.245c-2.894,0-5.688-1.575-7.11-4.322c-3.266-6.305-7.797-11.698-13.469-16.031
			s-12.067-7.286-19.009-8.778c-4.319-0.929-7.068-5.184-6.14-9.503c0.929-4.32,5.181-7.071,9.503-6.14
			c9.265,1.992,17.797,5.931,25.358,11.706s13.605,12.971,17.964,21.386C467.947,69.783,464.054,76.245,458.147,76.245z"/>
	</g>
	<g>
		<path style="fill:#FDDD88;" d="M20.422,61.502c-5.907,0-9.801-6.462-7.097-11.681c6.533-12.611,15.601-23.402,26.953-32.073
			C51.63,9.077,64.426,3.166,78.311,0.181c4.316-0.927,8.574,1.82,9.503,6.14c0.929,4.319-1.82,8.574-6.14,9.503
			c-11.561,2.486-22.221,7.411-31.683,14.64C40.528,37.691,32.972,46.68,27.533,57.18C26.11,59.927,23.316,61.502,20.422,61.502z"/>
		<path style="fill:#FDDD88;" d="M48.836,76.245c-5.907,0-9.8-6.462-7.097-11.681c4.359-8.415,10.403-15.611,17.963-21.386
			c7.562-5.775,16.093-9.714,25.358-11.706c4.317-0.929,8.574,1.82,9.503,6.14c0.929,4.319-1.82,8.574-6.14,9.503
			c-6.941,1.492-13.337,4.446-19.009,8.778c-5.671,4.333-10.203,9.726-13.469,16.031C54.524,74.67,51.73,76.245,48.836,76.245z"/>
	</g>
</g>
<g>
</g>
<g>
</g>
<g>
</g>
<g>
</g>
<g>
</g>
<g>
</g>
<g>
</g>
<g>
</g>
<g>
</g>
<g>
</g>
<g>
</g>
<g>
</g>
<g>
</g>
<g>
</g>
<g>
</g>
</svg>
