<?xml version="1.0" encoding="iso-8859-1"?>
<!-- Generator: Adobe Illustrator 19.0.0, SVG Export Plug-In . SVG Version: 6.00 Build 0)  -->
<svg version="1.1" id="Capa_1" xmlns="http://www.w3.org/2000/svg" xmlns:xlink="http://www.w3.org/1999/xlink" x="0px" y="0px"
	 viewBox="0 0 512 512" style="enable-background:new 0 0 512 512;" xml:space="preserve">
<g>
	<g>
		<path style="fill:#49DFE5;" d="M504,48H72c-4.418,0-8,3.582-8,8v272c0,4.418,3.582,8,8,8h432c4.418,0,8-3.582,8-8V56
			C512,51.582,508.418,48,504,48z"/>
		<path style="fill:#76E7EB;" d="M504,80H72c-4.418,0-8,3.582-8,8v272c0,4.418,3.582,8,8,8h432c4.418,0,8-3.582,8-8V88
			C512,83.582,508.418,80,504,80z"/>
		<g>
			<path style="fill:#A4EFF2;" d="M504,112H72c-4.418,0-8,3.582-8,8v272c0,4.418,3.582,8,8,8h432c4.418,0,8-3.582,8-8V120
				C512,115.582,508.418,112,504,112z"/>
			<g>
				<path style="fill:#76E7EB;" d="M440,360c0,4.418-3.582,8-8,8H144c-4.418,0-8-3.582-8-8c0-17.645-14.355-32-32-32
					c-4.418,0-8-3.582-8-8V192c0-4.418,3.582-8,8-8c14.884,0,27.426-10.214,30.987-24H64v232c0,4.418,3.582,8,8,8h392v-70.987
					C450.214,332.574,440,345.116,440,360z"/>
				<path style="fill:#76E7EB;" d="M463.974,182.98c-0.523-12.424-10.531-22.431-22.954-22.954
					C443.925,171.233,452.767,180.075,463.974,182.98z"/>
				<path style="fill:#49DFE5;" d="M441.02,160.026c-0.665-2.566-1.02-5.255-1.02-8.026c0-4.418-3.582-8-8-8H144
					c-4.418,0-8,3.582-8,8c0,2.761-0.352,5.442-1.013,8H440C440.342,160,440.681,160.012,441.02,160.026z"/>
				<path style="fill:#49DFE5;" d="M472,184c-2.771,0-5.46-0.355-8.026-1.02c0.014,0.339,0.026,0.678,0.026,1.02v145.013
					c2.558-0.661,5.239-1.013,8-1.013c4.418,0,8-3.582,8-8V192C480,187.582,476.418,184,472,184z"/>
				<path style="fill:#1BD7DE;" d="M463.974,182.98c-11.207-2.905-20.049-11.747-22.954-22.954c-0.339-0.014-0.678-0.026-1.02-0.026
					H134.987c-3.561,13.786-16.104,24-30.987,24c-4.418,0-8,3.582-8,8v128c0,4.418,3.582,8,8,8c17.645,0,32,14.355,32,32
					c0,4.418,3.582,8,8,8h288c4.418,0,8-3.582,8-8c0-14.884,10.214-27.426,24-30.987V184
					C464,183.658,463.988,183.319,463.974,182.98z"/>
			</g>
			<g>
				<circle style="fill:#1BD7DE;" cx="472" cy="152" r="8"/>
				<circle style="fill:#1BD7DE;" cx="104" cy="152" r="8"/>
				<circle style="fill:#1BD7DE;" cx="472" cy="360" r="8"/>
			</g>
		</g>
	</g>
	<g>
		<path style="fill:#A4EFF2;" d="M440,176H8c-4.418,0-8,3.582-8,8v272c0,4.418,3.582,8,8,8h432c4.418,0,8-3.582,8-8V184
			C448,179.582,444.418,176,440,176z"/>
		<path style="fill:#49DFE5;" d="M408,248c-17.645,0-32-14.355-32-32c0-4.418-3.582-8-8-8H80c-4.418,0-8,3.582-8,8
			c0,17.645-14.355,32-32,32c-4.418,0-8,3.582-8,8v128c0,4.418,3.582,8,8,8c17.645,0,32,14.355,32,32c0,4.418,3.582,8,8,8h288
			c4.418,0,8-3.582,8-8c0-17.645,14.355-32,32-32c4.418,0,8-3.582,8-8V256C416,251.582,412.418,248,408,248z"/>
		<g>
			<circle style="fill:#1BD7DE;" cx="408" cy="216" r="8"/>
			<circle style="fill:#1BD7DE;" cx="408" cy="424" r="8"/>
			<circle style="fill:#1BD7DE;" cx="40" cy="216" r="8"/>
			<circle style="fill:#1BD7DE;" cx="40" cy="424" r="8"/>
		</g>
		<path style="fill:#FFFFFF;" d="M256,304c4.418,0,8-3.582,8-8v-8c0-17.645-14.355-32-32-32v-8c0-4.418-3.582-8-8-8s-8,3.582-8,8
			v8.228c-17.974,1.997-32,17.274-32,35.772c0,19.851,16.149,36,36,36h8c11.028,0,20,8.972,20,20s-8.972,20-20,20h-12
			c-8.822,0-16-7.178-16-16c0-4.418-3.582-8-8-8s-8,3.582-8,8c0,17.645,14.355,32,32,32v8c0,4.418,3.582,8,8,8s8-3.582,8-8v-8.228
			c17.974-1.997,32-17.274,32-35.772c0-19.851-16.149-36-36-36h-8c-11.028,0-20-8.972-20-20s8.972-20,20-20h12
			c8.822,0,16,7.178,16,16v8C248,300.418,251.582,304,256,304z"/>
	</g>
</g>
<g>
</g>
<g>
</g>
<g>
</g>
<g>
</g>
<g>
</g>
<g>
</g>
<g>
</g>
<g>
</g>
<g>
</g>
<g>
</g>
<g>
</g>
<g>
</g>
<g>
</g>
<g>
</g>
<g>
</g>
</svg>
