<?xml version="1.0" encoding="iso-8859-1"?>
<!-- Generator: Adobe Illustrator 19.0.0, SVG Export Plug-In . SVG Version: 6.00 Build 0)  -->
<svg version="1.1" id="Capa_1" xmlns="http://www.w3.org/2000/svg" xmlns:xlink="http://www.w3.org/1999/xlink" x="0px" y="0px"
	 viewBox="0 0 512.002 512.002" style="enable-background:new 0 0 512.002 512.002;" xml:space="preserve">
<g>
	<path style="fill:#FD8E61;" d="M358.249,455.004l-96-120c-1.519-1.898-3.816-3.002-6.247-3.002s-4.729,1.104-6.247,3.002l-96,120
		c-4.113,5.142-0.318,12.998,6.247,12.998h192C358.567,468.001,362.363,460.146,358.249,455.004z"/>
	<path style="fill:#FD7239;" d="M355.848,452.001H199.958c-6.565,0-10.36-7.856-6.247-12.998l75.869-94.836l-7.331-9.164
		c-1.519-1.898-3.816-3.002-6.247-3.002s-4.729,1.104-6.247,3.002l-96,120c-4.113,5.142-0.318,12.998,6.247,12.998h192
		c6.564,0,10.361-7.855,6.247-12.998L355.848,452.001z"/>
	<path style="fill:#95A1AC;" d="M504,420.003c-0.956,0-1.928-0.172-2.873-0.536l-496-191c-4.123-1.588-6.179-6.218-4.591-10.341
		c1.587-4.124,6.218-6.178,10.341-4.591l496,191c3.444,1.326,5.571,4.959,5.044,8.61C511.36,417.032,507.927,420.003,504,420.003z"
		/>
	<g>
		<path style="fill:#FDE6A6;" d="M98.002,44.001c-51.832,0-94,42.168-94,94s42.168,94,94,94s94-42.168,94-94
			S149.834,44.001,98.002,44.001z"/>
		<path style="fill:#FCD56A;" d="M98.002,64.001c-40.804,0-74,33.196-74,74s33.196,74,74,74s74-33.196,74-74
			S138.806,64.001,98.002,64.001z"/>
		<path style="fill:#FFFFFF;" d="M118.802,130.401c4.418,0,8-3.582,8-8v-5.2c0-12.065-9.103-22.038-20.8-23.428v-7.772
			c0-4.418-3.582-8-8-8s-8,3.582-8,8v8.163c-11.865,2.496-20.8,13.042-20.8,25.637c0,14.447,11.753,26.2,26.2,26.2h5.199
			c5.624,0,10.2,4.576,10.2,10.2c0,5.624-4.576,10.2-10.2,10.2h-7.8c-4.19,0-7.6-3.409-7.6-7.6c0-4.418-3.582-8-8-8s-8,3.582-8,8
			c0,12.065,9.103,22.038,20.8,23.428v7.772c0,4.418,3.582,8,8,8s8-3.582,8-8v-8.163c11.865-2.496,20.8-13.042,20.8-25.637
			c0-14.447-11.753-26.2-26.2-26.2h-5.199c-5.624,0-10.2-4.576-10.2-10.2c0-5.624,4.576-10.2,10.2-10.2h7.8
			c4.19,0,7.6,3.409,7.6,7.6v5.2C110.802,126.82,114.384,130.401,118.802,130.401z"/>
	</g>
	<g>
		<g>
			<path style="fill:#55697A;" d="M447.002,156.501h-12c-4.418,0-8-3.582-8-8s3.582-8,8-8h12c4.418,0,8,3.582,8,8
				S451.42,156.501,447.002,156.501z"/>
			<path style="fill:#55697A;" d="M397.502,156.501h-12c-4.418,0-8-3.582-8-8s3.582-8,8-8h12c4.418,0,8,3.582,8,8
				S401.92,156.501,397.502,156.501z"/>
			<path style="fill:#49DFE5;" d="M432.002,132.001h-32c-4.418,0-8,3.582-8,8v32c0,4.418,3.582,8,8,8h32c4.418,0,8-3.582,8-8v-32
				C440.002,135.583,436.42,132.001,432.002,132.001z"/>
		</g>
		<path style="fill:#76E7EB;" d="M416.002,164.001c-52.935,0-96,43.065-96,96s43.065,96,96,96s96-43.065,96-96
			S468.937,164.001,416.002,164.001z"/>
		<path style="fill:#1BD7DE;" d="M432.002,340.001c-52.935,0-96-43.065-96-96c0-22.399,7.713-43.03,20.62-59.38
			c-22.288,17.595-36.62,44.845-36.62,75.38c0,52.935,43.065,96,96,96c30.535,0,57.785-14.332,75.38-36.62
			C475.033,332.288,454.402,340.001,432.002,340.001z"/>
		<path style="fill:#EAECEE;" d="M416.002,188.001c-39.701,0-72,32.299-72,72s32.299,72,72,72s72-32.299,72-72
			S455.704,188.001,416.002,188.001z"/>
		<path style="fill:#FFFFFF;" d="M416.002,204.001c-30.879,0-56,25.122-56,56s25.121,56,56,56s56-25.122,56-56
			S446.881,204.001,416.002,204.001z"/>
		<path style="fill:#55697A;" d="M416.005,276.001c-2.065,0-4.113-0.797-5.66-2.343l-24-24c-3.124-3.124-3.124-8.189,0-11.313
			c3.125-3.124,8.189-3.124,11.314,0l19.362,19.362l18.543-12.362c3.676-2.451,8.645-1.457,11.094,2.219
			c2.451,3.676,1.458,8.643-2.219,11.094l-24,16C419.086,275.56,417.541,276.001,416.005,276.001z"/>
	</g>
</g>
<g>
</g>
<g>
</g>
<g>
</g>
<g>
</g>
<g>
</g>
<g>
</g>
<g>
</g>
<g>
</g>
<g>
</g>
<g>
</g>
<g>
</g>
<g>
</g>
<g>
</g>
<g>
</g>
<g>
</g>
</svg>
