<?xml version="1.0" encoding="iso-8859-1"?>
<!-- Generator: Adobe Illustrator 19.0.0, SVG Export Plug-In . SVG Version: 6.00 Build 0)  -->
<svg version="1.1" id="Capa_1" xmlns="http://www.w3.org/2000/svg" xmlns:xlink="http://www.w3.org/1999/xlink" x="0px" y="0px"
	 viewBox="0 0 512 512" style="enable-background:new 0 0 512 512;" xml:space="preserve">
<g>
	<g>
		<path style="fill:#EAECEE;" d="M504,48H8c-4.418,0-8,3.582-8,8v448c0,4.418,3.582,8,8,8h496c4.418,0,8-3.582,8-8V56
			C512,51.582,508.418,48,504,48z"/>
		<path style="fill:#D5D9DE;" d="M40,488c-8.837,0-16-7.163-16-16V48H8c-4.418,0-8,3.582-8,8v448c0,4.418,3.582,8,8,8h496
			c4.418,0,8-3.582,8-8v-16H40z"/>
		<path style="fill:#FD8E61;" d="M504,48H8c-4.418,0-8,3.582-8,8v80h512V56C512,51.582,508.418,48,504,48z"/>
		<path style="fill:#FD7239;" d="M32,48H8c-4.418,0-8,3.582-8,8v80h24V56C24,51.582,27.582,48,32,48z"/>
		<g>
			<path style="fill:#6B7B8B;" d="M256,0c-13.233,0-24,10.766-24,24v56c0,13.234,10.767,24,24,24s24-10.766,24-24V24
				C280,10.766,269.233,0,256,0z"/>
			<path style="fill:#55697A;" d="M272,96c-13.233,0-24-10.766-24-24V16c0-6.102,2.292-11.675,6.057-15.915
				C241.729,1.079,232,11.421,232,24v56c0,13.234,10.767,24,24,24c7.132,0,13.543-3.13,17.943-8.085
				C273.302,95.966,272.655,96,272,96z"/>
			<path style="fill:#6B7B8B;" d="M384,0c-13.233,0-24,10.766-24,24v56c0,13.234,10.767,24,24,24s24-10.766,24-24V24
				C408,10.766,397.233,0,384,0z"/>
			<path style="fill:#55697A;" d="M400,96c-13.233,0-24-10.766-24-24V16c0-6.102,2.292-11.675,6.057-15.915
				C369.729,1.079,360,11.421,360,24v56c0,13.234,10.767,24,24,24c7.132,0,13.543-3.13,17.943-8.085
				C401.302,95.966,400.655,96,400,96z"/>
			<path style="fill:#6B7B8B;" d="M128,0c-13.233,0-24,10.766-24,24v56c0,13.234,10.767,24,24,24s24-10.766,24-24V24
				C152,10.766,141.233,0,128,0z"/>
			<path style="fill:#55697A;" d="M144,96c-13.233,0-24-10.766-24-24V16c0-6.102,2.292-11.675,6.057-15.915
				C113.729,1.079,104,11.421,104,24v56c0,13.234,10.767,24,24,24c7.132,0,13.543-3.13,17.943-8.085
				C145.302,95.966,144.655,96,144,96z"/>
		</g>
	</g>
	<path style="fill:#BFC7CD;" d="M448,328c4.418,0,8-3.582,8-8s-3.582-8-8-8h-56V200h56c4.418,0,8-3.582,8-8s-3.582-8-8-8h-56v-16
		c0-4.418-3.582-8-8-8s-8,3.582-8,8v16H264v-16c0-4.418-3.582-8-8-8s-8,3.582-8,8v16H136v-16c0-4.418-3.582-8-8-8s-8,3.582-8,8v16
		H64c-4.418,0-8,3.582-8,8s3.582,8,8,8h56v112H64c-4.418,0-8,3.582-8,8s3.582,8,8,8h56v112H64c-4.418,0-8,3.582-8,8s3.582,8,8,8h56
		v16c0,4.418,3.582,8,8,8s8-3.582,8-8v-16h112v16c0,4.418,3.582,8,8,8s8-3.582,8-8v-16h112v16c0,4.418,3.582,8,8,8s8-3.582,8-8v-16
		h56c4.418,0,8-3.582,8-8s-3.582-8-8-8h-56V328H448z M376,200v112H264V200H376z M136,200h112v112H136V200z M136,440V328h112v112H136
		z M376,440H264V328h112V440z"/>
	<g>
		<path style="fill:#FDE6A6;" d="M256,224c-51.832,0-94,42.168-94,94s42.168,94,94,94s94-42.168,94-94S307.832,224,256,224z"/>
		<path style="fill:#FCD56A;" d="M256,244c-40.804,0-74,33.196-74,74s33.196,74,74,74s74-33.196,74-74S296.804,244,256,244z"/>
		<path style="fill:#FFFFFF;" d="M276.8,310.4c4.418,0,8-3.582,8-8v-5.2c0-12.065-9.103-22.038-20.8-23.428V266c0-4.418-3.582-8-8-8
			s-8,3.582-8,8v8.163c-11.865,2.496-20.8,13.042-20.8,25.637c0,14.447,11.753,26.2,26.2,26.2h5.199c5.624,0,10.2,4.576,10.2,10.2
			c0,5.624-4.576,10.2-10.2,10.2h-7.8c-4.19,0-7.6-3.409-7.6-7.6c0-4.418-3.582-8-8-8s-8,3.582-8,8
			c0,12.065,9.103,22.038,20.8,23.428V370c0,4.418,3.582,8,8,8s8-3.582,8-8v-8.163c11.865-2.496,20.8-13.042,20.8-25.637
			c0-14.447-11.753-26.2-26.2-26.2H253.4c-5.624,0-10.2-4.576-10.2-10.2c0-5.624,4.576-10.2,10.2-10.2h7.8c4.19,0,7.6,3.409,7.6,7.6
			v5.2C268.8,306.818,272.382,310.4,276.8,310.4z"/>
	</g>
</g>
<g>
</g>
<g>
</g>
<g>
</g>
<g>
</g>
<g>
</g>
<g>
</g>
<g>
</g>
<g>
</g>
<g>
</g>
<g>
</g>
<g>
</g>
<g>
</g>
<g>
</g>
<g>
</g>
<g>
</g>
</svg>
