<?xml version="1.0" encoding="iso-8859-1"?>
<!-- Generator: Adobe Illustrator 19.0.0, SVG Export Plug-In . SVG Version: 6.00 Build 0)  -->
<svg version="1.1" id="Capa_1" xmlns="http://www.w3.org/2000/svg" xmlns:xlink="http://www.w3.org/1999/xlink" x="0px" y="0px"
	 viewBox="0 0 512 512" style="enable-background:new 0 0 512 512;" xml:space="preserve">
<g>
	<g>
		<path style="fill:#808E9B;" d="M256,184c-4.418,0-8-3.582-8-8V72c0-4.418,3.582-8,8-8s8,3.582,8,8v104
			C264,180.418,260.418,184,256,184z"/>
		<path style="fill:#FD8E61;" d="M433.904,112H296V32h137.904c7.482,0,10.87,9.356,5.121,14.146L408,72l31.025,25.854
			C444.773,102.644,441.386,112,433.904,112z"/>
		<polygon style="fill:#FD7239;" points="296,112 296,40 368,40 368,72 		"/>
		<path style="fill:#FEAA88;" d="M368,72H256c-4.418,0-8-3.582-8-8V8c0-4.418,3.582-8,8-8h104c4.418,0,8,3.582,8,8V72z"/>
	</g>
	<g>
		<path style="fill:#76E7EB;" d="M511.108,439.258l-80-154.929c-1.372-2.657-4.111-4.327-7.102-4.33c-0.002,0-0.004,0-0.007,0
			c-2.988,0-5.727,1.665-7.102,4.317l-112,216c-1.286,2.48-1.185,5.451,0.266,7.838S309.207,512,312,512h192c4.418,0,8-3.582,8-8
			v-61.071C512,441.651,511.694,440.393,511.108,439.258z"/>
		<path style="fill:#EAECEE;" d="M461.075,342.363l-29.967-58.033c-1.372-2.657-4.111-4.327-7.102-4.33c-0.002,0-0.004,0-0.007,0
			c-2.988,0-5.727,1.665-7.102,4.317l-30.049,57.951c-1.605,3.096-1.021,6.874,1.445,9.339l30.049,30.049
			c3.082,3.082,8.231,3.082,11.313,0l29.967-29.967C462.085,349.228,462.672,345.457,461.075,342.363z"/>
	</g>
	<g>
		<path style="fill:#76E7EB;" d="M239.199,500.51l-128-264c-1.338-2.759-4.134-4.51-7.199-4.51c-0.009,0-0.019,0-0.028,0
			c-3.076,0.011-5.873,1.784-7.195,4.561l-96,201.643C0.265,439.278,0,440.453,0,441.643V504c0,4.418,3.582,8,8,8h224
			c2.755,0,5.316-1.418,6.779-3.753C240.242,505.913,240.4,502.989,239.199,500.51z"/>
		<path style="fill:#EAECEE;" d="M142.545,301.163l-31.347-64.653c-1.338-2.759-4.134-4.51-7.199-4.51c-0.009,0-0.019,0-0.028,0
			c-3.076,0.011-5.873,1.784-7.195,4.561l-30.963,65.037c-1.456,3.058-0.829,6.701,1.566,9.096l30.963,30.963
			c3.082,3.082,8.231,3.082,11.313,0l31.347-31.347C143.413,307.901,144.032,304.229,142.545,301.163z"/>
	</g>
	<g>
		<path style="fill:#49DFE5;" d="M345.803,337.98H166.197L88.777,500.561C86.291,505.78,90.229,512,96,512h320
			c5.77,0,9.709-6.22,7.223-11.439L345.803,337.98z"/>
		<path style="fill:#EAECEE;" d="M345.803,337.98l-82.581-173.419C261.896,161.774,259.085,160,256,160s-5.896,1.774-7.223,4.561
			L166.197,337.98c-1.457,3.058-0.829,6.701,1.566,9.096l18.581,18.581c3.124,3.124,8.189,3.124,11.313,0L224,339.314l26.343,26.343
			c3.124,3.124,8.189,3.124,11.313,0L288,339.314l26.343,26.343c3.082,3.082,8.231,3.082,11.313,0l18.581-18.581
			C346.632,344.681,347.26,341.038,345.803,337.98z"/>
	</g>
	<path style="fill:#D5D9DE;" d="M193.6,76.4c4.418,0,8-3.582,8-8v-5.2c0-12.065-9.103-22.039-20.8-23.428V32c0-4.418-3.582-8-8-8
		s-8,3.582-8,8v8.163C152.935,42.659,144,53.204,144,65.8c0,14.447,11.753,26.2,26.2,26.2h5.2c5.625,0,10.2,4.576,10.2,10.2
		c0,5.624-4.576,10.2-10.2,10.2h-7.8c-4.191,0-7.6-3.409-7.6-7.6c0-4.418-3.582-8-8-8s-8,3.582-8,8
		c0,12.065,9.103,22.038,20.8,23.428V136c0,4.418,3.582,8,8,8s8-3.582,8-8v-8.163c11.865-2.496,20.8-13.041,20.8-25.637
		c0-14.447-11.753-26.2-26.2-26.2h-5.2c-5.625,0-10.2-4.576-10.2-10.2c0-5.624,4.576-10.2,10.2-10.2h7.8c4.191,0,7.6,3.409,7.6,7.6
		v5.2C185.6,72.818,189.182,76.4,193.6,76.4z"/>
	<path style="fill:#D5D9DE;" d="M64,180.4c4.418,0,8-3.582,8-8v-5.2c0-12.065-9.103-22.038-20.8-23.428V136c0-4.418-3.582-8-8-8
		s-8,3.582-8,8v8.163c-11.865,2.496-20.8,13.041-20.8,25.637c0,14.447,11.753,26.2,26.2,26.2h5.2c5.625,0,10.2,4.576,10.2,10.2
		c0,5.624-4.576,10.2-10.2,10.2H38c-4.191,0-7.6-3.409-7.6-7.6c0-4.418-3.582-8-8-8s-8,3.582-8,8c0,12.065,9.103,22.039,20.8,23.428
		V240c0,4.418,3.582,8,8,8s8-3.582,8-8v-8.163C63.065,229.341,72,218.796,72,206.2c0-14.447-11.753-26.2-26.2-26.2h-5.2
		c-5.625,0-10.2-4.576-10.2-10.2c0-5.624,4.576-10.2,10.2-10.2h7.8c4.191,0,7.6,3.409,7.6,7.6v5.2C56,176.818,59.582,180.4,64,180.4
		z"/>
	<path style="fill:#D5D9DE;" d="M401.6,212.4c4.418,0,8-3.582,8-8v-5.2c0-12.065-9.103-22.039-20.8-23.428V168c0-4.418-3.582-8-8-8
		s-8,3.582-8,8v8.163c-11.864,2.496-20.8,13.042-20.8,25.637c0,14.447,11.753,26.2,26.2,26.2h5.2c5.625,0,10.2,4.576,10.2,10.2
		c0,5.624-4.576,10.2-10.2,10.2h-7.8c-4.191,0-7.6-3.409-7.6-7.6c0-4.418-3.582-8-8-8s-8,3.582-8,8
		c0,12.065,9.103,22.038,20.8,23.428V272c0,4.418,3.582,8,8,8s8-3.582,8-8v-8.163c11.865-2.496,20.8-13.041,20.8-25.637
		c0-14.447-11.753-26.2-26.2-26.2h-5.2c-5.625,0-10.2-4.576-10.2-10.2c0-5.624,4.576-10.2,10.2-10.2h7.8c4.191,0,7.6,3.409,7.6,7.6
		v5.2C393.6,208.818,397.182,212.4,401.6,212.4z"/>
</g>
<g>
</g>
<g>
</g>
<g>
</g>
<g>
</g>
<g>
</g>
<g>
</g>
<g>
</g>
<g>
</g>
<g>
</g>
<g>
</g>
<g>
</g>
<g>
</g>
<g>
</g>
<g>
</g>
<g>
</g>
</svg>
