<?xml version="1.0" encoding="iso-8859-1"?>
<!-- Generator: Adobe Illustrator 19.0.0, SVG Export Plug-In . SVG Version: 6.00 Build 0)  -->
<svg version="1.1" id="Capa_1" xmlns="http://www.w3.org/2000/svg" xmlns:xlink="http://www.w3.org/1999/xlink" x="0px" y="0px"
	 viewBox="0 0 512 512" style="enable-background:new 0 0 512 512;" xml:space="preserve">
<g>
	<rect x="187.538" y="352" style="fill:#EAECEE;" width="144" height="48"/>
	<rect x="187.538" y="352" style="fill:#D5D9DE;" width="24" height="48"/>
	<path style="fill:#6B7B8B;" d="M187.538,392c0,18.025-41.56,52.298-51.302,56.713c-3.432,1.555-5.313,5.293-4.518,8.976
		c0.795,3.683,4.052,6.311,7.82,6.311h240c3.768,0,7.024-2.628,7.82-6.311c0.795-3.682-1.086-7.421-4.518-8.976
		c-11.313-5.127-51.302-31.262-51.302-56.713"/>
	<path style="fill:#55697A;" d="M155.719,457.689c-0.795-3.682,1.086-7.421,4.518-8.976c9.742-4.415,51.302-38.688,51.302-56.713
		h-24.001c0,18.025-41.56,52.298-51.302,56.713c-3.432,1.555-5.313,5.293-4.518,8.976c0.795,3.683,4.052,6.311,7.82,6.311h24.001
		C159.772,464,156.515,461.372,155.719,457.689z"/>
	<path style="fill:#55697A;" d="M379.538,448h-240c-4.418,0-8,3.582-8,8v48c0,4.418,3.582,8,8,8h240c4.418,0,8-3.582,8-8v-48
		C387.538,451.582,383.957,448,379.538,448z"/>
	<path style="fill:#40566A;" d="M155.538,504v-48c0-4.418,3.582-8,8-8h-24c-4.418,0-8,3.582-8,8v48c0,4.418,3.582,8,8,8h24
		C159.12,512,155.538,508.418,155.538,504z"/>
	<path style="fill:#D5D9DE;" d="M363.538,312h-216c-3.368,0-6.375,2.109-7.522,5.276c-1.147,3.167-0.187,6.713,2.4,8.87L187.538,360
		h144l37.657-34.343c2.288-2.288,2.973-5.729,1.734-8.718S366.774,312,363.538,312z"/>
	<path style="fill:#BFC7CD;" d="M164.016,317.276c1.146-3.167,4.154-5.276,7.522-5.276h-24c-3.368,0-6.375,2.109-7.522,5.276
		c-1.147,3.167-0.187,6.713,2.4,8.87L187.538,360h24l-45.122-33.854C163.829,323.99,162.869,320.443,164.016,317.276z"/>
	<path style="fill:#EAECEE;" d="M297.195,42.343c-1.5-1.5-3.535-2.343-5.657-2.343h-16V8c0-4.418-3.582-8-8-8h-16
		c-2.43,0-4.729,1.104-6.247,3.002l-30.306,37.883c-28.414,7.365-50.523,23.976-65.751,49.406
		c-20.594,34.39-28.405,83.961-23.219,147.336c3.818,46.654,13.118,80.852,13.523,82.373h232c0-38.538-19.535-79.707-58.063-122.362
		c-10.962-12.136-21.864-22.579-31.171-30.863l79.558,17.048c3.807,0.816,7.657-1.231,9.104-4.851l16-40
		c1.188-2.971,0.492-6.365-1.771-8.628L297.195,42.343z"/>
	<g>
		<path style="fill:#D5D9DE;" d="M172.311,90.291c15.228-25.43,37.338-42.041,65.751-49.406l30.306-37.883
			c0.74-0.926,1.669-1.659,2.705-2.171C270.006,0.304,268.809,0,267.538,0h-16c-2.43,0-4.729,1.104-6.247,3.002l-30.306,37.883
			c-28.414,7.365-50.523,23.976-65.751,49.406c-20.594,34.39-28.405,83.961-23.219,147.336
			c3.818,46.654,13.118,80.852,13.523,82.373h23.077c-0.405-1.521-9.706-35.719-13.523-82.373
			C143.906,174.252,151.717,124.681,172.311,90.291z"/>
	</g>
	<g>
		<path style="fill:#D5D9DE;" d="M286.825,170.865L275.538,168c9.307,8.285,72,113.462,72,152h24
			c0-38.538-19.535-79.707-58.063-122.362C304.239,187.412,295.058,178.408,286.825,170.865z"/>
	</g>
	<circle style="fill:#55697A;" cx="275.538" cy="88" r="8"/>
</g>
<g>
</g>
<g>
</g>
<g>
</g>
<g>
</g>
<g>
</g>
<g>
</g>
<g>
</g>
<g>
</g>
<g>
</g>
<g>
</g>
<g>
</g>
<g>
</g>
<g>
</g>
<g>
</g>
<g>
</g>
</svg>
