<?xml version="1.0" encoding="iso-8859-1"?>
<!-- Generator: Adobe Illustrator 19.0.0, SVG Export Plug-In . SVG Version: 6.00 Build 0)  -->
<svg version="1.1" id="Capa_1" xmlns="http://www.w3.org/2000/svg" xmlns:xlink="http://www.w3.org/1999/xlink" x="0px" y="0px"
	 viewBox="0 0 512 512" style="enable-background:new 0 0 512 512;" xml:space="preserve">
<g>
	<path style="fill:#55697A;" d="M320,116c-4.418,0-8-3.582-8-8V60c0-13.234-10.767-24-24-24h-64c-13.234,0-24,10.766-24,24v48
		c0,4.418-3.582,8-8,8s-8-3.582-8-8V60c0-22.056,17.944-40,40-40h64c22.056,0,40,17.944,40,40v48C328,112.418,324.418,116,320,116z"
		/>
	<path style="fill:#FD8E61;" d="M504,100H8c-4.418,0-8,3.582-8,8v376c0,4.418,3.582,8,8,8h496c4.418,0,8-3.582,8-8V108
		C512,103.582,508.418,100,504,100z"/>
	<path style="fill:#FD7239;" d="M504,124H8c-4.418,0-8,3.582-8,8v96c0,39.701,32.299,72,72,72h368c39.701,0,72-32.299,72-72v-96
		C512,127.582,508.418,124,504,124z"/>
	<g>
		<path style="fill:#FEC7B0;" d="M44,460h-4c-4.418,0-8-3.582-8-8v-4c0-4.418,3.582-8,8-8c3.245,0,6.038,1.931,7.293,4.707
			C50.069,445.962,52,448.755,52,452C52,456.418,48.418,460,44,460z"/>
		<path style="fill:#FEC7B0;" d="M40,424c-4.418,0-8-3.582-8-8v-8c0-4.418,3.582-8,8-8s8,3.582,8,8v8C48,420.418,44.418,424,40,424z
			 M40,384c-4.418,0-8-3.582-8-8v-8c0-4.418,3.582-8,8-8s8,3.582,8,8v8C48,380.418,44.418,384,40,384z M40,344c-4.418,0-8-3.582-8-8
			v-8c0-4.418,3.582-8,8-8s8,3.582,8,8v8C48,340.418,44.418,344,40,344z M40,304c-4.418,0-8-3.582-8-8v-8c0-4.418,3.582-8,8-8
			s8,3.582,8,8v8C48,300.418,44.418,304,40,304z M40,264c-4.418,0-8-3.582-8-8v-8c0-4.418,3.582-8,8-8s8,3.582,8,8v8
			C48,260.418,44.418,264,40,264z"/>
		<path style="fill:#FEC7B0;" d="M40,224c-4.418,0-8-3.582-8-8v-4c0-4.418,3.582-8,8-8h4c4.418,0,8,3.582,8,8
			c0,3.245-1.931,6.038-4.707,7.293C46.038,222.069,43.245,224,40,224z"/>
		<path style="fill:#FEC7B0;" d="M436.593,220h-7.853c-4.418,0-8-3.582-8-8s3.582-8,8-8h7.853c4.418,0,8,3.582,8,8
			S441.011,220,436.593,220z M397.333,220h-7.852c-4.418,0-8-3.582-8-8s3.582-8,8-8h7.852c4.418,0,8,3.582,8,8
			S401.751,220,397.333,220z M358.074,220h-7.853c-4.418,0-8-3.582-8-8s3.582-8,8-8h7.853c4.418,0,8,3.582,8,8
			S362.492,220,358.074,220z M318.814,220h-7.852c-4.418,0-8-3.582-8-8s3.582-8,8-8h7.852c4.418,0,8,3.582,8,8
			S323.232,220,318.814,220z M279.556,220h-7.853c-4.418,0-8-3.582-8-8s3.582-8,8-8h7.853c4.418,0,8,3.582,8,8
			S283.974,220,279.556,220z M240.296,220h-7.852c-4.418,0-8-3.582-8-8s3.582-8,8-8h7.852c4.418,0,8,3.582,8,8
			S244.714,220,240.296,220z M201.037,220h-7.852c-4.418,0-8-3.582-8-8s3.582-8,8-8h7.852c4.418,0,8,3.582,8,8
			S205.455,220,201.037,220z M161.778,220h-7.852c-4.418,0-8-3.582-8-8s3.582-8,8-8h7.852c4.418,0,8,3.582,8,8
			S166.196,220,161.778,220z M122.519,220h-7.852c-4.418,0-8-3.582-8-8s3.582-8,8-8h7.852c4.418,0,8,3.582,8,8
			S126.937,220,122.519,220z M83.259,220h-7.852c-4.418,0-8-3.582-8-8s3.582-8,8-8h7.852c4.418,0,8,3.582,8,8S87.678,220,83.259,220
			z"/>
		<path style="fill:#FEC7B0;" d="M472,224c-3.244,0-6.038-1.931-7.293-4.707C461.932,218.038,460,215.245,460,212
			c0-4.418,3.582-8,8-8h4c4.418,0,8,3.582,8,8v4C480,220.418,476.418,224,472,224z"/>
		<path style="fill:#FEC7B0;" d="M472,424c-4.418,0-8-3.582-8-8v-8c0-4.418,3.582-8,8-8s8,3.582,8,8v8
			C480,420.418,476.418,424,472,424z M472,384c-4.418,0-8-3.582-8-8v-8c0-4.418,3.582-8,8-8s8,3.582,8,8v8
			C480,380.418,476.418,384,472,384z M472,344c-4.418,0-8-3.582-8-8v-8c0-4.418,3.582-8,8-8s8,3.582,8,8v8
			C480,340.418,476.418,344,472,344z M472,304c-4.418,0-8-3.582-8-8v-8c0-4.418,3.582-8,8-8s8,3.582,8,8v8
			C480,300.418,476.418,304,472,304z M472,264c-4.418,0-8-3.582-8-8v-8c0-4.418,3.582-8,8-8s8,3.582,8,8v8
			C480,260.418,476.418,264,472,264z"/>
		<path style="fill:#FEC7B0;" d="M472,460h-4c-4.418,0-8-3.582-8-8c0-3.245,1.932-6.038,4.707-7.293
			c1.255-2.776,4.049-4.707,7.293-4.707c4.418,0,8,3.582,8,8v4C480,456.418,476.418,460,472,460z"/>
		<path style="fill:#FEC7B0;" d="M436.593,460h-7.852c-4.418,0-8-3.582-8-8s3.582-8,8-8h7.852c4.418,0,8,3.582,8,8
			S441.011,460,436.593,460z M397.334,460h-7.853c-4.418,0-8-3.582-8-8s3.582-8,8-8h7.853c4.418,0,8,3.582,8,8
			S401.752,460,397.334,460z M358.074,460h-7.852c-4.418,0-8-3.582-8-8s3.582-8,8-8h7.852c4.418,0,8,3.582,8,8
			S362.492,460,358.074,460z M318.815,460h-7.853c-4.418,0-8-3.582-8-8s3.582-8,8-8h7.853c4.418,0,8,3.582,8,8
			S323.233,460,318.815,460z M279.556,460h-7.852c-4.418,0-8-3.582-8-8s3.582-8,8-8h7.852c4.418,0,8,3.582,8,8
			S283.974,460,279.556,460z M240.296,460h-7.852c-4.418,0-8-3.582-8-8s3.582-8,8-8h7.852c4.418,0,8,3.582,8,8
			S244.715,460,240.296,460z M201.037,460h-7.852c-4.418,0-8-3.582-8-8s3.582-8,8-8h7.852c4.418,0,8,3.582,8,8
			S205.456,460,201.037,460z M161.778,460h-7.852c-4.418,0-8-3.582-8-8s3.582-8,8-8h7.852c4.418,0,8,3.582,8,8
			S166.196,460,161.778,460z M122.519,460h-7.852c-4.418,0-8-3.582-8-8s3.582-8,8-8h7.852c4.418,0,8,3.582,8,8
			S126.937,460,122.519,460z M83.259,460h-7.852c-4.418,0-8-3.582-8-8s3.582-8,8-8h7.852c4.418,0,8,3.582,8,8S87.678,460,83.259,460
			z"/>
	</g>
	<path style="fill:#BFC7CD;" d="M288,260h-64c-4.418,0-8,3.582-8,8v32c0,13.233,10.767,24,24,24h32c13.233,0,24-10.767,24-24v-32
		C296,263.582,292.418,260,288,260z"/>
	<path style="fill:#AAB4BD;" d="M288,316h-32c-13.233,0-24-10.767-24-24v-32h-8c-4.418,0-8,3.582-8,8v32c0,13.233,10.767,24,24,24
		h32c7.132,0,13.543-3.13,17.943-8.085C289.302,315.966,288.655,316,288,316z"/>
	<path style="fill:#FD8E61;" d="M504,100H8c-4.418,0-8,3.582-8,8v96c0,39.701,32.299,72,72,72h368c39.701,0,72-32.299,72-72v-96
		C512,103.582,508.418,100,504,100z"/>
	<g>
		<path style="fill:#FEC7B0;" d="M472,120c-4.418,0-8-3.582-8-8v-4c0-4.418,3.582-8,8-8s8,3.582,8,8v4
			C480,116.418,476.418,120,472,120z"/>
		<path style="fill:#FEC7B0;" d="M434.687,244h-7.768c-4.418,0-8-3.582-8-8s3.582-8,8-8h7.768c4.418,0,8,3.582,8,8
			S439.104,244,434.687,244z M395.849,244h-7.768c-4.418,0-8-3.582-8-8s3.582-8,8-8h7.768c4.418,0,8,3.582,8,8
			S400.267,244,395.849,244z M357.011,244h-7.768c-4.418,0-8-3.582-8-8s3.582-8,8-8h7.768c4.418,0,8,3.582,8,8
			S361.429,244,357.011,244z M318.172,244h-7.768c-4.418,0-8-3.582-8-8s3.582-8,8-8h7.768c4.418,0,8,3.582,8,8
			S322.59,244,318.172,244z M279.334,244h-7.768c-4.418,0-8-3.582-8-8s3.582-8,8-8h7.768c4.418,0,8,3.582,8,8
			S283.752,244,279.334,244z M240.496,244h-7.768c-4.418,0-8-3.582-8-8s3.582-8,8-8h7.768c4.418,0,8,3.582,8,8
			S244.915,244,240.496,244z M201.658,244h-7.768c-4.418,0-8-3.582-8-8s3.582-8,8-8h7.768c4.418,0,8,3.582,8,8
			S206.077,244,201.658,244z M162.82,244h-7.768c-4.418,0-8-3.582-8-8s3.582-8,8-8h7.768c4.418,0,8,3.582,8,8
			S167.238,244,162.82,244z M123.982,244h-7.768c-4.418,0-8-3.582-8-8s3.582-8,8-8h7.768c4.418,0,8,3.582,8,8S128.4,244,123.982,244
			z M85.144,244h-7.768c-4.418,0-8-3.582-8-8s3.582-8,8-8h7.768c4.418,0,8,3.582,8,8S89.562,244,85.144,244z M48.993,234.219
			c-2.094,0-4.185-0.817-5.754-2.441c-2.249-2.328-4.212-4.923-5.835-7.714c-2.221-3.819-0.926-8.716,2.894-10.938
			c3.817-2.221,8.716-0.926,10.938,2.894c0.976,1.677,2.157,3.239,3.511,4.641c3.07,3.178,2.982,8.242-0.195,11.312
			C52.998,233.473,50.994,234.219,48.993,234.219z M463.051,234.173c-1.996,0-3.994-0.742-5.546-2.235
			c-3.184-3.063-3.281-8.128-0.218-11.312c1.352-1.404,2.53-2.969,3.504-4.65c2.214-3.822,7.107-5.128,10.932-2.914
			c3.824,2.214,5.128,7.108,2.914,10.932c-1.618,2.794-3.577,5.394-5.82,7.726C467.246,233.352,465.149,234.173,463.051,234.173z
			 M40,197.742c-4.418,0-8-3.582-8-8v-7.768c0-4.418,3.582-8,8-8s8,3.582,8,8v7.768C48,194.161,44.418,197.742,40,197.742z
			 M472,197.676c-4.418,0-8-3.582-8-8v-7.768c0-4.418,3.582-8,8-8s8,3.582,8,8v7.768C480,194.095,476.418,197.676,472,197.676z
			 M40,158.904c-4.418,0-8-3.582-8-8v-7.768c0-4.418,3.582-8,8-8s8,3.582,8,8v7.768C48,155.323,44.418,158.904,40,158.904z
			 M472,158.838c-4.418,0-8-3.582-8-8v-7.768c0-4.418,3.582-8,8-8s8,3.582,8,8v7.768C480,155.256,476.418,158.838,472,158.838z"/>
		<path style="fill:#FEC7B0;" d="M40,120c-4.418,0-8-3.582-8-8v-4c0-4.418,3.582-8,8-8s8,3.582,8,8v4C48,116.418,44.418,120,40,120z
			"/>
	</g>
	<circle style="fill:#55697A;" cx="256" cy="292" r="7.5"/>
</g>
<g>
</g>
<g>
</g>
<g>
</g>
<g>
</g>
<g>
</g>
<g>
</g>
<g>
</g>
<g>
</g>
<g>
</g>
<g>
</g>
<g>
</g>
<g>
</g>
<g>
</g>
<g>
</g>
<g>
</g>
</svg>
