<?xml version="1.0" encoding="iso-8859-1"?>
<!-- Generator: Adobe Illustrator 19.0.0, SVG Export Plug-In . SVG Version: 6.00 Build 0)  -->
<svg version="1.1" id="Capa_1" xmlns="http://www.w3.org/2000/svg" xmlns:xlink="http://www.w3.org/1999/xlink" x="0px" y="0px"
	 viewBox="0 0 505.481 505.481" style="enable-background:new 0 0 505.481 505.481;" xml:space="preserve">
<g>
	<path style="fill:#6B7B8B;" d="M443.734,454.831L342.723,273.005c-1.03-1.854-2.755-3.224-4.795-3.807
		c-2.041-0.583-4.228-0.331-6.083,0.699l-69.934,38.851c-3.862,2.146-5.254,7.016-3.108,10.878l101.011,181.826
		c3.197,5.756,11.903,5.232,14.396-0.852l17-41.476l44.196,7.48C441.886,467.707,446.926,460.58,443.734,454.831z"/>
	<path style="fill:#6B7B8B;" d="M243.569,308.747l-69.934-38.851c-1.854-1.03-4.041-1.282-6.083-0.699
		c-2.04,0.583-3.765,1.953-4.795,3.807L61.747,454.831c-3.192,5.747,1.847,12.877,8.328,11.773l44.196-7.48l17,41.476
		c2.493,6.084,11.198,6.608,14.396,0.852l101.011-181.826C248.823,315.763,247.432,310.893,243.569,308.747z"/>
	<g>
		<path style="fill:#55697A;" d="M337.928,269.198c-2.041-0.583-4.228-0.331-6.083,0.699l-69.934,38.851
			c-3.862,2.146-5.254,7.016-3.108,10.878l26.074,46.935l15.906-9.183h36.999c11.396,0,22.016-6.131,27.712-16l7.753-13.428
			l-30.524-54.945C341.693,271.15,339.968,269.781,337.928,269.198z"/>
		<path style="fill:#55697A;" d="M243.569,308.747l-69.934-38.851c-1.854-1.03-4.041-1.282-6.083-0.699
			c-2.04,0.583-3.765,1.953-4.795,3.807l-30.524,54.946l7.752,13.426c5.698,9.871,16.317,16.002,27.714,16.002h36.999l15.906,9.183
			l26.074-46.935C248.823,315.763,247.432,310.893,243.569,308.747z"/>
	</g>
	<path style="fill:#FD8E61;" d="M429.75,174.082l-21.714-37.611v-43.43c0-2.858-1.524-5.499-4-6.928l-37.611-21.715l-21.716-37.611
		c-1.429-2.475-4.069-4-6.928-4h-43.43L256.74,1.072c-2.475-1.429-5.525-1.429-8,0l-37.611,21.715h-43.43
		c-2.858,0-5.499,1.525-6.928,4l-21.716,37.611l-37.611,21.715c-2.476,1.429-4,4.07-4,6.928v43.43l-21.714,37.611
		c-1.43,2.475-1.43,5.525,0,8l21.714,37.611v43.43c0,2.858,1.524,5.499,4,6.928l37.611,21.715l21.716,37.611
		c1.429,2.475,4.069,4,6.928,4h43.43l37.611,21.715c2.451,1.415,5.549,1.415,8,0l37.611-21.715h43.43c2.858,0,5.499-1.525,6.928-4
		l21.716-37.611l37.611-21.715c2.476-1.429,4-4.07,4-6.928v-43.43l21.714-37.611C431.18,179.607,431.18,176.557,429.75,174.082z"/>
	<path style="fill:#EAECEE;" d="M252.74,50.082c-70.579,0-128,57.42-128,128s57.421,128,128,128s128-57.42,128-128
		S323.319,50.082,252.74,50.082z"/>
	<path style="fill:#FFFFFF;" d="M252.74,71.499c-58.77,0-106.583,47.813-106.583,106.583s47.813,106.583,106.583,106.583
		s106.583-47.813,106.583-106.583S311.51,71.499,252.74,71.499z"/>
	<path style="fill:#49DFE5;" d="M284.74,162.082c4.418,0,8-3.582,8-8v-8c0-17.645-14.355-32-32-32v-16c0-4.418-3.582-8-8-8
		c-4.418,0-8,3.582-8,8v16.228c-17.974,1.997-32,17.274-32,35.772c0,19.851,16.149,36,36,36h8c11.028,0,20,8.972,20,20
		s-8.972,20-20,20h-12c-8.822,0-16-7.178-16-16c0-4.418-3.582-8-8-8s-8,3.582-8,8c0,17.645,14.355,32,32,32v16c0,4.418,3.582,8,8,8
		c4.418,0,8-3.582,8-8v-16.228c17.974-1.997,32-17.274,32-35.772c0-19.851-16.149-36-36-36h-8c-11.028,0-20-8.972-20-20
		s8.972-20,20-20h12c8.822,0,16,7.178,16,16v8C276.74,158.5,280.322,162.082,284.74,162.082z"/>
</g>
<g>
</g>
<g>
</g>
<g>
</g>
<g>
</g>
<g>
</g>
<g>
</g>
<g>
</g>
<g>
</g>
<g>
</g>
<g>
</g>
<g>
</g>
<g>
</g>
<g>
</g>
<g>
</g>
<g>
</g>
</svg>
