<?xml version="1.0" encoding="iso-8859-1"?>
<!-- Generator: Adobe Illustrator 19.0.0, SVG Export Plug-In . SVG Version: 6.00 Build 0)  -->
<svg version="1.1" id="Capa_1" xmlns="http://www.w3.org/2000/svg" xmlns:xlink="http://www.w3.org/1999/xlink" x="0px" y="0px"
	 viewBox="0 0 512 512" style="enable-background:new 0 0 512 512;" xml:space="preserve">
<g>
	<g>
		<path style="fill:#76E7EB;" d="M472,352H336V216c0-4.418-3.582-8-8-8H184c-4.418,0-8,3.582-8,8v136H40c-4.418,0-8,3.582-8,8v144
			c0,4.418,3.582,8,8,8h432c4.418,0,8-3.582,8-8V360C480,355.582,476.418,352,472,352z"/>
		<g>
			<path style="fill:#1BD7DE;" d="M56,496c-4.418,0-8-3.582-8-8V352h-8c-4.418,0-8,3.582-8,8v144c0,4.418,3.582,8,8,8h432
				c4.418,0,8-3.582,8-8v-8H56z"/>
		</g>
		<path style="fill:#FFFFFF;" d="M256,336c-4.418,0-8-3.582-8-8v-60.687l-10.343,10.343c-3.125,3.124-8.189,3.124-11.314,0
			c-3.124-3.124-3.124-8.189,0-11.313l24-24c2.287-2.288,5.728-2.974,8.719-1.734c2.989,1.238,4.938,4.155,4.938,7.391v80
			C264,332.418,260.418,336,256,336z"/>
		<path style="fill:#FFFFFF;" d="M128,480H80c-3.71,0-6.934-2.551-7.786-6.162c-0.853-3.611,0.89-7.334,4.208-8.993
			C88.538,458.759,120,438.114,120,416c0-8.822-7.178-16-16-16s-16,7.178-16,16c0,4.418-3.582,8-8,8s-8-3.582-8-8
			c0-17.645,14.355-32,32-32s32,14.355,32,32c0,20.05-15.151,36.795-29.174,48H128c4.418,0,8,3.582,8,8S132.418,480,128,480z"/>
		<path style="fill:#FFFFFF;" d="M408,480c-17.645,0-32-14.355-32-32c0-4.418,3.582-8,8-8s8,3.582,8,8c0,8.822,7.178,16,16,16
			s16-7.178,16-16s-7.178-16-16-16c-3.03,0-5.801-1.712-7.155-4.422c-1.355-2.71-1.063-5.954,0.755-8.377L416,400h-32
			c-4.418,0-8-3.582-8-8s3.582-8,8-8h48c3.03,0,5.801,1.712,7.155,4.422c1.355,2.71,1.063,5.954-0.755,8.377l-16.71,22.279
			C432.505,424.219,440,435.251,440,448C440,465.645,425.645,480,408,480z"/>
	</g>
	<g>
		<g>
			<path style="fill:#FD8E61;" d="M400,103.5h-16c-4.143,0-7.5-3.358-7.5-7.5s3.357-7.5,7.5-7.5h16c4.143,0,7.5,3.358,7.5,7.5
				S404.143,103.5,400,103.5z"/>
			<path style="fill:#FD8E61;" d="M376,55.5c-6.558,0-9.924-8.183-5.304-12.803l16-16c2.93-2.929,7.678-2.929,10.607,0
				c2.929,2.929,2.929,7.678,0,10.606l-16,16C379.839,54.768,377.919,55.5,376,55.5z"/>
			<path style="fill:#FD8E61;" d="M392,167.5c-1.919,0-3.839-0.732-5.304-2.197l-16-16c-2.929-2.929-2.929-7.678,0-10.606
				c2.93-2.929,7.678-2.929,10.607,0l16,16C401.924,159.317,398.559,167.5,392,167.5z"/>
		</g>
		<g>
			<path style="fill:#FD8E61;" d="M128,103.5h-16c-4.143,0-7.5-3.358-7.5-7.5s3.357-7.5,7.5-7.5h16c4.143,0,7.5,3.358,7.5,7.5
				S132.143,103.5,128,103.5z"/>
			<path style="fill:#FD8E61;" d="M136,55.5c-1.919,0-3.839-0.732-5.304-2.197l-16-16c-2.929-2.929-2.929-7.678,0-10.606
				c2.93-2.929,7.678-2.929,10.607,0l16,16C145.924,47.317,142.559,55.5,136,55.5z"/>
			<path style="fill:#FD8E61;" d="M120,167.5c-6.558,0-9.924-8.183-5.304-12.803l16-16c2.93-2.929,7.678-2.929,10.607,0
				c2.929,2.929,2.929,7.678,0,10.606l-16,16C123.839,166.768,121.919,167.5,120,167.5z"/>
		</g>
	</g>
	<g>
		<path style="fill:#FDE6A6;" d="M256,0c-51.832,0-94,42.168-94,94s42.168,94,94,94s94-42.168,94-94S307.832,0,256,0z"/>
		<path style="fill:#FCD56A;" d="M256,20c-40.804,0-74,33.196-74,74s33.196,74,74,74s74-33.196,74-74S296.804,20,256,20z"/>
		<path style="fill:#FFFFFF;" d="M276.8,86.4c4.418,0,8-3.582,8-8v-5.2c0-12.065-9.103-22.038-20.8-23.428V42c0-4.418-3.582-8-8-8
			s-8,3.582-8,8v8.163c-11.865,2.496-20.8,13.042-20.8,25.637c0,14.447,11.753,26.2,26.2,26.2h5.199c5.624,0,10.2,4.576,10.2,10.2
			c0,5.624-4.576,10.2-10.2,10.2h-7.8c-4.19,0-7.6-3.409-7.6-7.6c0-4.418-3.582-8-8-8s-8,3.582-8,8
			c0,12.065,9.103,22.038,20.8,23.428V146c0,4.418,3.582,8,8,8s8-3.582,8-8v-8.163c11.865-2.496,20.8-13.042,20.8-25.637
			c0-14.447-11.753-26.2-26.2-26.2H253.4c-5.624,0-10.2-4.576-10.2-10.2c0-5.624,4.576-10.2,10.2-10.2h7.8c4.19,0,7.6,3.409,7.6,7.6
			v5.2C268.8,82.818,272.382,86.4,276.8,86.4z"/>
	</g>
</g>
<g>
</g>
<g>
</g>
<g>
</g>
<g>
</g>
<g>
</g>
<g>
</g>
<g>
</g>
<g>
</g>
<g>
</g>
<g>
</g>
<g>
</g>
<g>
</g>
<g>
</g>
<g>
</g>
<g>
</g>
</svg>
