<?xml version="1.0" encoding="iso-8859-1"?>
<!-- Generator: Adobe Illustrator 19.0.0, SVG Export Plug-In . SVG Version: 6.00 Build 0)  -->
<svg version="1.1" id="Capa_1" xmlns="http://www.w3.org/2000/svg" xmlns:xlink="http://www.w3.org/1999/xlink" x="0px" y="0px"
	 viewBox="0 0 512 512" style="enable-background:new 0 0 512 512;" xml:space="preserve">
<g>
	<g>
		<path style="fill:#EAECEE;" d="M480,88H32c-4.418,0-8,3.582-8,8v288c0,4.418,3.582,8,8,8h448c4.418,0,8-3.582,8-8V96
			C488,91.582,484.418,88,480,88z"/>
		<path style="fill:#D5D9DE;" d="M40,384V96c0-4.418,3.582-8,8-8H32c-4.418,0-8,3.582-8,8v288c0,4.418,3.582,8,8,8h16
			C43.582,392,40,388.418,40,384z"/>
		<path style="fill:#6B7B8B;" d="M504,384H8c-4.418,0-8,3.582-8,8v8c0,13.234,10.766,24,24,24h464c13.234,0,24-10.766,24-24v-8
			C512,387.582,508.418,384,504,384z"/>
		<path style="fill:#55697A;" d="M504,416H40c-13.234,0-24-10.766-24-24v-8H8c-4.418,0-8,3.582-8,8v8c0,13.234,10.766,24,24,24h464
			c7.132,0,13.544-3.13,17.943-8.085C505.302,415.966,504.655,416,504,416z"/>
		<path style="fill:#6B7B8B;" d="M480,88H32c-4.418,0-8,3.582-8,8v32h464V96C488,91.582,484.418,88,480,88z"/>
		<path style="fill:#55697A;" d="M48,88H32c-4.418,0-8,3.582-8,8v32h16V96C40,91.582,43.582,88,48,88z"/>
		<g>
			<circle style="fill:#40566A;" cx="256" cy="112" r="8"/>
			<circle style="fill:#40566A;" cx="288" cy="112" r="8"/>
			<circle style="fill:#40566A;" cx="224" cy="112" r="8"/>
		</g>
		<path style="fill:#40566A;" d="M272,400h-32c-4.418,0-8-3.582-8-8v-8h48v8C280,396.418,276.418,400,272,400z"/>
	</g>
	<path style="fill:#49DFE5;" d="M95.996,296c-6.729,0-10.42-8.131-6.07-13.207l48-56c2.035-2.374,5.266-3.344,8.272-2.486
		l50.1,14.314l20.843-34.738c1.629-2.716,4.71-4.215,7.852-3.823l60.118,7.515l53.233-53.233c2.995-2.995,7.805-3.137,10.972-0.323
		l72,64c3.302,2.936,3.6,7.992,0.665,11.294c-2.936,3.302-7.992,3.599-11.294,0.665l-66.362-58.989l-50.667,50.666
		c-1.746,1.746-4.202,2.585-6.649,2.282l-58.829-7.354l-21.319,35.531c-1.862,3.104-5.576,4.57-9.058,3.577l-51.067-14.591
		l-44.661,52.105C100.492,295.052,98.25,296,95.996,296z"/>
	<path style="fill:#FD8E61;" d="M288,264c-2.651,0-5.187-1.357-6.657-3.563l-58.142-87.213l-41.127,47.982
		c-2.744,3.2-7.502,3.723-10.874,1.193l-27.472-20.604l-43.291,28.86c-3.675,2.451-8.643,1.458-11.094-2.219
		s-1.458-8.643,2.219-11.094l48-32c2.822-1.882,6.524-1.779,9.237,0.256l26.004,19.503l43.122-50.31
		c3.396-3.959,9.84-3.568,12.73,0.769l58.587,87.88l49.1-49.1c3.124-3.124,8.189-3.124,11.313,0l17.478,17.478L409.6,155.2
		c2.65-3.536,7.666-4.251,11.2-1.6c3.535,2.651,4.251,7.665,1.6,11.2l-48,64c-2.875,3.834-8.665,4.249-12.057,0.857L344,211.314
		l-50.343,50.343C292.149,263.165,290.111,264,288,264z"/>
	<g>
		<path style="fill:#49DFE5;" d="M224,328h-16c-4.418,0-8-3.582-8-8s3.582-8,8-8h16c4.418,0,8,3.582,8,8S228.418,328,224,328z"/>
		<path style="fill:#49DFE5;" d="M312,328h-56c-4.418,0-8-3.582-8-8s3.582-8,8-8h56c4.418,0,8,3.582,8,8S316.418,328,312,328z"/>
	</g>
	<g>
		<path style="fill:#FD8E61;" d="M224,360h-16c-4.418,0-8-3.582-8-8s3.582-8,8-8h16c4.418,0,8,3.582,8,8S228.418,360,224,360z"/>
		<path style="fill:#FD8E61;" d="M328,360h-72c-4.418,0-8-3.582-8-8s3.582-8,8-8h72c4.418,0,8,3.582,8,8S332.418,360,328,360z"/>
	</g>
	<path style="fill:#BFC7CD;" d="M408,292.4c4.418,0,8-3.582,8-8v-5.2c0-12.065-9.103-22.038-20.8-23.428V248c0-4.418-3.582-8-8-8
		s-8,3.582-8,8v8.163c-11.865,2.496-20.8,13.041-20.8,25.637c0,14.447,11.753,26.2,26.2,26.2h5.2c5.625,0,10.2,4.576,10.2,10.2
		c0,5.624-4.576,10.2-10.2,10.2H382c-4.191,0-7.6-3.409-7.6-7.6c0-4.418-3.582-8-8-8s-8,3.582-8,8
		c0,12.065,9.103,22.039,20.8,23.428V352c0,4.418,3.582,8,8,8s8-3.582,8-8v-8.163c11.864-2.496,20.8-13.042,20.8-25.637
		c0-14.447-11.753-26.2-26.2-26.2h-5.2c-5.625,0-10.2-4.576-10.2-10.2c0-5.624,4.576-10.2,10.2-10.2h7.8c4.191,0,7.6,3.409,7.6,7.6
		v5.2C400,288.818,403.582,292.4,408,292.4z"/>
</g>
<g>
</g>
<g>
</g>
<g>
</g>
<g>
</g>
<g>
</g>
<g>
</g>
<g>
</g>
<g>
</g>
<g>
</g>
<g>
</g>
<g>
</g>
<g>
</g>
<g>
</g>
<g>
</g>
<g>
</g>
</svg>
