<?xml version="1.0" encoding="iso-8859-1"?>
<!-- Generator: Adobe Illustrator 19.0.0, SVG Export Plug-In . SVG Version: 6.00 Build 0)  -->
<svg version="1.1" id="Capa_1" xmlns="http://www.w3.org/2000/svg" xmlns:xlink="http://www.w3.org/1999/xlink" x="0px" y="0px"
	 viewBox="0 0 504 504" style="enable-background:new 0 0 504 504;" xml:space="preserve">
<g>
	<path style="fill:#76E7EB;" d="M416.049,107.951C372.23,64.132,313.97,40,252,40S131.77,64.132,87.951,107.951S20,210.03,20,272
		s24.132,120.23,67.951,164.049S190.03,504,252,504s120.23-24.132,164.049-67.951S484,333.97,484,272
		S459.868,151.77,416.049,107.951z"/>
	<path style="fill:#1BD7DE;" d="M292,496c-61.97,0-120.23-24.132-164.049-67.951S60,325.97,60,264s24.132-120.23,67.951-164.049
		c27.841-27.841,61.517-47.72,98.265-58.526c-52.217,5.738-100.582,28.844-138.265,66.526C44.132,151.77,20,210.03,20,272
		s24.132,120.23,67.951,164.049S190.03,504,252,504c22.596,0,44.695-3.223,65.784-9.425C309.281,495.51,300.679,496,292,496z"/>
	<path style="fill:#EAECEE;" d="M252,80C146.131,80,60,166.131,60,272s86.131,192,192,192s192-86.131,192-192S357.869,80,252,80z"/>
	<path style="fill:#FFFFFF;" d="M252,104c-92.635,0-168,75.365-168,168s75.365,168,168,168s168-75.365,168-168S344.635,104,252,104z
		"/>
	<g>
		<path style="fill:#FD8E61;" d="M236,256l66.28-39.768c3.571-2.142,7.63,1.917,5.488,5.488L268,288L236,256z"/>
		<path style="fill:#FDDD88;" d="M268,288l-66.28,39.768c-3.571,2.142-7.63-1.917-5.488-5.488L236,256L268,288z"/>
	</g>
	<path style="fill:#808E9B;" d="M272.8,364.4c4.418,0,8-3.582,8-8v-5.2c0-12.065-9.103-22.039-20.8-23.428V320c0-4.418-3.582-8-8-8
		s-8,3.582-8,8v8.163c-11.864,2.496-20.8,13.041-20.8,25.637c0,14.447,11.753,26.2,26.2,26.2h5.2c5.624,0,10.2,4.576,10.2,10.2
		c0,5.624-4.576,10.2-10.2,10.2h-7.8c-4.19,0-7.6-3.409-7.6-7.6c0-4.418-3.582-8-8-8s-8,3.582-8,8
		c0,12.065,9.103,22.039,20.8,23.428V424c0,4.418,3.582,8,8,8s8-3.582,8-8v-8.163c11.864-2.496,20.8-13.041,20.8-25.637
		c0-14.447-11.753-26.2-26.2-26.2h-5.2c-5.624,0-10.2-4.576-10.2-10.2c0-5.624,4.576-10.2,10.2-10.2h7.8c4.19,0,7.6,3.409,7.6,7.6
		v5.2C264.8,360.818,268.381,364.4,272.8,364.4z"/>
	<path style="fill:#808E9B;" d="M404,288c-4.418,0-8,3.582-8,8v0.25c0,4.273-3.477,7.75-7.75,7.75H380c-4.411,0-8-3.589-8-8v-16h16
		c4.418,0,8-3.582,8-8s-3.582-8-8-8h-16v-16c0-4.411,3.589-8,8-8h8.25c4.273,0,7.75,3.477,7.75,7.75c0,4.418,3.582,8,8,8
		s8-3.582,8-8c0-13.096-10.654-23.75-23.75-23.75H380c-13.234,0-24,10.766-24,24v16c-4.418,0-8,3.582-8,8s3.582,8,8,8v16
		c0,13.234,10.766,24,24,24h8.25c13.096,0,23.75-10.654,23.75-23.75V296C412,291.582,408.418,288,404,288z"/>
	<path style="fill:#808E9B;" d="M280.116,113.14c-3.79-2.274-8.704-1.045-10.976,2.744L252,144.451l-17.14-28.567
		c-2.273-3.789-7.187-5.017-10.976-2.744c-3.789,2.273-5.017,7.187-2.744,10.976L242.67,160H236c-4.418,0-8,3.582-8,8s3.582,8,8,8h8
		v24c0,4.418,3.582,8,8,8s8-3.582,8-8v-24h8c4.418,0,8-3.582,8-8s-3.582-8-8-8h-6.67l21.53-35.884
		C285.133,120.327,283.905,115.413,280.116,113.14z"/>
	<path style="fill:#808E9B;" d="M147.848,230.362C145.121,227.46,140.158,224,132,224c-6.254,0-17.398,2.606-21.761,20.06
		c-1.574,6.295-2.034,13.356-2.173,19.94H100c-4.418,0-8,3.582-8,8s3.582,8,8,8h7.674c-1.39,17.155-6.778,28.317-6.829,28.422
		c-1.24,2.48-1.107,5.425,0.35,7.784c1.458,2.358,4.033,3.794,6.805,3.794h32c4.418,0,8-3.582,8-8s-3.582-8-8-8h-20.543
		c1.783-6.056,3.586-14.25,4.261-24H132c4.418,0,8-3.582,8-8s-3.582-8-8-8h-7.93c0.129-5.578,0.514-11.35,1.691-16.06
		C127.746,240,130.513,240,132,240c2.921,0,3.853,0.97,4.159,1.289c1.523,1.586,1.906,4.908,1.853,6.282
		c-0.236,4.38,3.103,8.14,7.489,8.414c4.394,0.28,8.208-3.075,8.483-7.485C154.054,247.385,154.473,237.415,147.848,230.362z"/>
	<path style="fill:#49DFE5;" d="M252,48c-13.234,0-24-10.766-24-24s10.766-24,24-24s24,10.766,24,24S265.234,48,252,48z M252,16
		c-4.411,0-8,3.589-8,8s3.589,8,8,8s8-3.589,8-8S256.411,16,252,16z"/>
</g>
<g>
</g>
<g>
</g>
<g>
</g>
<g>
</g>
<g>
</g>
<g>
</g>
<g>
</g>
<g>
</g>
<g>
</g>
<g>
</g>
<g>
</g>
<g>
</g>
<g>
</g>
<g>
</g>
<g>
</g>
</svg>
