<?xml version="1.0" encoding="iso-8859-1"?>
<!-- Generator: Adobe Illustrator 19.0.0, SVG Export Plug-In . SVG Version: 6.00 Build 0)  -->
<svg version="1.1" id="Capa_1" xmlns="http://www.w3.org/2000/svg" xmlns:xlink="http://www.w3.org/1999/xlink" x="0px" y="0px"
	 viewBox="0 0 512 512" style="enable-background:new 0 0 512 512;" xml:space="preserve">
<g>
	<path style="fill:#F4F6F7;" d="M128,0c-4.418,0-8,3.582-8,8v376v48h344c26.51,0,48-21.49,48-48V8c0-4.418-3.582-8-8-8H128z"/>
	<g>
		<path style="fill:#D5D9DE;" d="M416,384v-24c0-17.673-14.327-32-32-32H120v56c0,26.51,21.49,48,48,48h296
			C437.49,432,416,410.51,416,384z"/>
	</g>
	<path style="fill:#EAECEE;" d="M64,328c-17.673,0-32,14.327-32,32v152h288c17.673,0,32-14.327,32-32V360c0-17.673,14.327-32,32-32
		H64z"/>
	<path style="fill:#D5D9DE;" d="M288,480v-24c0-4.418-3.582-8-8-8H8c-4.418,0-8,3.582-8,8v24c0,17.673,14.327,32,32,32h288
		C302.327,512,288,497.673,288,480z"/>
	<g>
		<path style="fill:#6B7B8B;" d="M280,376H104c-4.418,0-8-3.582-8-8s3.582-8,8-8h176c4.418,0,8,3.582,8,8S284.418,376,280,376z"/>
		<path style="fill:#6B7B8B;" d="M152,416h-48c-4.418,0-8-3.582-8-8s3.582-8,8-8h48c4.418,0,8,3.582,8,8S156.418,416,152,416z"/>
		<path style="fill:#6B7B8B;" d="M280,416h-96c-4.418,0-8-3.582-8-8s3.582-8,8-8h96c4.418,0,8,3.582,8,8S284.418,416,280,416z"/>
	</g>
	<g>
		<path style="fill:#6B7B8B;" d="M328,256H208c-4.418,0-8-3.582-8-8s3.582-8,8-8h120c4.418,0,8,3.582,8,8S332.418,256,328,256z"/>
		<path style="fill:#6B7B8B;" d="M264,296h-56c-4.418,0-8-3.582-8-8s3.582-8,8-8h56c4.418,0,8,3.582,8,8S268.418,296,264,296z"/>
		<path style="fill:#6B7B8B;" d="M432,296H296c-4.418,0-8-3.582-8-8s3.582-8,8-8h136c4.418,0,8,3.582,8,8S436.418,296,432,296z"/>
		<path style="fill:#6B7B8B;" d="M424,256h-64c-4.418,0-8-3.582-8-8s3.582-8,8-8h64c4.418,0,8,3.582,8,8S428.418,256,424,256z"/>
	</g>
	<g>
		<g>
			<path style="fill:#FD8E61;" d="M369.6,107.2l-48-64c-1.512-2.015-3.883-3.2-6.4-3.2s-4.889,1.186-6.4,3.2l-48,64
				c-1.818,2.424-2.111,5.667-0.755,8.377c1.355,2.71,4.125,4.422,7.155,4.422h96c3.03,0,5.8-1.712,7.155-4.422
				C371.711,112.868,371.418,109.624,369.6,107.2z"/>
			<path style="fill:#FD8E61;" d="M410.597,204.955c-4.118-10.005-10.088-18.958-17.74-26.611
				c-7.652-7.652-16.605-13.621-26.611-17.741c-2.468-1.017-5.281-0.734-7.497,0.75c-2.218,1.485-3.549,3.978-3.549,6.647v40
				c0,4.418,3.582,8,8,8h40C408.788,216,412.732,210.136,410.597,204.955z"/>
			<path style="fill:#FD7239;" d="M271.651,161.353c-2.218-1.486-5.03-1.768-7.497-0.75c-10.006,4.12-18.959,10.089-26.611,17.741
				c-7.652,7.652-13.621,16.605-17.741,26.611C217.669,210.136,221.611,216,227.2,216h40c4.418,0,8-3.582,8-8v-40
				C275.2,165.331,273.869,162.838,271.651,161.353z"/>
			<path style="fill:#FDDD88;" d="M259.2,208c0,4.418,3.582,8,8,8h96c4.418,0,8-3.582,8-8v-96h-112V208z"/>
			<path style="fill:#FCD56A;" d="M283.2,208v-96h-24v96c0,4.418,3.582,8,8,8h24C286.782,216,283.2,212.418,283.2,208z"/>
			<g>
				<circle style="fill:#D5D9DE;" cx="315.2" cy="160" r="16"/>
				<path style="fill:#FD8E61;" d="M315.2,184c-13.233,0-24-10.766-24-24s10.767-24,24-24s24,10.766,24,24S328.434,184,315.2,184z
					 M315.2,152c-4.411,0-8,3.589-8,8s3.589,8,8,8s8-3.589,8-8S319.611,152,315.2,152z"/>
			</g>
		</g>
		<path style="fill:#49DFE5;" d="M224,116.4c4.418,0,8-3.582,8-8v-5.2c0-12.065-9.103-22.038-20.8-23.428V72c0-4.418-3.582-8-8-8
			s-8,3.582-8,8v8.163c-11.865,2.496-20.8,13.041-20.8,25.637c0,14.447,11.753,26.2,26.2,26.2h5.2c5.625,0,10.2,4.576,10.2,10.2
			c0,5.624-4.576,10.2-10.2,10.2H198c-4.191,0-7.6-3.409-7.6-7.6c0-4.418-3.582-8-8-8s-8,3.582-8,8
			c0,12.065,9.103,22.039,20.8,23.428V176c0,4.418,3.582,8,8,8s8-3.582,8-8v-8.163c11.864-2.496,20.8-13.042,20.8-25.637
			c0-14.447-11.753-26.2-26.2-26.2h-5.2c-5.625,0-10.2-4.576-10.2-10.2c0-5.624,4.576-10.2,10.2-10.2h7.8c4.191,0,7.6,3.409,7.6,7.6
			v5.2C216,112.818,219.582,116.4,224,116.4z"/>
		<path style="fill:#49DFE5;" d="M448,116.4c4.418,0,8-3.582,8-8v-5.2c0-12.065-9.103-22.039-20.8-23.428V72c0-4.418-3.582-8-8-8
			s-8,3.582-8,8v8.163c-11.864,2.496-20.8,13.041-20.8,25.637c0,14.447,11.753,26.2,26.199,26.2h5.2c5.624,0,10.2,4.576,10.2,10.2
			c0,5.624-4.576,10.2-10.2,10.2H422c-4.19,0-7.6-3.409-7.6-7.6c0-4.418-3.582-8-8-8s-8,3.582-8,8
			c0,12.065,9.103,22.039,20.8,23.428V176c0,4.418,3.582,8,8,8s8-3.582,8-8v-8.163c11.865-2.496,20.8-13.042,20.8-25.637
			c0-14.447-11.753-26.2-26.2-26.2h-5.2c-5.624,0-10.199-4.576-10.199-10.2c0-5.624,4.575-10.2,10.199-10.2h7.801
			c4.19,0,7.6,3.409,7.6,7.6v5.2C440,112.818,443.582,116.4,448,116.4z"/>
	</g>
</g>
<g>
</g>
<g>
</g>
<g>
</g>
<g>
</g>
<g>
</g>
<g>
</g>
<g>
</g>
<g>
</g>
<g>
</g>
<g>
</g>
<g>
</g>
<g>
</g>
<g>
</g>
<g>
</g>
<g>
</g>
</svg>
