<?xml version="1.0" encoding="iso-8859-1"?>
<!-- Generator: Adobe Illustrator 19.0.0, SVG Export Plug-In . SVG Version: 6.00 Build 0)  -->
<svg version="1.1" id="Capa_1" xmlns="http://www.w3.org/2000/svg" xmlns:xlink="http://www.w3.org/1999/xlink" x="0px" y="0px"
	 viewBox="0 0 512 512" style="enable-background:new 0 0 512 512;" xml:space="preserve">
<g>
	<g>
		<path style="fill:#F4F6F7;" d="M440,8.005H192c-39.701,0-72,32.299-72,72v200c0,39.701,32.299,72,72,72h124.687l61.656,61.657
			c1.531,1.531,3.577,2.344,5.659,2.343c1.03,0,2.07-0.199,3.06-0.609c2.989-1.238,4.938-4.155,4.938-7.391v-56h48
			c39.701,0,72-32.299,72-72v-200C512,40.304,479.701,8.005,440,8.005z"/>
		<path style="fill:#EAECEE;" d="M128,216.005c-2.683,0-5.35,0.068-8,0.199v63.801c0,39.701,32.299,72,72,72h87.761
			C275.364,276.311,208.979,216.005,128,216.005z"/>
		<g>
			<path style="fill:#FDDD88;" d="M320,40.005c-52.935,0-96,43.065-96,96c0,34.586,18.267,66.009,48,83.158v44.842
				c0,4.418,3.582,8,8,8h80c4.418,0,8-3.582,8-8v-44.842c29.733-17.149,48-48.572,48-83.158C416,83.071,372.935,40.005,320,40.005z"
				/>
			<path style="fill:#FCD56A;" d="M304,232.005c-4.418,0-8-3.582-8-8v-12.842c-29.733-17.149-48-48.572-48-83.158
				c0-37.867,22.04-70.679,53.964-86.293C257.622,50.176,224,89.235,224,136.005c0,34.586,18.267,66.009,48,83.158v44.842
				c0,4.418,3.582,8,8,8h80c4.418,0,8-3.582,8-8v-32H304z"/>
			<path style="fill:#FD8E61;" d="M368,128.005c-4.418,0-8,3.582-8,8v8h-40h-40v-8c0-4.418-3.582-8-8-8s-8,3.582-8,8v16
				c0,4.418,3.582,8,8,8h40v80c0,4.418,3.582,8,8,8s8-3.582,8-8v-80h40c4.418,0,8-3.582,8-8v-16
				C376,131.587,372.418,128.005,368,128.005z"/>
			<path style="fill:#AAB4BD;" d="M376,240.005H264c-4.418,0-8,3.582-8,8v40c0,17.645,14.355,32,32,32h64c17.645,0,32-14.355,32-32
				v-40C384,243.587,380.418,240.005,376,240.005z"/>
			<path style="fill:#95A1AC;" d="M376,304.005h-64c-17.645,0-32-14.355-32-32v-32h-16c-4.418,0-8,3.582-8,8v40
				c0,17.645,14.355,32,32,32h64c11.916,0,22.324-6.552,27.832-16.238C378.574,303.919,377.297,304.005,376,304.005z"/>
			<rect x="256" y="272.005" style="fill:#55697A;" width="128" height="16"/>
		</g>
	</g>
	<g>
		<path style="fill:#76E7EB;" d="M128,240.005c-70.579,0-128,53.832-128,120c0,30.997,12.375,60.063,34.97,82.422l-18.488,50.844
			c-2.461,6.769,5.002,13.22,11.35,9.757l55.8-30.437c14.189,4.921,29.097,7.414,44.369,7.414c70.579,0,128-53.832,128-120
			S198.579,240.005,128,240.005z"/>
		<path style="fill:#1BD7DE;" d="M152,464.005c-70.692,0-128-53.726-128-120c0-35.341,16.299-67.111,42.231-89.072
			C26.777,275.4,0,314.824,0,360.005c0,30.997,12.375,60.063,34.97,82.422l-18.488,50.844c-2.461,6.769,5.002,13.22,11.35,9.757
			l55.8-30.437c14.189,4.921,29.097,7.414,44.369,7.414c32.773,0,62.703-11.612,85.37-30.671
			C195.149,458.686,174.238,464.005,152,464.005z"/>
		<path style="fill:#FFFFFF;" d="M160,344.005c4.418,0,8-3.582,8-8v-8c0-17.645-14.355-32-32-32v-16c0-4.418-3.582-8-8-8
			s-8,3.582-8,8v16.228c-17.974,1.997-32,17.274-32,35.772c0,19.851,16.149,36,36,36h8c11.028,0,20,8.972,20,20s-8.972,20-20,20h-12
			c-8.822,0-16-7.178-16-16c0-4.418-3.582-8-8-8s-8,3.582-8,8c0,17.645,14.355,32,32,32v16c0,4.418,3.582,8,8,8s8-3.582,8-8v-16.228
			c17.974-1.997,32-17.274,32-35.772c0-19.851-16.149-36-36-36h-8c-11.028,0-20-8.972-20-20s8.972-20,20-20h12
			c8.822,0,16,7.178,16,16v8C152,340.424,155.582,344.005,160,344.005z"/>
	</g>
</g>
<g>
</g>
<g>
</g>
<g>
</g>
<g>
</g>
<g>
</g>
<g>
</g>
<g>
</g>
<g>
</g>
<g>
</g>
<g>
</g>
<g>
</g>
<g>
</g>
<g>
</g>
<g>
</g>
<g>
</g>
</svg>
