<?xml version="1.0" encoding="iso-8859-1"?>
<!-- Generator: Adobe Illustrator 19.0.0, SVG Export Plug-In . SVG Version: 6.00 Build 0)  -->
<svg version="1.1" id="Capa_1" xmlns="http://www.w3.org/2000/svg" xmlns:xlink="http://www.w3.org/1999/xlink" x="0px" y="0px"
	 viewBox="0 0 512 512" style="enable-background:new 0 0 512 512;" xml:space="preserve">
<g>
	<path style="fill:#F4F6F7;" d="M440,0H72c-4.418,0-8,3.582-8,8v430l74,74h302c4.418,0,8-3.582,8-8V8C448,3.582,444.418,0,440,0z"/>
	<path style="fill:#EAECEE;" d="M130,438H64l74,74v-66C138,441.582,134.418,438,130,438z"/>
	<g>
		<path style="fill:#D5D9DE;" d="M280,176h-48c-13.233,0-24,10.766-24,24v56c0,4.418,3.582,8,8,8h80c4.418,0,8-3.582,8-8v-56
			C304,186.766,293.233,176,280,176z"/>
		<path style="fill:#BFC7CD;" d="M224,256v-56c0-13.234,10.767-24,24-24h-16c-13.233,0-24,10.766-24,24v56c0,4.418,3.582,8,8,8h16
			C227.582,264,224,260.418,224,256z"/>
		<path style="fill:#FFDCCE;" d="M256,96c-22.056,0-40,17.944-40,40s17.944,40,40,40s40-17.944,40-40S278.056,96,256,96z"/>
		<path style="fill:#FFCBB6;" d="M232,136c0-19.317,13.765-35.479,32-39.195c-2.586-0.527-5.261-0.805-8-0.805
			c-22.056,0-40,17.944-40,40s17.944,40,40,40c2.739,0,5.414-0.278,8-0.805C245.765,171.479,232,155.317,232,136z"/>
		<path style="fill:#55697A;" d="M256,96c-36.359,0-52.276,24.594-55.699,37.819c-0.433,1.673-0.397,3.454,0.233,5.063
			c1.239,3.166,4.234,5.118,7.466,5.118h87.219C300.2,118.454,280.672,96,256,96z"/>
	</g>
	<g>
		<path style="fill:#D5D9DE;" d="M344,392H168c-4.418,0-8-3.582-8-8s3.582-8,8-8h176c4.418,0,8,3.582,8,8S348.418,392,344,392z"/>
		<path style="fill:#D5D9DE;" d="M216,432h-48c-4.418,0-8-3.582-8-8s3.582-8,8-8h48c4.418,0,8,3.582,8,8S220.418,432,216,432z"/>
		<path style="fill:#D5D9DE;" d="M296,432h-48c-4.418,0-8-3.582-8-8s3.582-8,8-8h48c4.418,0,8,3.582,8,8S300.418,432,296,432z"/>
		<path style="fill:#D5D9DE;" d="M280,472H168c-4.418,0-8-3.582-8-8s3.582-8,8-8h112c4.418,0,8,3.582,8,8S284.418,472,280,472z"/>
		<path style="fill:#D5D9DE;" d="M344,472h-32c-4.418,0-8-3.582-8-8s3.582-8,8-8h32c4.418,0,8,3.582,8,8S348.418,472,344,472z"/>
		<path style="fill:#D5D9DE;" d="M344,432h-16c-4.418,0-8-3.582-8-8s3.582-8,8-8h16c4.418,0,8,3.582,8,8S348.418,432,344,432z"/>
	</g>
	<g>
		<path style="fill:#FDDD88;" d="M256,304c-66.168,0-120-53.832-120-120S189.832,64,256,64s120,53.832,120,120S322.168,304,256,304z
			 M256,80c-57.346,0-104,46.654-104,104s46.654,104,104,104s104-46.654,104-104S313.346,80,256,80z"/>
		<path style="fill:#FD8E61;" d="M416,184h-8c0-81.129-63.891-147.615-144-151.79V24c0-4.418-3.582-8-8-8s-8,3.582-8,8v8.21
			c-80.109,4.175-144,70.66-144,151.79h-8c-4.418,0-8,3.582-8,8s3.582,8,8,8h8.841c7.747,73.708,68.385,131.893,143.159,135.79V344
			c0,4.418,3.582,8,8,8s8-3.582,8-8v-8.21c74.774-3.896,135.412-62.082,143.159-135.79H416c4.418,0,8-3.582,8-8S420.418,184,416,184
			z M263.988,319.759C263.859,315.453,260.337,312,256,312s-7.859,3.453-7.988,7.759c-65.97-3.84-119.46-54.914-127.073-119.819
			c3.975-0.466,7.061-3.84,7.061-7.94c0-4.418-3.582-8-8-8c0-72.309,56.726-131.609,128.012-135.759
			C248.141,52.547,251.663,56,256,56s7.859-3.453,7.988-7.759C335.274,52.391,392,111.691,392,184c-4.418,0-8,3.582-8,8
			c0,4.1,3.086,7.475,7.061,7.94C383.448,264.845,329.958,315.919,263.988,319.759z"/>
	</g>
</g>
<g>
</g>
<g>
</g>
<g>
</g>
<g>
</g>
<g>
</g>
<g>
</g>
<g>
</g>
<g>
</g>
<g>
</g>
<g>
</g>
<g>
</g>
<g>
</g>
<g>
</g>
<g>
</g>
<g>
</g>
</svg>
