<?xml version="1.0" encoding="iso-8859-1"?>
<!-- Generator: Adobe Illustrator 19.0.0, SVG Export Plug-In . SVG Version: 6.00 Build 0)  -->
<svg version="1.1" id="Capa_1" xmlns="http://www.w3.org/2000/svg" xmlns:xlink="http://www.w3.org/1999/xlink" x="0px" y="0px"
	 viewBox="0 0 512 512" style="enable-background:new 0 0 512 512;" xml:space="preserve">
<g>
	<path style="fill:#D5D9DE;" d="M396,406c-2.047,0-4.095-0.781-5.657-2.343l-60-60c-3.125-3.124-3.125-8.189,0-11.313
		c3.124-3.124,8.189-3.124,11.313,0l60,60c3.125,3.124,3.125,8.189,0,11.313C400.095,405.219,398.047,406,396,406z"/>
	<path style="fill:#55697A;" d="M511.7,475.617c-0.945-6.86-4.167-13.339-9.073-18.244l-72-72
		c-12.478-12.476-32.778-12.476-45.255,0C379.329,391.416,376,399.452,376,408c0,8.548,3.329,16.583,9.373,22.628l72,72
		c6.099,6.099,14.417,9.286,22.768,9.285c5.595,0,11.205-1.431,16.17-4.376C507.251,501.049,513.436,488.221,511.7,475.617z"/>
	<path style="fill:#40566A;" d="M496.102,495.951c-8.351,0-16.668-3.187-22.768-9.285l-72-72c-6.044-6.044-9.373-14.08-9.373-22.628
		c0-4.622,0.981-9.091,2.831-13.18c-3.416,1.543-6.617,3.711-9.42,6.515C379.329,391.416,376,399.452,376,408
		c0,8.548,3.329,16.583,9.373,22.628l72,72c6.099,6.099,14.417,9.286,22.768,9.285c5.595,0,11.205-1.431,16.17-4.376
		c5.678-3.367,10.059-8.449,12.732-14.314C504.935,495.045,500.516,495.951,496.102,495.951z"/>
	<path style="fill:#FDDD88;" d="M200,0C89.72,0,0,89.72,0,200s89.72,200,200,200s200-89.72,200-200S310.28,0,200,0z"/>
	<path style="fill:#FCD56A;" d="M224,384c-110.28,0-200-89.72-200-200c0-64.224,30.436-121.466,77.634-158.083
		C41.003,60.312,0,125.454,0,200c0,110.28,89.72,200,200,200c46.056,0,88.52-15.657,122.366-41.917
		C293.303,374.571,259.734,384,224,384z"/>
	<path style="fill:#EAECEE;" d="M200,32c-92.636,0-168,75.364-168,168s75.364,168,168,168s168-75.364,168-168S292.636,32,200,32z"/>
	<path style="fill:#F4F6F7;" d="M200,48c-83.813,0-152,68.187-152,152s68.187,152,152,152s152-68.187,152-152S283.813,48,200,48z"/>
	<path style="fill:#FD8E61;" d="M248,176c6.627,0,12-5.373,12-12v-12c0-26.467-21.533-48-48-48V84c0-6.627-5.373-12-12-12
		s-12,5.373-12,12v20.341c-26.961,2.995-48,25.912-48,53.659c0,29.776,24.224,54,54,54h12c16.542,0,30,13.458,30,30
		s-13.458,30-30,30h-18c-13.234,0-24-10.766-24-24c0-6.627-5.373-12-12-12s-12,5.373-12,12c0,26.467,21.533,48,48,48v20
		c0,6.627,5.373,12,12,12s12-5.373,12-12v-20.341c26.961-2.995,48-25.912,48-53.659c0-29.776-24.224-54-54-54h-12
		c-16.542,0-30-13.458-30-30s13.458-30,30-30h18c13.234,0,24,10.766,24,24v12C236,170.627,241.373,176,248,176z"/>
	<g>
		<path style="fill:#49DFE5;" d="M473.539,281.539c-6.995,0-10.582-8.732-5.657-13.657C486.014,249.75,496,225.643,496,200
			s-9.986-49.75-28.118-67.882c-3.125-3.124-3.125-8.189,0-11.313c3.124-3.124,8.189-3.124,11.313,0
			C500.35,141.958,512,170.084,512,200s-11.65,58.042-32.804,79.196C477.634,280.758,475.586,281.539,473.539,281.539z"/>
		<path style="fill:#49DFE5;" d="M450.912,258.912c-6.995,0-10.582-8.732-5.657-13.657C457.343,233.167,464,217.095,464,200
			s-6.657-33.167-18.745-45.255c-3.125-3.124-3.125-8.189,0-11.313c3.124-3.124,8.189-3.124,11.313,0
			C471.679,158.542,480,178.631,480,200s-8.321,41.458-23.432,56.568C455.006,258.13,452.959,258.912,450.912,258.912z"/>
		<path style="fill:#49DFE5;" d="M428.284,236.284c-6.995,0-10.582-8.732-5.657-13.657C428.671,216.583,432,208.548,432,200
			c0-8.547-3.329-16.583-9.373-22.627c-3.125-3.124-3.125-8.189,0-11.313c3.124-3.124,8.189-3.124,11.313,0
			C443.007,175.125,448,187.179,448,200c0,12.822-4.993,24.875-14.059,33.941C432.379,235.503,430.332,236.284,428.284,236.284z"/>
	</g>
	<g>
		<path style="fill:#49DFE5;" d="M200,512c-29.916,0-58.042-11.65-79.196-32.804c-3.125-3.124-3.125-8.189,0-11.313
			c3.124-3.124,8.189-3.124,11.313,0C150.25,486.014,174.357,496,200,496s49.75-9.986,67.882-28.118
			c3.124-3.124,8.189-3.124,11.313,0c3.125,3.124,3.125,8.189,0,11.313C258.042,500.35,229.916,512,200,512z"/>
		<path style="fill:#49DFE5;" d="M200,480c-21.369,0-41.458-8.321-56.568-23.432c-3.125-3.124-3.125-8.189,0-11.313
			c3.124-3.124,8.189-3.124,11.313,0C166.833,457.343,182.905,464,200,464s33.167-6.657,45.255-18.745
			c3.124-3.124,8.189-3.124,11.313,0c3.125,3.124,3.125,8.189,0,11.313C241.458,471.679,221.369,480,200,480z"/>
		<path style="fill:#49DFE5;" d="M200,448c-12.822,0-24.875-4.993-33.941-14.059c-3.124-3.125-3.124-8.189,0-11.314
			c3.125-3.123,8.189-3.124,11.314,0C183.417,428.671,191.452,432,200,432s16.583-3.329,22.627-9.373
			c3.124-3.124,8.19-3.125,11.314,0c3.124,3.125,3.125,8.189,0,11.314C224.875,443.007,212.822,448,200,448z"/>
	</g>
</g>
<g>
</g>
<g>
</g>
<g>
</g>
<g>
</g>
<g>
</g>
<g>
</g>
<g>
</g>
<g>
</g>
<g>
</g>
<g>
</g>
<g>
</g>
<g>
</g>
<g>
</g>
<g>
</g>
<g>
</g>
</svg>
