<?xml version="1.0" encoding="iso-8859-1"?>
<!-- Generator: Adobe Illustrator 19.0.0, SVG Export Plug-In . SVG Version: 6.00 Build 0)  -->
<svg version="1.1" id="Capa_1" xmlns="http://www.w3.org/2000/svg" xmlns:xlink="http://www.w3.org/1999/xlink" x="0px" y="0px"
	 viewBox="0 0 512 512" style="enable-background:new 0 0 512 512;" xml:space="preserve">
<g>
	<path style="fill:#FD7239;" d="M399.844,136.002c-3.585,0-6.847-2.426-7.755-6.062c-1.072-4.287,1.534-8.63,5.82-9.702
		c0.289-0.073,30.229-7.841,52.283-29.896C475.634,64.901,479.54,30.792,479.957,16h-80.107c-4.418,0-8-3.582-8-8s3.582-8,8-8h88
		c4.166,0,7.635,3.198,7.974,7.35c0.185,2.265,4.08,55.909-34.316,94.307c-25.276,25.276-58.322,33.756-59.717,34.104
		C401.138,135.924,400.485,136.002,399.844,136.002z"/>
	<path style="fill:#FD7239;" d="M112.156,136.002c-0.642,0-1.294-0.078-1.945-0.241c-1.394-0.349-34.44-8.828-59.716-34.104
		C12.096,63.259,15.992,9.615,16.177,7.35C16.516,3.197,19.985,0,24.151,0h88c4.418,0,8,3.582,8,8s-3.582,8-8,8H32.065
		c0.453,14.819,4.417,49.018,29.742,74.343c22.055,22.055,51.995,29.823,52.295,29.898c4.279,1.083,6.877,5.428,5.801,9.708
		C118.991,133.58,115.735,136.001,112.156,136.002z"/>
	<path style="fill:#FDDD88;" d="M406.698,7.819C406.599,3.473,403.048,0,398.7,0H113.3c-4.348,0-7.9,3.473-7.998,7.819
		c-0.116,5.125-2.521,126.211,24.688,187.43c23.65,53.214,74.964,69.606,102.011,74.609v173.197l-59.578,29.789
		c-2.755,1.377-4.418,4.178-4.417,7.155H168v8h176v-8h-0.005c0.001-2.977-1.662-5.778-4.417-7.155L280,443.056V269.858
		c27.047-5.004,78.36-21.396,102.011-74.609C409.219,134.031,406.813,12.944,406.698,7.819z"/>
	<path style="fill:#FCD56A;" d="M193.206,480c0-2.977,1.663-5.778,4.417-7.155l46.449-27.466c2.435-1.44,3.928-4.058,3.928-6.886
		V270.571c0-3.761-2.615-7.033-6.293-7.815c-26.31-5.594-59.843-18.312-81.707-67.507c-27.208-61.218-24.803-182.305-24.688-187.43
		C135.41,3.473,138.962,0,143.31,0H113.3c-4.348,0-7.9,3.473-7.998,7.819c-0.116,5.125-2.521,126.211,24.688,187.43
		c23.65,53.214,74.964,69.606,102.011,74.609v173.197l-59.578,29.789c-2.755,1.377-4.418,4.178-4.417,7.155H168v8h25.201v-8H193.206
		z"/>
	<path style="fill:#FDE6A6;" d="M344,488H168v16c0,4.418,3.582,8,8,8h160c4.418,0,8-3.582,8-8V488z"/>
	<path style="fill:#FDDD88;" d="M192,504v-16h-24v16c0,4.418,3.582,8,8,8h24C195.582,512,192,508.418,192,504z"/>
	<path style="fill:#49DFE5;" d="M392.94,346.824L296,392v-48l90.756-42.702c3.754-1.502,7.112,2.879,4.686,6.114L376,328
		l17.673,11.782C396.353,341.569,395.93,345.628,392.94,346.824z"/>
	<polygon style="fill:#1BD7DE;" points="320,344 296,392 296,344 	"/>
	<path style="fill:#49DFE5;" d="M135.155,467.505L216,420.048v-48L126.165,424c-2.747,1.374-2.985,5.202-0.43,6.906L144,440
		l-13.833,21.527C127.634,464.904,131.38,469.392,135.155,467.505z"/>
	<polygon style="fill:#1BD7DE;" points="216,420.048 192,400 216,388.048 	"/>
	<path style="fill:#76E7EB;" d="M320,344l-128,56v-45.384c0-1.589,0.941-3.028,2.397-3.665l120-52.5
		c2.643-1.156,5.603,0.78,5.603,3.665V344z"/>
	<path style="fill:#FFFFFF;" d="M288,120c4.418,0,8-3.582,8-8v-8c0-17.645-14.355-32-32-32V56c0-4.418-3.582-8-8-8
		c-4.418,0-8,3.582-8,8v16.228c-17.974,1.997-32,17.274-32,35.772c0,19.851,16.149,36,36,36h8c11.028,0,20,8.972,20,20
		s-8.972,20-20,20h-12c-8.822,0-16-7.178-16-16c0-4.418-3.582-8-8-8s-8,3.582-8,8c0,17.645,14.355,32,32,32v16c0,4.418,3.582,8,8,8
		c4.418,0,8-3.582,8-8v-16.228c17.974-1.997,32-17.274,32-35.772c0-19.851-16.149-36-36-36h-8c-11.028,0-20-8.972-20-20
		s8.972-20,20-20h12c8.822,0,16,7.178,16,16v8C280,116.418,283.582,120,288,120z"/>
</g>
<g>
</g>
<g>
</g>
<g>
</g>
<g>
</g>
<g>
</g>
<g>
</g>
<g>
</g>
<g>
</g>
<g>
</g>
<g>
</g>
<g>
</g>
<g>
</g>
<g>
</g>
<g>
</g>
<g>
</g>
</svg>
