<?xml version="1.0" encoding="iso-8859-1"?>
<!-- Generator: Adobe Illustrator 19.0.0, SVG Export Plug-In . SVG Version: 6.00 Build 0)  -->
<svg version="1.1" id="Capa_1" xmlns="http://www.w3.org/2000/svg" xmlns:xlink="http://www.w3.org/1999/xlink" x="0px" y="0px"
	 viewBox="0 0 512 512" style="enable-background:new 0 0 512 512;" xml:space="preserve">
<g>
	<g>
		<path style="fill:#F4F6F7;" d="M480,0H32C14.355,0,0,14.355,0,32v336c0,17.645,14.355,32,32,32h448c17.645,0,32-14.355,32-32V32
			C512,14.355,497.645,0,480,0z"/>
		<path style="fill:#EAECEE;" d="M24,368V32C24,14.355,38.355,0,56,0H32C14.355,0,0,14.355,0,32v336c0,17.645,14.355,32,32,32h24
			C38.355,400,24,385.645,24,368z"/>
		<path style="fill:#808E9B;" d="M296,384h-80c-4.418,0-8,3.582-8,8v112c0,4.418,3.582,8,8,8h80c4.418,0,8-3.582,8-8V392
			C304,387.582,300.418,384,296,384z"/>
		<path style="fill:#6B7B8B;" d="M304,392c0-4.418-3.582-8-8-8h-80c-4.418,0-8,3.582-8,8v24h96V392z"/>
		<g>
			<path style="fill:#808E9B;" d="M480,0H32C14.327,0,0,14.327,0,32v32h512V32C512,14.327,497.673,0,480,0z"/>
			<path style="fill:#6B7B8B;" d="M56,0H32C14.327,0,0,14.327,0,32v32h24V32C24,14.327,38.327,0,56,0z"/>
			<path style="fill:#808E9B;" d="M512,320H0v48c0,17.673,14.327,32,32,32h448c17.673,0,32-14.327,32-32V320z"/>
			<path style="fill:#6B7B8B;" d="M24,368v-48H0v48c0,17.673,14.327,32,32,32h24C38.327,400,24,385.673,24,368z"/>
		</g>
		<path style="fill:#55697A;" d="M320,512H192c-4.418,0-8-3.582-8-8s3.582-8,8-8h128c4.418,0,8,3.582,8,8S324.418,512,320,512z"/>
		<path style="fill:#55697A;" d="M272,368h-32c-4.418,0-8-3.582-8-8s3.582-8,8-8h32c4.418,0,8,3.582,8,8S276.418,368,272,368z"/>
		<circle style="fill:#40566A;" cx="256" cy="32" r="7.5"/>
	</g>
	<g>
		<path style="fill:#FEC7B0;" d="M128.006,272c-2.432,0-4.834-1.105-6.406-3.201c-2.65-3.534-1.935-8.549,1.601-11.2l64-48
			c3.53-2.65,8.547-1.936,11.2,1.6c2.65,3.534,1.935,8.549-1.601,11.2l-64,48C131.361,271.479,129.677,272,128.006,272z"/>
		<path style="fill:#FEC7B0;" d="M287.994,256.002c-1.203,0-2.423-0.272-3.572-0.847l-64-32c-3.951-1.976-5.553-6.781-3.577-10.733
			c1.976-3.953,6.781-5.553,10.733-3.578l64,32c3.951,1.976,5.553,6.781,3.577,10.733
			C293.754,254.381,290.929,256.002,287.994,256.002z"/>
		<path style="fill:#FEC7B0;" d="M319.997,256c-1.906,0-3.819-0.678-5.349-2.054c-3.284-2.956-3.551-8.014-0.595-11.298l72-80
			c2.954-3.284,8.012-3.551,11.298-0.595c3.284,2.956,3.551,8.014,0.595,11.298l-72,80C324.367,255.107,322.187,256,319.997,256z"/>
		<g>
			<path style="fill:#FD8E61;" d="M112,256c-13.233,0-24,10.766-24,24s10.767,24,24,24s24-10.766,24-24S125.233,256,112,256z"/>
			<path style="fill:#FD8E61;" d="M208,184c-13.233,0-24,10.766-24,24s10.767,24,24,24s24-10.766,24-24S221.233,184,208,184z"/>
			<path style="fill:#FD8E61;" d="M304,232c-13.233,0-24,10.766-24,24s10.767,24,24,24s24-10.766,24-24S317.233,232,304,232z"/>
			<path style="fill:#FD8E61;" d="M400,128c-13.233,0-24,10.766-24,24s10.767,24,24,24s24-10.766,24-24S413.233,128,400,128z"/>
		</g>
	</g>
	<path style="fill:#49DFE5;" d="M465.6,236.4c4.418,0,8-3.582,8-8v-5.2c0-12.065-9.103-22.039-20.8-23.428V192c0-4.418-3.582-8-8-8
		s-8,3.582-8,8v8.163c-11.865,2.496-20.8,13.042-20.8,25.637c0,14.447,11.753,26.2,26.2,26.2h5.2c5.624,0,10.199,4.576,10.199,10.2
		c0,5.624-4.575,10.2-10.199,10.2H439.6c-4.19,0-7.6-3.409-7.6-7.6c0-4.418-3.582-8-8-8s-8,3.582-8,8
		c0,12.065,9.103,22.039,20.8,23.428V296c0,4.418,3.582,8,8,8s8-3.582,8-8v-8.163c11.864-2.496,20.8-13.041,20.8-25.637
		c0-14.447-11.753-26.2-26.199-26.2h-5.2c-5.624,0-10.2-4.576-10.2-10.2c0-5.624,4.576-10.2,10.2-10.2h7.8c4.19,0,7.6,3.409,7.6,7.6
		v5.2C457.6,232.818,461.182,236.4,465.6,236.4z"/>
	<path style="fill:#49DFE5;" d="M289.6,132.4c4.418,0,8-3.582,8-8v-5.2c0-12.065-9.103-22.039-20.8-23.428V88c0-4.418-3.582-8-8-8
		s-8,3.582-8,8v8.163C248.935,98.659,240,109.204,240,121.8c0,14.447,11.753,26.2,26.2,26.2h5.2c5.624,0,10.199,4.576,10.199,10.2
		c0,5.624-4.575,10.2-10.199,10.2H263.6c-4.19,0-7.6-3.409-7.6-7.6c0-4.418-3.582-8-8-8s-8,3.582-8,8
		c0,12.065,9.103,22.039,20.8,23.428V192c0,4.418,3.582,8,8,8s8-3.582,8-8v-8.163c11.864-2.496,20.8-13.041,20.8-25.637
		c0-14.447-11.753-26.2-26.199-26.2h-5.2c-5.624,0-10.2-4.576-10.2-10.2c0-5.624,4.576-10.2,10.2-10.2h7.8c4.19,0,7.6,3.409,7.6,7.6
		v5.2C281.6,128.818,285.182,132.4,289.6,132.4z"/>
	<path style="fill:#49DFE5;" d="M89.6,188.4c4.418,0,8-3.582,8-8v-5.2c0-12.065-9.103-22.039-20.8-23.428V144c0-4.418-3.582-8-8-8
		s-8,3.582-8,8v8.163C48.935,154.659,40,165.204,40,177.8c0,14.447,11.753,26.2,26.2,26.2h5.2c5.624,0,10.199,4.576,10.199,10.2
		c0,5.624-4.575,10.2-10.199,10.2H63.6c-4.19,0-7.6-3.409-7.6-7.6c0-4.418-3.582-8-8-8s-8,3.582-8,8
		c0,12.065,9.103,22.039,20.8,23.428V248c0,4.418,3.582,8,8,8s8-3.582,8-8v-8.163c11.864-2.496,20.8-13.041,20.8-25.637
		c0-14.447-11.753-26.2-26.199-26.2h-5.2c-5.624,0-10.2-4.576-10.2-10.2c0-5.624,4.576-10.2,10.2-10.2H74c4.19,0,7.6,3.409,7.6,7.6
		v5.2C81.6,184.818,85.182,188.4,89.6,188.4z"/>
</g>
<g>
</g>
<g>
</g>
<g>
</g>
<g>
</g>
<g>
</g>
<g>
</g>
<g>
</g>
<g>
</g>
<g>
</g>
<g>
</g>
<g>
</g>
<g>
</g>
<g>
</g>
<g>
</g>
<g>
</g>
</svg>
