<?xml version="1.0" encoding="iso-8859-1"?>
<!-- Generator: Adobe Illustrator 19.0.0, SVG Export Plug-In . SVG Version: 6.00 Build 0)  -->
<svg version="1.1" id="Capa_1" xmlns="http://www.w3.org/2000/svg" xmlns:xlink="http://www.w3.org/1999/xlink" x="0px" y="0px"
	 viewBox="0 0 512 512" style="enable-background:new 0 0 512 512;" xml:space="preserve">
<g>
	<path style="fill:#49DFE5;" d="M256,112c-79.402,0-144,64.598-144,144s64.598,144,144,144s144-64.598,144-144S335.402,112,256,112z
		"/>
	<path style="fill:#FD8E61;" d="M256,184c-39.701,0-72,32.299-72,72s32.299,72,72,72s72-32.299,72-72S295.701,184,256,184z"/>
	<g>
		<path style="fill:#FDDD88;" d="M80.338,152.553c-6.216,0-10.057-7.081-6.743-12.293c23.722-37.31,57.723-66.108,98.326-83.282
			c4.067-1.722,8.763,0.183,10.484,4.252c1.721,4.069-0.183,8.763-4.252,10.484c-37.599,15.903-69.085,42.574-91.057,77.131
			C85.572,151.242,82.983,152.553,80.338,152.553z"/>
		<path style="fill:#FDDD88;" d="M175.034,455.657c-1.039,0-2.095-0.204-3.112-0.634c-40.378-17.079-74.252-45.678-97.959-82.707
			c-2.383-3.721-1.297-8.668,2.424-11.051c3.722-2.384,8.668-1.298,11.051,2.424c21.958,34.296,53.327,60.783,90.717,76.597
			c3.349,1.417,5.364,5.043,4.784,8.637C182.32,452.756,178.916,455.657,175.034,455.657z"/>
		<path style="fill:#FDDD88;" d="M335.922,456.094c-3.898,0-7.31-2.925-7.91-6.777c-0.56-3.596,1.474-7.212,4.831-8.61
			c38.429-16.006,70.476-43.161,92.677-78.527c2.351-3.742,7.289-4.872,11.028-2.522c3.742,2.349,4.872,7.287,2.522,11.029
			c-23.97,38.185-58.575,67.505-100.075,84.79C337.989,455.896,336.947,456.094,335.922,456.094z"/>
		<path style="fill:#FDDD88;" d="M431.662,152.554c-2.646,0-5.234-1.311-6.759-3.708c-22.183-34.89-54.017-61.707-92.062-77.553
			c-4.078-1.699-6.008-6.382-4.309-10.461c1.698-4.079,6.383-6.005,10.461-4.309c41.086,17.113,75.462,46.069,99.411,83.738
			C441.72,145.472,437.879,152.554,431.662,152.554z"/>
	</g>
	<path style="fill:#FFFFFF;" d="M276.8,248.4c4.418,0,8-3.582,8-8v-5.2c0-12.065-9.103-22.039-20.8-23.428V208c0-4.418-3.582-8-8-8
		s-8,3.582-8,8v4.163c-11.865,2.496-20.8,13.042-20.8,25.637c0,14.447,11.753,26.2,26.2,26.2h5.199c5.624,0,10.2,4.576,10.2,10.2
		c0,5.624-4.576,10.2-10.2,10.2h-7.8c-4.19,0-7.6-3.409-7.6-7.6c0-4.418-3.582-8-8-8s-8,3.582-8,8
		c0,12.065,9.103,22.039,20.8,23.428V304c0,4.418,3.582,8,8,8s8-3.582,8-8v-4.163c11.865-2.496,20.8-13.042,20.8-25.637
		c0-14.447-11.753-26.2-26.2-26.2H253.4c-5.624,0-10.2-4.576-10.2-10.2c0-5.624,4.576-10.2,10.2-10.2h7.8c4.19,0,7.6,3.409,7.6,7.6
		v5.2C268.8,244.818,272.382,248.4,276.8,248.4z"/>
	<g>
		<path style="fill:#D5D9DE;" d="M279.988,424h-48c-13.233,0-24,10.766-24,24v56c0,4.418,3.582,8,8,8h80c4.418,0,8-3.582,8-8v-56
			C303.988,434.766,293.221,424,279.988,424z"/>
		<path style="fill:#BFC7CD;" d="M223.988,504v-56c0-13.234,10.767-24,24-24h-16c-13.233,0-24,10.766-24,24v56c0,4.418,3.582,8,8,8
			h16C227.57,512,223.988,508.418,223.988,504z"/>
		<path style="fill:#FFDCCE;" d="M255.988,344c-22.056,0-40,17.944-40,40s17.944,40,40,40s40-17.944,40-40S278.044,344,255.988,344z
			"/>
		<path style="fill:#FFCBB6;" d="M231.988,384c0-19.317,13.765-35.479,32-39.195c-2.586-0.527-5.261-0.805-8-0.805
			c-22.056,0-40,17.944-40,40s17.944,40,40,40c2.739,0,5.414-0.278,8-0.805C245.753,419.479,231.988,403.317,231.988,384z"/>
		<path style="fill:#55697A;" d="M255.988,344c-36.359,0-52.276,24.594-55.699,37.819c-0.433,1.673-0.397,3.454,0.233,5.063
			c1.239,3.166,4.234,5.118,7.466,5.118h87.219C300.188,366.454,280.66,344,255.988,344z"/>
	</g>
	<g>
		<path style="fill:#D5D9DE;" d="M488,248h-48c-13.233,0-24,10.766-24,24v56c0,4.418,3.582,8,8,8h80c4.418,0,8-3.582,8-8v-56
			C512,258.766,501.233,248,488,248z"/>
		<path style="fill:#BFC7CD;" d="M432,328v-56c0-13.234,10.767-24,24-24h-16c-13.233,0-24,10.766-24,24v56c0,4.418,3.582,8,8,8h16
			C435.582,336,432,332.418,432,328z"/>
		<path style="fill:#FFDCCE;" d="M464,168c-22.056,0-40,17.944-40,40s17.944,40,40,40s40-17.944,40-40S486.056,168,464,168z"/>
		<path style="fill:#FFCBB6;" d="M440,208c0-19.317,13.765-35.479,32-39.195c-2.586-0.527-5.261-0.805-8-0.805
			c-22.056,0-40,17.944-40,40s17.944,40,40,40c2.739,0,5.414-0.278,8-0.805C453.765,243.479,440,227.317,440,208z"/>
		<path style="fill:#55697A;" d="M464,168c-36.359,0-52.276,24.594-55.699,37.819c-0.433,1.673-0.397,3.454,0.233,5.063
			c1.239,3.166,4.234,5.118,7.466,5.118h87.219C508.2,190.454,488.672,168,464,168z"/>
	</g>
	<g>
		<path style="fill:#D5D9DE;" d="M79.988,257h-48c-13.233,0-24,10.766-24,24v56c0,4.418,3.582,8,8,8h80c4.418,0,8-3.582,8-8v-56
			C103.988,267.766,93.221,257,79.988,257z"/>
		<path style="fill:#BFC7CD;" d="M23.988,337v-56c0-13.234,10.767-24,24-24h-16c-13.233,0-24,10.766-24,24v56c0,4.418,3.582,8,8,8
			h16C27.57,345,23.988,341.418,23.988,337z"/>
		<path style="fill:#FFDCCE;" d="M55.988,177c-22.056,0-40,17.944-40,40s17.944,40,40,40s40-17.944,40-40S78.044,177,55.988,177z"/>
		<path style="fill:#FFCBB6;" d="M31.988,217c0-19.317,13.765-35.479,32-39.195c-2.586-0.527-5.261-0.805-8-0.805
			c-22.056,0-40,17.944-40,40s17.944,40,40,40c2.739,0,5.414-0.278,8-0.805C45.753,252.479,31.988,236.317,31.988,217z"/>
		<path style="fill:#55697A;" d="M55.988,177c-36.359,0-52.276,24.594-55.699,37.819c-0.433,1.673-0.397,3.454,0.233,5.063
			C1.761,223.047,4.756,225,7.988,225h87.219C100.188,199.454,80.66,177,55.988,177z"/>
	</g>
	<g>
		<path style="fill:#D5D9DE;" d="M280,80h-48c-13.233,0-24,10.766-24,24v56c0,4.418,3.582,8,8,8h80c4.418,0,8-3.582,8-8v-56
			C304,90.766,293.233,80,280,80z"/>
		<path style="fill:#BFC7CD;" d="M224,160v-56c0-13.234,10.767-24,24-24h-16c-13.233,0-24,10.766-24,24v56c0,4.418,3.582,8,8,8h16
			C227.582,168,224,164.418,224,160z"/>
		<path style="fill:#FFDCCE;" d="M256,0c-22.056,0-40,17.944-40,40s17.944,40,40,40s40-17.944,40-40S278.056,0,256,0z"/>
		<path style="fill:#FFCBB6;" d="M232,40c0-19.317,13.765-35.479,32-39.195C261.414,0.278,258.739,0,256,0
			c-22.056,0-40,17.944-40,40s17.944,40,40,40c2.739,0,5.414-0.278,8-0.805C245.765,75.479,232,59.317,232,40z"/>
		<path style="fill:#55697A;" d="M256,0c-36.359,0-52.276,24.594-55.699,37.819c-0.433,1.673-0.397,3.454,0.233,5.063
			C201.773,46.047,204.768,48,208,48l87.219,0C300.2,22.454,280.672,0,256,0z"/>
	</g>
</g>
<g>
</g>
<g>
</g>
<g>
</g>
<g>
</g>
<g>
</g>
<g>
</g>
<g>
</g>
<g>
</g>
<g>
</g>
<g>
</g>
<g>
</g>
<g>
</g>
<g>
</g>
<g>
</g>
<g>
</g>
</svg>
