<?xml version="1.0" encoding="iso-8859-1"?>
<!-- Generator: Adobe Illustrator 19.0.0, SVG Export Plug-In . SVG Version: 6.00 Build 0)  -->
<svg version="1.1" id="Capa_1" xmlns="http://www.w3.org/2000/svg" xmlns:xlink="http://www.w3.org/1999/xlink" x="0px" y="0px"
	 viewBox="0 0 512 512" style="enable-background:new 0 0 512 512;" xml:space="preserve">
<g>
	<g>
		<path style="fill:#F4F6F7;" d="M400,360V104c0-4.418-3.582-8-8-8H8c-4.418,0-8,3.582-8,8v256c0,30.928,25.072,56,56,56h400
			C425.072,416,400,390.928,400,360z"/>
		<path style="fill:#EAECEE;" d="M72,400c-30.928,0-56-25.072-56-56V96H8c-4.418,0-8,3.582-8,8v256c0,30.928,25.072,56,56,56h400
			c-15.254,0-29.077-6.107-39.176-16H72z"/>
		<path style="fill:#FD8E61;" d="M400,248H0V104c0-4.418,3.582-8,8-8h384c4.418,0,8,3.582,8,8V248z"/>
		<path style="fill:#FD7239;" d="M24,96H8c-4.418,0-8,3.582-8,8v144h16V104C16,99.582,19.582,96,24,96z"/>
		<path style="fill:#D5D9DE;" d="M480,144h-80v216c0,30.928,25.072,56,56,56s56-25.072,56-56V176C512,158.327,497.673,144,480,144z"
			/>
		<g>
			<path style="fill:#EAECEE;" d="M448,176c0-17.673,14.327-32,32-32h-80v184h40c4.418,0,8-3.582,8-8V176z"/>
		</g>
	</g>
	<g>
		<path style="fill:#FFFFFF;" d="M344,164.4c4.418,0,8-3.582,8-8v-5.2c0-12.066-9.103-22.039-20.8-23.429V120c0-4.418-3.582-8-8-8
			s-8,3.582-8,8v8.162c-11.865,2.496-20.8,13.042-20.8,25.638c0,14.447,11.753,26.2,26.2,26.2h5.2c5.625,0,10.2,4.576,10.2,10.2
			s-4.576,10.2-10.2,10.2H318c-4.191,0-7.6-3.409-7.6-7.601c0-4.418-3.582-8-8-8s-8,3.582-8,8c0,12.066,9.103,22.039,20.8,23.429
			V224c0,4.418,3.582,8,8,8s8-3.582,8-8v-8.162c11.864-2.496,20.8-13.042,20.8-25.638c0-14.447-11.753-26.2-26.2-26.2h-5.2
			c-5.625,0-10.2-4.576-10.2-10.2s4.576-10.2,10.2-10.2h7.8c4.191,0,7.6,3.409,7.6,7.601v5.2C336,160.818,339.582,164.4,344,164.4z"
			/>
		<path style="fill:#FFFFFF;" d="M104,216.001c-2.625,0-5.146-1.296-6.657-3.563L64,162.422V208c0,4.418-3.582,8-8,8s-8-3.582-8-8
			v-72c0-3.525,2.308-6.635,5.682-7.656c3.375-1.024,7.02,0.285,8.975,3.219L96,181.578V136c0-4.418,3.582-8,8-8s8,3.582,8,8v72
			c0,3.525-2.308,6.635-5.682,7.656C105.552,215.889,104.771,216.001,104,216.001z"/>
		<path style="fill:#FFFFFF;" d="M176,200h-32v-24h24c4.418,0,8-3.582,8-8s-3.582-8-8-8h-24v-16h32c4.418,0,8-3.582,8-8
			s-3.582-8-8-8h-40c-4.418,0-8,3.582-8,8v72c0,4.418,3.582,8,8,8h40c4.418,0,8-3.582,8-8S180.418,200,176,200z"/>
		<path style="fill:#FFFFFF;" d="M263.996,216c-3.16,0-6.075-1.876-7.349-4.849L240,172.309l-16.647,38.843
			c-1.431,3.34-4.93,5.287-8.526,4.763c-3.593-0.533-6.377-3.42-6.778-7.03l-8-72c-0.488-4.392,2.676-8.347,7.068-8.835
			c4.392-0.486,8.347,2.677,8.834,7.067l4.649,41.842l12.047-28.109C233.907,145.907,236.8,144,240,144s6.093,1.907,7.353,4.849
			l12.047,28.109l4.649-41.842c0.488-4.391,4.445-7.555,8.834-7.067c4.392,0.488,7.556,4.443,7.068,8.835l-8,72
			c-0.401,3.61-3.185,6.497-6.778,7.03C264.778,215.972,264.386,216,263.996,216z"/>
	</g>
	<g>
		<path style="fill:#AAB4BD;" d="M160,296H56c-4.418,0-8-3.582-8-8s3.582-8,8-8h104c4.418,0,8,3.582,8,8S164.418,296,160,296z"/>
		<path style="fill:#AAB4BD;" d="M344,296H208c-4.418,0-8-3.582-8-8s3.582-8,8-8h136c4.418,0,8,3.582,8,8S348.418,296,344,296z"/>
		<path style="fill:#AAB4BD;" d="M104,336H56c-4.418,0-8-3.582-8-8s3.582-8,8-8h48c4.418,0,8,3.582,8,8S108.418,336,104,336z"/>
		<path style="fill:#AAB4BD;" d="M160,376H56c-4.418,0-8-3.582-8-8s3.582-8,8-8h104c4.418,0,8,3.582,8,8S164.418,376,160,376z"/>
		<path style="fill:#AAB4BD;" d="M160,336h-24c-4.418,0-8-3.582-8-8s3.582-8,8-8h24c4.418,0,8,3.582,8,8S164.418,336,160,336z"/>
		<path style="fill:#AAB4BD;" d="M264,336h-56c-4.418,0-8-3.582-8-8s3.582-8,8-8h56c4.418,0,8,3.582,8,8S268.418,336,264,336z"/>
		<path style="fill:#AAB4BD;" d="M344,336h-48c-4.418,0-8-3.582-8-8s3.582-8,8-8h48c4.418,0,8,3.582,8,8S348.418,336,344,336z"/>
		<path style="fill:#AAB4BD;" d="M296,376h-88c-4.418,0-8-3.582-8-8s3.582-8,8-8h88c4.418,0,8,3.582,8,8S300.418,376,296,376z"/>
		<path style="fill:#AAB4BD;" d="M344,376h-16c-4.418,0-8-3.582-8-8s3.582-8,8-8h16c4.418,0,8,3.582,8,8S348.418,376,344,376z"/>
	</g>
</g>
<g>
</g>
<g>
</g>
<g>
</g>
<g>
</g>
<g>
</g>
<g>
</g>
<g>
</g>
<g>
</g>
<g>
</g>
<g>
</g>
<g>
</g>
<g>
</g>
<g>
</g>
<g>
</g>
<g>
</g>
</svg>
