<?xml version="1.0" encoding="iso-8859-1"?>
<!-- Generator: Adobe Illustrator 19.0.0, SVG Export Plug-In . SVG Version: 6.00 Build 0)  -->
<svg version="1.1" id="Capa_1" xmlns="http://www.w3.org/2000/svg" xmlns:xlink="http://www.w3.org/1999/xlink" x="0px" y="0px"
	 viewBox="0 0 512 512" style="enable-background:new 0 0 512 512;" xml:space="preserve">
<g>
	<path style="fill:#76E7EB;" d="M64,192C64,85.961,149.961,0,256,0s192,85.961,192,192c0,128-153.129,278.202-185.882,317.149
		c-3.197,3.802-9.039,3.802-12.236,0C217.129,470.202,64,320,64,192z"/>
	<path style="fill:#1BD7DE;" d="M96,184C96,99.862,150.124,28.374,225.452,2.429C133.934,17.063,64,96.359,64,192
		c0,128,153.129,278.202,185.882,317.148c3.197,3.802,9.039,3.802,12.236,0c3.334-3.965,7.933-9.1,13.474-15.23
		C233.115,446.125,96,305.13,96,184z"/>
	<path style="fill:#F4F6F7;" d="M256,32c-88.225,0-160,71.775-160,160s71.775,160,160,160s160-71.775,160-160S344.225,32,256,32z"/>
	<path style="fill:#FFFFFF;" d="M256,48c-79.402,0-144,64.598-144,144s64.598,144,144,144s144-64.598,144-144S335.402,48,256,48z"/>
	<path style="fill:#FCD56A;" d="M304,168c6.627,0,12-5.373,12-12v-12c0-26.467-21.533-48-48-48V76c0-6.627-5.373-12-12-12
		s-12,5.373-12,12v20.341c-26.961,2.995-48,25.912-48,53.659c0,29.776,24.224,54,54,54h12c16.542,0,30,13.458,30,30
		s-13.458,30-30,30h-18c-13.234,0-24-10.766-24-24c0-6.627-5.373-12-12-12s-12,5.373-12,12c0,26.467,21.533,48,48,48v20
		c0,6.627,5.373,12,12,12s12-5.373,12-12v-20.341c26.961-2.995,48-25.912,48-53.659c0-29.776-24.224-54-54-54h-12
		c-16.542,0-30-13.458-30-30s13.458-30,30-30h18c13.234,0,24,10.766,24,24v12C292,162.627,297.373,168,304,168z"/>
</g>
<g>
</g>
<g>
</g>
<g>
</g>
<g>
</g>
<g>
</g>
<g>
</g>
<g>
</g>
<g>
</g>
<g>
</g>
<g>
</g>
<g>
</g>
<g>
</g>
<g>
</g>
<g>
</g>
<g>
</g>
</svg>
