<?xml version="1.0" encoding="iso-8859-1"?>
<!-- Generator: Adobe Illustrator 19.0.0, SVG Export Plug-In . SVG Version: 6.00 Build 0)  -->
<svg version="1.1" id="Capa_1" xmlns="http://www.w3.org/2000/svg" xmlns:xlink="http://www.w3.org/1999/xlink" x="0px" y="0px"
	 viewBox="0 0 512 512" style="enable-background:new 0 0 512 512;" xml:space="preserve">
<g>
	<g>
		<g>
			<path style="fill:#FD7239;" d="M480,56H40C17.909,56,0,73.909,0,96c0,0.446,0.007,9.369,0.022,24L7,184h336l145-24V64
				C488,59.582,484.418,56,480,56z"/>
			<path style="fill:#D5D9DE;" d="M440,88H48c-4.418,0-8,3.582-8,8v152c0,4.418,3.582,8,8,8h392c4.418,0,8-3.582,8-8V96
				C448,91.582,444.418,88,440,88z"/>
			<path style="fill:#EAECEE;" d="M440,120H48c-4.418,0-8,3.582-8,8v152c0,4.418,3.582,8,8,8h392c4.418,0,8-3.582,8-8V128
				C448,123.582,444.418,120,440,120z"/>
			<path style="fill:#FE9C74;" d="M480,152H40c-19.351,0-35.492-13.742-39.198-32h-0.78c0.075,75.283,0.34,301.836,0.78,304
				C4.508,442.258,20.649,456,40,456h440c4.418,0,8-3.582,8-8V160C488,155.582,484.418,152,480,152z"/>
			<path style="fill:#FD8E61;" d="M64,440c-19.351,0-35.492-13.742-39.198-32c-0.397-1.958-0.653-175.294-0.753-259.317
				C12.259,143.549,3.422,132.906,0.802,120H0c0,0,0.277,301.415,0.802,304C4.508,442.258,20.649,456,40,456h440
				c4.418,0,8-3.582,8-8v-8H64z"/>
		</g>
		<g>
			<path style="fill:#FEC7B0;" d="M52,192h-4c-4.418,0-8-3.582-8-8s3.582-8,8-8h4c4.418,0,8,3.582,8,8S56.418,192,52,192z"/>
			<path style="fill:#FEC7B0;" d="M412,192h-8c-4.418,0-8-3.582-8-8s3.582-8,8-8h8c4.418,0,8,3.582,8,8S416.418,192,412,192z
				 M372,192h-8c-4.418,0-8-3.582-8-8s3.582-8,8-8h8c4.418,0,8,3.582,8,8S376.418,192,372,192z M332,192h-8c-4.418,0-8-3.582-8-8
				s3.582-8,8-8h8c4.418,0,8,3.582,8,8S336.418,192,332,192z M292,192h-8c-4.418,0-8-3.582-8-8s3.582-8,8-8h8c4.418,0,8,3.582,8,8
				S296.418,192,292,192z M252,192h-8c-4.418,0-8-3.582-8-8s3.582-8,8-8h8c4.418,0,8,3.582,8,8S256.418,192,252,192z M212,192h-8
				c-4.418,0-8-3.582-8-8s3.582-8,8-8h8c4.418,0,8,3.582,8,8S216.418,192,212,192z M172,192h-8c-4.418,0-8-3.582-8-8s3.582-8,8-8h8
				c4.418,0,8,3.582,8,8S176.418,192,172,192z M132,192h-8c-4.418,0-8-3.582-8-8s3.582-8,8-8h8c4.418,0,8,3.582,8,8
				S136.418,192,132,192z M92,192h-8c-4.418,0-8-3.582-8-8s3.582-8,8-8h8c4.418,0,8,3.582,8,8S96.418,192,92,192z"/>
			<path style="fill:#FEC7B0;" d="M448,196c-3.244,0-6.038-1.932-7.293-4.707C437.932,190.038,436,187.244,436,184
				c0-4.418,3.582-8,8-8h4c4.418,0,8,3.582,8,8v4C456,192.418,452.418,196,448,196z"/>
			<path style="fill:#FEC7B0;" d="M448,396c-4.418,0-8-3.582-8-8v-8c0-4.418,3.582-8,8-8s8,3.582,8,8v8
				C456,392.418,452.418,396,448,396z M448,356c-4.418,0-8-3.582-8-8v-8c0-4.418,3.582-8,8-8s8,3.582,8,8v8
				C456,352.418,452.418,356,448,356z M448,316c-4.418,0-8-3.582-8-8v-8c0-4.418,3.582-8,8-8s8,3.582,8,8v8
				C456,312.418,452.418,316,448,316z M448,276c-4.418,0-8-3.582-8-8v-8c0-4.418,3.582-8,8-8s8,3.582,8,8v8
				C456,272.418,452.418,276,448,276z M448,236c-4.418,0-8-3.582-8-8v-8c0-4.418,3.582-8,8-8s8,3.582,8,8v8
				C456,232.418,452.418,236,448,236z"/>
			<path style="fill:#FEC7B0;" d="M448,432h-4c-4.418,0-8-3.582-8-8c0-3.244,1.932-6.038,4.707-7.293
				c1.255-2.775,4.049-4.707,7.293-4.707c4.418,0,8,3.582,8,8v4C456,428.418,452.418,432,448,432z"/>
			<path style="fill:#FEC7B0;" d="M412,432h-8c-4.418,0-8-3.582-8-8s3.582-8,8-8h8c4.418,0,8,3.582,8,8S416.418,432,412,432z
				 M372,432h-8c-4.418,0-8-3.582-8-8s3.582-8,8-8h8c4.418,0,8,3.582,8,8S376.418,432,372,432z M332,432h-8c-4.418,0-8-3.582-8-8
				s3.582-8,8-8h8c4.418,0,8,3.582,8,8S336.418,432,332,432z M292,432h-8c-4.418,0-8-3.582-8-8s3.582-8,8-8h8c4.418,0,8,3.582,8,8
				S296.418,432,292,432z M252,432h-8c-4.418,0-8-3.582-8-8s3.582-8,8-8h8c4.418,0,8,3.582,8,8S256.418,432,252,432z M212,432h-8
				c-4.418,0-8-3.582-8-8s3.582-8,8-8h8c4.418,0,8,3.582,8,8S216.418,432,212,432z M172,432h-8c-4.418,0-8-3.582-8-8s3.582-8,8-8h8
				c4.418,0,8,3.582,8,8S176.418,432,172,432z M132,432h-8c-4.418,0-8-3.582-8-8s3.582-8,8-8h8c4.418,0,8,3.582,8,8
				S136.418,432,132,432z M92,432h-8c-4.418,0-8-3.582-8-8s3.582-8,8-8h8c4.418,0,8,3.582,8,8S96.418,432,92,432z"/>
			<path style="fill:#FEC7B0;" d="M52,432h-4c-4.418,0-8-3.582-8-8s3.582-8,8-8h4c4.418,0,8,3.582,8,8S56.418,432,52,432z"/>
		</g>
	</g>
	<path style="fill:#76E7EB;" d="M504,232h-80c-26.468,0-48,21.532-48,48v16c0,26.468,21.532,48,48,48h80c4.418,0,8-3.582,8-8v-96
		C512,235.582,508.418,232,504,232z"/>
	<path style="fill:#1BD7DE;" d="M448,328c-26.468,0-48-21.532-48-48v-16c0-11.388,3.994-21.856,10.644-30.095
		C390.657,239.705,376,258.167,376,280v16c0,26.468,21.532,48,48,48h80c4.418,0,8-3.582,8-8v-8H448z"/>
	<path style="fill:#55697A;" d="M432,264c-13.233,0-24,10.767-24,24s10.767,24,24,24s24-10.767,24-24S445.233,264,432,264z"/>
	<path style="fill:#FFFFFF;" d="M264,291c4.418,0,8-3.582,8-8v-8c0-17.645-14.355-32-32-32v-16c0-4.418-3.582-8-8-8s-8,3.582-8,8
		v16.228c-17.974,1.997-32,17.274-32,35.772c0,19.851,16.149,36,36,36h8c11.028,0,20,8.972,20,20s-8.972,20-20,20h-12
		c-8.822,0-16-7.178-16-16c0-4.418-3.582-8-8-8s-8,3.582-8,8c0,17.645,14.355,32,32,32v16c0,4.418,3.582,8,8,8s8-3.582,8-8v-16.228
		c17.974-1.997,32-17.274,32-35.772c0-19.851-16.149-36-36-36h-8c-11.028,0-20-8.972-20-20s8.972-20,20-20h12
		c8.822,0,16,7.178,16,16v8C256,287.418,259.582,291,264,291z"/>
</g>
<g>
</g>
<g>
</g>
<g>
</g>
<g>
</g>
<g>
</g>
<g>
</g>
<g>
</g>
<g>
</g>
<g>
</g>
<g>
</g>
<g>
</g>
<g>
</g>
<g>
</g>
<g>
</g>
<g>
</g>
</svg>
