<?xml version="1.0" encoding="iso-8859-1"?>
<!-- Generator: Adobe Illustrator 19.0.0, SVG Export Plug-In . SVG Version: 6.00 Build 0)  -->
<svg version="1.1" id="Capa_1" xmlns="http://www.w3.org/2000/svg" xmlns:xlink="http://www.w3.org/1999/xlink" x="0px" y="0px"
	 viewBox="0 0 513.333 513.333" style="enable-background:new 0 0 513.333 513.333;" xml:space="preserve">
<g>
	<g>
		<path style="fill:#76E7EB;" d="M392.667,0c-66.168,0-120,53.832-120,120c0,64.064,109.259,193.061,113.91,198.521
			c3.145,3.693,9.034,3.693,12.18,0c4.651-5.46,113.91-134.456,113.91-198.521C512.667,53.832,458.835,0,392.667,0z"/>
		<path style="fill:#1BD7DE;" d="M296.667,113.333c0-50.662,31.558-94.092,76.048-111.665C316.01,11.198,272.667,60.629,272.667,120
			c0,64.064,109.259,193.061,113.91,198.521c3.145,3.693,9.034,3.693,12.18,0c0.708-0.831,3.852-4.54,8.655-10.434
			C388.675,285.592,296.667,172.127,296.667,113.333z"/>
		<path style="fill:#EAECEE;" d="M392.667,32c-48.523,0-88,39.477-88,88s39.477,88,88,88s88-39.477,88-88S441.19,32,392.667,32z"/>
		<path style="fill:#F4F6F7;" d="M392.667,48c-39.701,0-72,32.299-72,72s32.299,72,72,72s72-32.299,72-72S432.368,48,392.667,48z"/>
		<path style="fill:#FCD56A;" d="M413.466,112.399c4.418,0,8-3.582,8-8v-5.2c0-12.065-9.103-22.038-20.8-23.428V68
			c0-4.418-3.582-8-8-8s-8,3.582-8,8v8.162c-11.865,2.496-20.8,13.042-20.8,25.638c0,14.447,11.753,26.2,26.2,26.2h5.199
			c5.624,0,10.2,4.575,10.2,10.199s-4.576,10.2-10.2,10.2h-7.8c-4.19,0-7.6-3.409-7.6-7.6c0-4.418-3.582-8-8-8s-8,3.582-8,8
			c0,12.065,9.103,22.038,20.8,23.428V172c0,4.418,3.582,8,8,8s8-3.582,8-8v-8.163c11.865-2.496,20.8-13.042,20.8-25.638
			c0-14.446-11.753-26.199-26.2-26.199h-5.199c-5.624,0-10.2-4.576-10.2-10.2s4.576-10.2,10.2-10.2h7.8c4.19,0,7.6,3.409,7.6,7.6
			v5.2C405.466,108.817,409.048,112.399,413.466,112.399z"/>
	</g>
	<g>
		<path style="fill:#FD8E61;" d="M206.544,363.907l-96-104c-3.119-3.382-8.637-3.382-11.756,0l-96,104
			c-2.156,2.334-2.725,5.724-1.45,8.635c1.274,2.91,4.15,4.791,7.328,4.791h192c3.178,0,6.054-1.881,7.328-4.791
			C209.269,369.631,208.701,366.241,206.544,363.907z"/>
		<path style="fill:#FD7239;" d="M25.338,372.542c-1.274-2.911-0.706-6.301,1.45-8.635l89.878-97.368l-6.122-6.632
			c-3.119-3.382-8.637-3.382-11.756,0l-96,104c-2.156,2.334-2.725,5.724-1.45,8.635c1.274,2.91,4.15,4.791,7.328,4.791h24
			C29.489,377.333,26.613,375.452,25.338,372.542z"/>
		<path style="fill:#FDDD88;" d="M200.667,361.333h-192c-4.418,0-8,3.582-8,8v136c0,4.418,3.582,8,8,8h192c4.418,0,8-3.582,8-8v-136
			C208.667,364.915,205.085,361.333,200.667,361.333z"/>
		<path style="fill:#FCD56A;" d="M24.667,505.333v-136c0-4.418,3.582-8,8-8h-24c-4.418,0-8,3.582-8,8v136c0,4.418,3.582,8,8,8h24
			C28.249,513.333,24.667,509.751,24.667,505.333z"/>
		<path style="fill:#55697A;" d="M128.667,409.333h-48c-4.418,0-8,3.582-8,8v96h64v-96
			C136.667,412.915,133.085,409.333,128.667,409.333z"/>
	</g>
	<path style="fill:#AAB4BD;" d="M406.365,513.333h-8c-4.418,0-8-3.582-8-8s3.582-8,8-8h8c4.418,0,8,3.582,8,8
		S410.783,513.333,406.365,513.333z M366.365,513.333h-8c-4.418,0-8-3.582-8-8s3.582-8,8-8h8c4.418,0,8,3.582,8,8
		S370.783,513.333,366.365,513.333z M326.365,513.333h-8c-4.418,0-8-3.582-8-8s3.582-8,8-8h8c4.418,0,8,3.582,8,8
		S330.783,513.333,326.365,513.333z M286.365,513.333h-8c-4.418,0-8-3.582-8-8s3.582-8,8-8h8c4.418,0,8,3.582,8,8
		S290.783,513.333,286.365,513.333z M246.365,513.333h-8c-4.418,0-8-3.582-8-8s3.582-8,8-8h8c4.418,0,8,3.582,8,8
		S250.783,513.333,246.365,513.333z M438.339,513.001c-4,0-7.455-2.994-7.936-7.064c-0.517-4.388,2.621-8.364,7.009-8.882
		c2.201-0.26,4.394-0.706,6.516-1.327c4.238-1.241,8.685,1.188,9.926,5.43c1.241,4.24-1.189,8.685-5.43,9.926
		c-2.978,0.871-6.052,1.498-9.139,1.862C438.968,512.982,438.652,513.001,438.339,513.001z M471.753,493.19
		c-1.608,0-3.233-0.484-4.643-1.49c-3.596-2.568-4.429-7.564-1.861-11.16c1.291-1.807,2.436-3.731,3.403-5.72
		c1.935-3.973,6.721-5.626,10.695-3.691c3.973,1.935,5.625,6.723,3.691,10.695c-1.357,2.787-2.962,5.483-4.769,8.015
		C476.71,492.025,474.25,493.19,471.753,493.19z M479.574,455.14c-3.686,0-7.001-2.563-7.812-6.312
		c-0.468-2.164-1.122-4.303-1.944-6.354c-1.643-4.102,0.351-8.759,4.452-10.401c4.106-1.646,8.76,0.352,10.401,4.452
		c1.154,2.883,2.072,5.885,2.729,8.923c0.934,4.318-1.81,8.576-6.129,9.51C480.703,455.08,480.133,455.14,479.574,455.14z
		 M456.671,423.763c-1.36,0-2.739-0.347-4.002-1.078c-1.915-1.109-3.939-2.065-6.016-2.841c-4.139-1.545-6.241-6.154-4.695-10.293
		s6.152-6.242,10.293-4.695c2.903,1.084,5.779,2.386,8.438,3.983c1.974,1.186,3.388,3.099,3.838,5.372
		C465.491,419.082,461.64,423.763,456.671,423.763z M417.813,417.333h-8c-4.418,0-8-3.582-8-8s3.582-8,8-8h8c4.418,0,8,3.582,8,8
		S422.231,417.333,417.813,417.333z M377.813,417.333h-8c-4.418,0-8-3.582-8-8s3.582-8,8-8h8c4.418,0,8,3.582,8,8
		S382.231,417.333,377.813,417.333z M337.813,417.333h-1.146c-2.667-0.001-5.343-0.19-7.956-0.563
		c-4.374-0.622-7.416-4.673-6.793-9.047c0.622-4.374,4.676-7.419,9.047-6.793c1.872,0.266,3.792,0.401,5.705,0.402h1.144
		c4.418,0,8,3.582,8,8S342.231,417.333,337.813,417.333z M301.929,402.458c-2.11,0-4.218-0.83-5.79-2.479
		c-2.142-2.245-4.109-4.685-5.85-7.25c-2.479-3.657-1.525-8.632,2.131-11.111c3.654-2.479,8.632-1.525,11.111,2.131
		c1.244,1.835,2.652,3.58,4.186,5.188c3.049,3.196,2.93,8.261-0.268,11.311C305.901,401.725,303.914,402.458,301.929,402.458z
		 M288.793,365.91c-0.188,0-0.379-0.006-0.571-0.02c-4.407-0.312-7.728-4.137-7.417-8.544c0.22-3.103,0.699-6.201,1.426-9.21
		c1.039-4.294,5.364-6.932,9.656-5.896c4.294,1.038,6.935,5.361,5.896,9.656c-0.519,2.146-0.861,4.358-1.018,6.577
		C296.468,362.688,292.956,365.91,288.793,365.91z M306.999,331.602c-2.368,0-4.713-1.046-6.292-3.052
		c-2.732-3.471-2.134-8.501,1.338-11.234c2.439-1.921,5.056-3.649,7.775-5.137c3.876-2.12,8.737-0.698,10.857,3.178
		c2.121,3.876,0.698,8.737-3.178,10.857c-1.943,1.063-3.813,2.3-5.559,3.674C310.475,331.042,308.73,331.602,306.999,331.602z
		 M352.667,321.333h-8c-4.418,0-8-3.582-8-8s3.582-8,8-8h8c4.418,0,8,3.582,8,8S357.085,321.333,352.667,321.333z"/>
</g>
<g>
</g>
<g>
</g>
<g>
</g>
<g>
</g>
<g>
</g>
<g>
</g>
<g>
</g>
<g>
</g>
<g>
</g>
<g>
</g>
<g>
</g>
<g>
</g>
<g>
</g>
<g>
</g>
<g>
</g>
</svg>
