<?xml version="1.0" encoding="iso-8859-1"?>
<!-- Generator: Adobe Illustrator 19.0.0, SVG Export Plug-In . SVG Version: 6.00 Build 0)  -->
<svg version="1.1" id="Capa_1" xmlns="http://www.w3.org/2000/svg" xmlns:xlink="http://www.w3.org/1999/xlink" x="0px" y="0px"
	 viewBox="0 0 512 512" style="enable-background:new 0 0 512 512;" xml:space="preserve">
<g>
	<g>
		<path style="fill:#FFCBB6;" d="M328.951,412.545c0,0,44.056-53.385,66.623-77.598c12.049-12.929,17.682-30.275,7.396-44.646
			c-10.286-14.371-32.51-20.243-44.646-7.396c-23.124,24.478-77.372,89.64-77.372,89.64"/>
		<path style="fill:#FDE6A6;" d="M377.618,412.545c0,0,44.056-53.385,66.623-77.598c12.049-12.929,17.682-30.275,7.396-44.646
			c-10.286-14.371-32.51-20.243-44.646-7.396c-23.124,24.478-77.372,89.64-77.372,89.64"/>
		<path style="fill:#FFDCCE;" d="M377.618,412.545c0,0,44.056-53.385,66.623-77.598c12.049-12.929,17.682-30.275,7.396-44.646
			c-10.286-14.371-32.51-20.243-44.646-7.396c-23.124,24.478-77.372,89.64-77.372,89.64"/>
		<path style="fill:#FFEEE7;" d="M506.636,287.301c-10.287-14.371-32.51-20.243-44.646-7.396
			c-23.124,24.478-77.372,89.64-77.372,89.64l-29.663-0.057c-2.696-10.332-10.493-18.953-21.436-22.368
			c0,0-132.9-57.313-188.9-57.313c-88,0-144.618,0-144.618,0v79v16.738v40.262h117.387c2.133,0,4.244,0.295,6.209,1.123
			l138.849,58.397c6.457,2.719,13.78,2.448,20.046-0.686l150.127-75.08c0,0,44.057-53.393,66.623-77.606
			C511.29,319.026,516.923,301.671,506.636,287.301z"/>
		<path style="fill:#FFDCCE;" d="M506.636,287.3c-0.944-1.318-1.99-2.564-3.117-3.731c-29.535,37.784-86.901,109.975-86.901,109.975
			l-144,64.738l-152-64H0v31.262h117.387c2.133,0,4.244,0.426,6.209,1.254l138.849,58.463c6.457,2.719,13.78,2.48,20.047-0.653
			l150.127-75.063c0,0,44.056-53.385,66.623-77.598c3.161-3.392,6.838-9.147,10.339-15.997
			C513.276,306.442,513.07,296.289,506.636,287.3z"/>
		<path style="fill:#FFDCCE;" d="M314.453,384.083l-81.835-22.539v24l81.835,22.539c16.871,5.265,34.815-4.144,40.08-21.015
			c2.296-7.357,1.8-14.918-0.887-21.543C347.476,380.834,330.484,389.086,314.453,384.083z"/>
	</g>
	<g>
		<path style="fill:#76E7EB;" d="M391.539,174.13c-1.133-3.191-4.152-5.323-7.539-5.323h-40v-136c0-4.418-3.582-8-8-8H176
			c-4.418,0-8,3.582-8,8v136h-40c-3.298,0-6.33,2.101-7.488,5.188c-1.195,3.184-0.197,6.875,2.443,9.021l128,104
			c2.903,2.359,7.186,2.359,10.09,0l128-104C391.673,180.88,392.672,177.322,391.539,174.13z"/>
		<path style="fill:#1BD7DE;" d="M192,200.807v-168c0-4.418,3.582-8,8-8h-24c-4.418,0-8,3.582-8,8v136h-40
			c-3.298,0-6.33,2.101-7.488,5.188c-1.195,3.184-0.197,6.875,2.443,9.021l128,104c2.903,2.359,7.187,2.359,10.09,0l17.436-14.167
			L192,200.807z"/>
		<path style="fill:#FFFFFF;" d="M288,128.807c4.418,0,8-3.582,8-8v-8c0-17.645-14.355-32-32-32v-16c0-4.418-3.582-8-8-8
			s-8,3.582-8,8v16.228c-17.974,1.997-32,17.274-32,35.772c0,19.851,16.149,36,36,36h8c11.028,0,20,8.972,20,20s-8.972,20-20,20h-12
			c-8.822,0-16-7.178-16-16c0-4.418-3.582-8-8-8s-8,3.582-8,8c0,17.645,14.355,32,32,32v16c0,4.418,3.582,8,8,8s8-3.582,8-8v-16.228
			c17.974-1.997,32-17.274,32-35.772c0-19.851-16.149-36-36-36h-8c-11.028,0-20-8.972-20-20s8.972-20,20-20h12
			c8.822,0,16,7.178,16,16v8C280,125.225,283.582,128.807,288,128.807z"/>
	</g>
</g>
<g>
</g>
<g>
</g>
<g>
</g>
<g>
</g>
<g>
</g>
<g>
</g>
<g>
</g>
<g>
</g>
<g>
</g>
<g>
</g>
<g>
</g>
<g>
</g>
<g>
</g>
<g>
</g>
<g>
</g>
</svg>
