<?xml version="1.0" encoding="iso-8859-1"?>
<!-- Generator: Adobe Illustrator 19.0.0, SVG Export Plug-In . SVG Version: 6.00 Build 0)  -->
<svg version="1.1" id="Capa_1" xmlns="http://www.w3.org/2000/svg" xmlns:xlink="http://www.w3.org/1999/xlink" x="0px" y="0px"
	 viewBox="0 0 512 512" style="enable-background:new 0 0 512 512;" xml:space="preserve">
<g>
	<g>
		<path style="fill:#FDE6A6;" d="M138,324c-51.832,0-94,42.168-94,94s42.168,94,94,94s94-42.168,94-94S189.832,324,138,324z"/>
		<path style="fill:#FCD56A;" d="M138,344c-40.804,0-74,33.196-74,74s33.196,74,74,74s74-33.196,74-74S178.804,344,138,344z"/>
		<path style="fill:#FFFFFF;" d="M158.8,410.4c4.418,0,8-3.582,8-8v-5.2c0-12.066-9.103-22.039-20.8-23.429V366c0-4.418-3.582-8-8-8
			s-8,3.582-8,8v8.162c-11.864,2.496-20.8,13.042-20.8,25.638c0,14.447,11.753,26.2,26.2,26.2h5.2c5.624,0,10.2,4.576,10.2,10.2
			s-4.576,10.2-10.2,10.2h-7.8c-4.19,0-7.6-3.409-7.6-7.601c0-4.418-3.582-8-8-8s-8,3.582-8,8c0,12.066,9.103,22.039,20.8,23.429
			V470c0,4.418,3.582,8,8,8s8-3.582,8-8v-8.162c11.864-2.496,20.8-13.042,20.8-25.638c0-14.447-11.753-26.2-26.2-26.2h-5.2
			c-5.624,0-10.2-4.576-10.2-10.2s4.576-10.2,10.2-10.2h7.8c4.19,0,7.6,3.409,7.6,7.601v5.2
			C150.8,406.818,154.381,410.4,158.8,410.4z"/>
	</g>
	<g>
		<path style="fill:#FDE6A6;" d="M398,160c-51.832,0-94,42.168-94,94s42.168,94,94,94s94-42.168,94-94S449.832,160,398,160z"/>
		<path style="fill:#FCD56A;" d="M398,180c-40.804,0-74,33.196-74,74s33.196,74,74,74s74-33.196,74-74S438.804,180,398,180z"/>
		<path style="fill:#FFFFFF;" d="M419,273c-4.418,0-8,3.582-8,8v0.25c0,4.273-3.477,7.75-7.75,7.75H395c-4.411,0-8-3.589-8-8v-16h16
			c4.418,0,8-3.582,8-8s-3.582-8-8-8h-16v-16c0-4.411,3.589-8,8-8h8.25c4.273,0,7.75,3.477,7.75,7.75c0,4.418,3.582,8,8,8
			s8-3.582,8-8c0-13.096-10.654-23.75-23.75-23.75H395c-13.234,0-24,10.767-24,24v16c-4.418,0-8,3.582-8,8s3.582,8,8,8v16
			c0,13.233,10.766,24,24,24h8.25c13.096,0,23.75-10.654,23.75-23.75V281C427,276.582,423.418,273,419,273z"/>
	</g>
	<g>
		<path style="fill:#FDE6A6;" d="M114,0C62.168,0,20,42.168,20,94s42.168,94,94,94s94-42.168,94-94S165.832,0,114,0z"/>
		<path style="fill:#FCD56A;" d="M114,20c-40.804,0-74,33.196-74,74s33.196,74,74,74s74-33.196,74-74S154.804,20,114,20z"/>
		<path style="fill:#FFFFFF;" d="M134.848,50.362C132.121,47.46,127.158,44,119,44c-6.254,0-17.398,2.606-21.761,20.06
			c-1.574,6.296-2.034,13.357-2.173,19.94H87c-4.418,0-8,3.582-8,8s3.582,8,8,8h7.674c-1.39,17.155-6.778,28.316-6.829,28.422
			c-1.24,2.48-1.107,5.426,0.35,7.784S92.228,140,95,140h32c4.418,0,8-3.582,8-8s-3.582-8-8-8h-20.543
			c1.783-6.056,3.586-14.25,4.261-24H119c4.418,0,8-3.582,8-8s-3.582-8-8-8h-7.93c0.129-5.578,0.514-11.351,1.691-16.06
			C114.746,60,117.513,60,119,60c2.921,0,3.853,0.97,4.159,1.289c1.523,1.586,1.906,4.907,1.853,6.281
			c-0.236,4.381,3.103,8.14,7.489,8.414c4.396,0.282,8.207-3.076,8.483-7.485C141.054,67.386,141.473,57.415,134.848,50.362z"/>
	</g>
	<path style="fill:#1BD7DE;" d="M106.141,235.54l-22.5-33.5c-1.834-2.731-5.251-4.075-8.454-3.33
		c-1.563,0.364-2.624,1.193-3.858,2.143c-1.278,0.984-2.448,1.686-3.29,3.143l-30.065,28.719c-3.195,3.052-3.311,8.116-0.259,11.311
		c3.051,3.195,8.116,3.311,11.311,0.26l12.568-12.006C60.538,240.113,60,248.035,60,256c0,20.121,3.37,39.857,10.015,58.661
		c1.161,3.284,4.248,5.336,7.543,5.336c0.885,0,1.784-0.147,2.666-0.459c4.166-1.473,6.349-6.043,4.877-10.209
		C79.062,292.243,76,274.301,76,256c0-10.762,1.091-21.43,3.201-31.874l13.658,20.334c2.639,3.931,8.291,4.689,11.875,1.59
		C107.752,243.439,108.367,238.854,106.141,235.54z"/>
	<path style="fill:#1BD7DE;" d="M364,104c-4.418,0-8,3.582-8,8v15.258C323.321,96.727,281.018,80,236,80c-4.418,0-8,3.582-8,8
		s3.582,8,8,8c39.447,0,76.602,14.125,105.838,40H332c-4.418,0-8,3.582-8,8s3.582,8,8,8h32c4.418,0,8-3.582,8-8v-32
		C372,107.582,368.418,104,364,104z"/>
	<path style="fill:#1BD7DE;" d="M366.557,362.039c-3.292-2.946-8.35-2.666-11.296,0.626c-21.197,23.683-49.29,40.662-79.869,48.44
		l7.764-15.527c1.976-3.952,0.374-8.758-3.578-10.733s-8.757-0.374-10.733,3.577l-16,32c-1.976,3.952-0.374,8.758,3.578,10.733
		l32,16c4.143,2.072,9.317,0.089,11.017-4.215c1.505-3.809-0.197-8.264-3.862-10.096l-13.772-6.886
		c32.681-8.834,62.641-27.221,85.377-52.624C370.129,370.043,369.849,364.985,366.557,362.039z"/>
</g>
<g>
</g>
<g>
</g>
<g>
</g>
<g>
</g>
<g>
</g>
<g>
</g>
<g>
</g>
<g>
</g>
<g>
</g>
<g>
</g>
<g>
</g>
<g>
</g>
<g>
</g>
<g>
</g>
<g>
</g>
</svg>
