<?xml version="1.0" encoding="iso-8859-1"?>
<!-- Generator: Adobe Illustrator 19.0.0, SVG Export Plug-In . SVG Version: 6.00 Build 0)  -->
<svg version="1.1" id="Capa_1" xmlns="http://www.w3.org/2000/svg" xmlns:xlink="http://www.w3.org/1999/xlink" x="0px" y="0px"
	 viewBox="0 0 512 512" style="enable-background:new 0 0 512 512;" xml:space="preserve">
<g>
	<path style="fill:#BFC7CD;" d="M256,440c-4.418,0-8-3.582-8-8V184c0-4.418,3.582-8,8-8s8,3.582,8,8v248
		C264,436.418,260.418,440,256,440z"/>
	<path style="fill:#FD8E61;" d="M350.306,371.077C348.79,369.135,346.463,368,344,368H168c-2.463,0-4.79,1.135-6.306,3.077
		c-1.516,1.941-2.053,4.474-1.456,6.863l32,128c0.891,3.562,4.09,6.06,7.761,6.06h112c3.671,0,6.871-2.498,7.761-6.06l32-128
		C352.358,375.551,351.822,373.019,350.306,371.077z"/>
	<path style="fill:#FD7239;" d="M184.239,409.94c-0.597-2.39-0.061-4.922,1.456-6.863C187.21,401.135,189.537,400,192,400h154.246
		l5.515-22.06c0.597-2.39,0.061-4.922-1.456-6.863C348.79,369.135,346.463,368,344,368H168c-2.463,0-4.79,1.135-6.306,3.077
		c-1.516,1.941-2.053,4.474-1.456,6.863l32,128c0.891,3.562,4.09,6.06,7.761,6.06h9.754L184.239,409.94z"/>
	<path style="fill:#FE9C74;" d="M360,336H152c-4.418,0-8,3.582-8,8v32c0,4.418,3.582,8,8,8h208c4.418,0,8-3.582,8-8v-32
		C368,339.582,364.418,336,360,336z"/>
	<path style="fill:#FD8E61;" d="M168,376v-32c0-4.418,3.582-8,8-8h-24c-4.418,0-8,3.582-8,8v32c0,4.418,3.582,8,8,8h24
		C171.582,384,168,380.418,168,376z"/>
	<g>
		<path style="fill:#FDE6A6;" d="M256,0c-51.832,0-94,42.168-94,94s42.168,94,94,94s94-42.168,94-94S307.832,0,256,0z"/>
		<path style="fill:#FCD56A;" d="M256,20c-40.804,0-74,33.196-74,74s33.196,74,74,74s74-33.196,74-74S296.804,20,256,20z"/>
		<path style="fill:#FFFFFF;" d="M276.8,86.4c4.418,0,8-3.582,8-8v-5.2c0-12.066-9.103-22.039-20.8-23.429V42c0-4.418-3.582-8-8-8
			s-8,3.582-8,8v8.162c-11.864,2.496-20.8,13.042-20.8,25.638c0,14.447,11.753,26.2,26.2,26.2h5.2c5.624,0,10.2,4.576,10.2,10.2
			s-4.576,10.2-10.2,10.2h-7.8c-4.19,0-7.6-3.409-7.6-7.601c0-4.418-3.582-8-8-8s-8,3.582-8,8c0,12.066,9.103,22.039,20.8,23.429
			V146c0,4.418,3.582,8,8,8s8-3.582,8-8v-8.162c11.864-2.496,20.8-13.042,20.8-25.638c0-14.447-11.753-26.2-26.2-26.2h-5.2
			c-5.624,0-10.2-4.576-10.2-10.2s4.576-10.2,10.2-10.2h7.8c4.19,0,7.6,3.409,7.6,7.601v5.2C268.8,82.818,272.381,86.4,276.8,86.4z"
			/>
	</g>
	<g>
		<g>
			<path style="fill:#76E7EB;" d="M366.915,214.169c-0.738-2.768-2.899-4.929-5.667-5.667c-24.786-6.613-51.428,0.524-69.533,18.63
				c-18.105,18.105-25.244,44.749-18.631,69.532c0.738,2.768,2.899,4.929,5.667,5.667c6.113,1.631,12.337,2.426,18.52,2.426
				c18.886,0,37.373-7.416,51.013-21.056C366.39,265.596,373.528,238.952,366.915,214.169z"/>
		</g>
		<g>
			<path style="fill:#1BD7DE;" d="M366.915,214.169c-0.29-1.089-0.807-2.078-1.488-2.929l-89.603,89.604
				c0.851,0.681,1.84,1.197,2.928,1.488c6.113,1.631,12.337,2.426,18.52,2.426c18.886,0,37.373-7.416,51.013-21.056
				C366.39,265.596,373.528,238.952,366.915,214.169z"/>
		</g>
	</g>
	<g>
		<g>
			<path style="fill:#76E7EB;" d="M145.085,214.169c0.738-2.768,2.899-4.929,5.667-5.667c24.786-6.613,51.428,0.524,69.533,18.63
				c18.105,18.105,25.244,44.749,18.631,69.532c-0.738,2.768-2.899,4.929-5.667,5.667c-6.113,1.631-12.337,2.426-18.52,2.426
				c-18.886,0-37.373-7.416-51.013-21.056C145.61,265.596,138.472,238.952,145.085,214.169z"/>
		</g>
		<g>
			<path style="fill:#1BD7DE;" d="M145.085,214.169c0.29-1.089,0.807-2.078,1.488-2.929l89.603,89.604
				c-0.851,0.681-1.84,1.197-2.928,1.488c-6.113,1.631-12.337,2.426-18.52,2.426c-18.886,0-37.373-7.416-51.013-21.056
				C145.61,265.596,138.472,238.952,145.085,214.169z"/>
		</g>
	</g>
</g>
<g>
</g>
<g>
</g>
<g>
</g>
<g>
</g>
<g>
</g>
<g>
</g>
<g>
</g>
<g>
</g>
<g>
</g>
<g>
</g>
<g>
</g>
<g>
</g>
<g>
</g>
<g>
</g>
<g>
</g>
</svg>
