<?xml version="1.0" encoding="iso-8859-1"?>
<!-- Generator: Adobe Illustrator 19.0.0, SVG Export Plug-In . SVG Version: 6.00 Build 0)  -->
<svg version="1.1" id="Capa_1" xmlns="http://www.w3.org/2000/svg" xmlns:xlink="http://www.w3.org/1999/xlink" x="0px" y="0px"
	 viewBox="0 0 512 512" style="enable-background:new 0 0 512 512;" xml:space="preserve">
<g>
	<g>
		<g>
			<path style="fill:#FFDCCE;" d="M185,0c-54.589,0-99,44.411-99,99s44.411,99,99,99s99-44.411,99-99S239.589,0,185,0z"/>
			<path style="fill:#FFCBB6;" d="M211,190c-54.589,0-99-44.411-99-99c0-39.666,23.452-73.952,57.216-89.736
				C122.103,8.845,86,49.782,86,99c0,54.589,44.411,99,99,99c14.923,0,29.082-3.325,41.784-9.264
				C221.642,189.564,216.371,190,211,190z"/>
			<circle style="fill:#40566A;" cx="215.5" cy="119.5" r="7.5"/>
			<circle style="fill:#40566A;" cx="152.5" cy="119.5" r="7.5"/>
			<g>
				<path style="fill:#95A1AC;" d="M183.999,0.008L184,0H60c-5.709,0-9.58,5.807-7.385,11.077l33.648,80.755
					c-0.091,1.26-0.165,2.525-0.207,3.798c-1.16,34.757,15.704,65.726,41.944,84.269v-79.718c0-4.984,4.5-8.732,9.409-7.872
					c27.925,4.892,65.256,4.892,93.181,0c4.909-0.86,9.409,2.888,9.409,7.872v81.095c26.513-17.781,44-48.023,44-82.276
					C284,44.078,239.044-0.538,183.999,0.008z"/>
				<path style="fill:#808E9B;" d="M172.027,0H60c-5.709,0-9.58,5.807-7.385,11.077l33.648,80.755
					c-0.091,1.26-0.165,2.525-0.207,3.798c-1.16,34.757,15.704,65.726,41.944,84.269v-34.999C117.886,129.38,112,110.866,112,91
					C112,50.242,136.76,15.162,172.027,0z"/>
			</g>
		</g>
		<g>
			<path style="fill:#F4F6F7;" d="M280,208H88c-22.056,0-40,17.944-40,40v256c0,4.418,3.582,8,8,8h256c4.418,0,8-3.582,8-8V248
				C320,225.944,302.056,208,280,208z"/>
			<g>
				<path style="fill:#FD8E61;" d="M192,248h-16c-4.418,0-8,3.582-8,8l-24,128c0,4.418,3.582,8,8,8h64c4.418,0,8-3.582,8-8l-24-128
					C200,251.582,196.418,248,192,248z"/>
				<path style="fill:#FD7239;" d="M200,256c0-4.418-3.582-8-8-8h-16c-4.418,0-8,3.582-8,8l-3,16h38L200,256z"/>
				<path style="fill:#FD8E61;" d="M208,208h-48c-2.396,0-4.667,1.074-6.187,2.928s-2.128,4.291-1.658,6.642l15.845,40h32l15.845-40
					c0.47-2.351-0.139-4.788-1.658-6.642S210.396,208,208,208z"/>
			</g>
			<path style="fill:#55697A;" d="M280,208h-24c-3.03,0-5.8,1.712-7.155,4.422L184,342.111l-64.845-129.689
				C117.8,209.712,115.03,208,112,208H88c-22.056,0-40,17.944-40,40v256c0,4.418,3.582,8,8,8h256c4.418,0,8-3.582,8-8V248
				C320,225.944,302.056,208,280,208z"/>
			<circle style="fill:#AAB4BD;" cx="184" cy="360.5" r="7.5"/>
			<circle style="fill:#AAB4BD;" cx="184" cy="392.5" r="7.5"/>
			<circle cx="184" cy="431.5" r="7.5"/>
			<circle cx="184" cy="471" r="7.5"/>
		</g>
	</g>
	<g>
		<path style="fill:#EAECEE;" d="M472,112.061H304c-22.056,0-40,17.944-40,40v152c0,22.056,17.944,40,40,40h48v32
			c0,6.962,8.709,10.602,13.657,5.657l37.656-37.657H472c22.056,0,40-17.944,40-40v-152C512,130.005,494.056,112.061,472,112.061z"
			/>
		<path style="fill:#D5D9DE;" d="M488,328.061H320c-22.056,0-40-17.944-40-40v-152c0-6.922,1.769-13.438,4.877-19.123
			C272.449,123.731,264,136.927,264,152.061v152c0,22.056,17.944,40,40,40h48v32c0,6.962,8.709,10.602,13.657,5.657l37.656-37.657
			H472c15.133,0,28.33-8.449,35.123-20.877C501.438,326.292,494.922,328.061,488,328.061z"/>
		<g>
			<path style="fill:#FDE6A6;" d="M388,136.061c-51.832,0-94,42.168-94,94s42.168,94,94,94s94-42.168,94-94
				S439.832,136.061,388,136.061z"/>
			<path style="fill:#FCD56A;" d="M388,160.061c-38.598,0-70,31.402-70,70s31.402,70,70,70s70-31.402,70-70
				S426.598,160.061,388,160.061z"/>
			<path style="fill:#FFFFFF;" d="M408.8,222.461c4.418,0,8-3.582,8-8v-5.2c0-12.066-9.103-22.039-20.8-23.429v-7.771
				c0-4.418-3.582-8-8-8s-8,3.582-8,8v8.162c-11.865,2.496-20.8,13.042-20.8,25.638c0,14.447,11.753,26.2,26.2,26.2h5.199
				c5.624,0,10.2,4.576,10.2,10.2s-4.576,10.2-10.2,10.2h-7.8c-4.19,0-7.6-3.409-7.6-7.601c0-4.418-3.582-8-8-8s-8,3.582-8,8
				c0,12.066,9.103,22.039,20.8,23.429v7.771c0,4.418,3.582,8,8,8s8-3.582,8-8v-8.162c11.865-2.496,20.8-13.042,20.8-25.638
				c0-14.447-11.753-26.2-26.2-26.2H385.4c-5.624,0-10.2-4.576-10.2-10.2s4.576-10.2,10.2-10.2h7.8c4.19,0,7.6,3.409,7.6,7.601v5.2
				C400.8,218.879,404.382,222.461,408.8,222.461z"/>
		</g>
	</g>
	<g>
		<path style="fill:#FD8E61;" d="M488,440H24c-4.418,0-8,3.582-8,8v56c0,4.418,3.582,8,8,8h464c4.418,0,8-3.582,8-8v-56
			C496,443.582,492.418,440,488,440z"/>
		<path style="fill:#FD7239;" d="M496,448c0-4.418-3.582-8-8-8H24c-4.418,0-8,3.582-8,8v16.5h480V448z"/>
		<path style="fill:#FE9C74;" d="M504,408H8c-4.418,0-8,3.582-8,8v24c0,4.418,3.582,8,8,8h496c4.418,0,8-3.582,8-8v-24
			C512,411.582,508.418,408,504,408z"/>
	</g>
</g>
<g>
</g>
<g>
</g>
<g>
</g>
<g>
</g>
<g>
</g>
<g>
</g>
<g>
</g>
<g>
</g>
<g>
</g>
<g>
</g>
<g>
</g>
<g>
</g>
<g>
</g>
<g>
</g>
<g>
</g>
</svg>
