<?xml version="1.0" encoding="iso-8859-1"?>
<!-- Generator: Adobe Illustrator 19.0.0, SVG Export Plug-In . SVG Version: 6.00 Build 0)  -->
<svg version="1.1" id="Capa_1" xmlns="http://www.w3.org/2000/svg" xmlns:xlink="http://www.w3.org/1999/xlink" x="0px" y="0px"
	 viewBox="0 0 512 512" style="enable-background:new 0 0 512 512;" xml:space="preserve">
<g>
	<path style="fill:#808E9B;" d="M71.997,344.002c-0.988,0-1.994-0.185-2.968-0.574c-4.103-1.641-6.098-6.297-4.457-10.398l32-80
		c1.641-4.102,6.298-6.099,10.398-4.457c4.103,1.641,6.098,6.297,4.457,10.398l-32,80C78.177,342.099,75.172,344.002,71.997,344.002
		z"/>
	<path style="fill:#808E9B;" d="M360.003,392c-2.216,0-4.42-0.915-6.002-2.707l-120-136c-2.923-3.313-2.607-8.368,0.706-11.292
		c3.313-2.923,8.367-2.606,11.292,0.706l120,136c2.923,3.313,2.607,8.368-0.706,11.292C363.772,391.341,361.884,392,360.003,392z"/>
	<path style="fill:#808E9B;" d="M376.006,152.002c-0.643,0-1.295-0.078-1.946-0.241l-64-16c-4.286-1.071-6.893-5.415-5.82-9.701
		c1.071-4.286,5.417-6.893,9.701-5.82l64,16c4.286,1.071,6.893,5.415,5.82,9.701C382.853,149.575,379.591,152.002,376.006,152.002z"
		/>
	<path style="fill:#FD8E61;" d="M160,0C71.775,0,0,61.01,0,136s71.775,136,160,136s160-61.01,160-136S248.225,0,160,0z"/>
	<path style="fill:#FD7239;" d="M182,252c-88.225,0-160-61.01-160-136c0-30.93,12.219-59.475,32.757-82.348
		C21.219,58.599,0,95.231,0,136c0,74.99,71.775,136,160,136c51.836,0,97.986-21.067,127.243-53.651
		C259.091,239.29,222.261,252,182,252z"/>
	<path style="fill:#FFFFFF;" d="M192,120c4.418,0,8-3.582,8-8v-8c0-17.645-14.355-32-32-32V56c0-4.418-3.582-8-8-8s-8,3.582-8,8
		v16.228c-17.974,1.997-32,17.274-32,35.772c0,19.851,16.149,36,36,36h8c11.028,0,20,8.972,20,20s-8.972,20-20,20h-12
		c-8.822,0-16-7.178-16-16c0-4.418-3.582-8-8-8s-8,3.582-8,8c0,17.645,14.355,32,32,32v16c0,4.418,3.582,8,8,8s8-3.582,8-8v-16.228
		c17.974-1.997,32-17.274,32-35.772c0-19.851-16.149-36-36-36h-8c-11.028,0-20-8.972-20-20s8.972-20,20-20h12
		c8.822,0,16,7.178,16,16v8C184,116.418,187.582,120,192,120z"/>
	<g>
		<path style="fill:#76E7EB;" d="M72,328c-39.701,0-72,32.299-72,72s32.299,72,72,72s72-32.299,72-72S111.701,328,72,328z"/>
		<path style="fill:#1BD7DE;" d="M90,463c-39.701,0-72-32.299-72-72c0-24.561,12.369-46.277,31.197-59.277
			C20.642,341.285,0,368.269,0,400c0,39.701,32.299,72,72,72c15.141,0,29.197-4.708,40.803-12.723
			C105.632,461.679,97.969,463,90,463z"/>
		<path style="fill:#FFFFFF;" d="M103.49,429.191l-24-64C78.319,362.068,75.335,360,72,360s-6.319,2.068-7.49,5.191l-24,64
			c-1.552,4.137,0.544,8.748,4.682,10.299c4.132,1.555,8.748-0.544,10.299-4.682L62.544,416h18.913l7.053,18.809
			c1.204,3.212,4.252,5.193,7.491,5.193c0.934,0,1.883-0.164,2.808-0.512C102.946,437.939,105.042,433.328,103.49,429.191z
			 M68.544,400L72,390.784L75.456,400H68.544z"/>
	</g>
	<g>
		<path style="fill:#76E7EB;" d="M400,368c-39.701,0-72,32.299-72,72s32.299,72,72,72s72-32.299,72-72S439.701,368,400,368z"/>
		<path style="fill:#1BD7DE;" d="M421,500c-39.701,0-72-32.299-72-72c0-22.405,10.289-42.449,26.388-55.664
			C347.771,382.413,328,408.939,328,440c0,39.701,32.299,72,72,72c17.296,0,33.185-6.134,45.612-16.336
			C437.93,498.467,429.641,500,421,500z"/>
		<path style="fill:#FFFFFF;" d="M424,480h-40c-4.418,0-8-3.582-8-8v-64c0-4.418,3.582-8,8-8h32c4.418,0,8,3.582,8,8v24
			c4.418,0,8,3.582,8,8v32C432,476.418,428.418,480,424,480z M392,464h24v-16h-24V464z M392,432h16v-16h-16V432z"/>
	</g>
	<g>
		<path style="fill:#76E7EB;" d="M440,88c-39.701,0-72,32.299-72,72s32.299,72,72,72s72-32.299,72-72S479.701,88,440,88z"/>
		<path style="fill:#1BD7DE;" d="M461,219c-39.701,0-72-32.299-72-72c0-21.395,9.39-40.628,24.253-53.828
			C386.762,103.813,368,129.749,368,160c0,39.701,32.299,72,72,72c18.306,0,35.029-6.878,47.747-18.172
			C479.471,217.152,470.45,219,461,219z"/>
		<path style="fill:#FFFFFF;" d="M443.333,201c-22.423,0-40.666-18.243-40.666-40.667c0-22.423,18.243-40.666,40.666-40.666
			c7.948,0,15.65,2.295,22.271,6.636c3.695,2.422,4.728,7.382,2.305,11.076c-2.423,3.695-7.381,4.728-11.076,2.305
			c-4.009-2.628-8.677-4.017-13.5-4.017c-13.601,0-24.666,11.065-24.666,24.666c0,13.602,11.065,24.667,24.666,24.667
			c4.699,0,9.266-1.323,13.205-3.828c3.73-2.37,8.673-1.267,11.044,2.46c2.37,3.729,1.269,8.674-2.46,11.044
			C458.612,198.813,451.078,201,443.333,201z"/>
	</g>
</g>
<g>
</g>
<g>
</g>
<g>
</g>
<g>
</g>
<g>
</g>
<g>
</g>
<g>
</g>
<g>
</g>
<g>
</g>
<g>
</g>
<g>
</g>
<g>
</g>
<g>
</g>
<g>
</g>
<g>
</g>
</svg>
