<?xml version="1.0" encoding="iso-8859-1"?>
<!-- Generator: Adobe Illustrator 19.0.0, SVG Export Plug-In . SVG Version: 6.00 Build 0)  -->
<svg version="1.1" id="Capa_1" xmlns="http://www.w3.org/2000/svg" xmlns:xlink="http://www.w3.org/1999/xlink" x="0px" y="0px"
	 viewBox="0 0 512 512" style="enable-background:new 0 0 512 512;" xml:space="preserve">
<g>
	<g>
		<path style="fill:#EAECEE;" d="M296,0H72C49.944,0,32,17.944,32,40v432c0,22.056,17.944,40,40,40h224c22.056,0,40-17.944,40-40V40
			C336,17.944,318.056,0,296,0z"/>
		<path style="fill:#D5D9DE;" d="M56,472V40C56,17.944,73.944,0,96,0H72C49.944,0,32,17.944,32,40v432c0,22.056,17.944,40,40,40h24
			C73.944,512,56,494.056,56,472z"/>
		<g>
			<path style="fill:#6B7B8B;" d="M336,424H32v48c0,22.091,17.909,40,40,40h224c22.091,0,40-17.909,40-40V424z"/>
			<path style="fill:#55697A;" d="M56,472v-48H32v48c0,22.091,17.909,40,40,40h24C73.909,512,56,494.091,56,472z"/>
			<path style="fill:#6B7B8B;" d="M296,0H72C49.909,0,32,17.909,32,40v40h304V40C336,17.909,318.091,0,296,0z"/>
			<path style="fill:#55697A;" d="M96,0H72C49.909,0,32,17.909,32,40v40h24V40C56,17.909,73.909,0,96,0z"/>
		</g>
		<path style="fill:#40566A;" d="M200,448h-32c-4.418,0-8,3.582-8,8v24c0,4.418,3.582,8,8,8h32c4.418,0,8-3.582,8-8v-24
			C208,451.582,204.418,448,200,448z"/>
		<path style="fill:#40566A;" d="M200,48h-32c-4.418,0-8-3.582-8-8s3.582-8,8-8h32c4.418,0,8,3.582,8,8S204.418,48,200,48z"/>
	</g>
	<path style="fill:#49DFE5;" d="M295.997,408c-1.857,0-3.723-0.643-5.236-1.954L176.39,306.924l-18.733,18.733
		c-3.8,3.799-10.413,2.719-12.812-2.079l-19.947-39.895l-16.46,10.973c-3.676,2.45-8.643,1.457-11.094-2.219l-32-48
		c-2.451-3.676-1.458-8.644,2.219-11.094c3.676-2.451,8.643-1.457,11.094,2.219l27.563,41.344l17.344-11.563
		c3.947-2.631,9.474-1.16,11.593,3.078l19.036,38.073l16.152-16.152c2.967-2.968,7.725-3.136,10.896-0.389l120,104
		c2.368,2.052,3.328,5.394,2.411,8.391C302.634,405.668,299.47,408,295.997,408z"/>
	<path style="fill:#FCD56A;" d="M215.999,376c-3.707,0-7.005-2.65-7.809-6.265l-28.838-129.773l-21.695,21.695
		c-2.596,2.596-6.625,3.091-9.772,1.203l-34.125-20.476l-35.614,42.736c-2.829,3.394-7.874,3.854-11.267,1.024
		c-3.394-2.828-3.853-7.873-1.024-11.267l40-48c2.524-3.03,6.881-3.767,10.261-1.739l34.644,20.787l27.583-27.584
		c4.384-4.383,12.124-2.12,13.466,3.922l29.152,131.187l37.917-31.597c3.179-2.649,7.854-2.437,10.778,0.488l32,32
		c3.125,3.125,3.125,8.189,0,11.314c-3.124,3.123-8.189,3.123-11.313,0l-26.834-26.834l-42.388,35.322
		C219.663,375.361,217.844,376,215.999,376z"/>
	<g>
		<path style="fill:#FD8E61;" d="M352,32c-70.58,0-128,53.832-128,120c0,30.996,12.375,60.063,34.971,82.422l-18.489,50.844
			c-2.461,6.77,5.001,13.218,11.35,9.758l55.8-30.437C321.821,269.508,336.728,272,352,272c70.58,0,128-53.832,128-120
			S422.58,32,352,32z"/>
		<path style="fill:#FD7239;" d="M376,256c-70.692,0-128-53.726-128-120c0-35.341,16.299-67.112,42.232-89.072
			C250.777,67.395,224,106.818,224,152c0,30.996,12.375,60.063,34.971,82.422l-18.489,50.844c-2.461,6.77,5.001,13.218,11.35,9.758
			l55.8-30.437C321.821,269.508,336.728,272,352,272c32.773,0,62.704-11.612,85.371-30.671C419.149,250.68,398.238,256,376,256z"/>
		<circle style="fill:#EAECEE;" cx="352" cy="216" r="16"/>
		<path style="fill:#EAECEE;" d="M352,72c-8.836,0-16,7.163-16,16v64c0,8.837,7.164,16,16,16s16-7.163,16-16V88
			C368,79.163,360.836,72,352,72z"/>
	</g>
	<g>
		<path style="fill:#49DFE5;" d="M88,160H72c-4.418,0-8-3.582-8-8s3.582-8,8-8h16c4.418,0,8,3.582,8,8S92.418,160,88,160z"/>
		<path style="fill:#49DFE5;" d="M160,160h-40c-4.418,0-8-3.582-8-8s3.582-8,8-8h40c4.418,0,8,3.582,8,8S164.418,160,160,160z"/>
	</g>
	<g>
		<path style="fill:#FCD56A;" d="M88,120H72c-4.418,0-8-3.582-8-8s3.582-8,8-8h16c4.418,0,8,3.582,8,8S92.418,120,88,120z"/>
		<path style="fill:#FCD56A;" d="M176,120h-56c-4.418,0-8-3.582-8-8s3.582-8,8-8h56c4.418,0,8,3.582,8,8S180.418,120,176,120z"/>
	</g>
</g>
<g>
</g>
<g>
</g>
<g>
</g>
<g>
</g>
<g>
</g>
<g>
</g>
<g>
</g>
<g>
</g>
<g>
</g>
<g>
</g>
<g>
</g>
<g>
</g>
<g>
</g>
<g>
</g>
<g>
</g>
</svg>
