<?xml version="1.0" encoding="iso-8859-1"?>
<!-- Generator: Adobe Illustrator 19.0.0, SVG Export Plug-In . SVG Version: 6.00 Build 0)  -->
<svg version="1.1" id="Capa_1" xmlns="http://www.w3.org/2000/svg" xmlns:xlink="http://www.w3.org/1999/xlink" x="0px" y="0px"
	 viewBox="0 0 512 512" style="enable-background:new 0 0 512 512;" xml:space="preserve">
<g>
	<path style="fill:#D5D9DE;" d="M480,0H32c-4.418,0-8,3.582-8,8v496c0,4.418,3.582,8,8,8h448c4.418,0,8-3.582,8-8V8
		C488,3.582,484.418,0,480,0z"/>
	<path style="fill:#BFC7CD;" d="M303.029,0l14.93,91.494c0.947,5.803,7.621,8.636,12.454,5.286L470,0H303.029z"/>
	<path style="fill:#BFC7CD;" d="M208.971,0l-14.93,91.494c-0.947,5.803-7.621,8.636-12.454,5.286L42,0L208.971,0z"/>
	<g>
		<path style="fill:#6B7B8B;" d="M286.665,99.575C285.182,97.342,282.68,96,280,96h-48c-2.758,0-5.322,1.421-6.784,3.76l-160,256
			c-1.059,1.694-1.445,3.724-1.083,5.688l13.249,72c0.878,4.776,5.992,7.726,10.574,6.08l66.751-24
			c2.106-0.757,3.798-2.361,4.667-4.424l128-304C288.413,104.635,288.147,101.808,286.665,99.575z"/>
		<path style="fill:#55697A;" d="M286.665,99.575C285.182,97.342,282.68,96,280,96h-48c-2.758,0-5.322,1.421-6.784,3.76
			l-32.948,52.717l-11.991,208.981l107.096-254.353C288.413,104.635,288.147,101.808,286.665,99.575z"/>
		<path style="fill:#76E7EB;" d="M319.98,447.443l-24-344C295.688,99.251,292.202,96,288,96h-64c-4.202,0-7.688,3.251-7.98,7.443
			l-24,344c-0.161,2.31,0.687,4.576,2.324,6.214l56,56c1.562,1.562,3.609,2.343,5.657,2.343s4.095-0.781,5.657-2.343l56-56
			C319.294,452.02,320.142,449.753,319.98,447.443z"/>
		<path style="fill:#49DFE5;" d="M295.98,103.443C295.688,99.251,292.202,96,288,96h-64c-4.202,0-7.688,3.251-7.98,7.443
			L214.934,119h82.132L295.98,103.443z"/>
		<g>
			<path style="fill:#6B7B8B;" d="M295.98,103.443C295.688,99.251,292.202,96,288,96h-12.215l-63.689,63.689l-2.546,36.486
				l86.842-86.841L295.98,103.443z"/>
			<polygon style="fill:#6B7B8B;" points="298.662,141.878 206.939,233.601 204.393,270.088 300.875,173.605 			"/>
			<polygon style="fill:#6B7B8B;" points="199.237,344 305.36,237.877 303.146,206.149 201.782,307.513 			"/>
			<polygon style="fill:#6B7B8B;" points="194.08,417.912 309.844,302.148 307.63,270.42 196.625,381.425 			"/>
			<path style="fill:#6B7B8B;" d="M194.343,453.657l16.373,16.373l103.611-103.611l-2.214-31.728L193.778,453.027
				C193.955,453.246,194.143,453.457,194.343,453.657z"/>
			<polygon style="fill:#6B7B8B;" points="245.094,504.408 318.812,430.69 316.598,398.963 228.124,487.438 			"/>
			<path style="fill:#55697A;" d="M286.726,119l9.666-9.666l-0.411-5.891C295.688,99.251,292.202,96,288,96h-12.215l-23,23H286.726z
				"/>
		</g>
		<g>
			<path style="fill:#76E7EB;" d="M320,0H192c-2.572,0-4.986,1.236-6.49,3.322c-1.504,2.086-1.913,4.768-1.1,7.208l32,96h79.179
				l32-96c0.813-2.44,0.404-5.122-1.1-7.208C324.986,1.236,322.572,0,320,0z"/>
			<g>
				<polygon style="fill:#6B7B8B;" points="234.274,0 194.244,40.03 202.729,65.486 268.215,0 				"/>
				<path style="fill:#6B7B8B;" d="M326.49,3.322C324.986,1.236,322.572,0,320,0h-16.971l-91.597,91.597l4.978,14.934h14.03
					l97.476-97.477C328.184,7.048,327.695,4.994,326.49,3.322z"/>
				<polygon style="fill:#6B7B8B;" points="265.255,106.53 295.589,106.53 310.757,61.028 				"/>
			</g>
		</g>
	</g>
	<path style="fill:#F4F6F7;" d="M320,0l28.49,85.47c1.727,5.18,8.021,7.146,12.389,3.87L480,0H320z"/>
	<path style="fill:#F4F6F7;" d="M191.333,0l-28.49,85.47c-1.727,5.18-8.021,7.146-12.389,3.87L31.333,0L191.333,0z"/>
</g>
<g>
</g>
<g>
</g>
<g>
</g>
<g>
</g>
<g>
</g>
<g>
</g>
<g>
</g>
<g>
</g>
<g>
</g>
<g>
</g>
<g>
</g>
<g>
</g>
<g>
</g>
<g>
</g>
<g>
</g>
</svg>
