<?xml version="1.0" encoding="iso-8859-1"?>
<!-- Generator: Adobe Illustrator 19.0.0, SVG Export Plug-In . SVG Version: 6.00 Build 0)  -->
<svg version="1.1" id="Capa_1" xmlns="http://www.w3.org/2000/svg" xmlns:xlink="http://www.w3.org/1999/xlink" x="0px" y="0px"
	 viewBox="0 0 512 512" style="enable-background:new 0 0 512 512;" xml:space="preserve">
<g>
	<path style="fill:#EAECEE;" d="M488,16H40c-4.418,0-8,3.582-8,8v96c0,4.418,3.582,8,8,8h448c4.418,0,8-3.582,8-8V24
		C496,19.582,492.418,16,488,16z"/>
	<path style="fill:#F4F6F7;" d="M456,56H8c-4.418,0-8,3.582-8,8v96c0,4.418,3.582,8,8,8h448c4.418,0,8-3.582,8-8V64
		C464,59.582,460.418,56,456,56z"/>
	<path style="fill:#EAECEE;" d="M0,120v40c0,4.418,3.582,8,8,8h448c4.418,0,8-3.582,8-8v-40H0z"/>
	<path style="fill:#76E7EB;" d="M504,96H392c-4.418,0-8,3.582-8,8v40H8c-4.418,0-8,3.582-8,8v336c0,4.418,3.582,8,8,8h496
		c4.418,0,8-3.582,8-8V104C512,99.582,508.418,96,504,96z"/>
	<g>
		<path style="fill:#1BD7DE;" d="M48,472c-13.255,0-24-10.745-24-24V144H8c-4.418,0-8,3.582-8,8v336c0,4.418,3.582,8,8,8h496
			c4.418,0,8-3.582,8-8v-16H48z"/>
		<path style="fill:#49DFE5;" d="M408,96h-16c-4.418,0-8,3.582-8,8v16h24"/>
	</g>
	<g>
		<path style="fill:#D1F7F8;" d="M408,344H256c-4.418,0-8-3.582-8-8s3.582-8,8-8h152c4.418,0,8,3.582,8,8S412.418,344,408,344z"/>
		<path style="fill:#D1F7F8;" d="M328,384h-72c-4.418,0-8-3.582-8-8s3.582-8,8-8h72c4.418,0,8,3.582,8,8S332.418,384,328,384z"/>
		<path style="fill:#D1F7F8;" d="M360,424H256c-4.418,0-8-3.582-8-8s3.582-8,8-8h104c4.418,0,8,3.582,8,8S364.418,424,360,424z"/>
		<path style="fill:#D1F7F8;" d="M408,424h-16c-4.418,0-8-3.582-8-8s3.582-8,8-8h16c4.418,0,8,3.582,8,8S412.418,424,408,424z"/>
	</g>
	<g>
		<path style="fill:#D5D9DE;" d="M192,336h-48c-13.233,0-24,10.767-24,24v56c0,4.418,3.582,8,8,8h80c4.418,0,8-3.582,8-8v-56
			C216,346.767,205.233,336,192,336z"/>
		<path style="fill:#BFC7CD;" d="M136,416v-56c0-13.233,10.767-24,24-24h-16c-13.233,0-24,10.767-24,24v56c0,4.418,3.582,8,8,8h16
			C139.582,424,136,420.418,136,416z"/>
		<path style="fill:#FFDCCE;" d="M168,256c-22.056,0-40,17.944-40,40s17.944,40,40,40s40-17.944,40-40S190.056,256,168,256z"/>
		<path style="fill:#FFCBB6;" d="M144,296c0-19.316,13.765-35.479,32-39.195c-2.586-0.527-5.261-0.805-8-0.805
			c-22.056,0-40,17.944-40,40s17.944,40,40,40c2.739,0,5.414-0.278,8-0.805C157.765,331.479,144,315.316,144,296z"/>
		<path style="fill:#55697A;" d="M168,256c-36.358,0-52.275,24.593-55.699,37.818C110.993,298.869,114.703,304,120,304h87.219
			C212.2,278.454,192.672,256,168,256z"/>
	</g>
	<path style="fill:#FDDD88;" d="M408,240H256c-4.418,0-8,3.582-8,8v48c0,4.418,3.582,8,8,8h152c4.418,0,8-3.582,8-8v-48
		C416,243.582,412.418,240,408,240z"/>
</g>
<g>
</g>
<g>
</g>
<g>
</g>
<g>
</g>
<g>
</g>
<g>
</g>
<g>
</g>
<g>
</g>
<g>
</g>
<g>
</g>
<g>
</g>
<g>
</g>
<g>
</g>
<g>
</g>
<g>
</g>
</svg>
