<?xml version="1.0" encoding="iso-8859-1"?>
<!-- Generator: Adobe Illustrator 19.0.0, SVG Export Plug-In . SVG Version: 6.00 Build 0)  -->
<svg version="1.1" id="Capa_1" xmlns="http://www.w3.org/2000/svg" xmlns:xlink="http://www.w3.org/1999/xlink" x="0px" y="0px"
	 viewBox="0 0 512 512" style="enable-background:new 0 0 512 512;" xml:space="preserve">
<g>
	<path style="fill:#EAECEE;" d="M407.509,335.532c41.043-36.478,64.492-88.533,64.492-143.532c0-105.869-86.131-192-192-192
		s-192,86.131-192,192c0,1.886,0.033,3.837,0.1,5.912l-47.255,94.51c-1.976,3.952-0.374,8.758,3.577,10.733l43.578,21.789V400
		c0,4.418,3.582,8,8,8h99.271l12.797,97.046c0.525,3.979,3.918,6.954,7.932,6.954h208c2.323,0,4.532-1.01,6.052-2.768
		c1.52-1.757,2.2-4.088,1.864-6.388L407.509,335.532z"/>
	<g>
		<circle style="fill:#76E7EB;" cx="280.001" cy="184" r="112"/>
		<path style="fill:#1BD7DE;" d="M312.001,288c-61.856,0-112-50.144-112-112c0-46.644,28.516-86.622,69.063-103.467
			C212.341,78.031,168.001,125.835,168.001,184c0,61.856,50.144,112,112,112c15.212,0,29.713-3.039,42.937-8.533
			C319.339,287.816,315.691,288,312.001,288z"/>
		<path style="fill:#40566A;" d="M280.001,64c-66.168,0-120,53.832-120,120s53.832,120,120,120s120-53.832,120-120
			S346.169,64,280.001,64z M280.001,288c-13.7,0-28.53-22.397-35.671-58.023c11.393,1.324,23.39,2.023,35.671,2.023
			s24.278-0.699,35.671-2.023C308.53,265.603,293.7,288,280.001,288z M280.001,216c-13.93,0-26.753-0.913-38.285-2.475
			c-1.104-9.226-1.715-19.106-1.715-29.525s0.611-20.299,1.715-29.525c11.533-1.562,24.356-2.475,38.285-2.475
			s26.753,0.913,38.285,2.475c1.104,9.226,1.715,19.106,1.715,29.525s-0.611,20.299-1.715,29.525
			C306.753,215.087,293.93,216,280.001,216z M225.341,210.712c-31.131-6.565-49.341-17.965-49.341-26.712
			s18.21-20.147,49.341-26.712c-0.877,8.667-1.341,17.611-1.341,26.712S224.464,202.046,225.341,210.712z M280.001,80
			c13.7,0,28.53,22.397,35.671,58.023c-11.393-1.324-23.39-2.023-35.671-2.023s-24.278,0.699-35.671,2.023
			C251.471,102.397,266.301,80,280.001,80z M334.66,157.288c31.131,6.565,49.341,17.965,49.341,26.712s-18.21,20.147-49.341,26.712
			c0.877-8.667,1.341-17.611,1.341-26.712S335.538,165.954,334.66,157.288z M380.339,156.63c-4.917-2.928-10.976-5.778-18.451-8.448
			c-8.813-3.147-18.776-5.717-29.518-7.68c-2.492-14.33-6.221-27.525-11.074-38.849c-2.661-6.209-5.602-11.699-8.774-16.44
			C345.45,96.081,371.15,122.98,380.339,156.63z M247.481,85.213c-3.172,4.741-6.113,10.231-8.774,16.44
			c-4.853,11.323-8.582,24.519-11.074,38.849c-10.742,1.963-20.706,4.533-29.518,7.68c-7.475,2.67-13.535,5.52-18.451,8.448
			C188.852,122.98,214.552,96.081,247.481,85.213z M179.663,211.37c4.917,2.929,10.976,5.779,18.451,8.449
			c8.813,3.147,18.776,5.717,29.518,7.68c2.492,14.33,6.221,27.525,11.074,38.849c2.661,6.209,5.602,11.699,8.774,16.44
			C214.552,271.919,188.852,245.02,179.663,211.37z M312.521,282.787c3.173-4.741,6.114-10.231,8.774-16.44
			c4.853-11.323,8.582-24.519,11.074-38.849c10.742-1.963,20.706-4.533,29.518-7.68c7.476-2.67,13.535-5.52,18.451-8.449
			C371.15,245.02,345.45,271.919,312.521,282.787z"/>
	</g>
</g>
<g>
</g>
<g>
</g>
<g>
</g>
<g>
</g>
<g>
</g>
<g>
</g>
<g>
</g>
<g>
</g>
<g>
</g>
<g>
</g>
<g>
</g>
<g>
</g>
<g>
</g>
<g>
</g>
<g>
</g>
</svg>
