<?xml version="1.0" encoding="iso-8859-1"?>
<!-- Generator: Adobe Illustrator 19.0.0, SVG Export Plug-In . SVG Version: 6.00 Build 0)  -->
<svg version="1.1" id="Capa_1" xmlns="http://www.w3.org/2000/svg" xmlns:xlink="http://www.w3.org/1999/xlink" x="0px" y="0px"
	 viewBox="0 0 507 507" style="enable-background:new 0 0 507 507;" xml:space="preserve">
<g>
	<path style="fill:#76E7EB;" d="M403,261.5c-5.476,0-10.931,0.429-16.314,1.278c0.209-3.088,0.314-6.188,0.314-9.278
		c0-74.99-61.009-136-136-136c-32.238,0-63.501,11.483-88.03,32.334c-22.531,19.153-38.223,45.144-44.66,73.754
		C52.651,226.06,0,280.246,0,346.5c0,67.822,55.178,123,123,123h280c57.346,0,104-46.654,104-104S460.346,261.5,403,261.5z"/>
	<g>
		<path style="fill:#1BD7DE;" d="M427,445.5H147c-67.822,0-123-55.178-123-123c0-27.801,9.274-53.475,24.886-74.098
			C19.21,270.879,0,306.486,0,346.5c0,67.822,55.178,123,123,123h280c34.785,0,65.634-17.169,84.524-43.476
			C470.463,438.276,449.56,445.5,427,445.5z"/>
	</g>
	<path style="fill:#FFFFFF;" d="M299,277.5c6.627,0,12-5.373,12-12v-12c0-26.467-21.533-48-48-48v-20c0-6.627-5.373-12-12-12
		s-12,5.373-12,12v20.341c-26.961,2.995-48,25.912-48,53.659c0,29.776,24.224,54,54,54h12c16.542,0,30,13.458,30,30
		s-13.458,30-30,30h-18c-13.234,0-24-10.766-24-24c0-6.627-5.373-12-12-12s-12,5.373-12,12c0,26.467,21.533,48,48,48v20
		c0,6.627,5.373,12,12,12s12-5.373,12-12v-20.341c26.961-2.995,48-25.912,48-53.659c0-29.776-24.224-54-54-54h-12
		c-16.542,0-30-13.458-30-30s13.458-30,30-30h18c13.234,0,24,10.766,24,24v12C287,272.127,292.373,277.5,299,277.5z"/>
	<g>
		<path style="fill:#FCD56A;" d="M499,173.5c-4.418,0-8-3.582-8-8c0-61.757-50.243-112-112-112c-4.418,0-8-3.582-8-8s3.582-8,8-8
			c70.58,0,128,57.421,128,128C507,169.918,503.418,173.5,499,173.5z"/>
		<path style="fill:#FCD56A;" d="M451,173.5c-4.418,0-8-3.582-8-8c0-35.29-28.71-64-64-64c-4.418,0-8-3.582-8-8s3.582-8,8-8
			c44.112,0,80,35.888,80,80C459,169.918,455.418,173.5,451,173.5z"/>
		<path style="fill:#FCD56A;" d="M403,173.5c-4.418,0-8-3.582-8-8c0-8.822-7.178-16-16-16c-4.418,0-8-3.582-8-8s3.582-8,8-8
			c17.645,0,32,14.355,32,32C411,169.918,407.418,173.5,403,173.5z"/>
	</g>
</g>
<g>
</g>
<g>
</g>
<g>
</g>
<g>
</g>
<g>
</g>
<g>
</g>
<g>
</g>
<g>
</g>
<g>
</g>
<g>
</g>
<g>
</g>
<g>
</g>
<g>
</g>
<g>
</g>
<g>
</g>
</svg>
