<?xml version="1.0" encoding="iso-8859-1"?>
<!-- Generator: Adobe Illustrator 19.0.0, SVG Export Plug-In . SVG Version: 6.00 Build 0)  -->
<svg version="1.1" id="Capa_1" xmlns="http://www.w3.org/2000/svg" xmlns:xlink="http://www.w3.org/1999/xlink" x="0px" y="0px"
	 viewBox="0 0 508.326 508.326" style="enable-background:new 0 0 508.326 508.326;" xml:space="preserve">
<g>
	<path style="fill:#FD8E61;" d="M505.788,286.115l-99.129-99.792c7.532-3.155,14.41-7.747,20.311-13.608
		c25.036-24.871,25.172-65.474,0.302-90.51c-12.048-12.128-28.097-18.839-45.192-18.896c-0.074,0-0.145,0-0.219,0
		c-17.013,0-33.022,6.599-45.098,18.594c-5.9,5.861-10.538,12.708-13.744,20.22L223.89,2.331c-3.071-3.092-8.222-3.111-11.313-0.038
		l-77.09,76.577c-3.155-7.532-7.747-14.409-13.608-20.311c-12.048-12.129-28.097-18.84-45.192-18.896c-0.074,0-0.145,0-0.219,0
		c-17.012,0-33.022,6.6-45.097,18.595C19.241,70.306,12.53,86.354,12.474,103.449c-0.057,17.096,6.546,33.189,18.594,45.317
		c5.862,5.901,12.708,10.538,20.218,13.744l-48.71,48.387c-3.134,3.114-3.151,8.179-0.038,11.313l108.569,109.296
		c4.475,4.504,12.416,2.026,13.547-4.21c1.758-9.69,6.386-18.486,13.383-25.438c18.778-18.652,49.229-18.552,67.882,0.227
		c18.652,18.777,18.551,49.229-0.227,67.882c-6.997,6.95-15.823,11.52-25.526,13.213c-6.241,1.09-8.776,9.014-4.3,13.519
		l108.569,109.296c3.071,3.093,8.222,3.11,11.313,0.038l48.71-48.388c3.156,7.533,7.748,14.41,13.609,20.311
		c12.048,12.129,28.097,18.84,45.192,18.896c0.074,0,0.146,0,0.22,0c17.013,0,33.021-6.599,45.097-18.594
		c25.037-24.871,25.172-65.474,0.302-90.51c-5.861-5.901-12.707-10.538-20.219-13.744l77.089-76.576
		C508.885,294.314,508.901,289.25,505.788,286.115z"/>
	<g>
		<path style="fill:#FD7239;" d="M51.167,162.456l18.349-18.227c3.636-3.612,3.07-9.724-1.259-12.466
			c-5.2-3.294-9.947-7.361-14.104-12.13c-9.329-10.702-14.844-24.316-15.588-38.494c-0.631-12.018,2.021-23.628,7.532-33.832
			c-6.267,3.389-12.01,7.848-16.983,13.306c-10.969,12.039-16.92,27.943-16.629,44.227c0.296,16.576,6.864,32.127,18.584,43.925
			C36.898,154.636,43.703,159.252,51.167,162.456z"/>
		<path style="fill:#FD7239;" d="M28.538,196.211c-2.789-2.808-3.058-7.159-0.834-10.275L2.576,210.897
			c-3.134,3.114-3.151,8.179-0.038,11.313l108.569,109.296c4.475,4.504,12.416,2.026,13.547-4.21
			c1.565-8.627,5.41-16.542,11.171-23.08L28.538,196.211z"/>
		<path style="fill:#FD7239;" d="M429.481,470.852c-0.074,0-0.146,0-0.22,0c-17.096-0.057-33.145-6.768-45.192-18.896
			c-3.419-3.442-6.406-7.216-8.928-11.259c-2.709-4.343-8.81-4.949-12.442-1.342l-40.949,40.678
			c-3.092,3.072-8.242,3.055-11.313-0.038L203.322,372.163c-6.576,5.717-14.516,9.509-23.154,11.017
			c-6.241,1.09-8.776,9.014-4.3,13.519l108.569,109.296c3.071,3.093,8.222,3.11,11.313,0.038l48.71-48.388
			c3.156,7.533,7.748,14.41,13.609,20.311c12.048,12.129,28.097,18.84,45.192,18.896c0.074,0,0.146,0,0.22,0
			c17.013,0,33.021-6.599,45.097-18.594c4.574-4.544,8.307-9.616,11.219-15.02C450.585,468.209,440.236,470.852,429.481,470.852z"/>
	</g>
</g>
<path style="fill:#FFFFFF;" d="M315.612,235.857c4.143,0,7.5-3.357,7.5-7.5v-8c0-17.369-14.131-31.5-31.5-31.5h-0.5v-16.5
	c0-4.143-3.357-7.5-7.5-7.5c-4.142,0-7.5,3.357-7.5,7.5v16.674c-17.938,1.764-32,16.932-32,35.326c0,19.575,15.925,35.5,35.5,35.5h8
	c11.304,0,20.5,9.196,20.5,20.5s-9.196,20.5-20.5,20.5h-12c-9.098,0-16.5-7.402-16.5-16.5c0-4.143-3.358-7.5-7.5-7.5
	s-7.5,3.357-7.5,7.5c0,17.369,14.131,31.5,31.5,31.5h0.5v16.5c0,4.143,3.358,7.5,7.5,7.5c4.143,0,7.5-3.357,7.5-7.5v-16.674
	c17.938-1.764,32-16.932,32-35.326c0-19.575-15.925-35.5-35.5-35.5h-8c-11.304,0-20.5-9.196-20.5-20.5s9.196-20.5,20.5-20.5h12
	c9.098,0,16.5,7.402,16.5,16.5v8C308.112,232.5,311.47,235.857,315.612,235.857z"/>
<g>
</g>
<g>
</g>
<g>
</g>
<g>
</g>
<g>
</g>
<g>
</g>
<g>
</g>
<g>
</g>
<g>
</g>
<g>
</g>
<g>
</g>
<g>
</g>
<g>
</g>
<g>
</g>
<g>
</g>
</svg>
