<?xml version="1.0" encoding="iso-8859-1"?>
<!-- Generator: Adobe Illustrator 19.0.0, SVG Export Plug-In . SVG Version: 6.00 Build 0)  -->
<svg version="1.1" id="Capa_1" xmlns="http://www.w3.org/2000/svg" xmlns:xlink="http://www.w3.org/1999/xlink" x="0px" y="0px"
	 viewBox="0 0 512 512" style="enable-background:new 0 0 512 512;" xml:space="preserve">
<g>
	<g>
		<path style="fill:#6B7B8B;" d="M446.701,187.63c-2.413-3.7-7.37-4.744-11.071-2.331l-119.642,78.028l65.669-65.669
			c3.124-3.125,3.124-8.189,0-11.314c-3.125-3.123-8.189-3.123-11.314,0l-92.44,92.441l33.525-83.813
			c1.641-4.102-0.354-8.758-4.457-10.398c-4.102-1.641-8.759,0.355-10.398,4.457L256,290.459l-40.572-101.43
			c-1.64-4.103-6.295-6.099-10.398-4.457c-4.103,1.641-6.098,6.297-4.457,10.398l33.525,83.813l-92.44-92.441
			c-3.125-3.123-8.189-3.123-11.314,0c-3.124,3.125-3.124,8.189,0,11.314l65.669,65.669L76.37,185.299
			c-3.702-2.413-8.658-1.371-11.071,2.331c-2.413,3.701-1.37,8.657,2.331,11.071l183.947,119.965c2.605,1.762,6.242,1.762,8.847,0
			L444.37,198.701C448.071,196.287,449.114,191.331,446.701,187.63z"/>
		<g>
			<path style="fill:#FFE3D7;" d="M256,0C150.131,0,64,86.131,64,192c0,3.443,2.203,6.501,5.47,7.59
				c3.268,1.089,6.864-0.035,8.931-2.79c0.982-1.31,10.049-12.8,25.6-12.8s24.617,11.49,25.6,12.8
				c1.434,1.911,3.646,3.082,6.032,3.191c2.383,0.106,4.697-0.852,6.3-2.624c3.293-3.638,12.487-12.227,26.722-13.394
				c18.688-1.549,31.146,10.924,33.454,13.438c2.782,3.027,7.406,3.453,10.692,0.989c7.171-5.378,22.318-14.4,43.2-14.4
				s36.029,9.022,43.2,14.4c3.286,2.464,7.911,2.038,10.692-0.989c2.308-2.513,14.775-14.982,33.454-13.438
				c14.23,1.166,23.429,9.756,26.723,13.396c1.603,1.77,3.886,2.734,6.3,2.622c2.386-0.109,4.598-1.28,6.031-3.191
				c0.982-1.31,10.049-12.8,25.6-12.8s24.617,11.49,25.6,12.8c1.54,2.054,3.931,3.201,6.401,3.201c0.844,0,1.697-0.135,2.529-0.411
				c3.267-1.089,5.47-4.146,5.47-7.59C448,86.131,361.869,0,256,0z"/>
			<path style="fill:#FFE3D7;" d="M256,0C150.131,0,64,86.131,64,192c0,3.443,2.203,6.501,5.47,7.59
				c3.268,1.089,6.864-0.035,8.931-2.79c0.982-1.31,10.049-12.8,25.6-12.8s24.617,11.49,25.6,12.8
				c1.434,1.911,3.646,3.082,6.032,3.191c2.383,0.106,4.697-0.852,6.3-2.624c3.293-3.638,12.487-12.227,26.722-13.394
				c18.688-1.549,31.146,10.924,33.454,13.438c2.782,3.027,7.406,3.453,10.692,0.989c7.171-5.378,22.318-14.4,43.2-14.4
				s36.029,9.022,43.2,14.4c3.286,2.464,7.911,2.038,10.692-0.989c2.308-2.513,14.775-14.982,33.454-13.438
				c14.23,1.166,23.429,9.756,26.723,13.396c1.603,1.77,3.886,2.734,6.3,2.622c2.386-0.109,4.598-1.28,6.031-3.191
				c0.982-1.31,10.049-12.8,25.6-12.8s24.617,11.49,25.6,12.8c1.54,2.054,3.931,3.201,6.401,3.201c0.844,0,1.697-0.135,2.529-0.411
				c3.267-1.089,5.47-4.146,5.47-7.59C448,86.131,361.869,0,256,0z"/>
			<g>
				<path style="fill:#FEC7B0;" d="M268,0.386C264.03,0.14,260.031,0,256,0C150.131,0,64,86.131,64,192
					c0,3.443,2.203,6.501,5.47,7.59c3.268,1.089,6.864-0.035,8.931-2.79c0.573-0.763,3.896-4.984,9.645-8.373
					C89.885,88.215,168.877,6.53,268,0.386z"/>
			</g>
			<path style="fill:#FD8E61;" d="M347.554,57.522C323.362,20.429,290.848,0,256,0s-67.362,20.429-91.554,57.521
				C140.943,93.56,128,141.318,128,192c0,3.309,2.036,6.275,5.123,7.465c0.937,0.36,1.91,0.535,2.875,0.535
				c2.217,0,4.386-0.923,5.933-2.631c3.294-3.64,12.492-12.229,26.724-13.396c19.077-1.577,32.039,11.896,33.452,13.436
				c2.229,2.431,5.723,3.241,8.796,2.046c3.073-1.197,5.098-4.157,5.098-7.455c0-48.486,4.9-93.976,13.8-128.089
				C239.666,26.091,250.911,0,256,0s16.334,26.091,26.2,63.912C291.1,98.024,296,143.514,296,192c0,3.298,2.023,6.258,5.097,7.454
				c3.075,1.199,6.566,0.387,8.796-2.043c2.308-2.513,14.753-14.985,33.454-13.438c14.23,1.167,23.429,9.756,26.723,13.396
				c1.547,1.709,3.715,2.631,5.933,2.631c0.965,0,1.938-0.175,2.875-0.535c3.087-1.189,5.123-4.156,5.123-7.465
				C384,141.318,371.057,93.56,347.554,57.522z"/>
		</g>
	</g>
	<g>
		<path style="fill:#FDE6A6;" d="M256,324c-51.832,0-94,42.168-94,94s42.168,94,94,94s94-42.168,94-94S307.832,324,256,324z"/>
		<path style="fill:#FCD56A;" d="M256,348c-38.598,0-70,31.402-70,70s31.402,70,70,70s70-31.402,70-70S294.598,348,256,348z"/>
		<path style="fill:#FFFFFF;" d="M276.8,410.4c4.418,0,8-3.582,8-8v-5.2c0-12.066-9.103-22.039-20.8-23.429V366c0-4.418-3.582-8-8-8
			s-8,3.582-8,8v8.162c-11.865,2.496-20.8,13.042-20.8,25.638c0,14.447,11.753,26.2,26.2,26.2h5.199c5.624,0,10.2,4.576,10.2,10.2
			s-4.576,10.2-10.2,10.2h-7.8c-4.19,0-7.6-3.409-7.6-7.601c0-4.418-3.582-8-8-8s-8,3.582-8,8c0,12.066,9.103,22.039,20.8,23.429
			V470c0,4.418,3.582,8,8,8s8-3.582,8-8v-8.162c11.865-2.496,20.8-13.042,20.8-25.638c0-14.447-11.753-26.2-26.2-26.2H253.4
			c-5.624,0-10.2-4.576-10.2-10.2s4.576-10.2,10.2-10.2h7.8c4.19,0,7.6,3.409,7.6,7.601v5.2
			C268.8,406.818,272.382,410.4,276.8,410.4z"/>
	</g>
</g>
<g>
</g>
<g>
</g>
<g>
</g>
<g>
</g>
<g>
</g>
<g>
</g>
<g>
</g>
<g>
</g>
<g>
</g>
<g>
</g>
<g>
</g>
<g>
</g>
<g>
</g>
<g>
</g>
<g>
</g>
</svg>
